<?xml version="1.0" encoding="utf-8" standalone="no"?>
<!DOCTYPE svg PUBLIC "-//W3C//DTD SVG 1.1//EN"
  "http://www.w3.org/Graphics/SVG/1.1/DTD/svg11.dtd">
<!-- Created with matplotlib (http://matplotlib.org/) -->
<svg height="345pt" version="1.1" viewBox="0 0 460 345" width="460pt" xmlns="http://www.w3.org/2000/svg" xmlns:xlink="http://www.w3.org/1999/xlink">
 <defs>
  <style type="text/css">
*{stroke-linecap:butt;stroke-linejoin:round;}
  </style>
 </defs>
 <g id="figure_1">
  <g id="patch_1">
   <path d="M 0 345.6 
L 460.8 345.6 
L 460.8 0 
L 0 0 
z
" style="fill:#ffffff;"/>
  </g>
  <g id="axes_1">
   <g id="patch_2">
    <path d="M 57.6 307.584 
L 414.72 307.584 
L 414.72 41.472 
L 57.6 41.472 
z
" style="fill:#ffffff;"/>
   </g>
   <g id="matplotlib.axis_1">
    <g id="xtick_1">
     <g id="line2d_1">
      <path clip-path="url(#pd3e7ea098a)" d="M 73.832727 307.584 
L 73.832727 41.472 
" style="fill:none;stroke:#b0b0b0;stroke-linecap:square;stroke-width:0.8;"/>
     </g>
     <g id="line2d_2">
      <defs>
       <path d="M 0 0 
L 0 3.5 
" id="mda16707bd6" style="stroke:#000000;stroke-width:0.8;"/>
      </defs>
      <g>
       <use style="stroke:#000000;stroke-width:0.8;" x="73.832727" xlink:href="#mda16707bd6" y="307.584"/>
      </g>
     </g>
     <g id="text_1">
      <!-- 0 -->
      <defs>
       <path d="M 31.78125 66.40625 
Q 24.171875 66.40625 20.328125 58.90625 
Q 16.5 51.421875 16.5 36.375 
Q 16.5 21.390625 20.328125 13.890625 
Q 24.171875 6.390625 31.78125 6.390625 
Q 39.453125 6.390625 43.28125 13.890625 
Q 47.125 21.390625 47.125 36.375 
Q 47.125 51.421875 43.28125 58.90625 
Q 39.453125 66.40625 31.78125 66.40625 
M 31.78125 74.21875 
Q 44.046875 74.21875 50.515625 64.515625 
Q 56.984375 54.828125 56.984375 36.375 
Q 56.984375 17.96875 50.515625 8.265625 
Q 44.046875 -1.421875 31.78125 -1.421875 
Q 19.53125 -1.421875 13.0625 8.265625 
Q 6.59375 17.96875 6.59375 36.375 
Q 6.59375 54.828125 13.0625 64.515625 
Q 19.53125 74.21875 31.78125 74.21875 
" id="DejaVuSans-30"/>
      </defs>
      <g transform="translate(70.651477 322.182437)scale(0.1 -0.1)">
       <use xlink:href="#DejaVuSans-30"/>
      </g>
     </g>
    </g>
    <g id="xtick_2">
     <g id="line2d_3">
      <path clip-path="url(#pd3e7ea098a)" d="M 114.618474 307.584 
L 114.618474 41.472 
" style="fill:none;stroke:#b0b0b0;stroke-linecap:square;stroke-width:0.8;"/>
     </g>
     <g id="line2d_4">
      <g>
       <use style="stroke:#000000;stroke-width:0.8;" x="114.618474" xlink:href="#mda16707bd6" y="307.584"/>
      </g>
     </g>
     <g id="text_2">
      <!-- 25 -->
      <defs>
       <path d="M 19.1875 8.296875 
L 53.609375 8.296875 
L 53.609375 0 
L 7.328125 0 
L 7.328125 8.296875 
Q 12.9375 14.109375 22.625 23.890625 
Q 32.328125 33.6875 34.8125 36.53125 
Q 39.546875 41.84375 41.421875 45.53125 
Q 43.3125 49.21875 43.3125 52.78125 
Q 43.3125 58.59375 39.234375 62.25 
Q 35.15625 65.921875 28.609375 65.921875 
Q 23.96875 65.921875 18.8125 64.3125 
Q 13.671875 62.703125 7.8125 59.421875 
L 7.8125 69.390625 
Q 13.765625 71.78125 18.9375 73 
Q 24.125 74.21875 28.421875 74.21875 
Q 39.75 74.21875 46.484375 68.546875 
Q 53.21875 62.890625 53.21875 53.421875 
Q 53.21875 48.921875 51.53125 44.890625 
Q 49.859375 40.875 45.40625 35.40625 
Q 44.1875 33.984375 37.640625 27.21875 
Q 31.109375 20.453125 19.1875 8.296875 
" id="DejaVuSans-32"/>
       <path d="M 10.796875 72.90625 
L 49.515625 72.90625 
L 49.515625 64.59375 
L 19.828125 64.59375 
L 19.828125 46.734375 
Q 21.96875 47.46875 24.109375 47.828125 
Q 26.265625 48.1875 28.421875 48.1875 
Q 40.625 48.1875 47.75 41.5 
Q 54.890625 34.8125 54.890625 23.390625 
Q 54.890625 11.625 47.5625 5.09375 
Q 40.234375 -1.421875 26.90625 -1.421875 
Q 22.3125 -1.421875 17.546875 -0.640625 
Q 12.796875 0.140625 7.71875 1.703125 
L 7.71875 11.625 
Q 12.109375 9.234375 16.796875 8.0625 
Q 21.484375 6.890625 26.703125 6.890625 
Q 35.15625 6.890625 40.078125 11.328125 
Q 45.015625 15.765625 45.015625 23.390625 
Q 45.015625 31 40.078125 35.4375 
Q 35.15625 39.890625 26.703125 39.890625 
Q 22.75 39.890625 18.8125 39.015625 
Q 14.890625 38.140625 10.796875 36.28125 
z
" id="DejaVuSans-35"/>
      </defs>
      <g transform="translate(108.255974 322.182437)scale(0.1 -0.1)">
       <use xlink:href="#DejaVuSans-32"/>
       <use x="63.623047" xlink:href="#DejaVuSans-35"/>
      </g>
     </g>
    </g>
    <g id="xtick_3">
     <g id="line2d_5">
      <path clip-path="url(#pd3e7ea098a)" d="M 155.404221 307.584 
L 155.404221 41.472 
" style="fill:none;stroke:#b0b0b0;stroke-linecap:square;stroke-width:0.8;"/>
     </g>
     <g id="line2d_6">
      <g>
       <use style="stroke:#000000;stroke-width:0.8;" x="155.404221" xlink:href="#mda16707bd6" y="307.584"/>
      </g>
     </g>
     <g id="text_3">
      <!-- 50 -->
      <g transform="translate(149.041721 322.182437)scale(0.1 -0.1)">
       <use xlink:href="#DejaVuSans-35"/>
       <use x="63.623047" xlink:href="#DejaVuSans-30"/>
      </g>
     </g>
    </g>
    <g id="xtick_4">
     <g id="line2d_7">
      <path clip-path="url(#pd3e7ea098a)" d="M 196.189968 307.584 
L 196.189968 41.472 
" style="fill:none;stroke:#b0b0b0;stroke-linecap:square;stroke-width:0.8;"/>
     </g>
     <g id="line2d_8">
      <g>
       <use style="stroke:#000000;stroke-width:0.8;" x="196.189968" xlink:href="#mda16707bd6" y="307.584"/>
      </g>
     </g>
     <g id="text_4">
      <!-- 75 -->
      <defs>
       <path d="M 8.203125 72.90625 
L 55.078125 72.90625 
L 55.078125 68.703125 
L 28.609375 0 
L 18.3125 0 
L 43.21875 64.59375 
L 8.203125 64.59375 
z
" id="DejaVuSans-37"/>
      </defs>
      <g transform="translate(189.827468 322.182437)scale(0.1 -0.1)">
       <use xlink:href="#DejaVuSans-37"/>
       <use x="63.623047" xlink:href="#DejaVuSans-35"/>
      </g>
     </g>
    </g>
    <g id="xtick_5">
     <g id="line2d_9">
      <path clip-path="url(#pd3e7ea098a)" d="M 236.975715 307.584 
L 236.975715 41.472 
" style="fill:none;stroke:#b0b0b0;stroke-linecap:square;stroke-width:0.8;"/>
     </g>
     <g id="line2d_10">
      <g>
       <use style="stroke:#000000;stroke-width:0.8;" x="236.975715" xlink:href="#mda16707bd6" y="307.584"/>
      </g>
     </g>
     <g id="text_5">
      <!-- 100 -->
      <defs>
       <path d="M 12.40625 8.296875 
L 28.515625 8.296875 
L 28.515625 63.921875 
L 10.984375 60.40625 
L 10.984375 69.390625 
L 28.421875 72.90625 
L 38.28125 72.90625 
L 38.28125 8.296875 
L 54.390625 8.296875 
L 54.390625 0 
L 12.40625 0 
z
" id="DejaVuSans-31"/>
      </defs>
      <g transform="translate(227.431965 322.182437)scale(0.1 -0.1)">
       <use xlink:href="#DejaVuSans-31"/>
       <use x="63.623047" xlink:href="#DejaVuSans-30"/>
       <use x="127.246094" xlink:href="#DejaVuSans-30"/>
      </g>
     </g>
    </g>
    <g id="xtick_6">
     <g id="line2d_11">
      <path clip-path="url(#pd3e7ea098a)" d="M 277.761462 307.584 
L 277.761462 41.472 
" style="fill:none;stroke:#b0b0b0;stroke-linecap:square;stroke-width:0.8;"/>
     </g>
     <g id="line2d_12">
      <g>
       <use style="stroke:#000000;stroke-width:0.8;" x="277.761462" xlink:href="#mda16707bd6" y="307.584"/>
      </g>
     </g>
     <g id="text_6">
      <!-- 125 -->
      <g transform="translate(268.217712 322.182437)scale(0.1 -0.1)">
       <use xlink:href="#DejaVuSans-31"/>
       <use x="63.623047" xlink:href="#DejaVuSans-32"/>
       <use x="127.246094" xlink:href="#DejaVuSans-35"/>
      </g>
     </g>
    </g>
    <g id="xtick_7">
     <g id="line2d_13">
      <path clip-path="url(#pd3e7ea098a)" d="M 318.547209 307.584 
L 318.547209 41.472 
" style="fill:none;stroke:#b0b0b0;stroke-linecap:square;stroke-width:0.8;"/>
     </g>
     <g id="line2d_14">
      <g>
       <use style="stroke:#000000;stroke-width:0.8;" x="318.547209" xlink:href="#mda16707bd6" y="307.584"/>
      </g>
     </g>
     <g id="text_7">
      <!-- 150 -->
      <g transform="translate(309.003459 322.182437)scale(0.1 -0.1)">
       <use xlink:href="#DejaVuSans-31"/>
       <use x="63.623047" xlink:href="#DejaVuSans-35"/>
       <use x="127.246094" xlink:href="#DejaVuSans-30"/>
      </g>
     </g>
    </g>
    <g id="xtick_8">
     <g id="line2d_15">
      <path clip-path="url(#pd3e7ea098a)" d="M 359.332956 307.584 
L 359.332956 41.472 
" style="fill:none;stroke:#b0b0b0;stroke-linecap:square;stroke-width:0.8;"/>
     </g>
     <g id="line2d_16">
      <g>
       <use style="stroke:#000000;stroke-width:0.8;" x="359.332956" xlink:href="#mda16707bd6" y="307.584"/>
      </g>
     </g>
     <g id="text_8">
      <!-- 175 -->
      <g transform="translate(349.789206 322.182437)scale(0.1 -0.1)">
       <use xlink:href="#DejaVuSans-31"/>
       <use x="63.623047" xlink:href="#DejaVuSans-37"/>
       <use x="127.246094" xlink:href="#DejaVuSans-35"/>
      </g>
     </g>
    </g>
    <g id="xtick_9">
     <g id="line2d_17">
      <path clip-path="url(#pd3e7ea098a)" d="M 400.118703 307.584 
L 400.118703 41.472 
" style="fill:none;stroke:#b0b0b0;stroke-linecap:square;stroke-width:0.8;"/>
     </g>
     <g id="line2d_18">
      <g>
       <use style="stroke:#000000;stroke-width:0.8;" x="400.118703" xlink:href="#mda16707bd6" y="307.584"/>
      </g>
     </g>
     <g id="text_9">
      <!-- 200 -->
      <g transform="translate(390.574953 322.182437)scale(0.1 -0.1)">
       <use xlink:href="#DejaVuSans-32"/>
       <use x="63.623047" xlink:href="#DejaVuSans-30"/>
       <use x="127.246094" xlink:href="#DejaVuSans-30"/>
      </g>
     </g>
    </g>
    <g id="text_10">
     <!-- Generations -->
     <defs>
      <path d="M 59.515625 10.40625 
L 59.515625 29.984375 
L 43.40625 29.984375 
L 43.40625 38.09375 
L 69.28125 38.09375 
L 69.28125 6.78125 
Q 63.578125 2.734375 56.6875 0.65625 
Q 49.8125 -1.421875 42 -1.421875 
Q 24.90625 -1.421875 15.25 8.5625 
Q 5.609375 18.5625 5.609375 36.375 
Q 5.609375 54.25 15.25 64.234375 
Q 24.90625 74.21875 42 74.21875 
Q 49.125 74.21875 55.546875 72.453125 
Q 61.96875 70.703125 67.390625 67.28125 
L 67.390625 56.78125 
Q 61.921875 61.421875 55.765625 63.765625 
Q 49.609375 66.109375 42.828125 66.109375 
Q 29.4375 66.109375 22.71875 58.640625 
Q 16.015625 51.171875 16.015625 36.375 
Q 16.015625 21.625 22.71875 14.15625 
Q 29.4375 6.6875 42.828125 6.6875 
Q 48.046875 6.6875 52.140625 7.59375 
Q 56.25 8.5 59.515625 10.40625 
" id="DejaVuSans-47"/>
      <path d="M 56.203125 29.59375 
L 56.203125 25.203125 
L 14.890625 25.203125 
Q 15.484375 15.921875 20.484375 11.0625 
Q 25.484375 6.203125 34.421875 6.203125 
Q 39.59375 6.203125 44.453125 7.46875 
Q 49.3125 8.734375 54.109375 11.28125 
L 54.109375 2.78125 
Q 49.265625 0.734375 44.1875 -0.34375 
Q 39.109375 -1.421875 33.890625 -1.421875 
Q 20.796875 -1.421875 13.15625 6.1875 
Q 5.515625 13.8125 5.515625 26.8125 
Q 5.515625 40.234375 12.765625 48.109375 
Q 20.015625 56 32.328125 56 
Q 43.359375 56 49.78125 48.890625 
Q 56.203125 41.796875 56.203125 29.59375 
M 47.21875 32.234375 
Q 47.125 39.59375 43.09375 43.984375 
Q 39.0625 48.390625 32.421875 48.390625 
Q 24.90625 48.390625 20.390625 44.140625 
Q 15.875 39.890625 15.1875 32.171875 
z
" id="DejaVuSans-65"/>
      <path d="M 54.890625 33.015625 
L 54.890625 0 
L 45.90625 0 
L 45.90625 32.71875 
Q 45.90625 40.484375 42.875 44.328125 
Q 39.84375 48.1875 33.796875 48.1875 
Q 26.515625 48.1875 22.3125 43.546875 
Q 18.109375 38.921875 18.109375 30.90625 
L 18.109375 0 
L 9.078125 0 
L 9.078125 54.6875 
L 18.109375 54.6875 
L 18.109375 46.1875 
Q 21.34375 51.125 25.703125 53.5625 
Q 30.078125 56 35.796875 56 
Q 45.21875 56 50.046875 50.171875 
Q 54.890625 44.34375 54.890625 33.015625 
" id="DejaVuSans-6e"/>
      <path d="M 41.109375 46.296875 
Q 39.59375 47.171875 37.8125 47.578125 
Q 36.03125 48 33.890625 48 
Q 26.265625 48 22.1875 43.046875 
Q 18.109375 38.09375 18.109375 28.8125 
L 18.109375 0 
L 9.078125 0 
L 9.078125 54.6875 
L 18.109375 54.6875 
L 18.109375 46.1875 
Q 20.953125 51.171875 25.484375 53.578125 
Q 30.03125 56 36.53125 56 
Q 37.453125 56 38.578125 55.875 
Q 39.703125 55.765625 41.0625 55.515625 
z
" id="DejaVuSans-72"/>
      <path d="M 34.28125 27.484375 
Q 23.390625 27.484375 19.1875 25 
Q 14.984375 22.515625 14.984375 16.5 
Q 14.984375 11.71875 18.140625 8.90625 
Q 21.296875 6.109375 26.703125 6.109375 
Q 34.1875 6.109375 38.703125 11.40625 
Q 43.21875 16.703125 43.21875 25.484375 
L 43.21875 27.484375 
z
M 52.203125 31.203125 
L 52.203125 0 
L 43.21875 0 
L 43.21875 8.296875 
Q 40.140625 3.328125 35.546875 0.953125 
Q 30.953125 -1.421875 24.3125 -1.421875 
Q 15.921875 -1.421875 10.953125 3.296875 
Q 6 8.015625 6 15.921875 
Q 6 25.140625 12.171875 29.828125 
Q 18.359375 34.515625 30.609375 34.515625 
L 43.21875 34.515625 
L 43.21875 35.40625 
Q 43.21875 41.609375 39.140625 45 
Q 35.0625 48.390625 27.6875 48.390625 
Q 23 48.390625 18.546875 47.265625 
Q 14.109375 46.140625 10.015625 43.890625 
L 10.015625 52.203125 
Q 14.9375 54.109375 19.578125 55.046875 
Q 24.21875 56 28.609375 56 
Q 40.484375 56 46.34375 49.84375 
Q 52.203125 43.703125 52.203125 31.203125 
" id="DejaVuSans-61"/>
      <path d="M 18.3125 70.21875 
L 18.3125 54.6875 
L 36.8125 54.6875 
L 36.8125 47.703125 
L 18.3125 47.703125 
L 18.3125 18.015625 
Q 18.3125 11.328125 20.140625 9.421875 
Q 21.96875 7.515625 27.59375 7.515625 
L 36.8125 7.515625 
L 36.8125 0 
L 27.59375 0 
Q 17.1875 0 13.234375 3.875 
Q 9.28125 7.765625 9.28125 18.015625 
L 9.28125 47.703125 
L 2.6875 47.703125 
L 2.6875 54.6875 
L 9.28125 54.6875 
L 9.28125 70.21875 
z
" id="DejaVuSans-74"/>
      <path d="M 9.421875 54.6875 
L 18.40625 54.6875 
L 18.40625 0 
L 9.421875 0 
z
M 9.421875 75.984375 
L 18.40625 75.984375 
L 18.40625 64.59375 
L 9.421875 64.59375 
z
" id="DejaVuSans-69"/>
      <path d="M 30.609375 48.390625 
Q 23.390625 48.390625 19.1875 42.75 
Q 14.984375 37.109375 14.984375 27.296875 
Q 14.984375 17.484375 19.15625 11.84375 
Q 23.34375 6.203125 30.609375 6.203125 
Q 37.796875 6.203125 41.984375 11.859375 
Q 46.1875 17.53125 46.1875 27.296875 
Q 46.1875 37.015625 41.984375 42.703125 
Q 37.796875 48.390625 30.609375 48.390625 
M 30.609375 56 
Q 42.328125 56 49.015625 48.375 
Q 55.71875 40.765625 55.71875 27.296875 
Q 55.71875 13.875 49.015625 6.21875 
Q 42.328125 -1.421875 30.609375 -1.421875 
Q 18.84375 -1.421875 12.171875 6.21875 
Q 5.515625 13.875 5.515625 27.296875 
Q 5.515625 40.765625 12.171875 48.375 
Q 18.84375 56 30.609375 56 
" id="DejaVuSans-6f"/>
      <path d="M 44.28125 53.078125 
L 44.28125 44.578125 
Q 40.484375 46.53125 36.375 47.5 
Q 32.28125 48.484375 27.875 48.484375 
Q 21.1875 48.484375 17.84375 46.4375 
Q 14.5 44.390625 14.5 40.28125 
Q 14.5 37.15625 16.890625 35.375 
Q 19.28125 33.59375 26.515625 31.984375 
L 29.59375 31.296875 
Q 39.15625 29.25 43.1875 25.515625 
Q 47.21875 21.78125 47.21875 15.09375 
Q 47.21875 7.46875 41.1875 3.015625 
Q 35.15625 -1.421875 24.609375 -1.421875 
Q 20.21875 -1.421875 15.453125 -0.5625 
Q 10.6875 0.296875 5.421875 2 
L 5.421875 11.28125 
Q 10.40625 8.6875 15.234375 7.390625 
Q 20.0625 6.109375 24.8125 6.109375 
Q 31.15625 6.109375 34.5625 8.28125 
Q 37.984375 10.453125 37.984375 14.40625 
Q 37.984375 18.0625 35.515625 20.015625 
Q 33.0625 21.96875 24.703125 23.78125 
L 21.578125 24.515625 
Q 13.234375 26.265625 9.515625 29.90625 
Q 5.8125 33.546875 5.8125 39.890625 
Q 5.8125 47.609375 11.28125 51.796875 
Q 16.75 56 26.8125 56 
Q 31.78125 56 36.171875 55.265625 
Q 40.578125 54.546875 44.28125 53.078125 
" id="DejaVuSans-73"/>
     </defs>
     <g transform="translate(205.662344 335.860562)scale(0.1 -0.1)">
      <use xlink:href="#DejaVuSans-47"/>
      <use x="77.490234" xlink:href="#DejaVuSans-65"/>
      <use x="139.013672" xlink:href="#DejaVuSans-6e"/>
      <use x="202.392578" xlink:href="#DejaVuSans-65"/>
      <use x="263.916016" xlink:href="#DejaVuSans-72"/>
      <use x="305.029297" xlink:href="#DejaVuSans-61"/>
      <use x="366.308594" xlink:href="#DejaVuSans-74"/>
      <use x="405.517578" xlink:href="#DejaVuSans-69"/>
      <use x="433.300781" xlink:href="#DejaVuSans-6f"/>
      <use x="494.482422" xlink:href="#DejaVuSans-6e"/>
      <use x="557.861328" xlink:href="#DejaVuSans-73"/>
     </g>
    </g>
   </g>
   <g id="matplotlib.axis_2">
    <g id="ytick_1">
     <g id="line2d_19">
      <path clip-path="url(#pd3e7ea098a)" d="M 57.6 297.233396 
L 414.72 297.233396 
" style="fill:none;stroke:#b0b0b0;stroke-linecap:square;stroke-width:0.8;"/>
     </g>
     <g id="line2d_20">
      <defs>
       <path d="M 0 0 
L -3.5 0 
" id="mec0740bf41" style="stroke:#000000;stroke-width:0.8;"/>
      </defs>
      <g>
       <use style="stroke:#000000;stroke-width:0.8;" x="57.6" xlink:href="#mec0740bf41" y="297.233396"/>
      </g>
     </g>
     <g id="text_11">
      <!-- −6 -->
      <defs>
       <path d="M 10.59375 35.5 
L 73.1875 35.5 
L 73.1875 27.203125 
L 10.59375 27.203125 
z
" id="DejaVuSans-2212"/>
       <path d="M 33.015625 40.375 
Q 26.375 40.375 22.484375 35.828125 
Q 18.609375 31.296875 18.609375 23.390625 
Q 18.609375 15.53125 22.484375 10.953125 
Q 26.375 6.390625 33.015625 6.390625 
Q 39.65625 6.390625 43.53125 10.953125 
Q 47.40625 15.53125 47.40625 23.390625 
Q 47.40625 31.296875 43.53125 35.828125 
Q 39.65625 40.375 33.015625 40.375 
M 52.59375 71.296875 
L 52.59375 62.3125 
Q 48.875 64.0625 45.09375 64.984375 
Q 41.3125 65.921875 37.59375 65.921875 
Q 27.828125 65.921875 22.671875 59.328125 
Q 17.53125 52.734375 16.796875 39.40625 
Q 19.671875 43.65625 24.015625 45.921875 
Q 28.375 48.1875 33.59375 48.1875 
Q 44.578125 48.1875 50.953125 41.515625 
Q 57.328125 34.859375 57.328125 23.390625 
Q 57.328125 12.15625 50.6875 5.359375 
Q 44.046875 -1.421875 33.015625 -1.421875 
Q 20.359375 -1.421875 13.671875 8.265625 
Q 6.984375 17.96875 6.984375 36.375 
Q 6.984375 53.65625 15.1875 63.9375 
Q 23.390625 74.21875 37.203125 74.21875 
Q 40.921875 74.21875 44.703125 73.484375 
Q 48.484375 72.75 52.59375 71.296875 
" id="DejaVuSans-36"/>
      </defs>
      <g transform="translate(35.857813 301.032614)scale(0.1 -0.1)">
       <use xlink:href="#DejaVuSans-2212"/>
       <use x="83.789062" xlink:href="#DejaVuSans-36"/>
      </g>
     </g>
    </g>
    <g id="ytick_2">
     <g id="line2d_21">
      <path clip-path="url(#pd3e7ea098a)" d="M 57.6 267.335801 
L 414.72 267.335801 
" style="fill:none;stroke:#b0b0b0;stroke-linecap:square;stroke-width:0.8;"/>
     </g>
     <g id="line2d_22">
      <g>
       <use style="stroke:#000000;stroke-width:0.8;" x="57.6" xlink:href="#mec0740bf41" y="267.335801"/>
      </g>
     </g>
     <g id="text_12">
      <!-- −4 -->
      <defs>
       <path d="M 37.796875 64.3125 
L 12.890625 25.390625 
L 37.796875 25.390625 
z
M 35.203125 72.90625 
L 47.609375 72.90625 
L 47.609375 25.390625 
L 58.015625 25.390625 
L 58.015625 17.1875 
L 47.609375 17.1875 
L 47.609375 0 
L 37.796875 0 
L 37.796875 17.1875 
L 4.890625 17.1875 
L 4.890625 26.703125 
z
" id="DejaVuSans-34"/>
      </defs>
      <g transform="translate(35.857813 271.13502)scale(0.1 -0.1)">
       <use xlink:href="#DejaVuSans-2212"/>
       <use x="83.789062" xlink:href="#DejaVuSans-34"/>
      </g>
     </g>
    </g>
    <g id="ytick_3">
     <g id="line2d_23">
      <path clip-path="url(#pd3e7ea098a)" d="M 57.6 237.438206 
L 414.72 237.438206 
" style="fill:none;stroke:#b0b0b0;stroke-linecap:square;stroke-width:0.8;"/>
     </g>
     <g id="line2d_24">
      <g>
       <use style="stroke:#000000;stroke-width:0.8;" x="57.6" xlink:href="#mec0740bf41" y="237.438206"/>
      </g>
     </g>
     <g id="text_13">
      <!-- −2 -->
      <g transform="translate(35.857813 241.237425)scale(0.1 -0.1)">
       <use xlink:href="#DejaVuSans-2212"/>
       <use x="83.789062" xlink:href="#DejaVuSans-32"/>
      </g>
     </g>
    </g>
    <g id="ytick_4">
     <g id="line2d_25">
      <path clip-path="url(#pd3e7ea098a)" d="M 57.6 207.540612 
L 414.72 207.540612 
" style="fill:none;stroke:#b0b0b0;stroke-linecap:square;stroke-width:0.8;"/>
     </g>
     <g id="line2d_26">
      <g>
       <use style="stroke:#000000;stroke-width:0.8;" x="57.6" xlink:href="#mec0740bf41" y="207.540612"/>
      </g>
     </g>
     <g id="text_14">
      <!-- 0 -->
      <g transform="translate(44.2375 211.339831)scale(0.1 -0.1)">
       <use xlink:href="#DejaVuSans-30"/>
      </g>
     </g>
    </g>
    <g id="ytick_5">
     <g id="line2d_27">
      <path clip-path="url(#pd3e7ea098a)" d="M 57.6 177.643017 
L 414.72 177.643017 
" style="fill:none;stroke:#b0b0b0;stroke-linecap:square;stroke-width:0.8;"/>
     </g>
     <g id="line2d_28">
      <g>
       <use style="stroke:#000000;stroke-width:0.8;" x="57.6" xlink:href="#mec0740bf41" y="177.643017"/>
      </g>
     </g>
     <g id="text_15">
      <!-- 2 -->
      <g transform="translate(44.2375 181.442236)scale(0.1 -0.1)">
       <use xlink:href="#DejaVuSans-32"/>
      </g>
     </g>
    </g>
    <g id="ytick_6">
     <g id="line2d_29">
      <path clip-path="url(#pd3e7ea098a)" d="M 57.6 147.745423 
L 414.72 147.745423 
" style="fill:none;stroke:#b0b0b0;stroke-linecap:square;stroke-width:0.8;"/>
     </g>
     <g id="line2d_30">
      <g>
       <use style="stroke:#000000;stroke-width:0.8;" x="57.6" xlink:href="#mec0740bf41" y="147.745423"/>
      </g>
     </g>
     <g id="text_16">
      <!-- 4 -->
      <g transform="translate(44.2375 151.544642)scale(0.1 -0.1)">
       <use xlink:href="#DejaVuSans-34"/>
      </g>
     </g>
    </g>
    <g id="ytick_7">
     <g id="line2d_31">
      <path clip-path="url(#pd3e7ea098a)" d="M 57.6 117.847828 
L 414.72 117.847828 
" style="fill:none;stroke:#b0b0b0;stroke-linecap:square;stroke-width:0.8;"/>
     </g>
     <g id="line2d_32">
      <g>
       <use style="stroke:#000000;stroke-width:0.8;" x="57.6" xlink:href="#mec0740bf41" y="117.847828"/>
      </g>
     </g>
     <g id="text_17">
      <!-- 6 -->
      <g transform="translate(44.2375 121.647047)scale(0.1 -0.1)">
       <use xlink:href="#DejaVuSans-36"/>
      </g>
     </g>
    </g>
    <g id="ytick_8">
     <g id="line2d_33">
      <path clip-path="url(#pd3e7ea098a)" d="M 57.6 87.950234 
L 414.72 87.950234 
" style="fill:none;stroke:#b0b0b0;stroke-linecap:square;stroke-width:0.8;"/>
     </g>
     <g id="line2d_34">
      <g>
       <use style="stroke:#000000;stroke-width:0.8;" x="57.6" xlink:href="#mec0740bf41" y="87.950234"/>
      </g>
     </g>
     <g id="text_18">
      <!-- 8 -->
      <defs>
       <path d="M 31.78125 34.625 
Q 24.75 34.625 20.71875 30.859375 
Q 16.703125 27.09375 16.703125 20.515625 
Q 16.703125 13.921875 20.71875 10.15625 
Q 24.75 6.390625 31.78125 6.390625 
Q 38.8125 6.390625 42.859375 10.171875 
Q 46.921875 13.96875 46.921875 20.515625 
Q 46.921875 27.09375 42.890625 30.859375 
Q 38.875 34.625 31.78125 34.625 
M 21.921875 38.8125 
Q 15.578125 40.375 12.03125 44.71875 
Q 8.5 49.078125 8.5 55.328125 
Q 8.5 64.0625 14.71875 69.140625 
Q 20.953125 74.21875 31.78125 74.21875 
Q 42.671875 74.21875 48.875 69.140625 
Q 55.078125 64.0625 55.078125 55.328125 
Q 55.078125 49.078125 51.53125 44.71875 
Q 48 40.375 41.703125 38.8125 
Q 48.828125 37.15625 52.796875 32.3125 
Q 56.78125 27.484375 56.78125 20.515625 
Q 56.78125 9.90625 50.3125 4.234375 
Q 43.84375 -1.421875 31.78125 -1.421875 
Q 19.734375 -1.421875 13.25 4.234375 
Q 6.78125 9.90625 6.78125 20.515625 
Q 6.78125 27.484375 10.78125 32.3125 
Q 14.796875 37.15625 21.921875 38.8125 
M 18.3125 54.390625 
Q 18.3125 48.734375 21.84375 45.5625 
Q 25.390625 42.390625 31.78125 42.390625 
Q 38.140625 42.390625 41.71875 45.5625 
Q 45.3125 48.734375 45.3125 54.390625 
Q 45.3125 60.0625 41.71875 63.234375 
Q 38.140625 66.40625 31.78125 66.40625 
Q 25.390625 66.40625 21.84375 63.234375 
Q 18.3125 60.0625 18.3125 54.390625 
" id="DejaVuSans-38"/>
      </defs>
      <g transform="translate(44.2375 91.749452)scale(0.1 -0.1)">
       <use xlink:href="#DejaVuSans-38"/>
      </g>
     </g>
    </g>
    <g id="ytick_9">
     <g id="line2d_35">
      <path clip-path="url(#pd3e7ea098a)" d="M 57.6 58.052639 
L 414.72 58.052639 
" style="fill:none;stroke:#b0b0b0;stroke-linecap:square;stroke-width:0.8;"/>
     </g>
     <g id="line2d_36">
      <g>
       <use style="stroke:#000000;stroke-width:0.8;" x="57.6" xlink:href="#mec0740bf41" y="58.052639"/>
      </g>
     </g>
     <g id="text_19">
      <!-- 10 -->
      <g transform="translate(37.875 61.851858)scale(0.1 -0.1)">
       <use xlink:href="#DejaVuSans-31"/>
       <use x="63.623047" xlink:href="#DejaVuSans-30"/>
      </g>
     </g>
    </g>
    <g id="text_20">
     <!-- Fitness -->
     <defs>
      <path d="M 9.8125 72.90625 
L 51.703125 72.90625 
L 51.703125 64.59375 
L 19.671875 64.59375 
L 19.671875 43.109375 
L 48.578125 43.109375 
L 48.578125 34.8125 
L 19.671875 34.8125 
L 19.671875 0 
L 9.8125 0 
z
" id="DejaVuSans-46"/>
     </defs>
     <g transform="translate(29.778125 192.202219)rotate(-90)scale(0.1 -0.1)">
      <use xlink:href="#DejaVuSans-46"/>
      <use x="57.410156" xlink:href="#DejaVuSans-69"/>
      <use x="85.193359" xlink:href="#DejaVuSans-74"/>
      <use x="124.402344" xlink:href="#DejaVuSans-6e"/>
      <use x="187.78125" xlink:href="#DejaVuSans-65"/>
      <use x="249.304688" xlink:href="#DejaVuSans-73"/>
      <use x="301.404297" xlink:href="#DejaVuSans-73"/>
     </g>
    </g>
   </g>
   <g id="line2d_37">
    <path clip-path="url(#pd3e7ea098a)" d="M 73.832727 231.473636 
L 75.464157 175.550186 
L 77.095587 192.561917 
L 78.727017 171.812986 
L 80.358447 202.876587 
L 81.989877 152.289857 
L 83.621307 189.706697 
L 85.252736 147.16242 
L 86.884166 197.599662 
L 88.515596 176.566704 
L 90.147026 217.616101 
L 91.778456 190.513932 
L 93.409886 212.473715 
L 95.041316 136.907545 
L 96.672746 187.92779 
L 98.304175 155.399207 
L 99.935605 160.108078 
L 101.567035 136.563722 
L 103.198465 161.259136 
L 104.829895 180.318852 
L 106.461325 172.052167 
L 108.092755 187.583968 
L 109.724185 124.843865 
L 111.355614 196.418707 
L 112.987044 177.980098 
L 114.618474 206.721303 
L 116.249904 159.90964 
L 119.512764 217.048047 
L 121.144194 149.357548 
L 122.775624 182.257021 
L 124.407053 142.308164 
L 126.038483 164.720932 
L 127.669913 197.53078 
L 129.301343 169.72303 
L 130.932773 146.814936 
L 132.564203 257.619083 
L 134.195633 198.197614 
L 135.827063 173.718958 
L 137.458492 182.904408 
L 139.089922 146.587624 
L 140.721352 147.833357 
L 142.352782 178.624948 
L 143.984212 196.592816 
L 145.615642 218.37849 
L 147.247072 132.225054 
L 148.878502 152.503165 
L 150.509931 150.96399 
L 152.141361 173.741381 
L 153.772791 207.511301 
L 155.404221 177.154893 
L 157.035651 196.252745 
L 158.667081 119.998625 
L 160.298511 158.148565 
L 161.929941 208.166021 
L 163.56137 196.220012 
L 165.1928 201.531195 
L 166.82423 157.327602 
L 168.45566 200.260548 
L 170.08709 212.697947 
L 171.71852 244.714305 
L 173.34995 224.717355 
L 174.98138 141.384856 
L 176.61281 197.356744 
L 178.244239 212.070098 
L 179.875669 248.180823 
L 181.507099 160.510523 
L 183.138529 218.273848 
L 184.769959 208.826209 
L 186.401389 241.444484 
L 188.032819 225.977462 
L 189.664249 179.442975 
L 191.295678 160.242617 
L 192.927108 189.437618 
L 194.558538 181.111138 
L 196.189968 170.15367 
L 197.821398 182.516325 
L 199.452828 178.151276 
L 201.084258 175.520288 
L 202.715688 163.800431 
L 204.347117 154.083713 
L 205.978547 177.060014 
L 207.609977 166.491215 
L 209.241407 171.514011 
L 210.872837 182.904994 
L 212.504267 155.459002 
L 214.135697 149.987742 
L 215.767127 196.463553 
L 217.398556 171.827935 
L 219.029986 112.032746 
L 220.661416 238.350083 
L 222.292846 167.53763 
L 223.924276 138.850888 
L 225.555706 208.288052 
L 227.187136 173.816125 
L 228.818566 188.749974 
L 230.449995 207.794741 
L 232.081425 128.491372 
L 233.712855 158.239479 
L 235.344285 178.928614 
L 236.975715 137.176623 
L 238.607145 228.932341 
L 240.238575 195.536728 
L 241.870005 194.938776 
L 243.501434 145.29382 
L 245.132864 136.743108 
L 246.764294 143.574708 
L 248.395724 186.283422 
L 250.027154 199.288876 
L 251.658584 126.65267 
L 253.290014 188.540691 
L 254.921444 209.543751 
L 256.552873 228.752955 
L 258.184303 184.355027 
L 259.815733 150.929517 
L 261.447163 149.838254 
L 263.078593 173.591893 
L 264.710023 208.796311 
L 266.341453 156.131698 
L 267.972883 155.11518 
L 269.604312 151.392929 
L 271.235742 155.698183 
L 272.867172 170.826366 
L 274.498602 160.123027 
L 276.130032 173.935716 
L 277.761462 212.294329 
L 279.392892 174.219743 
L 281.024322 212.384022 
L 282.655751 141.736006 
L 284.287181 198.406897 
L 285.918611 247.827621 
L 287.550041 164.68241 
L 289.181471 163.277223 
L 290.812901 138.0885 
L 292.444331 152.618731 
L 294.075761 147.969655 
L 295.70719 167.896402 
L 297.33862 172.39599 
L 298.97005 167.119064 
L 300.60148 206.987506 
L 302.23291 145.159281 
L 303.86434 139.045223 
L 305.49577 156.131698 
L 307.1272 202.547714 
L 308.75863 187.957688 
L 310.390059 159.973539 
L 312.021489 156.894087 
L 313.652919 191.620143 
L 315.284349 176.835782 
L 316.915779 158.986918 
L 318.547209 164.233946 
L 320.178639 171.992372 
L 321.810069 148.791839 
L 323.441498 142.842217 
L 325.072928 154.816204 
L 326.704358 155.922415 
L 328.335788 183.218919 
L 329.967218 195.50683 
L 331.598648 199.647647 
L 333.230078 170.52739 
L 334.861508 164.637564 
L 338.124367 205.776654 
L 339.755797 173.322815 
L 341.387227 154.098662 
L 343.018657 189.392772 
L 344.650087 179.302334 
L 346.281517 175.221312 
L 347.912947 183.547792 
L 349.544376 189.347926 
L 351.175806 149.016071 
L 352.807236 139.403994 
L 354.438666 223.730159 
L 356.070096 200.544575 
L 357.701526 175.565135 
L 359.332956 270.101329 
L 360.964386 206.94266 
L 362.595815 205.238497 
L 364.227245 188.450998 
L 365.858675 184.115847 
L 367.490105 178.121379 
L 369.121535 167.29845 
L 370.752965 170.931007 
L 372.384395 158.852379 
L 374.015825 178.001789 
L 375.647254 187.120555 
L 377.278684 164.831898 
L 378.910114 163.949919 
L 380.541544 152.798116 
L 382.172974 159.569921 
L 383.804404 166.92473 
L 385.435834 210.126754 
L 387.067264 175.325954 
L 388.698693 183.607588 
L 390.330123 142.259214 
L 391.961553 161.393675 
L 393.592983 156.445623 
L 395.224413 166.954627 
L 396.855843 163.411762 
L 398.487273 174.01046 
L 398.487273 174.01046 
" style="fill:none;stroke:#0000ff;stroke-linecap:square;stroke-width:1.5;"/>
   </g>
   <g id="line2d_38">
    <path clip-path="url(#pd3e7ea098a)" d="M 73.832727 263.02321 
L 75.464157 199.572675 
L 77.095587 215.937056 
L 78.727017 198.945774 
L 80.358447 230.700857 
L 81.989877 175.92496 
L 83.621307 213.373532 
L 85.252736 173.609242 
L 86.884166 226.359396 
L 88.515596 200.167896 
L 90.147026 238.363847 
L 91.778456 216.235548 
L 93.409886 231.300893 
L 95.041316 167.327613 
L 96.672746 212.977871 
L 98.304175 181.950291 
L 99.935605 188.151404 
L 101.567035 165.100252 
L 104.829895 204.386922 
L 106.461325 195.438432 
L 108.092755 213.777763 
L 109.724185 149.914545 
L 111.355614 226.402372 
L 112.987044 204.186436 
L 114.618474 233.981489 
L 116.249904 184.428419 
L 117.881334 212.29299 
L 119.512764 243.576599 
L 121.144194 177.602613 
L 122.775624 210.82558 
L 124.407053 170.098803 
L 126.038483 190.094683 
L 127.669913 223.198535 
L 129.301343 194.553623 
L 130.932773 172.100846 
L 132.564203 281.256171 
L 134.195633 227.545567 
L 135.827063 202.564519 
L 137.458492 212.383943 
L 139.089922 176.851678 
L 140.721352 172.51714 
L 142.352782 204.754754 
L 143.984212 225.384264 
L 145.615642 241.738945 
L 147.247072 159.113988 
L 148.878502 180.571432 
L 150.509931 179.263435 
L 152.141361 202.446688 
L 153.772791 235.079876 
L 155.404221 207.391321 
L 157.035651 226.02394 
L 158.667081 143.571296 
L 160.298511 179.370011 
L 161.929941 229.282177 
L 163.56137 219.781658 
L 165.1928 225.408108 
L 166.82423 181.053227 
L 168.45566 225.483652 
L 170.08709 243.200546 
L 171.71852 264.627466 
L 173.34995 251.738541 
L 174.98138 168.530355 
L 176.61281 223.791376 
L 178.244239 236.940157 
L 179.875669 279.300972 
L 181.507099 185.707399 
L 183.138529 244.122199 
L 184.769959 230.638158 
L 186.401389 272.364206 
L 188.032819 254.681972 
L 189.664249 212.243516 
L 191.295678 191.848292 
L 192.927108 220.493107 
L 194.558538 209.070889 
L 196.189968 200.93712 
L 197.821398 207.950921 
L 199.452828 206.632733 
L 201.084258 203.249949 
L 202.715688 191.54092 
L 204.347117 184.404075 
L 205.978547 205.119305 
L 207.609977 195.190507 
L 209.241407 200.285688 
L 210.872837 210.030352 
L 212.504267 190.92719 
L 214.135697 179.008052 
L 215.767127 214.577949 
L 217.398556 191.871195 
L 219.029986 141.824124 
L 220.661416 267.378588 
L 222.292846 193.877326 
L 223.924276 161.994142 
L 225.555706 233.889804 
L 227.187136 199.263633 
L 228.818566 214.775916 
L 230.449995 235.991601 
L 232.081425 154.323638 
L 233.712855 185.763117 
L 235.344285 207.49609 
L 236.975715 160.061962 
L 238.607145 258.788008 
L 240.238575 223.172364 
L 241.870005 226.003876 
L 243.501434 171.966027 
L 245.132864 167.894422 
L 246.764294 166.554122 
L 248.395724 217.372666 
L 250.027154 225.71062 
L 251.658584 150.012666 
L 253.290014 217.391904 
L 256.552873 255.979837 
L 258.184303 216.954543 
L 259.815733 171.467559 
L 261.447163 176.82073 
L 263.078593 208.76419 
L 264.710023 233.352157 
L 266.341453 178.827936 
L 267.972883 187.269348 
L 269.604312 178.80498 
L 271.235742 185.003073 
L 272.867172 198.834381 
L 274.498602 188.105706 
L 276.130032 203.119183 
L 277.761462 238.134898 
L 279.392892 200.963091 
L 281.024322 239.078925 
L 282.655751 164.567553 
L 284.287181 226.479325 
L 285.918611 272.913667 
L 287.550041 192.135179 
L 289.181471 189.431762 
L 290.812901 167.456644 
L 292.444331 172.565849 
L 294.075761 174.501243 
L 295.70719 194.94173 
L 297.33862 198.683988 
L 298.97005 196.950377 
L 300.60148 238.957952 
L 302.23291 169.198141 
L 303.86434 163.39468 
L 305.49577 177.585847 
L 307.1272 231.306356 
L 308.75863 211.419205 
L 310.390059 188.939032 
L 312.021489 189.1951 
L 313.652919 219.33283 
L 315.284349 202.913975 
L 316.915779 190.446221 
L 318.547209 193.065526 
L 320.178639 198.508336 
L 321.810069 176.77086 
L 323.441498 165.899815 
L 325.072928 182.541774 
L 326.704358 186.20117 
L 328.335788 206.515654 
L 329.967218 222.814584 
L 331.598648 229.983453 
L 333.230078 196.414391 
L 334.861508 188.578986 
L 336.492937 206.231945 
L 338.124367 233.226228 
L 339.755797 200.271019 
L 341.387227 176.130902 
L 343.018657 216.077125 
L 344.650087 205.455164 
L 346.281517 209.183572 
L 347.912947 208.864387 
L 349.544376 215.159443 
L 351.175806 176.274271 
L 352.807236 164.150174 
L 354.438666 247.648987 
L 356.070096 222.372256 
L 357.701526 198.973868 
L 359.332956 295.488 
L 360.964386 232.237951 
L 362.595815 233.394207 
L 364.227245 219.877697 
L 365.858675 209.450248 
L 367.490105 204.141202 
L 369.121535 194.287699 
L 370.752965 196.638371 
L 372.384395 184.40827 
L 374.015825 207.756745 
L 375.647254 212.179056 
L 377.278684 192.207391 
L 378.910114 186.588559 
L 380.541544 175.070099 
L 382.172974 192.520642 
L 383.804404 192.374858 
L 385.435834 243.017916 
L 387.067264 205.065139 
L 388.698693 210.452851 
L 390.330123 172.22684 
L 391.961553 187.045484 
L 393.592983 189.04386 
L 395.224413 192.17837 
L 396.855843 187.386744 
L 398.487273 199.137787 
L 398.487273 199.137787 
" style="fill:none;stroke:#008000;stroke-dasharray:9.6,2.4,1.6,2.4;stroke-dashoffset:0;stroke-width:1.5;"/>
   </g>
   <g id="line2d_39">
    <path clip-path="url(#pd3e7ea098a)" d="M 73.832727 199.924062 
L 75.464157 151.527696 
L 77.095587 169.186778 
L 78.727017 144.680199 
L 80.358447 175.052317 
L 81.989877 128.654754 
L 83.621307 166.039861 
L 85.252736 120.715598 
L 86.884166 168.839928 
L 88.515596 152.965512 
L 90.147026 196.868355 
L 91.778456 164.792316 
L 93.409886 193.646537 
L 95.041316 106.487477 
L 96.672746 162.877709 
L 98.304175 128.848123 
L 99.935605 132.064752 
L 101.567035 108.027193 
L 103.198465 138.213811 
L 104.829895 156.250782 
L 106.461325 148.665903 
L 108.092755 161.390172 
L 109.724185 99.773186 
L 111.355614 166.435041 
L 112.987044 151.77376 
L 114.618474 179.461116 
L 116.249904 135.390861 
L 117.881334 165.595627 
L 119.512764 190.519495 
L 121.144194 121.112483 
L 122.775624 153.688462 
L 124.407053 114.517525 
L 126.038483 139.347181 
L 127.669913 171.863025 
L 129.301343 144.892436 
L 130.932773 121.529027 
L 132.564203 233.981994 
L 134.195633 168.84966 
L 135.827063 144.873397 
L 137.458492 153.424873 
L 139.089922 116.32357 
L 140.721352 123.149574 
L 142.352782 152.495143 
L 143.984212 167.801369 
L 145.615642 195.018035 
L 147.247072 105.33612 
L 148.878502 124.434898 
L 150.509931 122.664546 
L 152.141361 145.036074 
L 153.772791 179.942725 
L 155.404221 146.918466 
L 157.035651 166.48155 
L 158.667081 96.425954 
L 160.298511 136.92712 
L 161.929941 187.049864 
L 163.56137 172.658366 
L 165.1928 177.654283 
L 166.82423 133.601977 
L 168.45566 175.037443 
L 170.08709 182.195348 
L 171.71852 224.801144 
L 173.34995 197.696169 
L 174.98138 114.239357 
L 176.61281 170.922112 
L 178.244239 187.200038 
L 179.875669 217.060673 
L 181.507099 135.313648 
L 183.138529 192.425497 
L 184.769959 187.014259 
L 186.401389 210.524762 
L 188.032819 197.272952 
L 189.664249 146.642433 
L 191.295678 128.636943 
L 192.927108 158.38213 
L 194.558538 153.151388 
L 196.189968 139.37022 
L 197.821398 157.08173 
L 199.452828 149.66982 
L 201.084258 147.790628 
L 204.347117 123.763351 
L 205.978547 149.000724 
L 207.609977 137.791922 
L 209.241407 142.742333 
L 210.872837 155.779636 
L 212.504267 119.990814 
L 214.135697 120.967433 
L 215.767127 178.349157 
L 217.398556 151.784675 
L 219.029986 82.241368 
L 220.661416 209.321578 
L 222.292846 141.197934 
L 223.924276 115.707635 
L 225.555706 182.6863 
L 227.187136 148.368618 
L 228.818566 162.724032 
L 230.449995 179.597882 
L 232.081425 102.659106 
L 233.712855 130.71584 
L 235.344285 150.361138 
L 236.975715 114.291284 
L 238.607145 199.076673 
L 240.238575 167.901091 
L 241.870005 163.873675 
L 243.501434 118.621613 
L 245.132864 105.591794 
L 246.764294 120.595295 
L 248.395724 155.194179 
L 250.027154 172.867131 
L 251.658584 103.292674 
L 253.290014 159.689477 
L 254.921444 183.002398 
L 256.552873 201.526073 
L 258.184303 151.755512 
L 259.815733 130.391474 
L 261.447163 122.855779 
L 263.078593 138.419597 
L 264.710023 184.240464 
L 266.341453 133.43546 
L 267.972883 122.961012 
L 269.604312 123.980878 
L 271.235742 126.393293 
L 272.867172 142.818351 
L 274.498602 132.140348 
L 276.130032 144.752248 
L 277.761462 186.45376 
L 279.392892 147.476395 
L 281.024322 185.68912 
L 282.655751 118.90446 
L 285.918611 222.741574 
L 287.550041 137.229641 
L 289.181471 137.122684 
L 290.812901 108.720356 
L 292.444331 132.671612 
L 294.075761 121.438066 
L 295.70719 140.851073 
L 297.33862 146.107991 
L 298.97005 137.287751 
L 300.60148 175.017061 
L 302.23291 121.12042 
L 303.86434 114.695766 
L 305.49577 134.677549 
L 307.1272 173.789072 
L 308.75863 164.49617 
L 310.390059 131.008046 
L 312.021489 124.593074 
L 313.652919 163.907455 
L 315.284349 150.757589 
L 316.915779 127.527616 
L 318.547209 135.402366 
L 320.178639 145.476408 
L 321.810069 120.812817 
L 323.441498 119.784619 
L 325.072928 127.090634 
L 326.704358 125.64366 
L 328.335788 159.922183 
L 329.967218 168.199076 
L 331.598648 169.311841 
L 333.230078 144.640389 
L 334.861508 140.696142 
L 336.492937 163.674013 
L 338.124367 178.32708 
L 339.755797 146.374611 
L 341.387227 132.066422 
L 343.018657 162.708419 
L 344.650087 153.149504 
L 346.281517 141.259053 
L 347.912947 158.231198 
L 349.544376 163.536408 
L 351.175806 121.75787 
L 352.807236 114.657814 
L 354.438666 199.811332 
L 356.070096 178.716894 
L 357.701526 152.156402 
L 359.332956 244.714657 
L 360.964386 181.647369 
L 362.595815 177.082788 
L 364.227245 157.024299 
L 365.858675 158.781445 
L 367.490105 152.101555 
L 369.121535 140.3092 
L 370.752965 145.223644 
L 372.384395 133.296489 
L 374.015825 148.246832 
L 375.647254 162.062054 
L 377.278684 137.456405 
L 378.910114 141.31128 
L 380.541544 130.526134 
L 382.172974 126.619201 
L 383.804404 141.474601 
L 385.435834 177.235592 
L 387.067264 145.586769 
L 388.698693 156.762324 
L 390.330123 112.291588 
L 391.961553 135.741865 
L 393.592983 123.847386 
L 395.224413 141.730885 
L 396.855843 139.436781 
L 398.487273 148.883132 
L 398.487273 148.883132 
" style="fill:none;stroke:#008000;stroke-dasharray:9.6,2.4,1.6,2.4;stroke-dashoffset:0;stroke-width:1.5;"/>
   </g>
   <g id="line2d_40">
    <path clip-path="url(#pd3e7ea098a)" d="M 73.832727 155.219821 
L 75.464157 117.100388 
L 77.095587 142.513344 
L 78.727017 108.87855 
L 80.358447 142.513344 
L 81.989877 94.677193 
L 83.621307 120.837588 
L 85.252736 77.486076 
L 86.884166 138.776144 
L 88.515596 120.837588 
L 90.147026 167.178859 
L 91.778456 138.028705 
L 93.409886 167.926299 
L 95.041316 62.537278 
L 96.672746 124.574787 
L 98.304175 96.172072 
L 99.935605 102.899031 
L 101.567035 77.486076 
L 103.198465 100.656711 
L 104.829895 129.806866 
L 106.461325 90.939993 
L 108.092755 123.827347 
L 109.724185 70.759117 
L 111.355614 132.796626 
L 112.987044 108.87855 
L 114.618474 157.462141 
L 116.249904 105.141351 
L 117.881334 120.837588 
L 119.512764 150.735182 
L 121.144194 93.182313 
L 122.775624 118.595268 
L 124.407053 70.011677 
L 126.038483 91.687433 
L 127.669913 137.281265 
L 129.301343 121.585028 
L 130.932773 80.475835 
L 132.564203 199.318773 
L 134.195633 116.352949 
L 135.827063 92.434873 
L 137.458492 111.868309 
L 139.089922 78.233516 
L 140.721352 67.021918 
L 142.352782 138.028705 
L 143.984212 116.352949 
L 145.615642 149.987742 
L 147.247072 58.052639 
L 148.878502 88.697674 
L 150.509931 83.465595 
L 152.141361 102.151591 
L 153.772791 149.987742 
L 155.404221 100.656711 
L 157.035651 117.847828 
L 158.667081 58.052639 
L 160.298511 120.090148 
L 161.929941 164.93654 
L 163.56137 145.503103 
L 165.1928 144.755663 
L 166.82423 120.837588 
L 168.45566 149.240303 
L 170.08709 158.957021 
L 171.71852 189.602055 
L 173.34995 152.230062 
L 174.98138 70.011677 
L 178.244239 167.926299 
L 179.875669 178.390457 
L 181.507099 111.12087 
L 183.138529 155.967261 
L 184.769959 138.776144 
L 186.401389 176.895578 
L 188.032819 136.533825 
L 189.664249 119.342708 
L 191.295678 100.656711 
L 192.927108 121.585028 
L 194.558538 108.87855 
L 196.189968 102.899031 
L 197.821398 115.605509 
L 199.452828 111.868309 
L 201.084258 121.585028 
L 202.715688 97.666952 
L 204.347117 63.284718 
L 205.978547 121.585028 
L 207.609977 83.465595 
L 209.241407 112.615749 
L 210.872837 123.079907 
L 212.504267 67.021918 
L 214.135697 90.939993 
L 215.767127 156.714701 
L 217.398556 126.069667 
L 219.029986 53.568 
L 220.661416 185.117416 
L 222.292846 99.161832 
L 223.924276 89.445113 
L 225.555706 158.957021 
L 227.187136 122.332467 
L 228.818566 132.796626 
L 230.449995 141.018464 
L 232.081425 67.769357 
L 233.712855 70.759117 
L 235.344285 107.38367 
L 236.975715 82.718155 
L 238.607145 159.704461 
L 240.238575 134.291505 
L 241.870005 126.069667 
L 243.501434 89.445113 
L 245.132864 71.506557 
L 246.764294 100.656711 
L 248.395724 102.151591 
L 250.027154 128.311986 
L 251.658584 73.748876 
L 253.290014 120.837588 
L 254.921444 146.250543 
L 256.552873 166.431419 
L 258.184303 127.564547 
L 259.815733 107.38367 
L 261.447163 78.233516 
L 263.078593 102.151591 
L 264.710023 152.230062 
L 266.341453 108.87855 
L 267.972883 84.960474 
L 269.604312 84.213034 
L 271.235742 98.414392 
L 272.867172 115.605509 
L 274.498602 98.414392 
L 276.130032 114.858069 
L 277.761462 167.178859 
L 279.392892 105.88879 
L 281.024322 134.291505 
L 282.655751 80.475835 
L 284.287181 135.038945 
L 285.918611 195.581574 
L 287.550041 103.646471 
L 289.181471 96.919512 
L 290.812901 68.516797 
L 292.444331 113.363189 
L 294.075761 85.707914 
L 295.70719 98.414392 
L 297.33862 114.858069 
L 298.97005 81.970715 
L 300.60148 143.260784 
L 302.23291 87.950234 
L 303.86434 84.213034 
L 305.49577 111.868309 
L 307.1272 129.059426 
L 308.75863 132.796626 
L 310.390059 86.455354 
L 312.021489 95.424632 
L 313.652919 136.533825 
L 315.284349 111.868309 
L 316.915779 75.991196 
L 318.547209 115.605509 
L 320.178639 117.100388 
L 321.810069 87.202794 
L 323.441498 93.182313 
L 325.072928 97.666952 
L 326.704358 80.475835 
L 328.335788 123.079907 
L 329.967218 146.997983 
L 331.598648 124.574787 
L 333.230078 90.939993 
L 334.861508 108.13111 
L 336.492937 133.544065 
L 338.124367 147.745423 
L 339.755797 81.970715 
L 341.387227 96.172072 
L 343.018657 131.301746 
L 344.650087 124.574787 
L 346.281517 80.475835 
L 347.912947 126.069667 
L 349.544376 141.765904 
L 351.175806 81.223275 
L 352.807236 61.789839 
L 354.438666 176.895578 
L 356.070096 149.240303 
L 357.701526 115.605509 
L 359.332956 201.561093 
L 360.964386 147.745423 
L 362.595815 148.492863 
L 364.227245 119.342708 
L 365.858675 115.605509 
L 367.490105 100.656711 
L 369.121535 112.615749 
L 370.752965 103.646471 
L 372.384395 114.110629 
L 374.015825 96.172072 
L 375.647254 117.100388 
L 377.278684 108.87855 
L 378.910114 109.62599 
L 380.541544 107.38367 
L 382.172974 73.748876 
L 383.804404 106.63623 
L 385.435834 129.806866 
L 387.067264 115.605509 
L 388.698693 121.585028 
L 390.330123 71.506557 
L 391.961553 98.414392 
L 393.592983 99.909272 
L 395.224413 96.919512 
L 396.855843 106.63623 
L 398.487273 131.301746 
L 398.487273 131.301746 
" style="fill:none;stroke:#ff0000;stroke-linecap:square;stroke-width:1.5;"/>
   </g>
   <g id="patch_3">
    <path d="M 57.6 307.584 
L 57.6 41.472 
" style="fill:none;stroke:#000000;stroke-linecap:square;stroke-linejoin:miter;stroke-width:0.8;"/>
   </g>
   <g id="patch_4">
    <path d="M 414.72 307.584 
L 414.72 41.472 
" style="fill:none;stroke:#000000;stroke-linecap:square;stroke-linejoin:miter;stroke-width:0.8;"/>
   </g>
   <g id="patch_5">
    <path d="M 57.6 307.584 
L 414.72 307.584 
" style="fill:none;stroke:#000000;stroke-linecap:square;stroke-linejoin:miter;stroke-width:0.8;"/>
   </g>
   <g id="patch_6">
    <path d="M 57.6 41.472 
L 414.72 41.472 
" style="fill:none;stroke:#000000;stroke-linecap:square;stroke-linejoin:miter;stroke-width:0.8;"/>
   </g>
   <g id="text_21">
    <!-- Population's average and best fitness -->
    <defs>
     <path d="M 19.671875 64.796875 
L 19.671875 37.40625 
L 32.078125 37.40625 
Q 38.96875 37.40625 42.71875 40.96875 
Q 46.484375 44.53125 46.484375 51.125 
Q 46.484375 57.671875 42.71875 61.234375 
Q 38.96875 64.796875 32.078125 64.796875 
z
M 9.8125 72.90625 
L 32.078125 72.90625 
Q 44.34375 72.90625 50.609375 67.359375 
Q 56.890625 61.8125 56.890625 51.125 
Q 56.890625 40.328125 50.609375 34.8125 
Q 44.34375 29.296875 32.078125 29.296875 
L 19.671875 29.296875 
L 19.671875 0 
L 9.8125 0 
z
" id="DejaVuSans-50"/>
     <path d="M 18.109375 8.203125 
L 18.109375 -20.796875 
L 9.078125 -20.796875 
L 9.078125 54.6875 
L 18.109375 54.6875 
L 18.109375 46.390625 
Q 20.953125 51.265625 25.265625 53.625 
Q 29.59375 56 35.59375 56 
Q 45.5625 56 51.78125 48.09375 
Q 58.015625 40.1875 58.015625 27.296875 
Q 58.015625 14.40625 51.78125 6.484375 
Q 45.5625 -1.421875 35.59375 -1.421875 
Q 29.59375 -1.421875 25.265625 0.953125 
Q 20.953125 3.328125 18.109375 8.203125 
M 48.6875 27.296875 
Q 48.6875 37.203125 44.609375 42.84375 
Q 40.53125 48.484375 33.40625 48.484375 
Q 26.265625 48.484375 22.1875 42.84375 
Q 18.109375 37.203125 18.109375 27.296875 
Q 18.109375 17.390625 22.1875 11.75 
Q 26.265625 6.109375 33.40625 6.109375 
Q 40.53125 6.109375 44.609375 11.75 
Q 48.6875 17.390625 48.6875 27.296875 
" id="DejaVuSans-70"/>
     <path d="M 8.5 21.578125 
L 8.5 54.6875 
L 17.484375 54.6875 
L 17.484375 21.921875 
Q 17.484375 14.15625 20.5 10.265625 
Q 23.53125 6.390625 29.59375 6.390625 
Q 36.859375 6.390625 41.078125 11.03125 
Q 45.3125 15.671875 45.3125 23.6875 
L 45.3125 54.6875 
L 54.296875 54.6875 
L 54.296875 0 
L 45.3125 0 
L 45.3125 8.40625 
Q 42.046875 3.421875 37.71875 1 
Q 33.40625 -1.421875 27.6875 -1.421875 
Q 18.265625 -1.421875 13.375 4.4375 
Q 8.5 10.296875 8.5 21.578125 
M 31.109375 56 
z
" id="DejaVuSans-75"/>
     <path d="M 9.421875 75.984375 
L 18.40625 75.984375 
L 18.40625 0 
L 9.421875 0 
z
" id="DejaVuSans-6c"/>
     <path d="M 17.921875 72.90625 
L 17.921875 45.796875 
L 9.625 45.796875 
L 9.625 72.90625 
z
" id="DejaVuSans-27"/>
     <path id="DejaVuSans-20"/>
     <path d="M 2.984375 54.6875 
L 12.5 54.6875 
L 29.59375 8.796875 
L 46.6875 54.6875 
L 56.203125 54.6875 
L 35.6875 0 
L 23.484375 0 
z
" id="DejaVuSans-76"/>
     <path d="M 45.40625 27.984375 
Q 45.40625 37.75 41.375 43.109375 
Q 37.359375 48.484375 30.078125 48.484375 
Q 22.859375 48.484375 18.828125 43.109375 
Q 14.796875 37.75 14.796875 27.984375 
Q 14.796875 18.265625 18.828125 12.890625 
Q 22.859375 7.515625 30.078125 7.515625 
Q 37.359375 7.515625 41.375 12.890625 
Q 45.40625 18.265625 45.40625 27.984375 
M 54.390625 6.78125 
Q 54.390625 -7.171875 48.1875 -13.984375 
Q 42 -20.796875 29.203125 -20.796875 
Q 24.46875 -20.796875 20.265625 -20.09375 
Q 16.0625 -19.390625 12.109375 -17.921875 
L 12.109375 -9.1875 
Q 16.0625 -11.328125 19.921875 -12.34375 
Q 23.78125 -13.375 27.78125 -13.375 
Q 36.625 -13.375 41.015625 -8.765625 
Q 45.40625 -4.15625 45.40625 5.171875 
L 45.40625 9.625 
Q 42.625 4.78125 38.28125 2.390625 
Q 33.9375 0 27.875 0 
Q 17.828125 0 11.671875 7.65625 
Q 5.515625 15.328125 5.515625 27.984375 
Q 5.515625 40.671875 11.671875 48.328125 
Q 17.828125 56 27.875 56 
Q 33.9375 56 38.28125 53.609375 
Q 42.625 51.21875 45.40625 46.390625 
L 45.40625 54.6875 
L 54.390625 54.6875 
z
" id="DejaVuSans-67"/>
     <path d="M 45.40625 46.390625 
L 45.40625 75.984375 
L 54.390625 75.984375 
L 54.390625 0 
L 45.40625 0 
L 45.40625 8.203125 
Q 42.578125 3.328125 38.25 0.953125 
Q 33.9375 -1.421875 27.875 -1.421875 
Q 17.96875 -1.421875 11.734375 6.484375 
Q 5.515625 14.40625 5.515625 27.296875 
Q 5.515625 40.1875 11.734375 48.09375 
Q 17.96875 56 27.875 56 
Q 33.9375 56 38.25 53.625 
Q 42.578125 51.265625 45.40625 46.390625 
M 14.796875 27.296875 
Q 14.796875 17.390625 18.875 11.75 
Q 22.953125 6.109375 30.078125 6.109375 
Q 37.203125 6.109375 41.296875 11.75 
Q 45.40625 17.390625 45.40625 27.296875 
Q 45.40625 37.203125 41.296875 42.84375 
Q 37.203125 48.484375 30.078125 48.484375 
Q 22.953125 48.484375 18.875 42.84375 
Q 14.796875 37.203125 14.796875 27.296875 
" id="DejaVuSans-64"/>
     <path d="M 48.6875 27.296875 
Q 48.6875 37.203125 44.609375 42.84375 
Q 40.53125 48.484375 33.40625 48.484375 
Q 26.265625 48.484375 22.1875 42.84375 
Q 18.109375 37.203125 18.109375 27.296875 
Q 18.109375 17.390625 22.1875 11.75 
Q 26.265625 6.109375 33.40625 6.109375 
Q 40.53125 6.109375 44.609375 11.75 
Q 48.6875 17.390625 48.6875 27.296875 
M 18.109375 46.390625 
Q 20.953125 51.265625 25.265625 53.625 
Q 29.59375 56 35.59375 56 
Q 45.5625 56 51.78125 48.09375 
Q 58.015625 40.1875 58.015625 27.296875 
Q 58.015625 14.40625 51.78125 6.484375 
Q 45.5625 -1.421875 35.59375 -1.421875 
Q 29.59375 -1.421875 25.265625 0.953125 
Q 20.953125 3.328125 18.109375 8.203125 
L 18.109375 0 
L 9.078125 0 
L 9.078125 75.984375 
L 18.109375 75.984375 
z
" id="DejaVuSans-62"/>
     <path d="M 37.109375 75.984375 
L 37.109375 68.5 
L 28.515625 68.5 
Q 23.6875 68.5 21.796875 66.546875 
Q 19.921875 64.59375 19.921875 59.515625 
L 19.921875 54.6875 
L 34.71875 54.6875 
L 34.71875 47.703125 
L 19.921875 47.703125 
L 19.921875 0 
L 10.890625 0 
L 10.890625 47.703125 
L 2.296875 47.703125 
L 2.296875 54.6875 
L 10.890625 54.6875 
L 10.890625 58.5 
Q 10.890625 67.625 15.140625 71.796875 
Q 19.390625 75.984375 28.609375 75.984375 
z
" id="DejaVuSans-66"/>
    </defs>
    <g transform="translate(123.315 35.472)scale(0.12 -0.12)">
     <use xlink:href="#DejaVuSans-50"/>
     <use x="60.255859" xlink:href="#DejaVuSans-6f"/>
     <use x="121.4375" xlink:href="#DejaVuSans-70"/>
     <use x="184.914062" xlink:href="#DejaVuSans-75"/>
     <use x="248.292969" xlink:href="#DejaVuSans-6c"/>
     <use x="276.076172" xlink:href="#DejaVuSans-61"/>
     <use x="337.355469" xlink:href="#DejaVuSans-74"/>
     <use x="376.564453" xlink:href="#DejaVuSans-69"/>
     <use x="404.347656" xlink:href="#DejaVuSans-6f"/>
     <use x="465.529297" xlink:href="#DejaVuSans-6e"/>
     <use x="528.908203" xlink:href="#DejaVuSans-27"/>
     <use x="556.398438" xlink:href="#DejaVuSans-73"/>
     <use x="608.498047" xlink:href="#DejaVuSans-20"/>
     <use x="640.285156" xlink:href="#DejaVuSans-61"/>
     <use x="701.564453" xlink:href="#DejaVuSans-76"/>
     <use x="760.744141" xlink:href="#DejaVuSans-65"/>
     <use x="822.267578" xlink:href="#DejaVuSans-72"/>
     <use x="863.380859" xlink:href="#DejaVuSans-61"/>
     <use x="924.660156" xlink:href="#DejaVuSans-67"/>
     <use x="988.136719" xlink:href="#DejaVuSans-65"/>
     <use x="1049.660156" xlink:href="#DejaVuSans-20"/>
     <use x="1081.447266" xlink:href="#DejaVuSans-61"/>
     <use x="1142.726562" xlink:href="#DejaVuSans-6e"/>
     <use x="1206.105469" xlink:href="#DejaVuSans-64"/>
     <use x="1269.582031" xlink:href="#DejaVuSans-20"/>
     <use x="1301.369141" xlink:href="#DejaVuSans-62"/>
     <use x="1364.845703" xlink:href="#DejaVuSans-65"/>
     <use x="1426.369141" xlink:href="#DejaVuSans-73"/>
     <use x="1478.46875" xlink:href="#DejaVuSans-74"/>
     <use x="1517.677734" xlink:href="#DejaVuSans-20"/>
     <use x="1549.464844" xlink:href="#DejaVuSans-66"/>
     <use x="1584.669922" xlink:href="#DejaVuSans-69"/>
     <use x="1612.453125" xlink:href="#DejaVuSans-74"/>
     <use x="1651.662109" xlink:href="#DejaVuSans-6e"/>
     <use x="1715.041016" xlink:href="#DejaVuSans-65"/>
     <use x="1776.564453" xlink:href="#DejaVuSans-73"/>
     <use x="1828.664062" xlink:href="#DejaVuSans-73"/>
    </g>
   </g>
   <g id="legend_1">
    <g id="patch_7">
     <path d="M 199.689687 302.584 
L 272.630313 302.584 
Q 274.630313 302.584 274.630313 300.584 
L 274.630313 242.8715 
Q 274.630313 240.8715 272.630313 240.8715 
L 199.689687 240.8715 
Q 197.689687 240.8715 197.689687 242.8715 
L 197.689687 300.584 
Q 197.689687 302.584 199.689687 302.584 
z
" style="fill:#ffffff;opacity:0.8;stroke:#cccccc;stroke-linejoin:miter;"/>
    </g>
    <g id="line2d_41">
     <path d="M 201.689687 248.969937 
L 221.689687 248.969937 
" style="fill:none;stroke:#0000ff;stroke-linecap:square;stroke-width:1.5;"/>
    </g>
    <g id="line2d_42"/>
    <g id="text_22">
     <!-- average -->
     <g transform="translate(229.689687 252.469937)scale(0.1 -0.1)">
      <use xlink:href="#DejaVuSans-61"/>
      <use x="61.279297" xlink:href="#DejaVuSans-76"/>
      <use x="120.458984" xlink:href="#DejaVuSans-65"/>
      <use x="181.982422" xlink:href="#DejaVuSans-72"/>
      <use x="223.095703" xlink:href="#DejaVuSans-61"/>
      <use x="284.375" xlink:href="#DejaVuSans-67"/>
      <use x="347.851562" xlink:href="#DejaVuSans-65"/>
     </g>
    </g>
    <g id="line2d_43">
     <path d="M 201.689687 263.648062 
L 221.689687 263.648062 
" style="fill:none;stroke:#008000;stroke-dasharray:9.6,2.4,1.6,2.4;stroke-dashoffset:0;stroke-width:1.5;"/>
    </g>
    <g id="line2d_44"/>
    <g id="text_23">
     <!-- -1 sd -->
     <defs>
      <path d="M 4.890625 31.390625 
L 31.203125 31.390625 
L 31.203125 23.390625 
L 4.890625 23.390625 
z
" id="DejaVuSans-2d"/>
     </defs>
     <g transform="translate(229.689687 267.148062)scale(0.1 -0.1)">
      <use xlink:href="#DejaVuSans-2d"/>
      <use x="36.083984" xlink:href="#DejaVuSans-31"/>
      <use x="99.707031" xlink:href="#DejaVuSans-20"/>
      <use x="131.494141" xlink:href="#DejaVuSans-73"/>
      <use x="183.59375" xlink:href="#DejaVuSans-64"/>
     </g>
    </g>
    <g id="line2d_45">
     <path d="M 201.689687 278.326187 
L 221.689687 278.326187 
" style="fill:none;stroke:#008000;stroke-dasharray:9.6,2.4,1.6,2.4;stroke-dashoffset:0;stroke-width:1.5;"/>
    </g>
    <g id="line2d_46"/>
    <g id="text_24">
     <!-- +1 sd -->
     <defs>
      <path d="M 46 62.703125 
L 46 35.5 
L 73.1875 35.5 
L 73.1875 27.203125 
L 46 27.203125 
L 46 0 
L 37.796875 0 
L 37.796875 27.203125 
L 10.59375 27.203125 
L 10.59375 35.5 
L 37.796875 35.5 
L 37.796875 62.703125 
z
" id="DejaVuSans-2b"/>
     </defs>
     <g transform="translate(229.689687 281.826187)scale(0.1 -0.1)">
      <use xlink:href="#DejaVuSans-2b"/>
      <use x="83.789062" xlink:href="#DejaVuSans-31"/>
      <use x="147.412109" xlink:href="#DejaVuSans-20"/>
      <use x="179.199219" xlink:href="#DejaVuSans-73"/>
      <use x="231.298828" xlink:href="#DejaVuSans-64"/>
     </g>
    </g>
    <g id="line2d_47">
     <path d="M 201.689687 293.004312 
L 221.689687 293.004312 
" style="fill:none;stroke:#ff0000;stroke-linecap:square;stroke-width:1.5;"/>
    </g>
    <g id="line2d_48"/>
    <g id="text_25">
     <!-- best -->
     <g transform="translate(229.689687 296.504312)scale(0.1 -0.1)">
      <use xlink:href="#DejaVuSans-62"/>
      <use x="63.476562" xlink:href="#DejaVuSans-65"/>
      <use x="125" xlink:href="#DejaVuSans-73"/>
      <use x="177.099609" xlink:href="#DejaVuSans-74"/>
     </g>
    </g>
   </g>
  </g>
 </g>
 <defs>
  <clipPath id="pd3e7ea098a">
   <rect height="266.112" width="357.12" x="57.6" y="41.472"/>
  </clipPath>
 </defs>
</svg>
