<?xml version="1.0" encoding="UTF-8" standalone="no"?>
<!DOCTYPE svg PUBLIC "-//W3C//DTD SVG 1.1//EN"
 "http://www.w3.org/Graphics/SVG/1.1/DTD/svg11.dtd">
<!-- Generated by graphviz version 2.38.0 (20140413.2041)
 -->
<!-- Title: %3 Pages: 1 -->
<svg width="4908pt" height="183pt"
 viewBox="0.00 0.00 4908.38 183.24" xmlns="http://www.w3.org/2000/svg" xmlns:xlink="http://www.w3.org/1999/xlink">
<g id="graph0" class="graph" transform="scale(1 1) rotate(0) translate(4 179.238)">
<title>%3</title>
<polygon fill="white" stroke="none" points="-4,4 -4,-179.238 4904.38,-179.238 4904.38,4 -4,4"/>
<!-- &#45;1 -->
<g id="node1" class="node"><title>&#45;1</title>
<polygon fill="lightgray" stroke="black" points="24,-165.853 0,-165.853 0,-147.853 24,-147.853 24,-165.853"/>
<text text-anchor="middle" x="12" y="-154.653" font-family="Times,serif" font-size="9.00">&#45;1</text>
</g>
<!-- &#45;2 -->
<g id="node2" class="node"><title>&#45;2</title>
<polygon fill="lightgray" stroke="black" points="66,-165.853 42,-165.853 42,-147.853 66,-147.853 66,-165.853"/>
<text text-anchor="middle" x="54" y="-154.653" font-family="Times,serif" font-size="9.00">&#45;2</text>
</g>
<!-- &#45;3 -->
<g id="node3" class="node"><title>&#45;3</title>
<polygon fill="lightgray" stroke="black" points="108,-165.853 84,-165.853 84,-147.853 108,-147.853 108,-165.853"/>
<text text-anchor="middle" x="96" y="-154.653" font-family="Times,serif" font-size="9.00">&#45;3</text>
</g>
<!-- &#45;4 -->
<g id="node4" class="node"><title>&#45;4</title>
<polygon fill="lightgray" stroke="black" points="150,-165.853 126,-165.853 126,-147.853 150,-147.853 150,-165.853"/>
<text text-anchor="middle" x="138" y="-154.653" font-family="Times,serif" font-size="9.00">&#45;4</text>
</g>
<!-- &#45;5 -->
<g id="node5" class="node"><title>&#45;5</title>
<polygon fill="lightgray" stroke="black" points="192,-165.853 168,-165.853 168,-147.853 192,-147.853 192,-165.853"/>
<text text-anchor="middle" x="180" y="-154.653" font-family="Times,serif" font-size="9.00">&#45;5</text>
</g>
<!-- &#45;6 -->
<g id="node6" class="node"><title>&#45;6</title>
<polygon fill="lightgray" stroke="black" points="234,-165.853 210,-165.853 210,-147.853 234,-147.853 234,-165.853"/>
<text text-anchor="middle" x="222" y="-154.653" font-family="Times,serif" font-size="9.00">&#45;6</text>
</g>
<!-- &#45;7 -->
<g id="node7" class="node"><title>&#45;7</title>
<polygon fill="lightgray" stroke="black" points="276,-165.853 252,-165.853 252,-147.853 276,-147.853 276,-165.853"/>
<text text-anchor="middle" x="264" y="-154.653" font-family="Times,serif" font-size="9.00">&#45;7</text>
</g>
<!-- &#45;8 -->
<g id="node8" class="node"><title>&#45;8</title>
<polygon fill="lightgray" stroke="black" points="318,-165.853 294,-165.853 294,-147.853 318,-147.853 318,-165.853"/>
<text text-anchor="middle" x="306" y="-154.653" font-family="Times,serif" font-size="9.00">&#45;8</text>
</g>
<!-- 1 -->
<g id="node105" class="node"><title>1</title>
<ellipse fill="lightblue" stroke="black" cx="328" cy="-84.0833" rx="14.7" ry="14.7"/>
<text text-anchor="middle" x="328" y="-81.8833" font-family="Times,serif" font-size="9.00">1</text>
</g>
<!-- &#45;8&#45;&gt;1 -->
<g id="edge9" class="edge"><title>&#45;8&#45;&gt;1</title>
<path fill="none" stroke="red" stroke-width="0.200335" stroke-dasharray="1,5" d="M308.524,-147.735C311.51,-138.129 316.61,-121.722 320.842,-108.108"/>
<polygon fill="red" stroke="red" stroke-width="0.200335" points="324.234,-108.988 323.86,-98.3997 317.55,-106.91 324.234,-108.988"/>
</g>
<!-- &#45;9 -->
<g id="node9" class="node"><title>&#45;9</title>
<polygon fill="lightgray" stroke="black" points="408,-165.853 384,-165.853 384,-147.853 408,-147.853 408,-165.853"/>
<text text-anchor="middle" x="396" y="-154.653" font-family="Times,serif" font-size="9.00">&#45;9</text>
</g>
<!-- &#45;10 -->
<g id="node10" class="node"><title>&#45;10</title>
<polygon fill="lightgray" stroke="black" points="455.5,-165.853 426.5,-165.853 426.5,-147.853 455.5,-147.853 455.5,-165.853"/>
<text text-anchor="middle" x="441" y="-154.653" font-family="Times,serif" font-size="9.00">&#45;10</text>
</g>
<!-- &#45;11 -->
<g id="node11" class="node"><title>&#45;11</title>
<polygon fill="lightgray" stroke="black" points="502.5,-165.853 473.5,-165.853 473.5,-147.853 502.5,-147.853 502.5,-165.853"/>
<text text-anchor="middle" x="488" y="-154.653" font-family="Times,serif" font-size="9.00">&#45;11</text>
</g>
<!-- &#45;12 -->
<g id="node12" class="node"><title>&#45;12</title>
<polygon fill="lightgray" stroke="black" points="365.5,-165.853 336.5,-165.853 336.5,-147.853 365.5,-147.853 365.5,-165.853"/>
<text text-anchor="middle" x="351" y="-154.653" font-family="Times,serif" font-size="9.00">&#45;12</text>
</g>
<!-- &#45;12&#45;&gt;1 -->
<g id="edge8" class="edge"><title>&#45;12&#45;&gt;1</title>
<path fill="none" stroke="green" stroke-width="0.196532" d="M348.362,-147.735C345.24,-138.129 339.908,-121.722 335.483,-108.108"/>
<polygon fill="green" stroke="green" stroke-width="0.196532" points="338.747,-106.828 332.328,-98.3997 332.09,-108.992 338.747,-106.828"/>
</g>
<!-- &#45;13 -->
<g id="node13" class="node"><title>&#45;13</title>
<polygon fill="lightgray" stroke="black" points="549.5,-165.853 520.5,-165.853 520.5,-147.853 549.5,-147.853 549.5,-165.853"/>
<text text-anchor="middle" x="535" y="-154.653" font-family="Times,serif" font-size="9.00">&#45;13</text>
</g>
<!-- &#45;14 -->
<g id="node14" class="node"><title>&#45;14</title>
<polygon fill="lightgray" stroke="black" points="596.5,-165.853 567.5,-165.853 567.5,-147.853 596.5,-147.853 596.5,-165.853"/>
<text text-anchor="middle" x="582" y="-154.653" font-family="Times,serif" font-size="9.00">&#45;14</text>
</g>
<!-- &#45;15 -->
<g id="node15" class="node"><title>&#45;15</title>
<polygon fill="lightgray" stroke="black" points="643.5,-165.853 614.5,-165.853 614.5,-147.853 643.5,-147.853 643.5,-165.853"/>
<text text-anchor="middle" x="629" y="-154.653" font-family="Times,serif" font-size="9.00">&#45;15</text>
</g>
<!-- &#45;16 -->
<g id="node16" class="node"><title>&#45;16</title>
<polygon fill="lightgray" stroke="black" points="690.5,-165.853 661.5,-165.853 661.5,-147.853 690.5,-147.853 690.5,-165.853"/>
<text text-anchor="middle" x="676" y="-154.653" font-family="Times,serif" font-size="9.00">&#45;16</text>
</g>
<!-- &#45;17 -->
<g id="node17" class="node"><title>&#45;17</title>
<polygon fill="lightgray" stroke="black" points="737.5,-165.853 708.5,-165.853 708.5,-147.853 737.5,-147.853 737.5,-165.853"/>
<text text-anchor="middle" x="723" y="-154.653" font-family="Times,serif" font-size="9.00">&#45;17</text>
</g>
<!-- &#45;18 -->
<g id="node18" class="node"><title>&#45;18</title>
<polygon fill="lightgray" stroke="black" points="784.5,-165.853 755.5,-165.853 755.5,-147.853 784.5,-147.853 784.5,-165.853"/>
<text text-anchor="middle" x="770" y="-154.653" font-family="Times,serif" font-size="9.00">&#45;18</text>
</g>
<!-- &#45;19 -->
<g id="node19" class="node"><title>&#45;19</title>
<polygon fill="lightgray" stroke="black" points="831.5,-165.853 802.5,-165.853 802.5,-147.853 831.5,-147.853 831.5,-165.853"/>
<text text-anchor="middle" x="817" y="-154.653" font-family="Times,serif" font-size="9.00">&#45;19</text>
</g>
<!-- &#45;20 -->
<g id="node20" class="node"><title>&#45;20</title>
<polygon fill="lightgray" stroke="black" points="878.5,-165.853 849.5,-165.853 849.5,-147.853 878.5,-147.853 878.5,-165.853"/>
<text text-anchor="middle" x="864" y="-154.653" font-family="Times,serif" font-size="9.00">&#45;20</text>
</g>
<!-- &#45;21 -->
<g id="node21" class="node"><title>&#45;21</title>
<polygon fill="lightgray" stroke="black" points="925.5,-165.853 896.5,-165.853 896.5,-147.853 925.5,-147.853 925.5,-165.853"/>
<text text-anchor="middle" x="911" y="-154.653" font-family="Times,serif" font-size="9.00">&#45;21</text>
</g>
<!-- &#45;22 -->
<g id="node22" class="node"><title>&#45;22</title>
<polygon fill="lightgray" stroke="black" points="972.5,-165.853 943.5,-165.853 943.5,-147.853 972.5,-147.853 972.5,-165.853"/>
<text text-anchor="middle" x="958" y="-154.653" font-family="Times,serif" font-size="9.00">&#45;22</text>
</g>
<!-- &#45;23 -->
<g id="node23" class="node"><title>&#45;23</title>
<polygon fill="lightgray" stroke="black" points="1019.5,-165.853 990.5,-165.853 990.5,-147.853 1019.5,-147.853 1019.5,-165.853"/>
<text text-anchor="middle" x="1005" y="-154.653" font-family="Times,serif" font-size="9.00">&#45;23</text>
</g>
<!-- &#45;24 -->
<g id="node24" class="node"><title>&#45;24</title>
<polygon fill="lightgray" stroke="black" points="1066.5,-165.853 1037.5,-165.853 1037.5,-147.853 1066.5,-147.853 1066.5,-165.853"/>
<text text-anchor="middle" x="1052" y="-154.653" font-family="Times,serif" font-size="9.00">&#45;24</text>
</g>
<!-- &#45;25 -->
<g id="node25" class="node"><title>&#45;25</title>
<polygon fill="lightgray" stroke="black" points="1113.5,-165.853 1084.5,-165.853 1084.5,-147.853 1113.5,-147.853 1113.5,-165.853"/>
<text text-anchor="middle" x="1099" y="-154.653" font-family="Times,serif" font-size="9.00">&#45;25</text>
</g>
<!-- &#45;26 -->
<g id="node26" class="node"><title>&#45;26</title>
<polygon fill="lightgray" stroke="black" points="1160.5,-165.853 1131.5,-165.853 1131.5,-147.853 1160.5,-147.853 1160.5,-165.853"/>
<text text-anchor="middle" x="1146" y="-154.653" font-family="Times,serif" font-size="9.00">&#45;26</text>
</g>
<!-- &#45;27 -->
<g id="node27" class="node"><title>&#45;27</title>
<polygon fill="lightgray" stroke="black" points="1207.5,-165.853 1178.5,-165.853 1178.5,-147.853 1207.5,-147.853 1207.5,-165.853"/>
<text text-anchor="middle" x="1193" y="-154.653" font-family="Times,serif" font-size="9.00">&#45;27</text>
</g>
<!-- &#45;28 -->
<g id="node28" class="node"><title>&#45;28</title>
<polygon fill="lightgray" stroke="black" points="1254.5,-165.853 1225.5,-165.853 1225.5,-147.853 1254.5,-147.853 1254.5,-165.853"/>
<text text-anchor="middle" x="1240" y="-154.653" font-family="Times,serif" font-size="9.00">&#45;28</text>
</g>
<!-- &#45;29 -->
<g id="node29" class="node"><title>&#45;29</title>
<polygon fill="lightgray" stroke="black" points="1301.5,-165.853 1272.5,-165.853 1272.5,-147.853 1301.5,-147.853 1301.5,-165.853"/>
<text text-anchor="middle" x="1287" y="-154.653" font-family="Times,serif" font-size="9.00">&#45;29</text>
</g>
<!-- &#45;30 -->
<g id="node30" class="node"><title>&#45;30</title>
<polygon fill="lightgray" stroke="black" points="1348.5,-165.853 1319.5,-165.853 1319.5,-147.853 1348.5,-147.853 1348.5,-165.853"/>
<text text-anchor="middle" x="1334" y="-154.653" font-family="Times,serif" font-size="9.00">&#45;30</text>
</g>
<!-- &#45;31 -->
<g id="node31" class="node"><title>&#45;31</title>
<polygon fill="lightgray" stroke="black" points="1395.5,-165.853 1366.5,-165.853 1366.5,-147.853 1395.5,-147.853 1395.5,-165.853"/>
<text text-anchor="middle" x="1381" y="-154.653" font-family="Times,serif" font-size="9.00">&#45;31</text>
</g>
<!-- &#45;32 -->
<g id="node32" class="node"><title>&#45;32</title>
<polygon fill="lightgray" stroke="black" points="1442.5,-165.853 1413.5,-165.853 1413.5,-147.853 1442.5,-147.853 1442.5,-165.853"/>
<text text-anchor="middle" x="1428" y="-154.653" font-family="Times,serif" font-size="9.00">&#45;32</text>
</g>
<!-- &#45;33 -->
<g id="node33" class="node"><title>&#45;33</title>
<polygon fill="lightgray" stroke="black" points="1489.5,-165.853 1460.5,-165.853 1460.5,-147.853 1489.5,-147.853 1489.5,-165.853"/>
<text text-anchor="middle" x="1475" y="-154.653" font-family="Times,serif" font-size="9.00">&#45;33</text>
</g>
<!-- &#45;34 -->
<g id="node34" class="node"><title>&#45;34</title>
<polygon fill="lightgray" stroke="black" points="1536.5,-165.853 1507.5,-165.853 1507.5,-147.853 1536.5,-147.853 1536.5,-165.853"/>
<text text-anchor="middle" x="1522" y="-154.653" font-family="Times,serif" font-size="9.00">&#45;34</text>
</g>
<!-- &#45;35 -->
<g id="node35" class="node"><title>&#45;35</title>
<polygon fill="lightgray" stroke="black" points="1583.5,-165.853 1554.5,-165.853 1554.5,-147.853 1583.5,-147.853 1583.5,-165.853"/>
<text text-anchor="middle" x="1569" y="-154.653" font-family="Times,serif" font-size="9.00">&#45;35</text>
</g>
<!-- &#45;36 -->
<g id="node36" class="node"><title>&#45;36</title>
<polygon fill="lightgray" stroke="black" points="1630.5,-165.853 1601.5,-165.853 1601.5,-147.853 1630.5,-147.853 1630.5,-165.853"/>
<text text-anchor="middle" x="1616" y="-154.653" font-family="Times,serif" font-size="9.00">&#45;36</text>
</g>
<!-- &#45;37 -->
<g id="node37" class="node"><title>&#45;37</title>
<polygon fill="lightgray" stroke="black" points="1677.5,-165.853 1648.5,-165.853 1648.5,-147.853 1677.5,-147.853 1677.5,-165.853"/>
<text text-anchor="middle" x="1663" y="-154.653" font-family="Times,serif" font-size="9.00">&#45;37</text>
</g>
<!-- &#45;38 -->
<g id="node38" class="node"><title>&#45;38</title>
<polygon fill="lightgray" stroke="black" points="1724.5,-165.853 1695.5,-165.853 1695.5,-147.853 1724.5,-147.853 1724.5,-165.853"/>
<text text-anchor="middle" x="1710" y="-154.653" font-family="Times,serif" font-size="9.00">&#45;38</text>
</g>
<!-- &#45;39 -->
<g id="node39" class="node"><title>&#45;39</title>
<polygon fill="lightgray" stroke="black" points="1771.5,-165.853 1742.5,-165.853 1742.5,-147.853 1771.5,-147.853 1771.5,-165.853"/>
<text text-anchor="middle" x="1757" y="-154.653" font-family="Times,serif" font-size="9.00">&#45;39</text>
</g>
<!-- &#45;40 -->
<g id="node40" class="node"><title>&#45;40</title>
<polygon fill="lightgray" stroke="black" points="1818.5,-165.853 1789.5,-165.853 1789.5,-147.853 1818.5,-147.853 1818.5,-165.853"/>
<text text-anchor="middle" x="1804" y="-154.653" font-family="Times,serif" font-size="9.00">&#45;40</text>
</g>
<!-- &#45;41 -->
<g id="node41" class="node"><title>&#45;41</title>
<polygon fill="lightgray" stroke="black" points="1865.5,-165.853 1836.5,-165.853 1836.5,-147.853 1865.5,-147.853 1865.5,-165.853"/>
<text text-anchor="middle" x="1851" y="-154.653" font-family="Times,serif" font-size="9.00">&#45;41</text>
</g>
<!-- &#45;42 -->
<g id="node42" class="node"><title>&#45;42</title>
<polygon fill="lightgray" stroke="black" points="1912.5,-165.853 1883.5,-165.853 1883.5,-147.853 1912.5,-147.853 1912.5,-165.853"/>
<text text-anchor="middle" x="1898" y="-154.653" font-family="Times,serif" font-size="9.00">&#45;42</text>
</g>
<!-- &#45;43 -->
<g id="node43" class="node"><title>&#45;43</title>
<polygon fill="lightgray" stroke="black" points="1959.5,-165.853 1930.5,-165.853 1930.5,-147.853 1959.5,-147.853 1959.5,-165.853"/>
<text text-anchor="middle" x="1945" y="-154.653" font-family="Times,serif" font-size="9.00">&#45;43</text>
</g>
<!-- &#45;44 -->
<g id="node44" class="node"><title>&#45;44</title>
<polygon fill="lightgray" stroke="black" points="2006.5,-165.853 1977.5,-165.853 1977.5,-147.853 2006.5,-147.853 2006.5,-165.853"/>
<text text-anchor="middle" x="1992" y="-154.653" font-family="Times,serif" font-size="9.00">&#45;44</text>
</g>
<!-- &#45;45 -->
<g id="node45" class="node"><title>&#45;45</title>
<polygon fill="lightgray" stroke="black" points="2053.5,-165.853 2024.5,-165.853 2024.5,-147.853 2053.5,-147.853 2053.5,-165.853"/>
<text text-anchor="middle" x="2039" y="-154.653" font-family="Times,serif" font-size="9.00">&#45;45</text>
</g>
<!-- 9 -->
<g id="node113" class="node"><title>9</title>
<ellipse fill="white" stroke="black" cx="2039" cy="-84.0833" rx="14.7" ry="14.7"/>
<text text-anchor="middle" x="2039" y="-81.8833" font-family="Times,serif" font-size="9.00">9</text>
</g>
<!-- &#45;45&#45;&gt;9 -->
<g id="edge10" class="edge"><title>&#45;45&#45;&gt;9</title>
<path fill="none" stroke="green" stroke-width="0.473108" stroke-dasharray="1,5" d="M2039,-147.735C2039,-138.395 2039,-122.626 2039,-109.245"/>
<polygon fill="green" stroke="green" stroke-width="0.473108" points="2042.5,-109.195 2039,-99.1947 2035.5,-109.195 2042.5,-109.195"/>
</g>
<!-- &#45;46 -->
<g id="node46" class="node"><title>&#45;46</title>
<polygon fill="lightgray" stroke="black" points="2101.5,-165.853 2072.5,-165.853 2072.5,-147.853 2101.5,-147.853 2101.5,-165.853"/>
<text text-anchor="middle" x="2087" y="-154.653" font-family="Times,serif" font-size="9.00">&#45;46</text>
</g>
<!-- 3 -->
<g id="node107" class="node"><title>3</title>
<ellipse fill="lightblue" stroke="black" cx="2089" cy="-84.0833" rx="14.7" ry="14.7"/>
<text text-anchor="middle" x="2089" y="-81.8833" font-family="Times,serif" font-size="9.00">3</text>
</g>
<!-- &#45;46&#45;&gt;3 -->
<g id="edge2" class="edge"><title>&#45;46&#45;&gt;3</title>
<path fill="none" stroke="green" stroke-width="0.426606" stroke-dasharray="1,5" d="M2087.23,-147.735C2087.49,-138.338 2087.94,-122.432 2088.32,-108.999"/>
<polygon fill="green" stroke="green" stroke-width="0.426606" points="2091.82,-109.023 2088.61,-98.9279 2084.83,-108.825 2091.82,-109.023"/>
</g>
<!-- &#45;47 -->
<g id="node47" class="node"><title>&#45;47</title>
<polygon fill="lightgray" stroke="black" points="2195.5,-165.853 2166.5,-165.853 2166.5,-147.853 2195.5,-147.853 2195.5,-165.853"/>
<text text-anchor="middle" x="2181" y="-154.653" font-family="Times,serif" font-size="9.00">&#45;47</text>
</g>
<!-- 0 -->
<g id="node104" class="node"><title>0</title>
<ellipse fill="lightblue" stroke="black" cx="2229" cy="-14.8492" rx="14.7" ry="14.7"/>
<text text-anchor="middle" x="2229" y="-12.6492" font-family="Times,serif" font-size="9.00">0</text>
</g>
<!-- &#45;47&#45;&gt;0 -->
<g id="edge3" class="edge"><title>&#45;47&#45;&gt;0</title>
<path fill="none" stroke="green" stroke-width="0.335368" stroke-dasharray="1,5" d="M2178.38,-147.722C2173.61,-131.399 2165.01,-93.799 2177,-65.6985 2183.34,-50.849 2196.5,-38.2997 2208,-29.5068"/>
<polygon fill="green" stroke="green" stroke-width="0.335368" points="2210.24,-32.2091 2216.33,-23.5392 2206.16,-26.5192 2210.24,-32.2091"/>
</g>
<!-- 11 -->
<g id="node115" class="node"><title>11</title>
<ellipse fill="white" stroke="black" cx="2204" cy="-84.0833" rx="18.2703" ry="18.2703"/>
<text text-anchor="middle" x="2204" y="-81.8833" font-family="Times,serif" font-size="9.00">11</text>
</g>
<!-- &#45;47&#45;&gt;11 -->
<g id="edge12" class="edge"><title>&#45;47&#45;&gt;11</title>
<path fill="none" stroke="red" stroke-width="0.349102" d="M2183.64,-147.735C2186.51,-138.911 2191.24,-124.348 2195.42,-111.482"/>
<polygon fill="red" stroke="red" stroke-width="0.349102" points="2198.85,-112.262 2198.61,-101.67 2192.19,-110.099 2198.85,-112.262"/>
</g>
<!-- &#45;48 -->
<g id="node48" class="node"><title>&#45;48</title>
<polygon fill="lightgray" stroke="black" points="2242.5,-165.853 2213.5,-165.853 2213.5,-147.853 2242.5,-147.853 2242.5,-165.853"/>
<text text-anchor="middle" x="2228" y="-154.653" font-family="Times,serif" font-size="9.00">&#45;48</text>
</g>
<!-- &#45;49 -->
<g id="node49" class="node"><title>&#45;49</title>
<polygon fill="lightgray" stroke="black" points="2289.5,-165.853 2260.5,-165.853 2260.5,-147.853 2289.5,-147.853 2289.5,-165.853"/>
<text text-anchor="middle" x="2275" y="-154.653" font-family="Times,serif" font-size="9.00">&#45;49</text>
</g>
<!-- &#45;50 -->
<g id="node50" class="node"><title>&#45;50</title>
<polygon fill="lightgray" stroke="black" points="2336.5,-165.853 2307.5,-165.853 2307.5,-147.853 2336.5,-147.853 2336.5,-165.853"/>
<text text-anchor="middle" x="2322" y="-154.653" font-family="Times,serif" font-size="9.00">&#45;50</text>
</g>
<!-- &#45;51 -->
<g id="node51" class="node"><title>&#45;51</title>
<polygon fill="lightgray" stroke="black" points="2383.5,-165.853 2354.5,-165.853 2354.5,-147.853 2383.5,-147.853 2383.5,-165.853"/>
<text text-anchor="middle" x="2369" y="-154.653" font-family="Times,serif" font-size="9.00">&#45;51</text>
</g>
<!-- &#45;52 -->
<g id="node52" class="node"><title>&#45;52</title>
<polygon fill="lightgray" stroke="black" points="2430.5,-165.853 2401.5,-165.853 2401.5,-147.853 2430.5,-147.853 2430.5,-165.853"/>
<text text-anchor="middle" x="2416" y="-154.653" font-family="Times,serif" font-size="9.00">&#45;52</text>
</g>
<!-- &#45;53 -->
<g id="node53" class="node"><title>&#45;53</title>
<polygon fill="lightgray" stroke="black" points="2477.5,-165.853 2448.5,-165.853 2448.5,-147.853 2477.5,-147.853 2477.5,-165.853"/>
<text text-anchor="middle" x="2463" y="-154.653" font-family="Times,serif" font-size="9.00">&#45;53</text>
</g>
<!-- &#45;54 -->
<g id="node54" class="node"><title>&#45;54</title>
<polygon fill="lightgray" stroke="black" points="2524.5,-165.853 2495.5,-165.853 2495.5,-147.853 2524.5,-147.853 2524.5,-165.853"/>
<text text-anchor="middle" x="2510" y="-154.653" font-family="Times,serif" font-size="9.00">&#45;54</text>
</g>
<!-- &#45;55 -->
<g id="node55" class="node"><title>&#45;55</title>
<polygon fill="lightgray" stroke="black" points="2571.5,-165.853 2542.5,-165.853 2542.5,-147.853 2571.5,-147.853 2571.5,-165.853"/>
<text text-anchor="middle" x="2557" y="-154.653" font-family="Times,serif" font-size="9.00">&#45;55</text>
</g>
<!-- &#45;56 -->
<g id="node56" class="node"><title>&#45;56</title>
<polygon fill="lightgray" stroke="black" points="2618.5,-165.853 2589.5,-165.853 2589.5,-147.853 2618.5,-147.853 2618.5,-165.853"/>
<text text-anchor="middle" x="2604" y="-154.653" font-family="Times,serif" font-size="9.00">&#45;56</text>
</g>
<!-- &#45;57 -->
<g id="node57" class="node"><title>&#45;57</title>
<polygon fill="lightgray" stroke="black" points="2665.5,-165.853 2636.5,-165.853 2636.5,-147.853 2665.5,-147.853 2665.5,-165.853"/>
<text text-anchor="middle" x="2651" y="-154.653" font-family="Times,serif" font-size="9.00">&#45;57</text>
</g>
<!-- &#45;58 -->
<g id="node58" class="node"><title>&#45;58</title>
<polygon fill="lightgray" stroke="black" points="2712.5,-165.853 2683.5,-165.853 2683.5,-147.853 2712.5,-147.853 2712.5,-165.853"/>
<text text-anchor="middle" x="2698" y="-154.653" font-family="Times,serif" font-size="9.00">&#45;58</text>
</g>
<!-- &#45;59 -->
<g id="node59" class="node"><title>&#45;59</title>
<polygon fill="lightgray" stroke="black" points="2759.5,-165.853 2730.5,-165.853 2730.5,-147.853 2759.5,-147.853 2759.5,-165.853"/>
<text text-anchor="middle" x="2745" y="-154.653" font-family="Times,serif" font-size="9.00">&#45;59</text>
</g>
<!-- &#45;60 -->
<g id="node60" class="node"><title>&#45;60</title>
<polygon fill="lightgray" stroke="black" points="2806.5,-165.853 2777.5,-165.853 2777.5,-147.853 2806.5,-147.853 2806.5,-165.853"/>
<text text-anchor="middle" x="2792" y="-154.653" font-family="Times,serif" font-size="9.00">&#45;60</text>
</g>
<!-- &#45;61 -->
<g id="node61" class="node"><title>&#45;61</title>
<polygon fill="lightgray" stroke="black" points="2853.5,-165.853 2824.5,-165.853 2824.5,-147.853 2853.5,-147.853 2853.5,-165.853"/>
<text text-anchor="middle" x="2839" y="-154.653" font-family="Times,serif" font-size="9.00">&#45;61</text>
</g>
<!-- &#45;62 -->
<g id="node62" class="node"><title>&#45;62</title>
<polygon fill="lightgray" stroke="black" points="2900.5,-165.853 2871.5,-165.853 2871.5,-147.853 2900.5,-147.853 2900.5,-165.853"/>
<text text-anchor="middle" x="2886" y="-154.653" font-family="Times,serif" font-size="9.00">&#45;62</text>
</g>
<!-- &#45;63 -->
<g id="node63" class="node"><title>&#45;63</title>
<polygon fill="lightgray" stroke="black" points="2947.5,-165.853 2918.5,-165.853 2918.5,-147.853 2947.5,-147.853 2947.5,-165.853"/>
<text text-anchor="middle" x="2933" y="-154.653" font-family="Times,serif" font-size="9.00">&#45;63</text>
</g>
<!-- &#45;64 -->
<g id="node64" class="node"><title>&#45;64</title>
<polygon fill="lightgray" stroke="black" points="2994.5,-165.853 2965.5,-165.853 2965.5,-147.853 2994.5,-147.853 2994.5,-165.853"/>
<text text-anchor="middle" x="2980" y="-154.653" font-family="Times,serif" font-size="9.00">&#45;64</text>
</g>
<!-- &#45;65 -->
<g id="node65" class="node"><title>&#45;65</title>
<polygon fill="lightgray" stroke="black" points="3041.5,-165.853 3012.5,-165.853 3012.5,-147.853 3041.5,-147.853 3041.5,-165.853"/>
<text text-anchor="middle" x="3027" y="-154.653" font-family="Times,serif" font-size="9.00">&#45;65</text>
</g>
<!-- &#45;66 -->
<g id="node66" class="node"><title>&#45;66</title>
<polygon fill="lightgray" stroke="black" points="3088.5,-165.853 3059.5,-165.853 3059.5,-147.853 3088.5,-147.853 3088.5,-165.853"/>
<text text-anchor="middle" x="3074" y="-154.653" font-family="Times,serif" font-size="9.00">&#45;66</text>
</g>
<!-- &#45;67 -->
<g id="node67" class="node"><title>&#45;67</title>
<polygon fill="lightgray" stroke="black" points="3135.5,-165.853 3106.5,-165.853 3106.5,-147.853 3135.5,-147.853 3135.5,-165.853"/>
<text text-anchor="middle" x="3121" y="-154.653" font-family="Times,serif" font-size="9.00">&#45;67</text>
</g>
<!-- &#45;68 -->
<g id="node68" class="node"><title>&#45;68</title>
<polygon fill="lightgray" stroke="black" points="3182.5,-165.853 3153.5,-165.853 3153.5,-147.853 3182.5,-147.853 3182.5,-165.853"/>
<text text-anchor="middle" x="3168" y="-154.653" font-family="Times,serif" font-size="9.00">&#45;68</text>
</g>
<!-- &#45;69 -->
<g id="node69" class="node"><title>&#45;69</title>
<polygon fill="lightgray" stroke="black" points="3229.5,-165.853 3200.5,-165.853 3200.5,-147.853 3229.5,-147.853 3229.5,-165.853"/>
<text text-anchor="middle" x="3215" y="-154.653" font-family="Times,serif" font-size="9.00">&#45;69</text>
</g>
<!-- &#45;70 -->
<g id="node70" class="node"><title>&#45;70</title>
<polygon fill="lightgray" stroke="black" points="3276.5,-165.853 3247.5,-165.853 3247.5,-147.853 3276.5,-147.853 3276.5,-165.853"/>
<text text-anchor="middle" x="3262" y="-154.653" font-family="Times,serif" font-size="9.00">&#45;70</text>
</g>
<!-- &#45;71 -->
<g id="node71" class="node"><title>&#45;71</title>
<polygon fill="lightgray" stroke="black" points="3323.5,-165.853 3294.5,-165.853 3294.5,-147.853 3323.5,-147.853 3323.5,-165.853"/>
<text text-anchor="middle" x="3309" y="-154.653" font-family="Times,serif" font-size="9.00">&#45;71</text>
</g>
<!-- &#45;72 -->
<g id="node72" class="node"><title>&#45;72</title>
<polygon fill="lightgray" stroke="black" points="3370.5,-165.853 3341.5,-165.853 3341.5,-147.853 3370.5,-147.853 3370.5,-165.853"/>
<text text-anchor="middle" x="3356" y="-154.653" font-family="Times,serif" font-size="9.00">&#45;72</text>
</g>
<!-- &#45;73 -->
<g id="node73" class="node"><title>&#45;73</title>
<polygon fill="lightgray" stroke="black" points="3417.5,-165.853 3388.5,-165.853 3388.5,-147.853 3417.5,-147.853 3417.5,-165.853"/>
<text text-anchor="middle" x="3403" y="-154.653" font-family="Times,serif" font-size="9.00">&#45;73</text>
</g>
<!-- 5 -->
<g id="node109" class="node"><title>5</title>
<ellipse fill="lightblue" stroke="black" cx="3403" cy="-84.0833" rx="14.7" ry="14.7"/>
<text text-anchor="middle" x="3403" y="-81.8833" font-family="Times,serif" font-size="9.00">5</text>
</g>
<!-- &#45;73&#45;&gt;5 -->
<g id="edge1" class="edge"><title>&#45;73&#45;&gt;5</title>
<path fill="none" stroke="green" stroke-width="0.527636" d="M3403,-147.735C3403,-138.395 3403,-122.626 3403,-109.245"/>
<polygon fill="green" stroke="green" stroke-width="0.527636" points="3406.5,-109.195 3403,-99.1947 3399.5,-109.195 3406.5,-109.195"/>
</g>
<!-- &#45;74 -->
<g id="node74" class="node"><title>&#45;74</title>
<polygon fill="lightgray" stroke="black" points="3464.5,-165.853 3435.5,-165.853 3435.5,-147.853 3464.5,-147.853 3464.5,-165.853"/>
<text text-anchor="middle" x="3450" y="-154.653" font-family="Times,serif" font-size="9.00">&#45;74</text>
</g>
<!-- &#45;75 -->
<g id="node75" class="node"><title>&#45;75</title>
<polygon fill="lightgray" stroke="black" points="2148.5,-165.853 2119.5,-165.853 2119.5,-147.853 2148.5,-147.853 2148.5,-165.853"/>
<text text-anchor="middle" x="2134" y="-154.653" font-family="Times,serif" font-size="9.00">&#45;75</text>
</g>
<!-- &#45;75&#45;&gt;3 -->
<g id="edge6" class="edge"><title>&#45;75&#45;&gt;3</title>
<path fill="none" stroke="green" stroke-width="0.847544" d="M2128.84,-147.735C2122.36,-137.549 2111.02,-119.715 2102.09,-105.673"/>
<polygon fill="green" stroke="green" stroke-width="0.847544" points="2104.97,-103.671 2096.65,-97.1109 2099.06,-107.427 2104.97,-103.671"/>
</g>
<!-- &#45;76 -->
<g id="node76" class="node"><title>&#45;76</title>
<polygon fill="lightgray" stroke="black" points="3511.5,-165.853 3482.5,-165.853 3482.5,-147.853 3511.5,-147.853 3511.5,-165.853"/>
<text text-anchor="middle" x="3497" y="-154.653" font-family="Times,serif" font-size="9.00">&#45;76</text>
</g>
<!-- &#45;77 -->
<g id="node77" class="node"><title>&#45;77</title>
<polygon fill="lightgray" stroke="black" points="3558.5,-165.853 3529.5,-165.853 3529.5,-147.853 3558.5,-147.853 3558.5,-165.853"/>
<text text-anchor="middle" x="3544" y="-154.653" font-family="Times,serif" font-size="9.00">&#45;77</text>
</g>
<!-- &#45;78 -->
<g id="node78" class="node"><title>&#45;78</title>
<polygon fill="lightgray" stroke="black" points="3605.5,-165.853 3576.5,-165.853 3576.5,-147.853 3605.5,-147.853 3605.5,-165.853"/>
<text text-anchor="middle" x="3591" y="-154.653" font-family="Times,serif" font-size="9.00">&#45;78</text>
</g>
<!-- 6 -->
<g id="node110" class="node"><title>6</title>
<ellipse fill="lightblue" stroke="black" cx="3591" cy="-84.0833" rx="14.7" ry="14.7"/>
<text text-anchor="middle" x="3591" y="-81.8833" font-family="Times,serif" font-size="9.00">6</text>
</g>
<!-- &#45;78&#45;&gt;6 -->
<g id="edge11" class="edge"><title>&#45;78&#45;&gt;6</title>
<path fill="none" stroke="red" stroke-width="1.11873" d="M3591,-147.735C3591,-138.395 3591,-122.626 3591,-109.245"/>
<polygon fill="red" stroke="red" stroke-width="1.11873" points="3594.5,-109.195 3591,-99.1947 3587.5,-109.195 3594.5,-109.195"/>
</g>
<!-- &#45;79 -->
<g id="node79" class="node"><title>&#45;79</title>
<polygon fill="lightgray" stroke="black" points="3652.5,-165.853 3623.5,-165.853 3623.5,-147.853 3652.5,-147.853 3652.5,-165.853"/>
<text text-anchor="middle" x="3638" y="-154.653" font-family="Times,serif" font-size="9.00">&#45;79</text>
</g>
<!-- &#45;80 -->
<g id="node80" class="node"><title>&#45;80</title>
<polygon fill="lightgray" stroke="black" points="3699.5,-165.853 3670.5,-165.853 3670.5,-147.853 3699.5,-147.853 3699.5,-165.853"/>
<text text-anchor="middle" x="3685" y="-154.653" font-family="Times,serif" font-size="9.00">&#45;80</text>
</g>
<!-- &#45;81 -->
<g id="node81" class="node"><title>&#45;81</title>
<polygon fill="lightgray" stroke="black" points="3746.5,-165.853 3717.5,-165.853 3717.5,-147.853 3746.5,-147.853 3746.5,-165.853"/>
<text text-anchor="middle" x="3732" y="-154.653" font-family="Times,serif" font-size="9.00">&#45;81</text>
</g>
<!-- &#45;82 -->
<g id="node82" class="node"><title>&#45;82</title>
<polygon fill="lightgray" stroke="black" points="3793.5,-165.853 3764.5,-165.853 3764.5,-147.853 3793.5,-147.853 3793.5,-165.853"/>
<text text-anchor="middle" x="3779" y="-154.653" font-family="Times,serif" font-size="9.00">&#45;82</text>
</g>
<!-- &#45;83 -->
<g id="node83" class="node"><title>&#45;83</title>
<polygon fill="lightgray" stroke="black" points="3840.5,-165.853 3811.5,-165.853 3811.5,-147.853 3840.5,-147.853 3840.5,-165.853"/>
<text text-anchor="middle" x="3826" y="-154.653" font-family="Times,serif" font-size="9.00">&#45;83</text>
</g>
<!-- &#45;84 -->
<g id="node84" class="node"><title>&#45;84</title>
<polygon fill="lightgray" stroke="black" points="3887.5,-165.853 3858.5,-165.853 3858.5,-147.853 3887.5,-147.853 3887.5,-165.853"/>
<text text-anchor="middle" x="3873" y="-154.653" font-family="Times,serif" font-size="9.00">&#45;84</text>
</g>
<!-- &#45;85 -->
<g id="node85" class="node"><title>&#45;85</title>
<polygon fill="lightgray" stroke="black" points="3934.5,-165.853 3905.5,-165.853 3905.5,-147.853 3934.5,-147.853 3934.5,-165.853"/>
<text text-anchor="middle" x="3920" y="-154.653" font-family="Times,serif" font-size="9.00">&#45;85</text>
</g>
<!-- &#45;86 -->
<g id="node86" class="node"><title>&#45;86</title>
<polygon fill="lightgray" stroke="black" points="3981.5,-165.853 3952.5,-165.853 3952.5,-147.853 3981.5,-147.853 3981.5,-165.853"/>
<text text-anchor="middle" x="3967" y="-154.653" font-family="Times,serif" font-size="9.00">&#45;86</text>
</g>
<!-- &#45;87 -->
<g id="node87" class="node"><title>&#45;87</title>
<polygon fill="lightgray" stroke="black" points="4028.5,-165.853 3999.5,-165.853 3999.5,-147.853 4028.5,-147.853 4028.5,-165.853"/>
<text text-anchor="middle" x="4014" y="-154.653" font-family="Times,serif" font-size="9.00">&#45;87</text>
</g>
<!-- &#45;88 -->
<g id="node88" class="node"><title>&#45;88</title>
<polygon fill="lightgray" stroke="black" points="4075.5,-165.853 4046.5,-165.853 4046.5,-147.853 4075.5,-147.853 4075.5,-165.853"/>
<text text-anchor="middle" x="4061" y="-154.653" font-family="Times,serif" font-size="9.00">&#45;88</text>
</g>
<!-- &#45;89 -->
<g id="node89" class="node"><title>&#45;89</title>
<polygon fill="lightgray" stroke="black" points="2269.5,-93.0833 2240.5,-93.0833 2240.5,-75.0833 2269.5,-75.0833 2269.5,-93.0833"/>
<text text-anchor="middle" x="2255" y="-81.8833" font-family="Times,serif" font-size="9.00">&#45;89</text>
</g>
<!-- &#45;89&#45;&gt;0 -->
<g id="edge4" class="edge"><title>&#45;89&#45;&gt;0</title>
<path fill="none" stroke="red" stroke-width="0.183485" d="M2251.81,-74.8391C2248.32,-65.8191 2242.58,-50.9725 2237.73,-38.4309"/>
<polygon fill="red" stroke="red" stroke-width="0.183485" points="2240.97,-37.0868 2234.09,-29.0223 2234.44,-39.6116 2240.97,-37.0868"/>
</g>
<!-- &#45;90 -->
<g id="node90" class="node"><title>&#45;90</title>
<polygon fill="lightgray" stroke="black" points="2316.5,-93.0833 2287.5,-93.0833 2287.5,-75.0833 2316.5,-75.0833 2316.5,-93.0833"/>
<text text-anchor="middle" x="2302" y="-81.8833" font-family="Times,serif" font-size="9.00">&#45;90</text>
</g>
<!-- &#45;90&#45;&gt;0 -->
<g id="edge14" class="edge"><title>&#45;90&#45;&gt;0</title>
<path fill="none" stroke="green" stroke-width="0.178275" d="M2293.05,-74.8391C2281.61,-64.3063 2261.55,-45.8289 2246.92,-32.3537"/>
<polygon fill="green" stroke="green" stroke-width="0.178275" points="2249.17,-29.6645 2239.44,-25.4644 2244.42,-34.8135 2249.17,-29.6645"/>
</g>
<!-- &#45;91 -->
<g id="node91" class="node"><title>&#45;91</title>
<polygon fill="lightgray" stroke="black" points="4122.5,-165.853 4093.5,-165.853 4093.5,-147.853 4122.5,-147.853 4122.5,-165.853"/>
<text text-anchor="middle" x="4108" y="-154.653" font-family="Times,serif" font-size="9.00">&#45;91</text>
</g>
<!-- 10 -->
<g id="node114" class="node"><title>10</title>
<ellipse fill="white" stroke="black" cx="4156" cy="-84.0833" rx="18.2703" ry="18.2703"/>
<text text-anchor="middle" x="4156" y="-81.8833" font-family="Times,serif" font-size="9.00">10</text>
</g>
<!-- &#45;91&#45;&gt;10 -->
<g id="edge15" class="edge"><title>&#45;91&#45;&gt;10</title>
<path fill="none" stroke="red" stroke-width="0.205794" d="M4113.51,-147.735C4120.01,-138.145 4131.11,-121.775 4140.34,-108.173"/>
<polygon fill="red" stroke="red" stroke-width="0.205794" points="4143.35,-109.974 4146.06,-99.7333 4137.55,-106.045 4143.35,-109.974"/>
</g>
<!-- &#45;92 -->
<g id="node92" class="node"><title>&#45;92</title>
<polygon fill="lightgray" stroke="black" points="4267.5,-165.853 4238.5,-165.853 4238.5,-147.853 4267.5,-147.853 4267.5,-165.853"/>
<text text-anchor="middle" x="4253" y="-154.653" font-family="Times,serif" font-size="9.00">&#45;92</text>
</g>
<!-- &#45;93 -->
<g id="node93" class="node"><title>&#45;93</title>
<polygon fill="lightgray" stroke="black" points="4314.5,-165.853 4285.5,-165.853 4285.5,-147.853 4314.5,-147.853 4314.5,-165.853"/>
<text text-anchor="middle" x="4300" y="-154.653" font-family="Times,serif" font-size="9.00">&#45;93</text>
</g>
<!-- &#45;94 -->
<g id="node94" class="node"><title>&#45;94</title>
<polygon fill="lightgray" stroke="black" points="4361.5,-165.853 4332.5,-165.853 4332.5,-147.853 4361.5,-147.853 4361.5,-165.853"/>
<text text-anchor="middle" x="4347" y="-154.653" font-family="Times,serif" font-size="9.00">&#45;94</text>
</g>
<!-- &#45;95 -->
<g id="node95" class="node"><title>&#45;95</title>
<polygon fill="lightgray" stroke="black" points="4220.5,-165.853 4191.5,-165.853 4191.5,-147.853 4220.5,-147.853 4220.5,-165.853"/>
<text text-anchor="middle" x="4206" y="-154.653" font-family="Times,serif" font-size="9.00">&#45;95</text>
</g>
<!-- 7 -->
<g id="node111" class="node"><title>7</title>
<ellipse fill="white" stroke="black" cx="4207" cy="-84.0833" rx="14.7" ry="14.7"/>
<text text-anchor="middle" x="4207" y="-81.8833" font-family="Times,serif" font-size="9.00">7</text>
</g>
<!-- &#45;95&#45;&gt;7 -->
<g id="edge7" class="edge"><title>&#45;95&#45;&gt;7</title>
<path fill="none" stroke="green" stroke-width="0.194958" stroke-dasharray="1,5" d="M4206.11,-147.735C4206.25,-138.395 4206.47,-122.626 4206.66,-109.245"/>
<polygon fill="green" stroke="green" stroke-width="0.194958" points="4210.16,-109.243 4206.8,-99.1947 4203.16,-109.144 4210.16,-109.243"/>
</g>
<!-- &#45;95&#45;&gt;10 -->
<g id="edge16" class="edge"><title>&#45;95&#45;&gt;10</title>
<path fill="none" stroke="red" stroke-width="0.530883" d="M4200.26,-147.735C4193.45,-138.085 4181.78,-121.571 4172.13,-107.92"/>
<polygon fill="red" stroke="red" stroke-width="0.530883" points="4174.79,-105.611 4166.16,-99.4632 4169.07,-109.65 4174.79,-105.611"/>
</g>
<!-- &#45;96 -->
<g id="node96" class="node"><title>&#45;96</title>
<polygon fill="lightgray" stroke="black" points="4408.5,-165.853 4379.5,-165.853 4379.5,-147.853 4408.5,-147.853 4408.5,-165.853"/>
<text text-anchor="middle" x="4394" y="-154.653" font-family="Times,serif" font-size="9.00">&#45;96</text>
</g>
<!-- &#45;97 -->
<g id="node97" class="node"><title>&#45;97</title>
<polygon fill="lightgray" stroke="black" points="4455.5,-165.853 4426.5,-165.853 4426.5,-147.853 4455.5,-147.853 4455.5,-165.853"/>
<text text-anchor="middle" x="4441" y="-154.653" font-family="Times,serif" font-size="9.00">&#45;97</text>
</g>
<!-- &#45;98 -->
<g id="node98" class="node"><title>&#45;98</title>
<polygon fill="lightgray" stroke="black" points="4502.5,-165.853 4473.5,-165.853 4473.5,-147.853 4502.5,-147.853 4502.5,-165.853"/>
<text text-anchor="middle" x="4488" y="-154.653" font-family="Times,serif" font-size="9.00">&#45;98</text>
</g>
<!-- &#45;99 -->
<g id="node99" class="node"><title>&#45;99</title>
<polygon fill="lightgray" stroke="black" points="4549.5,-165.853 4520.5,-165.853 4520.5,-147.853 4549.5,-147.853 4549.5,-165.853"/>
<text text-anchor="middle" x="4535" y="-154.653" font-family="Times,serif" font-size="9.00">&#45;99</text>
</g>
<!-- &#45;100 -->
<g id="node100" class="node"><title>&#45;100</title>
<polygon fill="lightgray" stroke="black" points="4600.5,-165.853 4567.5,-165.853 4567.5,-147.853 4600.5,-147.853 4600.5,-165.853"/>
<text text-anchor="middle" x="4584" y="-154.653" font-family="Times,serif" font-size="9.00">&#45;100</text>
</g>
<!-- &#45;101 -->
<g id="node101" class="node"><title>&#45;101</title>
<polygon fill="lightgray" stroke="black" points="4651.5,-165.853 4618.5,-165.853 4618.5,-147.853 4651.5,-147.853 4651.5,-165.853"/>
<text text-anchor="middle" x="4635" y="-154.653" font-family="Times,serif" font-size="9.00">&#45;101</text>
</g>
<!-- &#45;102 -->
<g id="node102" class="node"><title>&#45;102</title>
<polygon fill="lightgray" stroke="black" points="4173.5,-165.853 4140.5,-165.853 4140.5,-147.853 4173.5,-147.853 4173.5,-165.853"/>
<text text-anchor="middle" x="4157" y="-154.653" font-family="Times,serif" font-size="9.00">&#45;102</text>
</g>
<!-- &#45;102&#45;&gt;10 -->
<g id="edge5" class="edge"><title>&#45;102&#45;&gt;10</title>
<path fill="none" stroke="red" stroke-width="0.210754" stroke-dasharray="1,5" d="M4156.89,-147.735C4156.76,-139.169 4156.57,-125.193 4156.39,-112.613"/>
<polygon fill="red" stroke="red" stroke-width="0.210754" points="4159.89,-112.472 4156.25,-102.523 4152.89,-112.571 4159.89,-112.472"/>
</g>
<!-- &#45;103 -->
<g id="node103" class="node"><title>&#45;103</title>
<polygon fill="lightgray" stroke="black" points="4702.5,-165.853 4669.5,-165.853 4669.5,-147.853 4702.5,-147.853 4702.5,-165.853"/>
<text text-anchor="middle" x="4686" y="-154.653" font-family="Times,serif" font-size="9.00">&#45;103</text>
</g>
<!-- 2 -->
<g id="node106" class="node"><title>2</title>
<ellipse fill="lightblue" stroke="black" cx="4735" cy="-156.853" rx="14.7" ry="14.7"/>
<text text-anchor="middle" x="4735" y="-154.653" font-family="Times,serif" font-size="9.00">2</text>
</g>
<!-- 4 -->
<g id="node108" class="node"><title>4</title>
<ellipse fill="lightblue" stroke="black" cx="4783" cy="-156.853" rx="14.7" ry="14.7"/>
<text text-anchor="middle" x="4783" y="-154.653" font-family="Times,serif" font-size="9.00">4</text>
</g>
<!-- 8 -->
<g id="node112" class="node"><title>8</title>
<ellipse fill="white" stroke="black" cx="4831" cy="-156.853" rx="14.7" ry="14.7"/>
<text text-anchor="middle" x="4831" y="-154.653" font-family="Times,serif" font-size="9.00">8</text>
</g>
<!-- 11&#45;&gt;0 -->
<g id="edge13" class="edge"><title>11&#45;&gt;0</title>
<path fill="none" stroke="green" stroke-width="0.188952" stroke-dasharray="1,5" d="M2210.18,-66.4636C2213.29,-58.1006 2217.11,-47.833 2220.49,-38.7364"/>
<polygon fill="green" stroke="green" stroke-width="0.188952" points="2223.86,-39.7204 2224.06,-29.1275 2217.3,-37.2807 2223.86,-39.7204"/>
</g>
<!-- 13 -->
<g id="node116" class="node"><title>13</title>
<ellipse fill="white" stroke="black" cx="4882" cy="-156.853" rx="18.2703" ry="18.2703"/>
<text text-anchor="middle" x="4882" y="-154.653" font-family="Times,serif" font-size="9.00">13</text>
</g>
</g>
</svg>
