<?xml version="1.0" encoding="UTF-8" standalone="no"?>
<!DOCTYPE svg PUBLIC "-//W3C//DTD SVG 1.1//EN"
 "http://www.w3.org/Graphics/SVG/1.1/DTD/svg11.dtd">
<!-- Generated by graphviz version 2.38.0 (20140413.2041)
 -->
<!-- Title: %3 Pages: 1 -->
<svg width="4947pt" height="183pt"
 viewBox="0.00 0.00 4947.38 183.24" xmlns="http://www.w3.org/2000/svg" xmlns:xlink="http://www.w3.org/1999/xlink">
<g id="graph0" class="graph" transform="scale(1 1) rotate(0) translate(4 179.238)">
<title>%3</title>
<polygon fill="white" stroke="none" points="-4,4 -4,-179.238 4943.38,-179.238 4943.38,4 -4,4"/>
<!-- &#45;1 -->
<g id="node1" class="node"><title>&#45;1</title>
<polygon fill="lightgray" stroke="black" points="24,-165.853 0,-165.853 0,-147.853 24,-147.853 24,-165.853"/>
<text text-anchor="middle" x="12" y="-154.653" font-family="Times,serif" font-size="9.00">&#45;1</text>
</g>
<!-- &#45;2 -->
<g id="node2" class="node"><title>&#45;2</title>
<polygon fill="lightgray" stroke="black" points="66,-165.853 42,-165.853 42,-147.853 66,-147.853 66,-165.853"/>
<text text-anchor="middle" x="54" y="-154.653" font-family="Times,serif" font-size="9.00">&#45;2</text>
</g>
<!-- &#45;3 -->
<g id="node3" class="node"><title>&#45;3</title>
<polygon fill="lightgray" stroke="black" points="108,-165.853 84,-165.853 84,-147.853 108,-147.853 108,-165.853"/>
<text text-anchor="middle" x="96" y="-154.653" font-family="Times,serif" font-size="9.00">&#45;3</text>
</g>
<!-- &#45;4 -->
<g id="node4" class="node"><title>&#45;4</title>
<polygon fill="lightgray" stroke="black" points="150,-165.853 126,-165.853 126,-147.853 150,-147.853 150,-165.853"/>
<text text-anchor="middle" x="138" y="-154.653" font-family="Times,serif" font-size="9.00">&#45;4</text>
</g>
<!-- &#45;5 -->
<g id="node5" class="node"><title>&#45;5</title>
<polygon fill="lightgray" stroke="black" points="192,-165.853 168,-165.853 168,-147.853 192,-147.853 192,-165.853"/>
<text text-anchor="middle" x="180" y="-154.653" font-family="Times,serif" font-size="9.00">&#45;5</text>
</g>
<!-- &#45;6 -->
<g id="node6" class="node"><title>&#45;6</title>
<polygon fill="lightgray" stroke="black" points="234,-165.853 210,-165.853 210,-147.853 234,-147.853 234,-165.853"/>
<text text-anchor="middle" x="222" y="-154.653" font-family="Times,serif" font-size="9.00">&#45;6</text>
</g>
<!-- &#45;7 -->
<g id="node7" class="node"><title>&#45;7</title>
<polygon fill="lightgray" stroke="black" points="276,-165.853 252,-165.853 252,-147.853 276,-147.853 276,-165.853"/>
<text text-anchor="middle" x="264" y="-154.653" font-family="Times,serif" font-size="9.00">&#45;7</text>
</g>
<!-- &#45;8 -->
<g id="node8" class="node"><title>&#45;8</title>
<polygon fill="lightgray" stroke="black" points="318,-165.853 294,-165.853 294,-147.853 318,-147.853 318,-165.853"/>
<text text-anchor="middle" x="306" y="-154.653" font-family="Times,serif" font-size="9.00">&#45;8</text>
</g>
<!-- &#45;9 -->
<g id="node9" class="node"><title>&#45;9</title>
<polygon fill="lightgray" stroke="black" points="360,-165.853 336,-165.853 336,-147.853 360,-147.853 360,-165.853"/>
<text text-anchor="middle" x="348" y="-154.653" font-family="Times,serif" font-size="9.00">&#45;9</text>
</g>
<!-- &#45;10 -->
<g id="node10" class="node"><title>&#45;10</title>
<polygon fill="lightgray" stroke="black" points="407.5,-165.853 378.5,-165.853 378.5,-147.853 407.5,-147.853 407.5,-165.853"/>
<text text-anchor="middle" x="393" y="-154.653" font-family="Times,serif" font-size="9.00">&#45;10</text>
</g>
<!-- &#45;11 -->
<g id="node11" class="node"><title>&#45;11</title>
<polygon fill="lightgray" stroke="black" points="454.5,-165.853 425.5,-165.853 425.5,-147.853 454.5,-147.853 454.5,-165.853"/>
<text text-anchor="middle" x="440" y="-154.653" font-family="Times,serif" font-size="9.00">&#45;11</text>
</g>
<!-- &#45;12 -->
<g id="node12" class="node"><title>&#45;12</title>
<polygon fill="lightgray" stroke="black" points="501.5,-165.853 472.5,-165.853 472.5,-147.853 501.5,-147.853 501.5,-165.853"/>
<text text-anchor="middle" x="487" y="-154.653" font-family="Times,serif" font-size="9.00">&#45;12</text>
</g>
<!-- &#45;13 -->
<g id="node13" class="node"><title>&#45;13</title>
<polygon fill="lightgray" stroke="black" points="548.5,-165.853 519.5,-165.853 519.5,-147.853 548.5,-147.853 548.5,-165.853"/>
<text text-anchor="middle" x="534" y="-154.653" font-family="Times,serif" font-size="9.00">&#45;13</text>
</g>
<!-- &#45;14 -->
<g id="node14" class="node"><title>&#45;14</title>
<polygon fill="lightgray" stroke="black" points="595.5,-165.853 566.5,-165.853 566.5,-147.853 595.5,-147.853 595.5,-165.853"/>
<text text-anchor="middle" x="581" y="-154.653" font-family="Times,serif" font-size="9.00">&#45;14</text>
</g>
<!-- &#45;15 -->
<g id="node15" class="node"><title>&#45;15</title>
<polygon fill="lightgray" stroke="black" points="642.5,-165.853 613.5,-165.853 613.5,-147.853 642.5,-147.853 642.5,-165.853"/>
<text text-anchor="middle" x="628" y="-154.653" font-family="Times,serif" font-size="9.00">&#45;15</text>
</g>
<!-- &#45;16 -->
<g id="node16" class="node"><title>&#45;16</title>
<polygon fill="lightgray" stroke="black" points="689.5,-165.853 660.5,-165.853 660.5,-147.853 689.5,-147.853 689.5,-165.853"/>
<text text-anchor="middle" x="675" y="-154.653" font-family="Times,serif" font-size="9.00">&#45;16</text>
</g>
<!-- &#45;17 -->
<g id="node17" class="node"><title>&#45;17</title>
<polygon fill="lightgray" stroke="black" points="736.5,-165.853 707.5,-165.853 707.5,-147.853 736.5,-147.853 736.5,-165.853"/>
<text text-anchor="middle" x="722" y="-154.653" font-family="Times,serif" font-size="9.00">&#45;17</text>
</g>
<!-- &#45;18 -->
<g id="node18" class="node"><title>&#45;18</title>
<polygon fill="lightgray" stroke="black" points="783.5,-165.853 754.5,-165.853 754.5,-147.853 783.5,-147.853 783.5,-165.853"/>
<text text-anchor="middle" x="769" y="-154.653" font-family="Times,serif" font-size="9.00">&#45;18</text>
</g>
<!-- &#45;19 -->
<g id="node19" class="node"><title>&#45;19</title>
<polygon fill="lightgray" stroke="black" points="830.5,-165.853 801.5,-165.853 801.5,-147.853 830.5,-147.853 830.5,-165.853"/>
<text text-anchor="middle" x="816" y="-154.653" font-family="Times,serif" font-size="9.00">&#45;19</text>
</g>
<!-- &#45;20 -->
<g id="node20" class="node"><title>&#45;20</title>
<polygon fill="lightgray" stroke="black" points="877.5,-165.853 848.5,-165.853 848.5,-147.853 877.5,-147.853 877.5,-165.853"/>
<text text-anchor="middle" x="863" y="-154.653" font-family="Times,serif" font-size="9.00">&#45;20</text>
</g>
<!-- &#45;21 -->
<g id="node21" class="node"><title>&#45;21</title>
<polygon fill="lightgray" stroke="black" points="1117.5,-165.853 1088.5,-165.853 1088.5,-147.853 1117.5,-147.853 1117.5,-165.853"/>
<text text-anchor="middle" x="1103" y="-154.653" font-family="Times,serif" font-size="9.00">&#45;21</text>
</g>
<!-- 0 -->
<g id="node104" class="node"><title>0</title>
<ellipse fill="lightblue" stroke="black" cx="1004" cy="-14.8492" rx="14.7" ry="14.7"/>
<text text-anchor="middle" x="1004" y="-12.6492" font-family="Times,serif" font-size="9.00">0</text>
</g>
<!-- &#45;21&#45;&gt;0 -->
<g id="edge3" class="edge"><title>&#45;21&#45;&gt;0</title>
<path fill="none" stroke="green" stroke-width="0.745252" stroke-dasharray="1,5" d="M1102.1,-147.603C1099.92,-130.737 1093.03,-91.7073 1074,-65.6985 1061.6,-48.7467 1041.67,-35.364 1026.24,-26.7515"/>
<polygon fill="green" stroke="green" stroke-width="0.745252" points="1027.8,-23.6151 1017.32,-22.0161 1024.51,-29.7974 1027.8,-23.6151"/>
</g>
<!-- 3 -->
<g id="node107" class="node"><title>3</title>
<ellipse fill="lightblue" stroke="black" cx="1155" cy="-14.8492" rx="14.7" ry="14.7"/>
<text text-anchor="middle" x="1155" y="-12.6492" font-family="Times,serif" font-size="9.00">3</text>
</g>
<!-- &#45;21&#45;&gt;3 -->
<g id="edge6" class="edge"><title>&#45;21&#45;&gt;3</title>
<path fill="none" stroke="green" stroke-width="0.163716" d="M1106.1,-147.514C1113.92,-126.464 1134.67,-70.5965 1146.47,-38.8112"/>
<polygon fill="green" stroke="green" stroke-width="0.163716" points="1149.9,-39.6331 1150.1,-29.0401 1143.34,-37.1958 1149.9,-39.6331"/>
</g>
<!-- 7 -->
<g id="node111" class="node"><title>7</title>
<ellipse fill="white" stroke="black" cx="910" cy="-84.0833" rx="14.7" ry="14.7"/>
<text text-anchor="middle" x="910" y="-81.8833" font-family="Times,serif" font-size="9.00">7</text>
</g>
<!-- &#45;21&#45;&gt;7 -->
<g id="edge8" class="edge"><title>&#45;21&#45;&gt;7</title>
<path fill="none" stroke="red" stroke-width="0.183936" d="M1088.24,-153.006C1057.92,-146.779 986.899,-130.238 933,-102.468 931.665,-101.78 930.327,-101.015 929.005,-100.2"/>
<polygon fill="red" stroke="red" stroke-width="0.183936" points="930.914,-97.2635 920.717,-94.3883 926.896,-102.995 930.914,-97.2635"/>
</g>
<!-- 10 -->
<g id="node114" class="node"><title>10</title>
<ellipse fill="white" stroke="black" cx="1178" cy="-84.0833" rx="18.2703" ry="18.2703"/>
<text text-anchor="middle" x="1178" y="-81.8833" font-family="Times,serif" font-size="9.00">10</text>
</g>
<!-- &#45;21&#45;&gt;10 -->
<g id="edge12" class="edge"><title>&#45;21&#45;&gt;10</title>
<path fill="none" stroke="green" stroke-width="0.148102" d="M1111.6,-147.735C1122.74,-137.223 1142.52,-118.565 1157.6,-104.336"/>
<polygon fill="green" stroke="green" stroke-width="0.148102" points="1160.11,-106.774 1164.98,-97.3649 1155.31,-101.682 1160.11,-106.774"/>
</g>
<!-- &#45;22 -->
<g id="node22" class="node"><title>&#45;22</title>
<polygon fill="lightgray" stroke="black" points="1276.5,-165.853 1247.5,-165.853 1247.5,-147.853 1276.5,-147.853 1276.5,-165.853"/>
<text text-anchor="middle" x="1262" y="-154.653" font-family="Times,serif" font-size="9.00">&#45;22</text>
</g>
<!-- &#45;23 -->
<g id="node23" class="node"><title>&#45;23</title>
<polygon fill="lightgray" stroke="black" points="1323.5,-165.853 1294.5,-165.853 1294.5,-147.853 1323.5,-147.853 1323.5,-165.853"/>
<text text-anchor="middle" x="1309" y="-154.653" font-family="Times,serif" font-size="9.00">&#45;23</text>
</g>
<!-- &#45;24 -->
<g id="node24" class="node"><title>&#45;24</title>
<polygon fill="lightgray" stroke="black" points="1370.5,-165.853 1341.5,-165.853 1341.5,-147.853 1370.5,-147.853 1370.5,-165.853"/>
<text text-anchor="middle" x="1356" y="-154.653" font-family="Times,serif" font-size="9.00">&#45;24</text>
</g>
<!-- &#45;25 -->
<g id="node25" class="node"><title>&#45;25</title>
<polygon fill="lightgray" stroke="black" points="1182.5,-165.853 1153.5,-165.853 1153.5,-147.853 1182.5,-147.853 1182.5,-165.853"/>
<text text-anchor="middle" x="1168" y="-154.653" font-family="Times,serif" font-size="9.00">&#45;25</text>
</g>
<!-- &#45;25&#45;&gt;10 -->
<g id="edge17" class="edge"><title>&#45;25&#45;&gt;10</title>
<path fill="none" stroke="green" stroke-width="0.165734" d="M1169.15,-147.735C1170.36,-139.169 1172.33,-125.193 1174.11,-112.613"/>
<polygon fill="green" stroke="green" stroke-width="0.165734" points="1177.6,-112.914 1175.54,-102.523 1170.67,-111.935 1177.6,-112.914"/>
</g>
<!-- &#45;26 -->
<g id="node26" class="node"><title>&#45;26</title>
<polygon fill="lightgray" stroke="black" points="1417.5,-165.853 1388.5,-165.853 1388.5,-147.853 1417.5,-147.853 1417.5,-165.853"/>
<text text-anchor="middle" x="1403" y="-154.653" font-family="Times,serif" font-size="9.00">&#45;26</text>
</g>
<!-- &#45;27 -->
<g id="node27" class="node"><title>&#45;27</title>
<polygon fill="lightgray" stroke="black" points="1464.5,-165.853 1435.5,-165.853 1435.5,-147.853 1464.5,-147.853 1464.5,-165.853"/>
<text text-anchor="middle" x="1450" y="-154.653" font-family="Times,serif" font-size="9.00">&#45;27</text>
</g>
<!-- 9 -->
<g id="node113" class="node"><title>9</title>
<ellipse fill="white" stroke="black" cx="1454" cy="-84.0833" rx="14.7" ry="14.7"/>
<text text-anchor="middle" x="1454" y="-81.8833" font-family="Times,serif" font-size="9.00">9</text>
</g>
<!-- &#45;27&#45;&gt;9 -->
<g id="edge23" class="edge"><title>&#45;27&#45;&gt;9</title>
<path fill="none" stroke="green" stroke-width="0.125085" d="M1450.46,-147.735C1450.99,-138.338 1451.89,-122.432 1452.65,-108.999"/>
<polygon fill="green" stroke="green" stroke-width="0.125085" points="1456.15,-109.11 1453.22,-98.9279 1449.16,-108.714 1456.15,-109.11"/>
</g>
<!-- &#45;28 -->
<g id="node28" class="node"><title>&#45;28</title>
<polygon fill="lightgray" stroke="black" points="1554.5,-93.0833 1525.5,-93.0833 1525.5,-75.0833 1554.5,-75.0833 1554.5,-93.0833"/>
<text text-anchor="middle" x="1540" y="-81.8833" font-family="Times,serif" font-size="9.00">&#45;28</text>
</g>
<!-- 5 -->
<g id="node109" class="node"><title>5</title>
<ellipse fill="lightblue" stroke="black" cx="1587" cy="-14.8492" rx="14.7" ry="14.7"/>
<text text-anchor="middle" x="1587" y="-12.6492" font-family="Times,serif" font-size="9.00">5</text>
</g>
<!-- &#45;28&#45;&gt;5 -->
<g id="edge1" class="edge"><title>&#45;28&#45;&gt;5</title>
<path fill="none" stroke="red" stroke-width="0.519799" d="M1545.76,-74.8391C1552.46,-65.2662 1563.73,-49.1308 1572.81,-36.1528"/>
<polygon fill="red" stroke="red" stroke-width="0.519799" points="1575.79,-37.9932 1578.65,-27.7919 1570.05,-33.9825 1575.79,-37.9932"/>
</g>
<!-- &#45;29 -->
<g id="node29" class="node"><title>&#45;29</title>
<polygon fill="lightgray" stroke="black" points="1718.5,-165.853 1689.5,-165.853 1689.5,-147.853 1718.5,-147.853 1718.5,-165.853"/>
<text text-anchor="middle" x="1704" y="-154.653" font-family="Times,serif" font-size="9.00">&#45;29</text>
</g>
<!-- &#45;30 -->
<g id="node30" class="node"><title>&#45;30</title>
<polygon fill="lightgray" stroke="black" points="1765.5,-165.853 1736.5,-165.853 1736.5,-147.853 1765.5,-147.853 1765.5,-165.853"/>
<text text-anchor="middle" x="1751" y="-154.653" font-family="Times,serif" font-size="9.00">&#45;30</text>
</g>
<!-- &#45;31 -->
<g id="node31" class="node"><title>&#45;31</title>
<polygon fill="lightgray" stroke="black" points="1812.5,-165.853 1783.5,-165.853 1783.5,-147.853 1812.5,-147.853 1812.5,-165.853"/>
<text text-anchor="middle" x="1798" y="-154.653" font-family="Times,serif" font-size="9.00">&#45;31</text>
</g>
<!-- &#45;32 -->
<g id="node32" class="node"><title>&#45;32</title>
<polygon fill="lightgray" stroke="black" points="1859.5,-165.853 1830.5,-165.853 1830.5,-147.853 1859.5,-147.853 1859.5,-165.853"/>
<text text-anchor="middle" x="1845" y="-154.653" font-family="Times,serif" font-size="9.00">&#45;32</text>
</g>
<!-- &#45;33 -->
<g id="node33" class="node"><title>&#45;33</title>
<polygon fill="lightgray" stroke="black" points="1906.5,-165.853 1877.5,-165.853 1877.5,-147.853 1906.5,-147.853 1906.5,-165.853"/>
<text text-anchor="middle" x="1892" y="-154.653" font-family="Times,serif" font-size="9.00">&#45;33</text>
</g>
<!-- &#45;34 -->
<g id="node34" class="node"><title>&#45;34</title>
<polygon fill="lightgray" stroke="black" points="1953.5,-165.853 1924.5,-165.853 1924.5,-147.853 1953.5,-147.853 1953.5,-165.853"/>
<text text-anchor="middle" x="1939" y="-154.653" font-family="Times,serif" font-size="9.00">&#45;34</text>
</g>
<!-- &#45;35 -->
<g id="node35" class="node"><title>&#45;35</title>
<polygon fill="lightgray" stroke="black" points="2000.5,-165.853 1971.5,-165.853 1971.5,-147.853 2000.5,-147.853 2000.5,-165.853"/>
<text text-anchor="middle" x="1986" y="-154.653" font-family="Times,serif" font-size="9.00">&#45;35</text>
</g>
<!-- &#45;36 -->
<g id="node36" class="node"><title>&#45;36</title>
<polygon fill="lightgray" stroke="black" points="2047.5,-165.853 2018.5,-165.853 2018.5,-147.853 2047.5,-147.853 2047.5,-165.853"/>
<text text-anchor="middle" x="2033" y="-154.653" font-family="Times,serif" font-size="9.00">&#45;36</text>
</g>
<!-- &#45;37 -->
<g id="node37" class="node"><title>&#45;37</title>
<polygon fill="lightgray" stroke="black" points="2094.5,-165.853 2065.5,-165.853 2065.5,-147.853 2094.5,-147.853 2094.5,-165.853"/>
<text text-anchor="middle" x="2080" y="-154.653" font-family="Times,serif" font-size="9.00">&#45;37</text>
</g>
<!-- &#45;38 -->
<g id="node38" class="node"><title>&#45;38</title>
<polygon fill="lightgray" stroke="black" points="2141.5,-165.853 2112.5,-165.853 2112.5,-147.853 2141.5,-147.853 2141.5,-165.853"/>
<text text-anchor="middle" x="2127" y="-154.653" font-family="Times,serif" font-size="9.00">&#45;38</text>
</g>
<!-- &#45;39 -->
<g id="node39" class="node"><title>&#45;39</title>
<polygon fill="lightgray" stroke="black" points="2188.5,-165.853 2159.5,-165.853 2159.5,-147.853 2188.5,-147.853 2188.5,-165.853"/>
<text text-anchor="middle" x="2174" y="-154.653" font-family="Times,serif" font-size="9.00">&#45;39</text>
</g>
<!-- &#45;40 -->
<g id="node40" class="node"><title>&#45;40</title>
<polygon fill="lightgray" stroke="black" points="2235.5,-165.853 2206.5,-165.853 2206.5,-147.853 2235.5,-147.853 2235.5,-165.853"/>
<text text-anchor="middle" x="2221" y="-154.653" font-family="Times,serif" font-size="9.00">&#45;40</text>
</g>
<!-- &#45;41 -->
<g id="node41" class="node"><title>&#45;41</title>
<polygon fill="lightgray" stroke="black" points="2282.5,-165.853 2253.5,-165.853 2253.5,-147.853 2282.5,-147.853 2282.5,-165.853"/>
<text text-anchor="middle" x="2268" y="-154.653" font-family="Times,serif" font-size="9.00">&#45;41</text>
</g>
<!-- &#45;42 -->
<g id="node42" class="node"><title>&#45;42</title>
<polygon fill="lightgray" stroke="black" points="1511.5,-165.853 1482.5,-165.853 1482.5,-147.853 1511.5,-147.853 1511.5,-165.853"/>
<text text-anchor="middle" x="1497" y="-154.653" font-family="Times,serif" font-size="9.00">&#45;42</text>
</g>
<!-- 8 -->
<g id="node112" class="node"><title>8</title>
<ellipse fill="white" stroke="black" cx="1475" cy="-14.8492" rx="14.7" ry="14.7"/>
<text text-anchor="middle" x="1475" y="-12.6492" font-family="Times,serif" font-size="9.00">8</text>
</g>
<!-- &#45;42&#45;&gt;8 -->
<g id="edge15" class="edge"><title>&#45;42&#45;&gt;8</title>
<path fill="none" stroke="green" stroke-width="0.523231" stroke-dasharray="1,5" d="M1495.69,-147.514C1492.43,-126.767 1483.85,-72.1932 1478.83,-40.1947"/>
<polygon fill="green" stroke="green" stroke-width="0.523231" points="1482.22,-39.2457 1477.21,-29.9103 1475.3,-40.3324 1482.22,-39.2457"/>
</g>
<!-- &#45;42&#45;&gt;9 -->
<g id="edge18" class="edge"><title>&#45;42&#45;&gt;9</title>
<path fill="none" stroke="green" stroke-width="0.337922" d="M1492.07,-147.735C1485.88,-137.549 1475.04,-119.715 1466.51,-105.673"/>
<polygon fill="green" stroke="green" stroke-width="0.337922" points="1469.49,-103.84 1461.31,-97.1109 1463.51,-107.474 1469.49,-103.84"/>
</g>
<!-- &#45;43 -->
<g id="node43" class="node"><title>&#45;43</title>
<polygon fill="lightgray" stroke="black" points="2329.5,-165.853 2300.5,-165.853 2300.5,-147.853 2329.5,-147.853 2329.5,-165.853"/>
<text text-anchor="middle" x="2315" y="-154.653" font-family="Times,serif" font-size="9.00">&#45;43</text>
</g>
<!-- &#45;44 -->
<g id="node44" class="node"><title>&#45;44</title>
<polygon fill="lightgray" stroke="black" points="2376.5,-165.853 2347.5,-165.853 2347.5,-147.853 2376.5,-147.853 2376.5,-165.853"/>
<text text-anchor="middle" x="2362" y="-154.653" font-family="Times,serif" font-size="9.00">&#45;44</text>
</g>
<!-- &#45;45 -->
<g id="node45" class="node"><title>&#45;45</title>
<polygon fill="lightgray" stroke="black" points="2423.5,-165.853 2394.5,-165.853 2394.5,-147.853 2423.5,-147.853 2423.5,-165.853"/>
<text text-anchor="middle" x="2409" y="-154.653" font-family="Times,serif" font-size="9.00">&#45;45</text>
</g>
<!-- &#45;46 -->
<g id="node46" class="node"><title>&#45;46</title>
<polygon fill="lightgray" stroke="black" points="2470.5,-165.853 2441.5,-165.853 2441.5,-147.853 2470.5,-147.853 2470.5,-165.853"/>
<text text-anchor="middle" x="2456" y="-154.653" font-family="Times,serif" font-size="9.00">&#45;46</text>
</g>
<!-- &#45;47 -->
<g id="node47" class="node"><title>&#45;47</title>
<polygon fill="lightgray" stroke="black" points="2517.5,-165.853 2488.5,-165.853 2488.5,-147.853 2517.5,-147.853 2517.5,-165.853"/>
<text text-anchor="middle" x="2503" y="-154.653" font-family="Times,serif" font-size="9.00">&#45;47</text>
</g>
<!-- &#45;48 -->
<g id="node48" class="node"><title>&#45;48</title>
<polygon fill="lightgray" stroke="black" points="971.5,-93.0833 942.5,-93.0833 942.5,-75.0833 971.5,-75.0833 971.5,-93.0833"/>
<text text-anchor="middle" x="957" y="-81.8833" font-family="Times,serif" font-size="9.00">&#45;48</text>
</g>
<!-- &#45;48&#45;&gt;0 -->
<g id="edge14" class="edge"><title>&#45;48&#45;&gt;0</title>
<path fill="none" stroke="red" stroke-width="0.147874" d="M962.763,-74.8391C969.455,-65.2662 980.735,-49.1308 989.807,-36.1528"/>
<polygon fill="red" stroke="red" stroke-width="0.147874" points="992.791,-37.9932 995.651,-27.7919 987.053,-33.9825 992.791,-37.9932"/>
</g>
<!-- &#45;49 -->
<g id="node49" class="node"><title>&#45;49</title>
<polygon fill="lightgray" stroke="black" points="2564.5,-165.853 2535.5,-165.853 2535.5,-147.853 2564.5,-147.853 2564.5,-165.853"/>
<text text-anchor="middle" x="2550" y="-154.653" font-family="Times,serif" font-size="9.00">&#45;49</text>
</g>
<!-- &#45;50 -->
<g id="node50" class="node"><title>&#45;50</title>
<polygon fill="lightgray" stroke="black" points="2611.5,-165.853 2582.5,-165.853 2582.5,-147.853 2611.5,-147.853 2611.5,-165.853"/>
<text text-anchor="middle" x="2597" y="-154.653" font-family="Times,serif" font-size="9.00">&#45;50</text>
</g>
<!-- &#45;51 -->
<g id="node51" class="node"><title>&#45;51</title>
<polygon fill="lightgray" stroke="black" points="2658.5,-165.853 2629.5,-165.853 2629.5,-147.853 2658.5,-147.853 2658.5,-165.853"/>
<text text-anchor="middle" x="2644" y="-154.653" font-family="Times,serif" font-size="9.00">&#45;51</text>
</g>
<!-- &#45;52 -->
<g id="node52" class="node"><title>&#45;52</title>
<polygon fill="lightgray" stroke="black" points="2705.5,-165.853 2676.5,-165.853 2676.5,-147.853 2705.5,-147.853 2705.5,-165.853"/>
<text text-anchor="middle" x="2691" y="-154.653" font-family="Times,serif" font-size="9.00">&#45;52</text>
</g>
<!-- &#45;53 -->
<g id="node53" class="node"><title>&#45;53</title>
<polygon fill="lightgray" stroke="black" points="2752.5,-165.853 2723.5,-165.853 2723.5,-147.853 2752.5,-147.853 2752.5,-165.853"/>
<text text-anchor="middle" x="2738" y="-154.653" font-family="Times,serif" font-size="9.00">&#45;53</text>
</g>
<!-- &#45;54 -->
<g id="node54" class="node"><title>&#45;54</title>
<polygon fill="lightgray" stroke="black" points="2799.5,-165.853 2770.5,-165.853 2770.5,-147.853 2799.5,-147.853 2799.5,-165.853"/>
<text text-anchor="middle" x="2785" y="-154.653" font-family="Times,serif" font-size="9.00">&#45;54</text>
</g>
<!-- &#45;55 -->
<g id="node55" class="node"><title>&#45;55</title>
<polygon fill="lightgray" stroke="black" points="2846.5,-165.853 2817.5,-165.853 2817.5,-147.853 2846.5,-147.853 2846.5,-165.853"/>
<text text-anchor="middle" x="2832" y="-154.653" font-family="Times,serif" font-size="9.00">&#45;55</text>
</g>
<!-- &#45;56 -->
<g id="node56" class="node"><title>&#45;56</title>
<polygon fill="lightgray" stroke="black" points="2893.5,-165.853 2864.5,-165.853 2864.5,-147.853 2893.5,-147.853 2893.5,-165.853"/>
<text text-anchor="middle" x="2879" y="-154.653" font-family="Times,serif" font-size="9.00">&#45;56</text>
</g>
<!-- &#45;57 -->
<g id="node57" class="node"><title>&#45;57</title>
<polygon fill="lightgray" stroke="black" points="2940.5,-165.853 2911.5,-165.853 2911.5,-147.853 2940.5,-147.853 2940.5,-165.853"/>
<text text-anchor="middle" x="2926" y="-154.653" font-family="Times,serif" font-size="9.00">&#45;57</text>
</g>
<!-- &#45;58 -->
<g id="node58" class="node"><title>&#45;58</title>
<polygon fill="lightgray" stroke="black" points="2987.5,-165.853 2958.5,-165.853 2958.5,-147.853 2987.5,-147.853 2987.5,-165.853"/>
<text text-anchor="middle" x="2973" y="-154.653" font-family="Times,serif" font-size="9.00">&#45;58</text>
</g>
<!-- &#45;59 -->
<g id="node59" class="node"><title>&#45;59</title>
<polygon fill="lightgray" stroke="black" points="3034.5,-165.853 3005.5,-165.853 3005.5,-147.853 3034.5,-147.853 3034.5,-165.853"/>
<text text-anchor="middle" x="3020" y="-154.653" font-family="Times,serif" font-size="9.00">&#45;59</text>
</g>
<!-- &#45;60 -->
<g id="node60" class="node"><title>&#45;60</title>
<polygon fill="lightgray" stroke="black" points="3081.5,-165.853 3052.5,-165.853 3052.5,-147.853 3081.5,-147.853 3081.5,-165.853"/>
<text text-anchor="middle" x="3067" y="-154.653" font-family="Times,serif" font-size="9.00">&#45;60</text>
</g>
<!-- &#45;61 -->
<g id="node61" class="node"><title>&#45;61</title>
<polygon fill="lightgray" stroke="black" points="3128.5,-165.853 3099.5,-165.853 3099.5,-147.853 3128.5,-147.853 3128.5,-165.853"/>
<text text-anchor="middle" x="3114" y="-154.653" font-family="Times,serif" font-size="9.00">&#45;61</text>
</g>
<!-- &#45;62 -->
<g id="node62" class="node"><title>&#45;62</title>
<polygon fill="lightgray" stroke="black" points="3175.5,-165.853 3146.5,-165.853 3146.5,-147.853 3175.5,-147.853 3175.5,-165.853"/>
<text text-anchor="middle" x="3161" y="-154.653" font-family="Times,serif" font-size="9.00">&#45;62</text>
</g>
<!-- &#45;63 -->
<g id="node63" class="node"><title>&#45;63</title>
<polygon fill="lightgray" stroke="black" points="3222.5,-165.853 3193.5,-165.853 3193.5,-147.853 3222.5,-147.853 3222.5,-165.853"/>
<text text-anchor="middle" x="3208" y="-154.653" font-family="Times,serif" font-size="9.00">&#45;63</text>
</g>
<!-- &#45;64 -->
<g id="node64" class="node"><title>&#45;64</title>
<polygon fill="lightgray" stroke="black" points="3269.5,-165.853 3240.5,-165.853 3240.5,-147.853 3269.5,-147.853 3269.5,-165.853"/>
<text text-anchor="middle" x="3255" y="-154.653" font-family="Times,serif" font-size="9.00">&#45;64</text>
</g>
<!-- &#45;65 -->
<g id="node65" class="node"><title>&#45;65</title>
<polygon fill="lightgray" stroke="black" points="1624.5,-165.853 1595.5,-165.853 1595.5,-147.853 1624.5,-147.853 1624.5,-165.853"/>
<text text-anchor="middle" x="1610" y="-154.653" font-family="Times,serif" font-size="9.00">&#45;65</text>
</g>
<!-- 4 -->
<g id="node108" class="node"><title>4</title>
<ellipse fill="lightblue" stroke="black" cx="1634" cy="-84.0833" rx="14.7" ry="14.7"/>
<text text-anchor="middle" x="1634" y="-81.8833" font-family="Times,serif" font-size="9.00">4</text>
</g>
<!-- &#45;65&#45;&gt;4 -->
<g id="edge21" class="edge"><title>&#45;65&#45;&gt;4</title>
<path fill="none" stroke="red" stroke-width="0.406658" d="M1612.75,-147.735C1616.01,-138.129 1621.57,-121.722 1626.19,-108.108"/>
<polygon fill="red" stroke="red" stroke-width="0.406658" points="1629.59,-108.994 1629.48,-98.3997 1622.96,-106.746 1629.59,-108.994"/>
</g>
<!-- &#45;66 -->
<g id="node66" class="node"><title>&#45;66</title>
<polygon fill="lightgray" stroke="black" points="3316.5,-165.853 3287.5,-165.853 3287.5,-147.853 3316.5,-147.853 3316.5,-165.853"/>
<text text-anchor="middle" x="3302" y="-154.653" font-family="Times,serif" font-size="9.00">&#45;66</text>
</g>
<!-- &#45;67 -->
<g id="node67" class="node"><title>&#45;67</title>
<polygon fill="lightgray" stroke="black" points="1018.5,-93.0833 989.5,-93.0833 989.5,-75.0833 1018.5,-75.0833 1018.5,-93.0833"/>
<text text-anchor="middle" x="1004" y="-81.8833" font-family="Times,serif" font-size="9.00">&#45;67</text>
</g>
<!-- &#45;67&#45;&gt;0 -->
<g id="edge7" class="edge"><title>&#45;67&#45;&gt;0</title>
<path fill="none" stroke="green" stroke-width="0.16016" stroke-dasharray="1,5" d="M1004,-74.8391C1004,-66.1604 1004,-52.0878 1004,-39.8642"/>
<polygon fill="green" stroke="green" stroke-width="0.16016" points="1007.5,-39.7801 1004,-29.7802 1000.5,-39.7802 1007.5,-39.7801"/>
</g>
<!-- &#45;68 -->
<g id="node68" class="node"><title>&#45;68</title>
<polygon fill="lightgray" stroke="black" points="3363.5,-165.853 3334.5,-165.853 3334.5,-147.853 3363.5,-147.853 3363.5,-165.853"/>
<text text-anchor="middle" x="3349" y="-154.653" font-family="Times,serif" font-size="9.00">&#45;68</text>
</g>
<!-- &#45;69 -->
<g id="node69" class="node"><title>&#45;69</title>
<polygon fill="lightgray" stroke="black" points="3410.5,-165.853 3381.5,-165.853 3381.5,-147.853 3410.5,-147.853 3410.5,-165.853"/>
<text text-anchor="middle" x="3396" y="-154.653" font-family="Times,serif" font-size="9.00">&#45;69</text>
</g>
<!-- &#45;70 -->
<g id="node70" class="node"><title>&#45;70</title>
<polygon fill="lightgray" stroke="black" points="3457.5,-165.853 3428.5,-165.853 3428.5,-147.853 3457.5,-147.853 3457.5,-165.853"/>
<text text-anchor="middle" x="3443" y="-154.653" font-family="Times,serif" font-size="9.00">&#45;70</text>
</g>
<!-- &#45;71 -->
<g id="node71" class="node"><title>&#45;71</title>
<polygon fill="lightgray" stroke="black" points="3504.5,-165.853 3475.5,-165.853 3475.5,-147.853 3504.5,-147.853 3504.5,-165.853"/>
<text text-anchor="middle" x="3490" y="-154.653" font-family="Times,serif" font-size="9.00">&#45;71</text>
</g>
<!-- &#45;72 -->
<g id="node72" class="node"><title>&#45;72</title>
<polygon fill="lightgray" stroke="black" points="3551.5,-165.853 3522.5,-165.853 3522.5,-147.853 3551.5,-147.853 3551.5,-165.853"/>
<text text-anchor="middle" x="3537" y="-154.653" font-family="Times,serif" font-size="9.00">&#45;72</text>
</g>
<!-- &#45;73 -->
<g id="node73" class="node"><title>&#45;73</title>
<polygon fill="lightgray" stroke="black" points="3598.5,-165.853 3569.5,-165.853 3569.5,-147.853 3598.5,-147.853 3598.5,-165.853"/>
<text text-anchor="middle" x="3584" y="-154.653" font-family="Times,serif" font-size="9.00">&#45;73</text>
</g>
<!-- &#45;74 -->
<g id="node74" class="node"><title>&#45;74</title>
<polygon fill="lightgray" stroke="black" points="1229.5,-165.853 1200.5,-165.853 1200.5,-147.853 1229.5,-147.853 1229.5,-165.853"/>
<text text-anchor="middle" x="1215" y="-154.653" font-family="Times,serif" font-size="9.00">&#45;74</text>
</g>
<!-- &#45;74&#45;&gt;10 -->
<g id="edge20" class="edge"><title>&#45;74&#45;&gt;10</title>
<path fill="none" stroke="green" stroke-width="0.371782" stroke-dasharray="1,5" d="M1210.76,-147.735C1205.96,-138.561 1197.92,-123.184 1191.01,-109.96"/>
<polygon fill="green" stroke="green" stroke-width="0.371782" points="1193.97,-108.071 1186.23,-100.831 1187.76,-111.314 1193.97,-108.071"/>
</g>
<!-- &#45;75 -->
<g id="node75" class="node"><title>&#45;75</title>
<polygon fill="lightgray" stroke="black" points="3645.5,-165.853 3616.5,-165.853 3616.5,-147.853 3645.5,-147.853 3645.5,-165.853"/>
<text text-anchor="middle" x="3631" y="-154.653" font-family="Times,serif" font-size="9.00">&#45;75</text>
</g>
<!-- &#45;76 -->
<g id="node76" class="node"><title>&#45;76</title>
<polygon fill="lightgray" stroke="black" points="3692.5,-165.853 3663.5,-165.853 3663.5,-147.853 3692.5,-147.853 3692.5,-165.853"/>
<text text-anchor="middle" x="3678" y="-154.653" font-family="Times,serif" font-size="9.00">&#45;76</text>
</g>
<!-- &#45;77 -->
<g id="node77" class="node"><title>&#45;77</title>
<polygon fill="lightgray" stroke="black" points="3739.5,-165.853 3710.5,-165.853 3710.5,-147.853 3739.5,-147.853 3739.5,-165.853"/>
<text text-anchor="middle" x="3725" y="-154.653" font-family="Times,serif" font-size="9.00">&#45;77</text>
</g>
<!-- &#45;78 -->
<g id="node78" class="node"><title>&#45;78</title>
<polygon fill="lightgray" stroke="black" points="3786.5,-165.853 3757.5,-165.853 3757.5,-147.853 3786.5,-147.853 3786.5,-165.853"/>
<text text-anchor="middle" x="3772" y="-154.653" font-family="Times,serif" font-size="9.00">&#45;78</text>
</g>
<!-- &#45;79 -->
<g id="node79" class="node"><title>&#45;79</title>
<polygon fill="lightgray" stroke="black" points="3833.5,-165.853 3804.5,-165.853 3804.5,-147.853 3833.5,-147.853 3833.5,-165.853"/>
<text text-anchor="middle" x="3819" y="-154.653" font-family="Times,serif" font-size="9.00">&#45;79</text>
</g>
<!-- 6 -->
<g id="node110" class="node"><title>6</title>
<ellipse fill="lightblue" stroke="black" cx="3842" cy="-84.0833" rx="14.7" ry="14.7"/>
<text text-anchor="middle" x="3842" y="-81.8833" font-family="Times,serif" font-size="9.00">6</text>
</g>
<!-- &#45;79&#45;&gt;6 -->
<g id="edge5" class="edge"><title>&#45;79&#45;&gt;6</title>
<path fill="none" stroke="red" stroke-width="0.385283" stroke-dasharray="1,5" d="M3821.64,-147.735C3824.76,-138.129 3830.09,-121.722 3834.52,-108.108"/>
<polygon fill="red" stroke="red" stroke-width="0.385283" points="3837.91,-108.992 3837.67,-98.3997 3831.25,-106.828 3837.91,-108.992"/>
</g>
<!-- &#45;80 -->
<g id="node80" class="node"><title>&#45;80</title>
<polygon fill="lightgray" stroke="black" points="3927.5,-165.853 3898.5,-165.853 3898.5,-147.853 3927.5,-147.853 3927.5,-165.853"/>
<text text-anchor="middle" x="3913" y="-154.653" font-family="Times,serif" font-size="9.00">&#45;80</text>
</g>
<!-- &#45;81 -->
<g id="node81" class="node"><title>&#45;81</title>
<polygon fill="lightgray" stroke="black" points="3974.5,-165.853 3945.5,-165.853 3945.5,-147.853 3974.5,-147.853 3974.5,-165.853"/>
<text text-anchor="middle" x="3960" y="-154.653" font-family="Times,serif" font-size="9.00">&#45;81</text>
</g>
<!-- &#45;82 -->
<g id="node82" class="node"><title>&#45;82</title>
<polygon fill="lightgray" stroke="black" points="4021.5,-165.853 3992.5,-165.853 3992.5,-147.853 4021.5,-147.853 4021.5,-165.853"/>
<text text-anchor="middle" x="4007" y="-154.653" font-family="Times,serif" font-size="9.00">&#45;82</text>
</g>
<!-- &#45;83 -->
<g id="node83" class="node"><title>&#45;83</title>
<polygon fill="lightgray" stroke="black" points="1065.5,-93.0833 1036.5,-93.0833 1036.5,-75.0833 1065.5,-75.0833 1065.5,-93.0833"/>
<text text-anchor="middle" x="1051" y="-81.8833" font-family="Times,serif" font-size="9.00">&#45;83</text>
</g>
<!-- &#45;83&#45;&gt;0 -->
<g id="edge4" class="edge"><title>&#45;83&#45;&gt;0</title>
<path fill="none" stroke="green" stroke-width="0.285267" d="M1045.24,-74.8391C1038.54,-65.2662 1027.27,-49.1308 1018.19,-36.1528"/>
<polygon fill="green" stroke="green" stroke-width="0.285267" points="1020.95,-33.9825 1012.35,-27.7919 1015.21,-37.9932 1020.95,-33.9825"/>
</g>
<!-- &#45;84 -->
<g id="node84" class="node"><title>&#45;84</title>
<polygon fill="lightgray" stroke="black" points="4068.5,-165.853 4039.5,-165.853 4039.5,-147.853 4068.5,-147.853 4068.5,-165.853"/>
<text text-anchor="middle" x="4054" y="-154.653" font-family="Times,serif" font-size="9.00">&#45;84</text>
</g>
<!-- &#45;85 -->
<g id="node85" class="node"><title>&#45;85</title>
<polygon fill="lightgray" stroke="black" points="3880.5,-165.853 3851.5,-165.853 3851.5,-147.853 3880.5,-147.853 3880.5,-165.853"/>
<text text-anchor="middle" x="3866" y="-154.653" font-family="Times,serif" font-size="9.00">&#45;85</text>
</g>
<!-- &#45;85&#45;&gt;6 -->
<g id="edge2" class="edge"><title>&#45;85&#45;&gt;6</title>
<path fill="none" stroke="red" stroke-width="0.102905" d="M3863.25,-147.735C3859.99,-138.129 3854.43,-121.722 3849.81,-108.108"/>
<polygon fill="red" stroke="red" stroke-width="0.102905" points="3853.04,-106.746 3846.52,-98.3997 3846.41,-108.994 3853.04,-106.746"/>
</g>
<!-- &#45;86 -->
<g id="node86" class="node"><title>&#45;86</title>
<polygon fill="lightgray" stroke="black" points="4115.5,-165.853 4086.5,-165.853 4086.5,-147.853 4115.5,-147.853 4115.5,-165.853"/>
<text text-anchor="middle" x="4101" y="-154.653" font-family="Times,serif" font-size="9.00">&#45;86</text>
</g>
<!-- &#45;87 -->
<g id="node87" class="node"><title>&#45;87</title>
<polygon fill="lightgray" stroke="black" points="4162.5,-165.853 4133.5,-165.853 4133.5,-147.853 4162.5,-147.853 4162.5,-165.853"/>
<text text-anchor="middle" x="4148" y="-154.653" font-family="Times,serif" font-size="9.00">&#45;87</text>
</g>
<!-- &#45;88 -->
<g id="node88" class="node"><title>&#45;88</title>
<polygon fill="lightgray" stroke="black" points="4209.5,-165.853 4180.5,-165.853 4180.5,-147.853 4209.5,-147.853 4209.5,-165.853"/>
<text text-anchor="middle" x="4195" y="-154.653" font-family="Times,serif" font-size="9.00">&#45;88</text>
</g>
<!-- &#45;89 -->
<g id="node89" class="node"><title>&#45;89</title>
<polygon fill="lightgray" stroke="black" points="4256.5,-165.853 4227.5,-165.853 4227.5,-147.853 4256.5,-147.853 4256.5,-165.853"/>
<text text-anchor="middle" x="4242" y="-154.653" font-family="Times,serif" font-size="9.00">&#45;89</text>
</g>
<!-- &#45;90 -->
<g id="node90" class="node"><title>&#45;90</title>
<polygon fill="lightgray" stroke="black" points="4303.5,-165.853 4274.5,-165.853 4274.5,-147.853 4303.5,-147.853 4303.5,-165.853"/>
<text text-anchor="middle" x="4289" y="-154.653" font-family="Times,serif" font-size="9.00">&#45;90</text>
</g>
<!-- &#45;91 -->
<g id="node91" class="node"><title>&#45;91</title>
<polygon fill="lightgray" stroke="black" points="4350.5,-165.853 4321.5,-165.853 4321.5,-147.853 4350.5,-147.853 4350.5,-165.853"/>
<text text-anchor="middle" x="4336" y="-154.653" font-family="Times,serif" font-size="9.00">&#45;91</text>
</g>
<!-- &#45;92 -->
<g id="node92" class="node"><title>&#45;92</title>
<polygon fill="lightgray" stroke="black" points="1671.5,-165.853 1642.5,-165.853 1642.5,-147.853 1671.5,-147.853 1671.5,-165.853"/>
<text text-anchor="middle" x="1657" y="-154.653" font-family="Times,serif" font-size="9.00">&#45;92</text>
</g>
<!-- &#45;92&#45;&gt;4 -->
<g id="edge10" class="edge"><title>&#45;92&#45;&gt;4</title>
<path fill="none" stroke="green" stroke-width="0.204763" d="M1654.36,-147.735C1651.24,-138.129 1645.91,-121.722 1641.48,-108.108"/>
<polygon fill="green" stroke="green" stroke-width="0.204763" points="1644.75,-106.828 1638.33,-98.3997 1638.09,-108.992 1644.75,-106.828"/>
</g>
<!-- &#45;93 -->
<g id="node93" class="node"><title>&#45;93</title>
<polygon fill="lightgray" stroke="black" points="4397.5,-165.853 4368.5,-165.853 4368.5,-147.853 4397.5,-147.853 4397.5,-165.853"/>
<text text-anchor="middle" x="4383" y="-154.653" font-family="Times,serif" font-size="9.00">&#45;93</text>
</g>
<!-- &#45;94 -->
<g id="node94" class="node"><title>&#45;94</title>
<polygon fill="lightgray" stroke="black" points="4444.5,-165.853 4415.5,-165.853 4415.5,-147.853 4444.5,-147.853 4444.5,-165.853"/>
<text text-anchor="middle" x="4430" y="-154.653" font-family="Times,serif" font-size="9.00">&#45;94</text>
</g>
<!-- &#45;95 -->
<g id="node95" class="node"><title>&#45;95</title>
<polygon fill="lightgray" stroke="black" points="4491.5,-165.853 4462.5,-165.853 4462.5,-147.853 4491.5,-147.853 4491.5,-165.853"/>
<text text-anchor="middle" x="4477" y="-154.653" font-family="Times,serif" font-size="9.00">&#45;95</text>
</g>
<!-- &#45;96 -->
<g id="node96" class="node"><title>&#45;96</title>
<polygon fill="lightgray" stroke="black" points="924.5,-165.853 895.5,-165.853 895.5,-147.853 924.5,-147.853 924.5,-165.853"/>
<text text-anchor="middle" x="910" y="-154.653" font-family="Times,serif" font-size="9.00">&#45;96</text>
</g>
<!-- &#45;96&#45;&gt;7 -->
<g id="edge16" class="edge"><title>&#45;96&#45;&gt;7</title>
<path fill="none" stroke="green" stroke-width="0.175961" d="M910,-147.735C910,-138.395 910,-122.626 910,-109.245"/>
<polygon fill="green" stroke="green" stroke-width="0.175961" points="913.5,-109.195 910,-99.1947 906.5,-109.195 913.5,-109.195"/>
</g>
<!-- &#45;97 -->
<g id="node97" class="node"><title>&#45;97</title>
<polygon fill="lightgray" stroke="black" points="1601.5,-93.0833 1572.5,-93.0833 1572.5,-75.0833 1601.5,-75.0833 1601.5,-93.0833"/>
<text text-anchor="middle" x="1587" y="-81.8833" font-family="Times,serif" font-size="9.00">&#45;97</text>
</g>
<!-- &#45;97&#45;&gt;5 -->
<g id="edge22" class="edge"><title>&#45;97&#45;&gt;5</title>
<path fill="none" stroke="green" stroke-width="0.298691" d="M1587,-74.8391C1587,-66.1604 1587,-52.0878 1587,-39.8642"/>
<polygon fill="green" stroke="green" stroke-width="0.298691" points="1590.5,-39.7801 1587,-29.7802 1583.5,-39.7802 1590.5,-39.7801"/>
</g>
<!-- &#45;98 -->
<g id="node98" class="node"><title>&#45;98</title>
<polygon fill="lightgray" stroke="black" points="4538.5,-165.853 4509.5,-165.853 4509.5,-147.853 4538.5,-147.853 4538.5,-165.853"/>
<text text-anchor="middle" x="4524" y="-154.653" font-family="Times,serif" font-size="9.00">&#45;98</text>
</g>
<!-- &#45;99 -->
<g id="node99" class="node"><title>&#45;99</title>
<polygon fill="lightgray" stroke="black" points="4585.5,-165.853 4556.5,-165.853 4556.5,-147.853 4585.5,-147.853 4585.5,-165.853"/>
<text text-anchor="middle" x="4571" y="-154.653" font-family="Times,serif" font-size="9.00">&#45;99</text>
</g>
<!-- &#45;100 -->
<g id="node100" class="node"><title>&#45;100</title>
<polygon fill="lightgray" stroke="black" points="4636.5,-165.853 4603.5,-165.853 4603.5,-147.853 4636.5,-147.853 4636.5,-165.853"/>
<text text-anchor="middle" x="4620" y="-154.653" font-family="Times,serif" font-size="9.00">&#45;100</text>
</g>
<!-- &#45;101 -->
<g id="node101" class="node"><title>&#45;101</title>
<polygon fill="lightgray" stroke="black" points="4687.5,-165.853 4654.5,-165.853 4654.5,-147.853 4687.5,-147.853 4687.5,-165.853"/>
<text text-anchor="middle" x="4671" y="-154.653" font-family="Times,serif" font-size="9.00">&#45;101</text>
</g>
<!-- &#45;102 -->
<g id="node102" class="node"><title>&#45;102</title>
<polygon fill="lightgray" stroke="black" points="4738.5,-165.853 4705.5,-165.853 4705.5,-147.853 4738.5,-147.853 4738.5,-165.853"/>
<text text-anchor="middle" x="4722" y="-154.653" font-family="Times,serif" font-size="9.00">&#45;102</text>
</g>
<!-- &#45;103 -->
<g id="node103" class="node"><title>&#45;103</title>
<polygon fill="lightgray" stroke="black" points="4789.5,-165.853 4756.5,-165.853 4756.5,-147.853 4789.5,-147.853 4789.5,-165.853"/>
<text text-anchor="middle" x="4773" y="-154.653" font-family="Times,serif" font-size="9.00">&#45;103</text>
</g>
<!-- 1 -->
<g id="node105" class="node"><title>1</title>
<ellipse fill="lightblue" stroke="black" cx="4822" cy="-156.853" rx="14.7" ry="14.7"/>
<text text-anchor="middle" x="4822" y="-154.653" font-family="Times,serif" font-size="9.00">1</text>
</g>
<!-- 2 -->
<g id="node106" class="node"><title>2</title>
<ellipse fill="lightblue" stroke="black" cx="4870" cy="-156.853" rx="14.7" ry="14.7"/>
<text text-anchor="middle" x="4870" y="-154.653" font-family="Times,serif" font-size="9.00">2</text>
</g>
<!-- 4&#45;&gt;5 -->
<g id="edge11" class="edge"><title>4&#45;&gt;5</title>
<path fill="none" stroke="green" stroke-width="0.537966" d="M1625.81,-71.372C1618.94,-61.5383 1608.97,-47.2751 1600.85,-35.6676"/>
<polygon fill="green" stroke="green" stroke-width="0.537966" points="1603.69,-33.617 1595.09,-27.4263 1597.95,-37.6276 1603.69,-33.617"/>
</g>
<!-- 7&#45;&gt;0 -->
<g id="edge9" class="edge"><title>7&#45;&gt;0</title>
<path fill="none" stroke="green" stroke-width="0.182766" stroke-dasharray="1,5" d="M921.641,-74.1593C925.261,-71.4183 929.278,-68.4103 933,-65.6985 949.775,-53.4753 969.065,-39.9661 983.301,-30.0977"/>
<polygon fill="green" stroke="green" stroke-width="0.182766" points="985.613,-32.7542 991.848,-24.1886 981.632,-26.9962 985.613,-32.7542"/>
</g>
<!-- 9&#45;&gt;8 -->
<g id="edge19" class="edge"><title>9&#45;&gt;8</title>
<path fill="none" stroke="green" stroke-width="0.154773" d="M1458.15,-69.8C1460.87,-61.0745 1464.51,-49.4216 1467.71,-39.1787"/>
<polygon fill="green" stroke="green" stroke-width="0.154773" points="1471.07,-40.1553 1470.72,-29.5665 1464.39,-38.0682 1471.07,-40.1553"/>
</g>
<!-- 10&#45;&gt;3 -->
<g id="edge13" class="edge"><title>10&#45;&gt;3</title>
<path fill="none" stroke="red" stroke-width="0.294973" d="M1172.31,-66.4636C1169.45,-58.1006 1165.94,-47.833 1162.83,-38.7364"/>
<polygon fill="red" stroke="red" stroke-width="0.294973" points="1166.09,-37.4563 1159.54,-29.1275 1159.47,-39.7221 1166.09,-37.4563"/>
</g>
<!-- 11 -->
<g id="node115" class="node"><title>11</title>
<ellipse fill="white" stroke="black" cx="4921" cy="-156.853" rx="18.2703" ry="18.2703"/>
<text text-anchor="middle" x="4921" y="-154.653" font-family="Times,serif" font-size="9.00">11</text>
</g>
</g>
</svg>
