<?xml version="1.0" encoding="UTF-8" standalone="no"?>
<!DOCTYPE svg PUBLIC "-//W3C//DTD SVG 1.1//EN"
 "http://www.w3.org/Graphics/SVG/1.1/DTD/svg11.dtd">
<!-- Generated by graphviz version 2.38.0 (20140413.2041)
 -->
<!-- Title: %3 Pages: 1 -->
<svg width="3410pt" height="223pt"
 viewBox="0.00 0.00 3409.85 223.10" xmlns="http://www.w3.org/2000/svg" xmlns:xlink="http://www.w3.org/1999/xlink">
<g id="graph0" class="graph" transform="scale(1 1) rotate(0) translate(4 219.095)">
<title>%3</title>
<polygon fill="white" stroke="none" points="-4,4 -4,-219.095 3405.85,-219.095 3405.85,4 -4,4"/>
<!-- &#45;1 -->
<g id="node1" class="node"><title>&#45;1</title>
<polygon fill="lightgray" stroke="black" points="2672.93,-155.246 2648.93,-155.246 2648.93,-137.246 2672.93,-137.246 2672.93,-155.246"/>
<text text-anchor="middle" x="2660.93" y="-144.046" font-family="Times,serif" font-size="9.00">&#45;1</text>
</g>
<!-- 7 -->
<g id="node81" class="node"><title>7</title>
<ellipse fill="white" stroke="black" cx="1769.93" cy="-80.5477" rx="14.7" ry="14.7"/>
<text text-anchor="middle" x="1769.93" y="-78.3477" font-family="Times,serif" font-size="9.00">7</text>
</g>
<!-- &#45;1&#45;&gt;7 -->
<g id="edge1" class="edge"><title>&#45;1&#45;&gt;7</title>
<path fill="none" stroke="red" stroke-width="0.571987" d="M2650.81,-137.034C2647.53,-134.806 2643.74,-132.661 2639.93,-131.397 2477.18,-77.4423 1920.62,-79.9518 1795.18,-81.2358"/>
<polygon fill="red" stroke="red" stroke-width="0.571987" points="1794.98,-77.7377 1785.02,-81.3472 1795.06,-84.7373 1794.98,-77.7377"/>
</g>
<!-- 8 -->
<g id="node82" class="node"><title>8</title>
<ellipse fill="white" stroke="black" cx="1721.93" cy="-80.5477" rx="14.7" ry="14.7"/>
<text text-anchor="middle" x="1721.93" y="-78.3477" font-family="Times,serif" font-size="9.00">8</text>
</g>
<!-- &#45;1&#45;&gt;8 -->
<g id="edge2" class="edge"><title>&#45;1&#45;&gt;8</title>
<path fill="none" stroke="red" stroke-width="0.114898" d="M2650.82,-136.994C2647.54,-134.764 2643.75,-132.629 2639.93,-131.397 2450.68,-70.434 1936.91,-150.69 1745.93,-95.397 1744.86,-95.0893 1743.8,-94.7251 1742.74,-94.317"/>
<polygon fill="red" stroke="red" stroke-width="0.114898" points="1744.14,-91.1032 1733.62,-89.8013 1741.03,-97.376 1744.14,-91.1032"/>
</g>
<!-- &#45;2 -->
<g id="node2" class="node"><title>&#45;2</title>
<polygon fill="lightgray" stroke="black" points="2714.93,-155.246 2690.93,-155.246 2690.93,-137.246 2714.93,-137.246 2714.93,-155.246"/>
<text text-anchor="middle" x="2702.93" y="-144.046" font-family="Times,serif" font-size="9.00">&#45;2</text>
</g>
<!-- &#45;2&#45;&gt;7 -->
<g id="edge3" class="edge"><title>&#45;2&#45;&gt;7</title>
<path fill="none" stroke="green" stroke-width="0.369399" d="M2692.81,-137.028C2689.53,-134.799 2685.74,-132.656 2681.93,-131.397 2595.7,-102.935 1933.62,-85.497 1795.23,-82.1421"/>
<polygon fill="green" stroke="green" stroke-width="0.369399" points="1794.91,-78.6334 1784.83,-81.8926 1794.74,-85.6314 1794.91,-78.6334"/>
</g>
<!-- &#45;2&#45;&gt;8 -->
<g id="edge4" class="edge"><title>&#45;2&#45;&gt;8</title>
<path fill="none" stroke="red" stroke-width="0.411206" d="M2692.82,-136.99C2689.54,-134.76 2685.75,-132.625 2681.93,-131.397 2483.74,-67.7533 1945.92,-153.103 1745.93,-95.397 1744.86,-95.0902 1743.8,-94.7268 1742.74,-94.3194"/>
<polygon fill="red" stroke="red" stroke-width="0.411206" points="1744.14,-91.1055 1733.62,-89.806 1741.03,-97.379 1744.14,-91.1055"/>
</g>
<!-- &#45;3 -->
<g id="node3" class="node"><title>&#45;3</title>
<polygon fill="lightgray" stroke="black" points="2756.93,-155.246 2732.93,-155.246 2732.93,-137.246 2756.93,-137.246 2756.93,-155.246"/>
<text text-anchor="middle" x="2744.93" y="-144.046" font-family="Times,serif" font-size="9.00">&#45;3</text>
</g>
<!-- &#45;3&#45;&gt;7 -->
<g id="edge5" class="edge"><title>&#45;3&#45;&gt;7</title>
<path fill="none" stroke="green" stroke-width="0.286079" d="M2734.81,-137.022C2731.53,-134.793 2727.74,-132.652 2723.93,-131.397 2633.42,-101.644 1936.82,-85.1417 1795.06,-82.0731"/>
<polygon fill="green" stroke="green" stroke-width="0.286079" points="1794.86,-78.5681 1784.78,-81.8534 1794.71,-85.5665 1794.86,-78.5681"/>
</g>
<!-- &#45;3&#45;&gt;8 -->
<g id="edge6" class="edge"><title>&#45;3&#45;&gt;8</title>
<path fill="none" stroke="green" stroke-width="0.365164" d="M2734.82,-136.986C2731.54,-134.756 2727.75,-132.622 2723.93,-131.397 2516.81,-65.0724 1954.93,-155.517 1745.93,-95.397 1744.86,-95.0911 1743.8,-94.7284 1742.74,-94.3216"/>
<polygon fill="green" stroke="green" stroke-width="0.365164" points="1744.13,-91.1075 1733.62,-89.8103 1741.03,-97.3817 1744.13,-91.1075"/>
</g>
<!-- &#45;4 -->
<g id="node4" class="node"><title>&#45;4</title>
<polygon fill="lightgray" stroke="black" points="2798.93,-155.246 2774.93,-155.246 2774.93,-137.246 2798.93,-137.246 2798.93,-155.246"/>
<text text-anchor="middle" x="2786.93" y="-144.046" font-family="Times,serif" font-size="9.00">&#45;4</text>
</g>
<!-- &#45;4&#45;&gt;7 -->
<g id="edge7" class="edge"><title>&#45;4&#45;&gt;7</title>
<path fill="none" stroke="green" stroke-width="0.382773" d="M2776.81,-137.017C2773.53,-134.788 2769.74,-132.648 2765.93,-131.397 2671.22,-100.377 1941.15,-84.8312 1795.25,-82.0177"/>
<polygon fill="green" stroke="green" stroke-width="0.382773" points="1795.13,-78.5148 1785.06,-81.8237 1794.99,-85.5135 1795.13,-78.5148"/>
</g>
<!-- &#45;4&#45;&gt;8 -->
<g id="edge8" class="edge"><title>&#45;4&#45;&gt;8</title>
<path fill="none" stroke="green" stroke-width="0.2412" d="M2776.83,-136.982C2773.54,-134.752 2769.75,-132.619 2765.93,-131.397 2549.87,-62.3914 1963.94,-157.93 1745.93,-95.397 1744.86,-95.0919 1743.8,-94.7299 1742.74,-94.3236"/>
<polygon fill="green" stroke="green" stroke-width="0.2412" points="1744.13,-91.1094 1733.62,-89.8143 1741.03,-97.3842 1744.13,-91.1094"/>
</g>
<!-- &#45;5 -->
<g id="node5" class="node"><title>&#45;5</title>
<polygon fill="lightgray" stroke="black" points="2840.93,-155.246 2816.93,-155.246 2816.93,-137.246 2840.93,-137.246 2840.93,-155.246"/>
<text text-anchor="middle" x="2828.93" y="-144.046" font-family="Times,serif" font-size="9.00">&#45;5</text>
</g>
<!-- &#45;5&#45;&gt;7 -->
<g id="edge9" class="edge"><title>&#45;5&#45;&gt;7</title>
<path fill="none" stroke="green" stroke-width="0.463203" d="M2818.82,-137.012C2815.53,-134.783 2811.75,-132.644 2807.93,-131.397 2708.99,-99.104 1945.15,-84.5271 1795.36,-81.9648"/>
<polygon fill="green" stroke="green" stroke-width="0.463203" points="1794.99,-78.458 1784.93,-81.7889 1794.87,-85.457 1794.99,-78.458"/>
</g>
<!-- &#45;5&#45;&gt;8 -->
<g id="edge10" class="edge"><title>&#45;5&#45;&gt;8</title>
<path fill="none" stroke="red" stroke-width="0.398454" d="M2818.83,-136.979C2815.54,-134.748 2811.75,-132.617 2807.93,-131.397 2582.94,-59.7103 1972.96,-160.343 1745.93,-95.397 1744.86,-95.0927 1743.8,-94.7312 1742.74,-94.3254"/>
<polygon fill="red" stroke="red" stroke-width="0.398454" points="1744.13,-91.1112 1733.62,-89.818 1741.03,-97.3865 1744.13,-91.1112"/>
</g>
<!-- &#45;6 -->
<g id="node6" class="node"><title>&#45;6</title>
<polygon fill="lightgray" stroke="black" points="2882.93,-155.246 2858.93,-155.246 2858.93,-137.246 2882.93,-137.246 2882.93,-155.246"/>
<text text-anchor="middle" x="2870.93" y="-144.046" font-family="Times,serif" font-size="9.00">&#45;6</text>
</g>
<!-- &#45;6&#45;&gt;7 -->
<g id="edge11" class="edge"><title>&#45;6&#45;&gt;7</title>
<path fill="none" stroke="red" stroke-width="0.158493" d="M2860.82,-137.008C2857.53,-134.778 2853.75,-132.64 2849.93,-131.397 2746.64,-97.7918 1947.27,-84.2042 1794.95,-81.9078"/>
<polygon fill="red" stroke="red" stroke-width="0.158493" points="1794.81,-78.4053 1784.75,-81.7564 1794.7,-85.4045 1794.81,-78.4053"/>
</g>
<!-- &#45;6&#45;&gt;8 -->
<g id="edge12" class="edge"><title>&#45;6&#45;&gt;8</title>
<path fill="none" stroke="red" stroke-width="0.204472" d="M2860.83,-136.976C2857.54,-134.745 2853.76,-132.614 2849.93,-131.397 2616,-57.029 1981.97,-162.757 1745.93,-95.397 1744.86,-95.0933 1743.8,-94.7325 1742.74,-94.3271"/>
<polygon fill="red" stroke="red" stroke-width="0.204472" points="1744.13,-91.1128 1733.62,-89.8213 1741.03,-97.3887 1744.13,-91.1128"/>
</g>
<!-- &#45;7 -->
<g id="node7" class="node"><title>&#45;7</title>
<polygon fill="lightgray" stroke="black" points="2924.93,-155.246 2900.93,-155.246 2900.93,-137.246 2924.93,-137.246 2924.93,-155.246"/>
<text text-anchor="middle" x="2912.93" y="-144.046" font-family="Times,serif" font-size="9.00">&#45;7</text>
</g>
<!-- &#45;7&#45;&gt;7 -->
<g id="edge13" class="edge"><title>&#45;7&#45;&gt;7</title>
<path fill="none" stroke="green" stroke-width="0.134115" d="M2902.82,-137.004C2899.54,-134.774 2895.75,-132.637 2891.93,-131.397 2784.39,-96.5086 1950.75,-83.9201 1794.96,-81.8616"/>
<polygon fill="green" stroke="green" stroke-width="0.134115" points="1794.98,-78.3616 1784.93,-81.7314 1794.89,-85.361 1794.98,-78.3616"/>
</g>
<!-- &#45;7&#45;&gt;8 -->
<g id="edge14" class="edge"><title>&#45;7&#45;&gt;8</title>
<path fill="none" stroke="red" stroke-width="0.281562" d="M2902.83,-136.973C2899.55,-134.742 2895.76,-132.612 2891.93,-131.397 2649.06,-54.3477 1990.98,-165.171 1745.93,-95.397 1744.86,-95.094 1743.8,-94.7336 1742.74,-94.3287"/>
<polygon fill="red" stroke="red" stroke-width="0.281562" points="1744.13,-91.1143 1733.61,-89.8245 1741.03,-97.3906 1744.13,-91.1143"/>
</g>
<!-- &#45;8 -->
<g id="node8" class="node"><title>&#45;8</title>
<polygon fill="lightgray" stroke="black" points="2966.93,-155.246 2942.93,-155.246 2942.93,-137.246 2966.93,-137.246 2966.93,-155.246"/>
<text text-anchor="middle" x="2954.93" y="-144.046" font-family="Times,serif" font-size="9.00">&#45;8</text>
</g>
<!-- &#45;8&#45;&gt;7 -->
<g id="edge15" class="edge"><title>&#45;8&#45;&gt;7</title>
<path fill="none" stroke="red" stroke-width="0.376335" d="M2944.82,-137C2941.54,-134.77 2937.75,-132.634 2933.93,-131.397 2822.22,-95.2564 1955.69,-83.6674 1795.39,-81.8235"/>
<polygon fill="red" stroke="red" stroke-width="0.376335" points="1795.12,-78.3204 1785.09,-81.7074 1795.05,-85.32 1795.12,-78.3204"/>
</g>
<!-- &#45;8&#45;&gt;8 -->
<g id="edge16" class="edge"><title>&#45;8&#45;&gt;8</title>
<path fill="none" stroke="red" stroke-width="0.241912" d="M2944.83,-136.971C2941.55,-134.74 2937.76,-132.61 2933.93,-131.397 2682.13,-51.6664 1999.99,-167.584 1745.93,-95.397 1744.86,-95.0946 1743.8,-94.7347 1742.74,-94.3302"/>
<polygon fill="red" stroke="red" stroke-width="0.241912" points="1744.13,-91.1156 1733.61,-89.8274 1741.03,-97.3925 1744.13,-91.1156"/>
</g>
<!-- &#45;9 -->
<g id="node9" class="node"><title>&#45;9</title>
<polygon fill="lightgray" stroke="black" points="3008.93,-155.246 2984.93,-155.246 2984.93,-137.246 3008.93,-137.246 3008.93,-155.246"/>
<text text-anchor="middle" x="2996.93" y="-144.046" font-family="Times,serif" font-size="9.00">&#45;9</text>
</g>
<!-- &#45;9&#45;&gt;7 -->
<g id="edge17" class="edge"><title>&#45;9&#45;&gt;7</title>
<path fill="none" stroke="red" stroke-width="0.405115" d="M2986.82,-136.997C2983.54,-134.767 2979.75,-132.631 2975.93,-131.397 2859.93,-93.9623 1958.61,-83.3967 1795.27,-81.7817"/>
<polygon fill="red" stroke="red" stroke-width="0.405115" points="1794.84,-78.2774 1784.8,-81.6806 1794.77,-85.2771 1794.84,-78.2774"/>
</g>
<!-- &#45;9&#45;&gt;8 -->
<g id="edge18" class="edge"><title>&#45;9&#45;&gt;8</title>
<path fill="none" stroke="red" stroke-width="0.122125" d="M2986.83,-136.968C2983.55,-134.737 2979.76,-132.608 2975.93,-131.397 2715.19,-48.9849 2009,-169.998 1745.93,-95.397 1744.86,-95.0951 1743.8,-94.7357 1742.73,-94.3315"/>
<polygon fill="red" stroke="red" stroke-width="0.122125" points="1744.13,-91.1169 1733.61,-89.8301 1741.03,-97.3942 1744.13,-91.1169"/>
</g>
<!-- &#45;10 -->
<g id="node10" class="node"><title>&#45;10</title>
<polygon fill="lightgray" stroke="black" points="3338.43,-155.246 3309.43,-155.246 3309.43,-137.246 3338.43,-137.246 3338.43,-155.246"/>
<text text-anchor="middle" x="3323.93" y="-144.046" font-family="Times,serif" font-size="9.00">&#45;10</text>
</g>
<!-- 1 -->
<g id="node75" class="node"><title>1</title>
<ellipse fill="lightblue" stroke="black" cx="1913.93" cy="-14.8492" rx="14.7" ry="14.7"/>
<text text-anchor="middle" x="1913.93" y="-12.6492" font-family="Times,serif" font-size="9.00">1</text>
</g>
<!-- &#45;10&#45;&gt;1 -->
<g id="edge162" class="edge"><title>&#45;10&#45;&gt;1</title>
<path fill="none" stroke="green" stroke-width="0.12942" d="M3312.73,-137.101C3309.13,-134.875 3305.01,-132.716 3300.93,-131.397 3033.18,-44.8755 2104.63,-20.147 1939.23,-16.3885"/>
<polygon fill="green" stroke="green" stroke-width="0.12942" points="1939.13,-12.8855 1929.06,-16.1622 1938.98,-19.8838 1939.13,-12.8855"/>
</g>
<!-- &#45;10&#45;&gt;7 -->
<g id="edge19" class="edge"><title>&#45;10&#45;&gt;7</title>
<path fill="none" stroke="green" stroke-width="0.204263" d="M3312.77,-136.973C3309.17,-134.742 3305.04,-132.612 3300.93,-131.397 3225.67,-109.164 1987.54,-85.5497 1795.01,-82.0038"/>
<polygon fill="green" stroke="green" stroke-width="0.204263" points="1794.82,-78.5 1784.76,-81.8159 1794.7,-85.4988 1794.82,-78.5"/>
</g>
<!-- &#45;10&#45;&gt;8 -->
<g id="edge20" class="edge"><title>&#45;10&#45;&gt;8</title>
<path fill="none" stroke="green" stroke-width="0.248827" d="M3313.24,-137.241C3309.53,-134.904 3305.22,-132.645 3300.93,-131.397 2968.99,-35.0219 2078.75,-188.678 1745.93,-95.397 1744.86,-95.0984 1743.79,-94.7416 1742.73,-94.3396"/>
<polygon fill="green" stroke="green" stroke-width="0.248827" points="1744.13,-91.1246 1733.61,-89.8461 1741.03,-97.4043 1744.13,-91.1246"/>
</g>
<!-- &#45;11 -->
<g id="node11" class="node"><title>&#45;11</title>
<polygon fill="lightgray" stroke="black" points="3056.43,-155.246 3027.43,-155.246 3027.43,-137.246 3056.43,-137.246 3056.43,-155.246"/>
<text text-anchor="middle" x="3041.93" y="-144.046" font-family="Times,serif" font-size="9.00">&#45;11</text>
</g>
<!-- &#45;11&#45;&gt;7 -->
<g id="edge21" class="edge"><title>&#45;11&#45;&gt;7</title>
<path fill="none" stroke="green" stroke-width="0.159504" d="M3030.23,-136.992C3026.47,-134.762 3022.18,-132.627 3017.93,-131.397 2896.52,-96.2692 1961.15,-83.7791 1795.09,-81.8288"/>
<polygon fill="green" stroke="green" stroke-width="0.159504" points="1794.92,-78.3267 1784.88,-81.7109 1794.84,-85.3263 1794.92,-78.3267"/>
</g>
<!-- &#45;11&#45;&gt;8 -->
<g id="edge22" class="edge"><title>&#45;11&#45;&gt;8</title>
<path fill="none" stroke="red" stroke-width="0.136672" d="M3030.24,-136.961C3026.48,-134.73 3022.19,-132.602 3017.93,-131.397 2745.84,-54.3819 2018.02,-172.412 1745.93,-95.397 1744.86,-95.0956 1743.79,-94.7366 1742.73,-94.3328"/>
<polygon fill="red" stroke="red" stroke-width="0.136672" points="1744.13,-91.1181 1733.61,-89.8326 1741.03,-97.3958 1744.13,-91.1181"/>
</g>
<!-- &#45;12 -->
<g id="node12" class="node"><title>&#45;12</title>
<polygon fill="lightgray" stroke="black" points="3103.43,-155.246 3074.43,-155.246 3074.43,-137.246 3103.43,-137.246 3103.43,-155.246"/>
<text text-anchor="middle" x="3088.93" y="-144.046" font-family="Times,serif" font-size="9.00">&#45;12</text>
</g>
<!-- &#45;12&#45;&gt;7 -->
<g id="edge23" class="edge"><title>&#45;12&#45;&gt;7</title>
<path fill="none" stroke="green" stroke-width="0.257576" stroke-dasharray="1,5" d="M3077.76,-136.988C3074.16,-134.758 3070.04,-132.624 3065.93,-131.397 2939.98,-93.783 1965.56,-83.3131 1795.27,-81.7635"/>
<polygon fill="green" stroke="green" stroke-width="0.257576" points="1795.06,-78.2616 1785.03,-81.6724 1795,-85.2613 1795.06,-78.2616"/>
</g>
<!-- &#45;12&#45;&gt;8 -->
<g id="edge24" class="edge"><title>&#45;12&#45;&gt;8</title>
<path fill="none" stroke="green" stroke-width="0.473235" d="M3077.77,-136.96C3074.17,-134.728 3070.04,-132.601 3065.93,-131.397 2784.29,-48.9979 2028.32,-175.171 1745.93,-95.397 1744.86,-95.0962 1743.79,-94.7376 1742.73,-94.3342"/>
<polygon fill="green" stroke="green" stroke-width="0.473235" points="1744.13,-91.1194 1733.61,-89.8353 1741.03,-97.3975 1744.13,-91.1194"/>
</g>
<!-- &#45;13 -->
<g id="node13" class="node"><title>&#45;13</title>
<polygon fill="lightgray" stroke="black" points="3150.43,-155.246 3121.43,-155.246 3121.43,-137.246 3150.43,-137.246 3150.43,-155.246"/>
<text text-anchor="middle" x="3135.93" y="-144.046" font-family="Times,serif" font-size="9.00">&#45;13</text>
</g>
<!-- &#45;13&#45;&gt;7 -->
<g id="edge25" class="edge"><title>&#45;13&#45;&gt;7</title>
<path fill="none" stroke="red" stroke-width="0.721044" d="M3124.76,-136.985C3121.16,-134.754 3117.04,-132.621 3112.93,-131.397 2982.19,-92.4484 1969.52,-83.0601 1795.38,-81.7278"/>
<polygon fill="red" stroke="red" stroke-width="0.721044" points="1795.17,-78.2262 1785.14,-81.6514 1795.11,-85.226 1795.17,-78.2262"/>
</g>
<!-- &#45;13&#45;&gt;8 -->
<g id="edge26" class="edge"><title>&#45;13&#45;&gt;8</title>
<path fill="none" stroke="green" stroke-width="0.408069" d="M3124.77,-136.957C3121.17,-134.726 3117.04,-132.599 3112.93,-131.397 2821.23,-46.2028 2038.4,-177.872 1745.93,-95.397 1744.86,-95.0967 1743.79,-94.7386 1742.73,-94.3354"/>
<polygon fill="green" stroke="green" stroke-width="0.408069" points="1744.13,-91.1206 1733.61,-89.8378 1741.03,-97.399 1744.13,-91.1206"/>
</g>
<!-- &#45;14 -->
<g id="node14" class="node"><title>&#45;14</title>
<polygon fill="lightgray" stroke="black" points="3197.43,-155.246 3168.43,-155.246 3168.43,-137.246 3197.43,-137.246 3197.43,-155.246"/>
<text text-anchor="middle" x="3182.93" y="-144.046" font-family="Times,serif" font-size="9.00">&#45;14</text>
</g>
<!-- &#45;14&#45;&gt;7 -->
<g id="edge27" class="edge"><title>&#45;14&#45;&gt;7</title>
<path fill="none" stroke="green" stroke-width="0.302096" d="M3171.76,-136.982C3168.16,-134.751 3164.04,-132.619 3159.93,-131.397 3091.91,-111.18 1976.72,-86.0583 1794.9,-82.0871"/>
<polygon fill="green" stroke="green" stroke-width="0.302096" points="1794.8,-78.5841 1784.72,-81.8657 1794.64,-85.5825 1794.8,-78.5841"/>
</g>
<!-- &#45;14&#45;&gt;8 -->
<g id="edge28" class="edge"><title>&#45;14&#45;&gt;8</title>
<path fill="none" stroke="red" stroke-width="0.227929" d="M3171.77,-136.955C3168.17,-134.724 3164.04,-132.597 3159.93,-131.397 2858.17,-43.4076 2048.49,-180.574 1745.93,-95.397 1744.86,-95.0971 1743.79,-94.7394 1742.73,-94.3366"/>
<polygon fill="red" stroke="red" stroke-width="0.227929" points="1744.13,-91.1217 1733.61,-89.8401 1741.03,-97.4005 1744.13,-91.1217"/>
</g>
<!-- &#45;15 -->
<g id="node15" class="node"><title>&#45;15</title>
<polygon fill="lightgray" stroke="black" points="3244.43,-155.246 3215.43,-155.246 3215.43,-137.246 3244.43,-137.246 3244.43,-155.246"/>
<text text-anchor="middle" x="3229.93" y="-144.046" font-family="Times,serif" font-size="9.00">&#45;15</text>
</g>
<!-- &#45;15&#45;&gt;7 -->
<g id="edge29" class="edge"><title>&#45;15&#45;&gt;7</title>
<path fill="none" stroke="green" stroke-width="0.265986" d="M3218.76,-136.979C3215.16,-134.748 3211.04,-132.616 3206.93,-131.397 3136.49,-110.507 1980.16,-85.8776 1794.88,-82.0564"/>
<polygon fill="green" stroke="green" stroke-width="0.265986" points="1794.83,-78.5547 1784.76,-81.8485 1794.68,-85.5532 1794.83,-78.5547"/>
</g>
<!-- &#45;15&#45;&gt;8 -->
<g id="edge30" class="edge"><title>&#45;15&#45;&gt;8</title>
<path fill="none" stroke="green" stroke-width="0.363323" d="M3219.24,-137.245C3215.53,-134.908 3211.22,-132.648 3206.93,-131.397 2895.11,-40.6124 2058.58,-183.275 1745.93,-95.397 1744.86,-95.0976 1743.79,-94.7402 1742.73,-94.3377"/>
<polygon fill="green" stroke="green" stroke-width="0.363323" points="1744.13,-91.1227 1733.61,-89.8422 1741.03,-97.4018 1744.13,-91.1227"/>
</g>
<!-- &#45;16 -->
<g id="node16" class="node"><title>&#45;16</title>
<polygon fill="lightgray" stroke="black" points="3291.43,-155.246 3262.43,-155.246 3262.43,-137.246 3291.43,-137.246 3291.43,-155.246"/>
<text text-anchor="middle" x="3276.93" y="-144.046" font-family="Times,serif" font-size="9.00">&#45;16</text>
</g>
<!-- &#45;16&#45;&gt;7 -->
<g id="edge31" class="edge"><title>&#45;16&#45;&gt;7</title>
<path fill="none" stroke="green" stroke-width="0.290144" d="M3265.77,-136.976C3262.17,-134.745 3258.04,-132.614 3253.93,-131.397 3181.07,-109.831 1983.36,-85.7003 1794.82,-82.0269"/>
<polygon fill="green" stroke="green" stroke-width="0.290144" points="1794.84,-78.5267 1784.77,-81.8319 1794.7,-85.5254 1794.84,-78.5267"/>
</g>
<!-- &#45;16&#45;&gt;8 -->
<g id="edge32" class="edge"><title>&#45;16&#45;&gt;8</title>
<path fill="none" stroke="red" stroke-width="0.113662" d="M3266.24,-137.243C3262.53,-134.906 3258.22,-132.646 3253.93,-131.397 2932.05,-37.8172 2068.66,-185.976 1745.93,-95.397 1744.86,-95.098 1743.79,-94.7409 1742.73,-94.3387"/>
<polygon fill="red" stroke="red" stroke-width="0.113662" points="1744.13,-91.1237 1733.61,-89.8442 1741.03,-97.4031 1744.13,-91.1237"/>
</g>
<!-- &#45;17 -->
<g id="node17" class="node"><title>&#45;17</title>
<polygon fill="lightgray" stroke="black" points="92.4266,-155.246 63.4266,-155.246 63.4266,-137.246 92.4266,-137.246 92.4266,-155.246"/>
<text text-anchor="middle" x="77.9266" y="-144.046" font-family="Times,serif" font-size="9.00">&#45;17</text>
</g>
<!-- &#45;17&#45;&gt;7 -->
<g id="edge33" class="edge"><title>&#45;17&#45;&gt;7</title>
<path fill="none" stroke="red" stroke-width="0.332772" d="M88.6126,-137.238C92.3198,-134.901 96.6287,-132.642 100.927,-131.397 452.134,-29.6691 1393.79,-193.851 1745.93,-95.397 1746.99,-95.099 1748.06,-94.7429 1749.12,-94.3413"/>
<polygon fill="red" stroke="red" stroke-width="0.332772" points="1750.82,-97.4064 1758.25,-89.8494 1747.73,-91.1262 1750.82,-97.4064"/>
</g>
<!-- &#45;17&#45;&gt;8 -->
<g id="edge34" class="edge"><title>&#45;17&#45;&gt;8</title>
<path fill="none" stroke="red" stroke-width="0.296763" d="M89.0856,-136.969C92.6857,-134.738 96.8131,-132.608 100.927,-131.397 260.312,-84.4641 1503.94,-81.6995 1696.83,-81.5537"/>
<polygon fill="red" stroke="red" stroke-width="0.296763" points="1697.09,-85.0536 1707.09,-81.5477 1697.08,-78.0536 1697.09,-85.0536"/>
</g>
<!-- &#45;18 -->
<g id="node18" class="node"><title>&#45;18</title>
<polygon fill="lightgray" stroke="black" points="139.427,-155.246 110.427,-155.246 110.427,-137.246 139.427,-137.246 139.427,-155.246"/>
<text text-anchor="middle" x="124.927" y="-144.046" font-family="Times,serif" font-size="9.00">&#45;18</text>
</g>
<!-- &#45;18&#45;&gt;7 -->
<g id="edge35" class="edge"><title>&#45;18&#45;&gt;7</title>
<path fill="none" stroke="green" stroke-width="0.108003" d="M135.613,-137.239C139.32,-134.902 143.629,-132.643 147.927,-131.397 489.072,-32.4644 1403.87,-191.15 1745.93,-95.397 1746.99,-95.0987 1748.06,-94.7422 1749.12,-94.3404"/>
<polygon fill="green" stroke="green" stroke-width="0.108003" points="1750.82,-97.4053 1758.24,-89.8477 1747.73,-91.1253 1750.82,-97.4053"/>
</g>
<!-- &#45;18&#45;&gt;8 -->
<g id="edge36" class="edge"><title>&#45;18&#45;&gt;8</title>
<path fill="none" stroke="green" stroke-width="0.275828" d="M136.086,-136.971C139.686,-134.74 143.814,-132.61 147.927,-131.397 302.514,-85.8 1507.75,-81.9084 1696.97,-81.5782"/>
<polygon fill="green" stroke="green" stroke-width="0.275828" points="1697.05,-85.0781 1707.05,-81.5624 1697.04,-78.0781 1697.05,-85.0781"/>
</g>
<!-- &#45;19 -->
<g id="node19" class="node"><title>&#45;19</title>
<polygon fill="lightgray" stroke="black" points="186.427,-155.246 157.427,-155.246 157.427,-137.246 186.427,-137.246 186.427,-155.246"/>
<text text-anchor="middle" x="171.927" y="-144.046" font-family="Times,serif" font-size="9.00">&#45;19</text>
</g>
<!-- &#45;19&#45;&gt;7 -->
<g id="edge37" class="edge"><title>&#45;19&#45;&gt;7</title>
<path fill="none" stroke="green" stroke-width="0.159764" d="M182.614,-137.241C186.321,-134.904 190.629,-132.645 194.927,-131.397 526.011,-35.2598 1413.96,-188.448 1745.93,-95.397 1746.99,-95.0983 1748.06,-94.7416 1749.12,-94.3395"/>
<polygon fill="green" stroke="green" stroke-width="0.159764" points="1750.82,-97.4042 1758.24,-89.8459 1747.73,-91.1245 1750.82,-97.4042"/>
</g>
<!-- &#45;19&#45;&gt;8 -->
<g id="edge38" class="edge"><title>&#45;19&#45;&gt;8</title>
<path fill="none" stroke="green" stroke-width="0.298836" d="M183.087,-136.973C186.687,-134.743 190.814,-132.612 194.927,-131.397 344.651,-87.1552 1510.55,-82.1269 1696.86,-81.6046"/>
<polygon fill="green" stroke="green" stroke-width="0.298836" points="1697.04,-85.1042 1707.03,-81.5779 1697.02,-78.1042 1697.04,-85.1042"/>
</g>
<!-- &#45;20 -->
<g id="node20" class="node"><title>&#45;20</title>
<polygon fill="lightgray" stroke="black" points="233.427,-155.246 204.427,-155.246 204.427,-137.246 233.427,-137.246 233.427,-155.246"/>
<text text-anchor="middle" x="218.927" y="-144.046" font-family="Times,serif" font-size="9.00">&#45;20</text>
</g>
<!-- &#45;20&#45;&gt;7 -->
<g id="edge39" class="edge"><title>&#45;20&#45;&gt;7</title>
<path fill="none" stroke="red" stroke-width="0.442962" d="M229.614,-137.243C233.321,-134.906 237.63,-132.646 241.927,-131.397 562.95,-38.0551 1424.05,-185.747 1745.93,-95.397 1746.99,-95.098 1748.06,-94.7409 1749.12,-94.3386"/>
<polygon fill="red" stroke="red" stroke-width="0.442962" points="1750.82,-97.403 1758.24,-89.844 1747.73,-91.1236 1750.82,-97.403"/>
</g>
<!-- &#45;20&#45;&gt;8 -->
<g id="edge40" class="edge"><title>&#45;20&#45;&gt;8</title>
<path fill="none" stroke="red" stroke-width="0.271965" d="M230.088,-136.976C233.688,-134.745 237.815,-132.614 241.927,-131.397 386.802,-88.5064 1513.58,-82.3522 1696.79,-81.6327"/>
<polygon fill="red" stroke="red" stroke-width="0.271965" points="1697.05,-85.1319 1707.04,-81.5944 1697.03,-78.1319 1697.05,-85.1319"/>
</g>
<!-- &#45;21 -->
<g id="node21" class="node"><title>&#45;21</title>
<polygon fill="lightgray" stroke="black" points="280.427,-155.246 251.427,-155.246 251.427,-137.246 280.427,-137.246 280.427,-155.246"/>
<text text-anchor="middle" x="265.927" y="-144.046" font-family="Times,serif" font-size="9.00">&#45;21</text>
</g>
<!-- &#45;21&#45;&gt;7 -->
<g id="edge41" class="edge"><title>&#45;21&#45;&gt;7</title>
<path fill="none" stroke="green" stroke-width="0.202372" d="M276.615,-137.245C280.322,-134.908 284.63,-132.648 288.927,-131.397 599.889,-40.8503 1434.14,-183.045 1745.93,-95.397 1746.99,-95.0975 1748.06,-94.7401 1749.12,-94.3376"/>
<polygon fill="green" stroke="green" stroke-width="0.202372" points="1750.82,-97.4017 1758.24,-89.842 1747.73,-91.1226 1750.82,-97.4017"/>
</g>
<!-- &#45;21&#45;&gt;8 -->
<g id="edge42" class="edge"><title>&#45;21&#45;&gt;8</title>
<path fill="none" stroke="red" stroke-width="0.112119" d="M277.089,-136.979C280.689,-134.748 284.816,-132.617 288.927,-131.397 429.037,-89.8329 1517.92,-82.577 1697.03,-81.6613"/>
<polygon fill="red" stroke="red" stroke-width="0.112119" points="1697.08,-85.1612 1707.07,-81.6119 1697.05,-78.1613 1697.08,-85.1612"/>
</g>
<!-- &#45;22 -->
<g id="node22" class="node"><title>&#45;22</title>
<polygon fill="lightgray" stroke="black" points="327.427,-155.246 298.427,-155.246 298.427,-137.246 327.427,-137.246 327.427,-155.246"/>
<text text-anchor="middle" x="312.927" y="-144.046" font-family="Times,serif" font-size="9.00">&#45;22</text>
</g>
<!-- &#45;22&#45;&gt;7 -->
<g id="edge43" class="edge"><title>&#45;22&#45;&gt;7</title>
<path fill="none" stroke="red" stroke-width="0.402169" d="M324.082,-136.955C327.682,-134.724 331.81,-132.598 335.927,-131.397 636.828,-43.6455 1444.22,-180.344 1745.93,-95.397 1746.99,-95.0971 1748.06,-94.7393 1749.12,-94.3365"/>
<polygon fill="red" stroke="red" stroke-width="0.402169" points="1750.82,-97.4003 1758.24,-89.8399 1747.73,-91.1216 1750.82,-97.4003"/>
</g>
<!-- &#45;22&#45;&gt;8 -->
<g id="edge44" class="edge"><title>&#45;22&#45;&gt;8</title>
<path fill="none" stroke="red" stroke-width="0.406785" d="M324.09,-136.982C327.69,-134.751 331.816,-132.619 335.927,-131.397 471.074,-91.2187 1519.18,-82.8322 1696.49,-81.6963"/>
<polygon fill="red" stroke="red" stroke-width="0.406785" points="1696.7,-85.1951 1706.68,-81.6329 1696.65,-78.1953 1696.7,-85.1951"/>
</g>
<!-- &#45;23 -->
<g id="node23" class="node"><title>&#45;23</title>
<polygon fill="lightgray" stroke="black" points="374.427,-155.246 345.427,-155.246 345.427,-137.246 374.427,-137.246 374.427,-155.246"/>
<text text-anchor="middle" x="359.927" y="-144.046" font-family="Times,serif" font-size="9.00">&#45;23</text>
</g>
<!-- &#45;23&#45;&gt;7 -->
<g id="edge45" class="edge"><title>&#45;23&#45;&gt;7</title>
<path fill="none" stroke="red" stroke-width="0.222505" d="M371.082,-136.958C374.682,-134.726 378.81,-132.599 382.927,-131.397 673.767,-46.4407 1454.31,-177.642 1745.93,-95.397 1746.99,-95.0966 1748.06,-94.7385 1749.12,-94.3353"/>
<polygon fill="red" stroke="red" stroke-width="0.222505" points="1750.82,-97.3989 1758.24,-89.8376 1747.73,-91.1205 1750.82,-97.3989"/>
</g>
<!-- &#45;23&#45;&gt;8 -->
<g id="edge46" class="edge"><title>&#45;23&#45;&gt;8</title>
<path fill="none" stroke="red" stroke-width="0.152228" d="M371.09,-136.985C374.691,-134.755 378.817,-132.622 382.927,-131.397 513.271,-92.5571 1522.93,-83.0789 1696.55,-81.7302"/>
<polygon fill="red" stroke="red" stroke-width="0.152228" points="1696.79,-85.2286 1706.76,-81.6529 1696.73,-78.2288 1696.79,-85.2286"/>
</g>
<!-- &#45;24 -->
<g id="node24" class="node"><title>&#45;24</title>
<polygon fill="lightgray" stroke="black" points="421.427,-155.246 392.427,-155.246 392.427,-137.246 421.427,-137.246 421.427,-155.246"/>
<text text-anchor="middle" x="406.927" y="-144.046" font-family="Times,serif" font-size="9.00">&#45;24</text>
</g>
<!-- &#45;24&#45;&gt;7 -->
<g id="edge47" class="edge"><title>&#45;24&#45;&gt;7</title>
<path fill="none" stroke="red" stroke-width="0.131448" stroke-dasharray="1,5" d="M418.083,-136.96C421.683,-134.729 425.811,-132.601 429.927,-131.397 710.706,-49.2358 1464.39,-174.941 1745.93,-95.397 1746.99,-95.0961 1748.06,-94.7376 1749.12,-94.3341"/>
<polygon fill="red" stroke="red" stroke-width="0.131448" points="1750.82,-97.3973 1758.24,-89.8351 1747.72,-91.1193 1750.82,-97.3973"/>
</g>
<!-- &#45;24&#45;&gt;8 -->
<g id="edge48" class="edge"><title>&#45;24&#45;&gt;8</title>
<path fill="none" stroke="green" stroke-width="0.305638" d="M418.092,-136.988C421.692,-134.758 425.818,-132.624 429.927,-131.397 555.483,-93.8914 1526.9,-83.3322 1696.66,-81.766"/>
<polygon fill="green" stroke="green" stroke-width="0.305638" points="1696.9,-85.2641 1706.87,-81.6739 1696.84,-78.2644 1696.9,-85.2641"/>
</g>
<!-- &#45;25 -->
<g id="node25" class="node"><title>&#45;25</title>
<polygon fill="lightgray" stroke="black" points="468.427,-155.246 439.427,-155.246 439.427,-137.246 468.427,-137.246 468.427,-155.246"/>
<text text-anchor="middle" x="453.927" y="-144.046" font-family="Times,serif" font-size="9.00">&#45;25</text>
</g>
<!-- &#45;25&#45;&gt;7 -->
<g id="edge49" class="edge"><title>&#45;25&#45;&gt;7</title>
<path fill="none" stroke="green" stroke-width="0.485766" d="M465.084,-136.963C468.684,-134.731 472.812,-132.603 476.927,-131.397 747.646,-52.0308 1474.48,-172.24 1745.93,-95.397 1746.99,-95.0956 1748.06,-94.7366 1749.12,-94.3327"/>
<polygon fill="green" stroke="green" stroke-width="0.485766" points="1750.82,-97.3957 1758.24,-89.8324 1747.72,-91.118 1750.82,-97.3957"/>
</g>
<!-- &#45;25&#45;&gt;8 -->
<g id="edge50" class="edge"><title>&#45;25&#45;&gt;8</title>
<path fill="none" stroke="red" stroke-width="0.174521" d="M465.093,-136.992C468.693,-134.762 472.819,-132.627 476.927,-131.397 597.709,-95.2218 1531.1,-83.5921 1696.81,-81.8038"/>
<polygon fill="red" stroke="red" stroke-width="0.174521" points="1697.04,-85.3017 1707,-81.6959 1696.96,-78.3021 1697.04,-85.3017"/>
</g>
<!-- &#45;26 -->
<g id="node26" class="node"><title>&#45;26</title>
<polygon fill="lightgray" stroke="black" points="515.427,-155.246 486.427,-155.246 486.427,-137.246 515.427,-137.246 515.427,-155.246"/>
<text text-anchor="middle" x="500.927" y="-144.046" font-family="Times,serif" font-size="9.00">&#45;26</text>
</g>
<!-- &#45;26&#45;&gt;7 -->
<g id="edge51" class="edge"><title>&#45;26&#45;&gt;7</title>
<path fill="none" stroke="red" stroke-width="0.210644" d="M512.085,-136.965C515.685,-134.734 519.812,-132.606 523.927,-131.397 784.586,-54.8258 1484.57,-169.538 1745.93,-95.397 1746.99,-95.095 1748.06,-94.7355 1749.12,-94.3313"/>
<polygon fill="red" stroke="red" stroke-width="0.210644" points="1750.82,-97.3939 1758.24,-89.8296 1747.72,-91.1167 1750.82,-97.3939"/>
</g>
<!-- &#45;26&#45;&gt;8 -->
<g id="edge52" class="edge"><title>&#45;26&#45;&gt;8</title>
<path fill="none" stroke="green" stroke-width="0.118353" d="M512.094,-136.996C515.694,-134.766 519.82,-132.631 523.927,-131.397 639.886,-96.5672 1534.54,-83.8725 1696.75,-81.8468"/>
<polygon fill="green" stroke="green" stroke-width="0.118353" points="1696.79,-85.3466 1706.75,-81.724 1696.71,-78.3472 1696.79,-85.3466"/>
</g>
<!-- &#45;27 -->
<g id="node27" class="node"><title>&#45;27</title>
<polygon fill="lightgray" stroke="black" points="562.427,-155.246 533.427,-155.246 533.427,-137.246 562.427,-137.246 562.427,-155.246"/>
<text text-anchor="middle" x="547.927" y="-144.046" font-family="Times,serif" font-size="9.00">&#45;27</text>
</g>
<!-- &#45;27&#45;&gt;7 -->
<g id="edge53" class="edge"><title>&#45;27&#45;&gt;7</title>
<path fill="none" stroke="red" stroke-width="0.128771" d="M559.086,-136.968C562.686,-134.737 566.813,-132.608 570.927,-131.397 821.526,-57.6207 1494.65,-166.837 1745.93,-95.397 1746.99,-95.0944 1748.06,-94.7344 1749.12,-94.3297"/>
<polygon fill="red" stroke="red" stroke-width="0.128771" points="1750.82,-97.3919 1758.24,-89.8265 1747.72,-91.1152 1750.82,-97.3919"/>
</g>
<!-- &#45;27&#45;&gt;8 -->
<g id="edge54" class="edge"><title>&#45;27&#45;&gt;8</title>
<path fill="none" stroke="green" stroke-width="0.217968" d="M559.095,-137C562.696,-134.771 566.821,-132.634 570.927,-131.397 682.088,-97.9055 1538.37,-84.1604 1696.77,-81.8923"/>
<polygon fill="green" stroke="green" stroke-width="0.217968" points="1697,-85.3895 1706.95,-81.7487 1696.9,-78.3902 1697,-85.3895"/>
</g>
<!-- &#45;28 -->
<g id="node28" class="node"><title>&#45;28</title>
<polygon fill="lightgray" stroke="black" points="609.427,-155.246 580.427,-155.246 580.427,-137.246 609.427,-137.246 609.427,-155.246"/>
<text text-anchor="middle" x="594.927" y="-144.046" font-family="Times,serif" font-size="9.00">&#45;28</text>
</g>
<!-- &#45;28&#45;&gt;7 -->
<g id="edge55" class="edge"><title>&#45;28&#45;&gt;7</title>
<path fill="none" stroke="green" stroke-width="0.365615" d="M606.087,-136.972C609.687,-134.741 613.814,-132.611 617.927,-131.397 858.466,-60.4155 1504.74,-164.136 1745.93,-95.397 1746.99,-95.0937 1748.06,-94.7331 1749.12,-94.328"/>
<polygon fill="green" stroke="green" stroke-width="0.365615" points="1750.82,-97.3898 1758.24,-89.8231 1747.72,-91.1136 1750.82,-97.3898"/>
</g>
<!-- &#45;28&#45;&gt;8 -->
<g id="edge56" class="edge"><title>&#45;28&#45;&gt;8</title>
<path fill="none" stroke="red" stroke-width="0.58336" d="M606.096,-137.005C609.697,-134.775 613.822,-132.638 617.927,-131.397 724.197,-99.2723 1540.77,-84.488 1696.36,-81.9486"/>
<polygon fill="red" stroke="red" stroke-width="0.58336" points="1696.84,-85.4415 1706.78,-81.7809 1696.73,-78.4424 1696.84,-85.4415"/>
</g>
<!-- &#45;29 -->
<g id="node29" class="node"><title>&#45;29</title>
<polygon fill="lightgray" stroke="black" points="656.427,-155.246 627.427,-155.246 627.427,-137.246 656.427,-137.246 656.427,-155.246"/>
<text text-anchor="middle" x="641.927" y="-144.046" font-family="Times,serif" font-size="9.00">&#45;29</text>
</g>
<!-- &#45;29&#45;&gt;7 -->
<g id="edge57" class="edge"><title>&#45;29&#45;&gt;7</title>
<path fill="none" stroke="green" stroke-width="0.166109" d="M653.088,-136.975C656.688,-134.744 660.815,-132.613 664.927,-131.397 895.407,-63.2103 1514.82,-161.435 1745.93,-95.397 1746.99,-95.093 1748.06,-94.7318 1749.12,-94.3262"/>
<polygon fill="green" stroke="green" stroke-width="0.166109" points="1750.82,-97.3875 1758.24,-89.8195 1747.72,-91.1119 1750.82,-97.3875"/>
</g>
<!-- &#45;29&#45;&gt;8 -->
<g id="edge58" class="edge"><title>&#45;29&#45;&gt;8</title>
<path fill="none" stroke="green" stroke-width="0.159977" d="M653.098,-137.01C656.699,-134.781 660.823,-132.642 664.927,-131.397 766.544,-100.568 1546.83,-84.7635 1696.98,-81.9921"/>
<polygon fill="green" stroke="green" stroke-width="0.159977" points="1697.11,-85.4904 1707.04,-81.8085 1696.98,-78.4915 1697.11,-85.4904"/>
</g>
<!-- &#45;30 -->
<g id="node30" class="node"><title>&#45;30</title>
<polygon fill="lightgray" stroke="black" points="3385.43,-155.246 3356.43,-155.246 3356.43,-137.246 3385.43,-137.246 3385.43,-155.246"/>
<text text-anchor="middle" x="3370.93" y="-144.046" font-family="Times,serif" font-size="9.00">&#45;30</text>
</g>
<!-- &#45;30&#45;&gt;7 -->
<g id="edge59" class="edge"><title>&#45;30&#45;&gt;7</title>
<path fill="none" stroke="green" stroke-width="0.209862" d="M3359.77,-136.971C3356.17,-134.74 3352.04,-132.61 3347.93,-131.397 3192.95,-85.6904 1984.64,-81.8911 1794.95,-81.5761"/>
<polygon fill="green" stroke="green" stroke-width="0.209862" points="1794.85,-78.0761 1784.84,-81.5611 1794.84,-85.0761 1794.85,-78.0761"/>
</g>
<!-- &#45;31 -->
<g id="node31" class="node"><title>&#45;31</title>
<polygon fill="lightgray" stroke="black" points="703.427,-155.246 674.427,-155.246 674.427,-137.246 703.427,-137.246 703.427,-155.246"/>
<text text-anchor="middle" x="688.927" y="-144.046" font-family="Times,serif" font-size="9.00">&#45;31</text>
</g>
<!-- &#45;31&#45;&gt;7 -->
<g id="edge60" class="edge"><title>&#45;31&#45;&gt;7</title>
<path fill="none" stroke="green" stroke-width="0.359126" d="M700.089,-136.979C703.689,-134.748 707.816,-132.617 711.927,-131.397 932.348,-66.0049 1524.91,-158.734 1745.93,-95.397 1746.99,-95.0922 1748.06,-94.7303 1749.12,-94.3242"/>
<polygon fill="green" stroke="green" stroke-width="0.359126" points="1750.82,-97.385 1758.24,-89.8156 1747.72,-91.11 1750.82,-97.385"/>
</g>
<!-- &#45;31&#45;&gt;8 -->
<g id="edge61" class="edge"><title>&#45;31&#45;&gt;8</title>
<path fill="none" stroke="red" stroke-width="0.630544" d="M700.1,-137.016C703.7,-134.786 707.824,-132.646 711.927,-131.397 808.702,-101.921 1549.99,-85.1125 1696.73,-82.0558"/>
<polygon fill="red" stroke="red" stroke-width="0.630544" points="1697.04,-85.5502 1706.97,-81.8449 1696.9,-78.5517 1697.04,-85.5502"/>
</g>
<!-- &#45;32 -->
<g id="node32" class="node"><title>&#45;32</title>
<polygon fill="lightgray" stroke="black" points="750.427,-155.246 721.427,-155.246 721.427,-137.246 750.427,-137.246 750.427,-155.246"/>
<text text-anchor="middle" x="735.927" y="-144.046" font-family="Times,serif" font-size="9.00">&#45;32</text>
</g>
<!-- &#45;32&#45;&gt;7 -->
<g id="edge62" class="edge"><title>&#45;32&#45;&gt;7</title>
<path fill="none" stroke="green" stroke-width="0.514359" d="M747.09,-136.983C750.69,-134.753 754.817,-132.62 758.927,-131.397 969.29,-68.7994 1534.99,-156.034 1745.93,-95.397 1746.99,-95.0913 1748.06,-94.7287 1749.12,-94.322"/>
<polygon fill="green" stroke="green" stroke-width="0.514359" points="1750.82,-97.3823 1758.23,-89.8112 1747.72,-91.1079 1750.82,-97.3823"/>
</g>
<!-- &#45;32&#45;&gt;8 -->
<g id="edge63" class="edge"><title>&#45;32&#45;&gt;8</title>
<path fill="none" stroke="green" stroke-width="0.139665" d="M747.102,-137.022C750.702,-134.793 754.826,-132.651 758.927,-131.397 850.889,-103.266 1553.59,-85.4741 1696.58,-82.1242"/>
<polygon fill="green" stroke="green" stroke-width="0.139665" points="1697.03,-85.6149 1706.94,-81.8839 1696.86,-78.6168 1697.03,-85.6149"/>
</g>
<!-- &#45;33 -->
<g id="node33" class="node"><title>&#45;33</title>
<polygon fill="lightgray" stroke="black" points="797.427,-155.246 768.427,-155.246 768.427,-137.246 797.427,-137.246 797.427,-155.246"/>
<text text-anchor="middle" x="782.927" y="-144.046" font-family="Times,serif" font-size="9.00">&#45;33</text>
</g>
<!-- &#45;33&#45;&gt;7 -->
<g id="edge64" class="edge"><title>&#45;33&#45;&gt;7</title>
<path fill="none" stroke="green" stroke-width="0.180714" d="M794.091,-136.988C797.692,-134.757 801.818,-132.624 805.927,-131.397 1006.23,-71.5938 1545.07,-153.333 1745.93,-95.397 1746.99,-95.0903 1748.06,-94.727 1749.11,-94.3196"/>
<polygon fill="green" stroke="green" stroke-width="0.180714" points="1750.82,-97.3793 1758.23,-89.8064 1747.72,-91.1057 1750.82,-97.3793"/>
</g>
<!-- &#45;33&#45;&gt;8 -->
<g id="edge65" class="edge"><title>&#45;33&#45;&gt;8</title>
<path fill="none" stroke="green" stroke-width="0.100242" d="M794.104,-137.028C797.704,-134.8 801.828,-132.657 805.927,-131.397 979.183,-78.148 1568.48,-80.181 1697.03,-81.2865"/>
<polygon fill="green" stroke="green" stroke-width="0.100242" points="1697.04,-84.7866 1707.08,-81.3794 1697.11,-77.7869 1697.04,-84.7866"/>
</g>
<!-- &#45;34 -->
<g id="node34" class="node"><title>&#45;34</title>
<polygon fill="lightgray" stroke="black" points="844.427,-155.246 815.427,-155.246 815.427,-137.246 844.427,-137.246 844.427,-155.246"/>
<text text-anchor="middle" x="829.927" y="-144.046" font-family="Times,serif" font-size="9.00">&#45;34</text>
</g>
<!-- &#45;34&#45;&gt;7 -->
<g id="edge66" class="edge"><title>&#45;34&#45;&gt;7</title>
<path fill="none" stroke="green" stroke-width="0.318701" d="M841.093,-136.993C844.693,-134.763 848.819,-132.628 852.927,-131.397 1043.17,-74.3879 1555.16,-150.633 1745.93,-95.397 1746.99,-95.0892 1748.05,-94.725 1749.11,-94.317"/>
<polygon fill="green" stroke="green" stroke-width="0.318701" points="1750.82,-97.3759 1758.23,-89.8012 1747.72,-91.1032 1750.82,-97.3759"/>
</g>
<!-- &#45;34&#45;&gt;8 -->
<g id="edge67" class="edge"><title>&#45;34&#45;&gt;8</title>
<path fill="none" stroke="green" stroke-width="0.13247" d="M841.106,-137.036C844.707,-134.807 848.83,-132.663 852.927,-131.397 1016.55,-80.8442 1571.65,-80.7316 1696.75,-81.3699"/>
<polygon fill="green" stroke="green" stroke-width="0.13247" points="1696.85,-84.8705 1706.87,-81.4284 1696.89,-77.8706 1696.85,-84.8705"/>
</g>
<!-- &#45;35 -->
<g id="node35" class="node"><title>&#45;35</title>
<polygon fill="lightgray" stroke="black" points="891.427,-155.246 862.427,-155.246 862.427,-137.246 891.427,-137.246 891.427,-155.246"/>
<text text-anchor="middle" x="876.927" y="-144.046" font-family="Times,serif" font-size="9.00">&#45;35</text>
</g>
<!-- &#45;35&#45;&gt;7 -->
<g id="edge68" class="edge"><title>&#45;35&#45;&gt;7</title>
<path fill="none" stroke="red" stroke-width="0.410109" d="M888.095,-136.998C891.695,-134.769 895.82,-132.632 899.927,-131.397 1080.12,-77.1819 1565.24,-147.932 1745.93,-95.397 1746.99,-95.0881 1748.05,-94.7229 1749.11,-94.314"/>
<polygon fill="red" stroke="red" stroke-width="0.410109" points="1750.82,-97.3723 1758.23,-89.7953 1747.72,-91.1004 1750.82,-97.3723"/>
</g>
<!-- &#45;35&#45;&gt;8 -->
<g id="edge69" class="edge"><title>&#45;35&#45;&gt;8</title>
<path fill="none" stroke="green" stroke-width="0.322069" d="M888.108,-137.044C891.709,-134.816 895.832,-132.669 899.927,-131.397 1054.17,-83.4674 1576.47,-81.3114 1696.98,-81.4658"/>
<polygon fill="green" stroke="green" stroke-width="0.322069" points="1697.06,-84.9659 1707.07,-81.4857 1697.07,-77.9659 1697.06,-84.9659"/>
</g>
<!-- &#45;36 -->
<g id="node36" class="node"><title>&#45;36</title>
<polygon fill="lightgray" stroke="black" points="938.427,-155.246 909.427,-155.246 909.427,-137.246 938.427,-137.246 938.427,-155.246"/>
<text text-anchor="middle" x="923.927" y="-144.046" font-family="Times,serif" font-size="9.00">&#45;36</text>
</g>
<!-- &#45;36&#45;&gt;7 -->
<g id="edge70" class="edge"><title>&#45;36&#45;&gt;7</title>
<path fill="none" stroke="red" stroke-width="0.193038" d="M935.096,-137.005C938.697,-134.775 942.822,-132.638 946.927,-131.397 1287.2,-28.5545 1404.71,-195.068 1745.93,-95.397 1746.99,-95.0867 1748.05,-94.7205 1749.11,-94.3107"/>
<polygon fill="red" stroke="red" stroke-width="0.193038" points="1750.83,-97.3681 1758.23,-89.7888 1747.71,-91.0973 1750.83,-97.3681"/>
</g>
<!-- &#45;36&#45;&gt;8 -->
<g id="edge71" class="edge"><title>&#45;36&#45;&gt;8</title>
<path fill="none" stroke="green" stroke-width="0.193336" d="M935.111,-137.053C938.712,-134.826 942.834,-132.677 946.927,-131.397 1091.69,-86.1232 1580.62,-81.9248 1696.94,-81.5719"/>
<polygon fill="green" stroke="green" stroke-width="0.193336" points="1697.02,-85.0719 1707.01,-81.5486 1697,-78.0719 1697.02,-85.0719"/>
</g>
<!-- &#45;37 -->
<g id="node37" class="node"><title>&#45;37</title>
<polygon fill="lightgray" stroke="black" points="985.427,-155.246 956.427,-155.246 956.427,-137.246 985.427,-137.246 985.427,-155.246"/>
<text text-anchor="middle" x="970.927" y="-144.046" font-family="Times,serif" font-size="9.00">&#45;37</text>
</g>
<!-- &#45;37&#45;&gt;7 -->
<g id="edge72" class="edge"><title>&#45;37&#45;&gt;7</title>
<path fill="none" stroke="green" stroke-width="0.19273" d="M982.099,-137.012C985.699,-134.783 989.824,-132.643 993.927,-131.397 1314.09,-34.1415 1424.88,-189.668 1745.93,-95.397 1746.99,-95.0852 1748.05,-94.7177 1749.11,-94.307"/>
<polygon fill="green" stroke="green" stroke-width="0.19273" points="1750.83,-97.3635 1758.23,-89.7814 1747.71,-91.0938 1750.83,-97.3635"/>
</g>
<!-- &#45;37&#45;&gt;8 -->
<g id="edge73" class="edge"><title>&#45;37&#45;&gt;8</title>
<path fill="none" stroke="green" stroke-width="0.226615" d="M982.115,-137.064C985.716,-134.836 989.837,-132.685 993.927,-131.397 1129.14,-88.8004 1584.38,-82.5835 1696.71,-81.6935"/>
<polygon fill="green" stroke="green" stroke-width="0.226615" points="1697.07,-85.1911 1707.04,-81.6194 1697.02,-78.1913 1697.07,-85.1911"/>
</g>
<!-- &#45;38 -->
<g id="node38" class="node"><title>&#45;38</title>
<polygon fill="lightgray" stroke="black" points="1032.43,-155.246 1003.43,-155.246 1003.43,-137.246 1032.43,-137.246 1032.43,-155.246"/>
<text text-anchor="middle" x="1017.93" y="-144.046" font-family="Times,serif" font-size="9.00">&#45;38</text>
</g>
<!-- &#45;38&#45;&gt;7 -->
<g id="edge74" class="edge"><title>&#45;38&#45;&gt;7</title>
<path fill="none" stroke="green" stroke-width="0.17011" d="M1029.1,-137.02C1032.7,-134.791 1036.83,-132.65 1040.93,-131.397 1340.98,-39.7278 1445.04,-184.269 1745.93,-95.397 1746.99,-95.0836 1748.05,-94.7147 1749.11,-94.3028"/>
<polygon fill="green" stroke="green" stroke-width="0.17011" points="1750.83,-97.3583 1758.22,-89.7731 1747.71,-91.0899 1750.83,-97.3583"/>
</g>
<!-- &#45;38&#45;&gt;8 -->
<g id="edge75" class="edge"><title>&#45;38&#45;&gt;8</title>
<path fill="none" stroke="red" stroke-width="0.29474" d="M1029.12,-137.075C1032.72,-134.849 1036.84,-132.695 1040.93,-131.397 1166.69,-91.4537 1588.72,-83.2834 1696.63,-81.8319"/>
<polygon fill="red" stroke="red" stroke-width="0.29474" points="1696.92,-85.3286 1706.88,-81.702 1696.83,-78.3291 1696.92,-85.3286"/>
</g>
<!-- &#45;39 -->
<g id="node39" class="node"><title>&#45;39</title>
<polygon fill="lightgray" stroke="black" points="1079.43,-155.246 1050.43,-155.246 1050.43,-137.246 1079.43,-137.246 1079.43,-155.246"/>
<text text-anchor="middle" x="1064.93" y="-144.046" font-family="Times,serif" font-size="9.00">&#45;39</text>
</g>
<!-- &#45;39&#45;&gt;7 -->
<g id="edge76" class="edge"><title>&#45;39&#45;&gt;7</title>
<path fill="none" stroke="red" stroke-width="0.40545" d="M1076.1,-137.029C1079.7,-134.8 1083.83,-132.657 1087.93,-131.397 1367.87,-45.3134 1465.19,-178.871 1745.93,-95.397 1746.99,-95.0816 1748.05,-94.7112 1749.11,-94.298"/>
<polygon fill="red" stroke="red" stroke-width="0.40545" points="1750.83,-97.3523 1758.22,-89.7636 1747.71,-91.0853 1750.83,-97.3523"/>
</g>
<!-- &#45;39&#45;&gt;8 -->
<g id="edge77" class="edge"><title>&#45;39&#45;&gt;8</title>
<path fill="none" stroke="green" stroke-width="0.105105" d="M1076.12,-137.089C1079.72,-134.863 1083.84,-132.706 1087.93,-131.397 1204.46,-94.0392 1594.55,-84.0014 1697.07,-81.9812"/>
<polygon fill="green" stroke="green" stroke-width="0.105105" points="1697.17,-85.4799 1707.11,-81.7913 1697.04,-78.4812 1697.17,-85.4799"/>
</g>
<!-- &#45;40 -->
<g id="node40" class="node"><title>&#45;40</title>
<polygon fill="lightgray" stroke="black" points="1126.43,-155.246 1097.43,-155.246 1097.43,-137.246 1126.43,-137.246 1126.43,-155.246"/>
<text text-anchor="middle" x="1111.93" y="-144.046" font-family="Times,serif" font-size="9.00">&#45;40</text>
</g>
<!-- &#45;40&#45;&gt;7 -->
<g id="edge78" class="edge"><title>&#45;40&#45;&gt;7</title>
<path fill="none" stroke="red" stroke-width="0.334982" d="M1123.11,-137.04C1126.71,-134.811 1130.83,-132.666 1134.93,-131.397 1394.77,-50.898 1485.35,-173.474 1745.93,-95.397 1746.99,-95.0794 1748.05,-94.7071 1749.11,-94.2925"/>
<polygon fill="red" stroke="red" stroke-width="0.334982" points="1750.83,-97.3454 1758.22,-89.7527 1747.71,-91.0802 1750.83,-97.3454"/>
</g>
<!-- &#45;40&#45;&gt;8 -->
<g id="edge79" class="edge"><title>&#45;40&#45;&gt;8</title>
<path fill="none" stroke="red" stroke-width="0.150544" d="M1123.13,-137.105C1126.73,-134.879 1130.85,-132.719 1134.93,-131.397 1241.96,-96.714 1598.61,-84.8262 1696.74,-82.1697"/>
<polygon fill="red" stroke="red" stroke-width="0.150544" points="1697,-85.6641 1706.91,-81.9029 1696.82,-78.6666 1697,-85.6641"/>
</g>
<!-- &#45;41 -->
<g id="node41" class="node"><title>&#45;41</title>
<polygon fill="lightgray" stroke="black" points="1173.43,-155.246 1144.43,-155.246 1144.43,-137.246 1173.43,-137.246 1173.43,-155.246"/>
<text text-anchor="middle" x="1158.93" y="-144.046" font-family="Times,serif" font-size="9.00">&#45;41</text>
</g>
<!-- &#45;41&#45;&gt;7 -->
<g id="edge80" class="edge"><title>&#45;41&#45;&gt;7</title>
<path fill="none" stroke="green" stroke-width="0.154305" d="M1170.11,-137.052C1173.71,-134.824 1177.83,-132.676 1181.93,-131.397 1421.67,-56.4813 1505.5,-168.078 1745.93,-95.397 1746.99,-95.0768 1748.05,-94.7024 1749.11,-94.286"/>
<polygon fill="green" stroke="green" stroke-width="0.154305" points="1750.83,-97.3373 1758.21,-89.7399 1747.7,-91.0741 1750.83,-97.3373"/>
</g>
<!-- &#45;41&#45;&gt;8 -->
<g id="edge81" class="edge"><title>&#45;41&#45;&gt;8</title>
<path fill="none" stroke="red" stroke-width="0.20515" d="M1170.13,-137.123C1173.74,-134.898 1177.85,-132.734 1181.93,-131.397 1279.71,-99.3157 1604.28,-85.6743 1697,-82.3741"/>
<polygon fill="red" stroke="red" stroke-width="0.20515" points="1697.25,-85.8674 1707.12,-82.0223 1697.01,-78.8717 1697.25,-85.8674"/>
</g>
<!-- &#45;42 -->
<g id="node42" class="node"><title>&#45;42</title>
<polygon fill="lightgray" stroke="black" points="1220.43,-155.246 1191.43,-155.246 1191.43,-137.246 1220.43,-137.246 1220.43,-155.246"/>
<text text-anchor="middle" x="1205.93" y="-144.046" font-family="Times,serif" font-size="9.00">&#45;42</text>
</g>
<!-- &#45;42&#45;&gt;7 -->
<g id="edge82" class="edge"><title>&#45;42&#45;&gt;7</title>
<path fill="none" stroke="red" stroke-width="0.118406" d="M1217.12,-137.067C1220.72,-134.839 1224.84,-132.688 1228.93,-131.397 1448.58,-62.0631 1525.64,-162.683 1745.93,-95.397 1746.98,-95.0737 1748.05,-94.6968 1749.1,-94.2784"/>
<polygon fill="red" stroke="red" stroke-width="0.118406" points="1750.83,-97.3279 1758.21,-89.7249 1747.7,-91.067 1750.83,-97.3279"/>
</g>
<!-- &#45;42&#45;&gt;8 -->
<g id="edge83" class="edge"><title>&#45;42&#45;&gt;8</title>
<path fill="none" stroke="green" stroke-width="0.303554" d="M1217.14,-137.145C1220.74,-134.921 1224.86,-132.752 1228.93,-131.397 1317.38,-101.95 1609.41,-86.634 1696.93,-82.6281"/>
<polygon fill="green" stroke="green" stroke-width="0.303554" points="1697.17,-86.1209 1707,-82.1759 1696.86,-79.1279 1697.17,-86.1209"/>
</g>
<!-- &#45;43 -->
<g id="node43" class="node"><title>&#45;43</title>
<polygon fill="lightgray" stroke="black" points="1267.43,-155.246 1238.43,-155.246 1238.43,-137.246 1267.43,-137.246 1267.43,-155.246"/>
<text text-anchor="middle" x="1252.93" y="-144.046" font-family="Times,serif" font-size="9.00">&#45;43</text>
</g>
<!-- &#45;43&#45;&gt;7 -->
<g id="edge84" class="edge"><title>&#45;43&#45;&gt;7</title>
<path fill="none" stroke="green" stroke-width="0.632951" d="M1264.12,-137.084C1267.72,-134.858 1271.84,-132.702 1275.93,-131.397 1475.49,-67.6427 1545.78,-157.291 1745.93,-95.397 1746.98,-95.0701 1748.04,-94.6902 1749.1,-94.2693"/>
<polygon fill="green" stroke="green" stroke-width="0.632951" points="1750.83,-97.3165 1758.2,-89.7068 1747.7,-91.0585 1750.83,-97.3165"/>
</g>
<!-- &#45;43&#45;&gt;8 -->
<g id="edge85" class="edge"><title>&#45;43&#45;&gt;8</title>
<path fill="none" stroke="red" stroke-width="0.316105" d="M1264.15,-137.171C1267.75,-134.949 1271.87,-132.773 1275.93,-131.397 1355.12,-104.568 1615.03,-87.6855 1696.96,-82.9302"/>
<polygon fill="red" stroke="red" stroke-width="0.316105" points="1697.31,-86.416 1707.09,-82.3516 1696.91,-79.4274 1697.31,-86.416"/>
</g>
<!-- &#45;44 -->
<g id="node44" class="node"><title>&#45;44</title>
<polygon fill="lightgray" stroke="black" points="1314.43,-155.246 1285.43,-155.246 1285.43,-137.246 1314.43,-137.246 1314.43,-155.246"/>
<text text-anchor="middle" x="1299.93" y="-144.046" font-family="Times,serif" font-size="9.00">&#45;44</text>
</g>
<!-- &#45;44&#45;&gt;7 -->
<g id="edge86" class="edge"><title>&#45;44&#45;&gt;7</title>
<path fill="none" stroke="green" stroke-width="0.322133" d="M1311.13,-137.105C1314.73,-134.88 1318.85,-132.719 1322.93,-131.397 1502.41,-73.2196 1565.91,-151.901 1745.93,-95.397 1746.98,-95.0656 1748.04,-94.682 1749.1,-94.2582"/>
<polygon fill="green" stroke="green" stroke-width="0.322133" points="1750.83,-97.3026 1758.2,-89.6848 1747.69,-91.0481 1750.83,-97.3026"/>
</g>
<!-- &#45;44&#45;&gt;8 -->
<g id="edge87" class="edge"><title>&#45;44&#45;&gt;8</title>
<path fill="none" stroke="green" stroke-width="0.241109" d="M1311.16,-137.204C1314.76,-134.982 1318.87,-132.799 1322.93,-131.397 1457.98,-84.6647 1632.18,-80.7957 1696.56,-81.1213"/>
<polygon fill="green" stroke="green" stroke-width="0.241109" points="1696.9,-84.6245 1706.93,-81.2169 1696.97,-77.6248 1696.9,-84.6245"/>
</g>
<!-- &#45;45 -->
<g id="node45" class="node"><title>&#45;45</title>
<polygon fill="lightgray" stroke="black" points="45.4266,-215.095 16.4266,-215.095 16.4266,-197.095 45.4266,-197.095 45.4266,-215.095"/>
<text text-anchor="middle" x="30.9266" y="-203.895" font-family="Times,serif" font-size="9.00">&#45;45</text>
</g>
<!-- &#45;45&#45;&gt;7 -->
<g id="edge88" class="edge"><title>&#45;45&#45;&gt;7</title>
<path fill="none" stroke="green" stroke-width="0.32336" d="M45.7804,-205.046C286.142,-204.222 3363.39,-193.052 3394.93,-161.095 3404.2,-151.701 3404.12,-140.872 3394.93,-131.397 3365.83,-101.397 1999.06,-84.2326 1795.24,-81.8379"/>
<polygon fill="green" stroke="green" stroke-width="0.32336" points="1794.98,-78.3348 1784.94,-81.7179 1794.9,-85.3343 1794.98,-78.3348"/>
</g>
<!-- &#45;45&#45;&gt;8 -->
<g id="edge89" class="edge"><title>&#45;45&#45;&gt;8</title>
<path fill="none" stroke="green" stroke-width="0.49927" stroke-dasharray="1,5" d="M23.8013,-197.055C11.4259,-182.119 -11.0748,-149.929 6.92661,-131.397 37.7338,-99.6813 1487.47,-83.9082 1696.84,-81.7942"/>
<polygon fill="green" stroke="green" stroke-width="0.49927" points="1696.9,-85.2938 1706.87,-81.6938 1696.83,-78.2941 1696.9,-85.2938"/>
</g>
<!-- 9 -->
<g id="node83" class="node"><title>9</title>
<ellipse fill="white" stroke="black" cx="30.9266" cy="-146.246" rx="14.7" ry="14.7"/>
<text text-anchor="middle" x="30.9266" y="-144.046" font-family="Times,serif" font-size="9.00">9</text>
</g>
<!-- &#45;45&#45;&gt;9 -->
<g id="edge160" class="edge"><title>&#45;45&#45;&gt;9</title>
<path fill="none" stroke="green" stroke-width="0.369257" d="M30.9266,-197.052C30.9266,-190.447 30.9266,-180.731 30.9266,-171.631"/>
<polygon fill="green" stroke="green" stroke-width="0.369257" points="34.4267,-171.453 30.9266,-161.453 27.4267,-171.453 34.4267,-171.453"/>
</g>
<!-- &#45;46 -->
<g id="node46" class="node"><title>&#45;46</title>
<polygon fill="lightgray" stroke="black" points="1361.43,-155.246 1332.43,-155.246 1332.43,-137.246 1361.43,-137.246 1361.43,-155.246"/>
<text text-anchor="middle" x="1346.93" y="-144.046" font-family="Times,serif" font-size="9.00">&#45;46</text>
</g>
<!-- &#45;46&#45;&gt;7 -->
<g id="edge90" class="edge"><title>&#45;46&#45;&gt;7</title>
<path fill="none" stroke="red" stroke-width="0.582438" d="M1358.14,-137.132C1361.74,-134.907 1365.85,-132.741 1369.93,-131.397 1529.35,-78.7925 1586.02,-146.515 1745.93,-95.397 1746.98,-95.0601 1748.04,-94.6719 1749.09,-94.2444"/>
<polygon fill="red" stroke="red" stroke-width="0.582438" points="1750.83,-97.2854 1758.19,-89.6574 1747.68,-91.0352 1750.83,-97.2854"/>
</g>
<!-- &#45;46&#45;&gt;8 -->
<g id="edge91" class="edge"><title>&#45;46&#45;&gt;8</title>
<path fill="none" stroke="green" stroke-width="0.12433" d="M1358.18,-137.245C1361.78,-135.025 1365.89,-132.832 1369.93,-131.397 1487.13,-89.7627 1637.92,-82.7864 1696.8,-81.7029"/>
<polygon fill="green" stroke="green" stroke-width="0.12433" points="1697.06,-85.1997 1707.01,-81.5591 1696.96,-78.2004 1697.06,-85.1997"/>
</g>
<!-- &#45;47 -->
<g id="node47" class="node"><title>&#45;47</title>
<polygon fill="lightgray" stroke="black" points="1408.43,-155.246 1379.43,-155.246 1379.43,-137.246 1408.43,-137.246 1408.43,-155.246"/>
<text text-anchor="middle" x="1393.93" y="-144.046" font-family="Times,serif" font-size="9.00">&#45;47</text>
</g>
<!-- &#45;47&#45;&gt;7 -->
<g id="edge92" class="edge"><title>&#45;47&#45;&gt;7</title>
<path fill="none" stroke="green" stroke-width="0.215235" d="M1405.15,-137.166C1408.75,-134.943 1412.86,-132.768 1416.93,-131.397 1556.3,-84.3599 1606.12,-141.135 1745.93,-95.397 1746.81,-95.109 1747.69,-94.7861 1748.57,-94.435"/>
<polygon fill="green" stroke="green" stroke-width="0.215235" points="1750.28,-97.4934 1757.68,-89.9119 1747.17,-91.2234 1750.28,-97.4934"/>
</g>
<!-- &#45;47&#45;&gt;8 -->
<g id="edge93" class="edge"><title>&#45;47&#45;&gt;8</title>
<path fill="none" stroke="red" stroke-width="0.353923" d="M1405.67,-137.008C1409.16,-134.89 1413.08,-132.811 1416.93,-131.397 1516.37,-94.8706 1643.86,-85.0343 1696.97,-82.4456"/>
<polygon fill="red" stroke="red" stroke-width="0.353923" points="1697.3,-85.9345 1707.14,-81.9962 1696.99,-78.9413 1697.3,-85.9345"/>
</g>
<!-- &#45;48 -->
<g id="node48" class="node"><title>&#45;48</title>
<polygon fill="lightgray" stroke="black" points="1455.43,-155.246 1426.43,-155.246 1426.43,-137.246 1455.43,-137.246 1455.43,-155.246"/>
<text text-anchor="middle" x="1440.93" y="-144.046" font-family="Times,serif" font-size="9.00">&#45;48</text>
</g>
<!-- &#45;48&#45;&gt;7 -->
<g id="edge94" class="edge"><title>&#45;48&#45;&gt;7</title>
<path fill="none" stroke="red" stroke-width="0.235976" d="M1452.16,-137.21C1455.77,-134.989 1459.88,-132.805 1463.93,-131.397 1583.27,-89.9186 1626.2,-135.763 1745.93,-95.397 1746.8,-95.1011 1747.69,-94.7715 1748.56,-94.4147"/>
<polygon fill="red" stroke="red" stroke-width="0.235976" points="1750.29,-97.4667 1757.67,-89.8653 1747.16,-91.2052 1750.29,-97.4667"/>
</g>
<!-- &#45;48&#45;&gt;8 -->
<g id="edge95" class="edge"><title>&#45;48&#45;&gt;8</title>
<path fill="none" stroke="green" stroke-width="0.114811" d="M1452.69,-137.08C1456.18,-134.962 1460.1,-132.867 1463.93,-131.397 1545.74,-99.9986 1650.05,-87.6529 1697.02,-83.446"/>
<polygon fill="green" stroke="green" stroke-width="0.114811" points="1697.5,-86.9177 1707.17,-82.5855 1696.91,-79.9428 1697.5,-86.9177"/>
</g>
<!-- &#45;49 -->
<g id="node49" class="node"><title>&#45;49</title>
<polygon fill="lightgray" stroke="black" points="1502.43,-155.246 1473.43,-155.246 1473.43,-137.246 1502.43,-137.246 1502.43,-155.246"/>
<text text-anchor="middle" x="1487.93" y="-144.046" font-family="Times,serif" font-size="9.00">&#45;49</text>
</g>
<!-- &#45;49&#45;&gt;7 -->
<g id="edge96" class="edge"><title>&#45;49&#45;&gt;7</title>
<path fill="none" stroke="green" stroke-width="0.410904" d="M1499.66,-136.984C1503.15,-134.864 1507.07,-132.792 1510.93,-131.397 1610.29,-95.4632 1646.23,-130.404 1745.93,-95.397 1746.8,-95.0902 1747.68,-94.7512 1748.56,-94.3866"/>
<polygon fill="green" stroke="green" stroke-width="0.410904" points="1750.29,-97.4298 1757.65,-89.8005 1747.14,-91.1801 1750.29,-97.4298"/>
</g>
<!-- &#45;49&#45;&gt;8 -->
<g id="edge97" class="edge"><title>&#45;49&#45;&gt;8</title>
<path fill="none" stroke="red" stroke-width="0.133442" d="M1499.73,-137.181C1503.22,-135.065 1507.13,-132.945 1510.93,-131.397 1575.42,-105.111 1656.92,-90.7811 1697.14,-84.8561"/>
<polygon fill="red" stroke="red" stroke-width="0.133442" points="1697.71,-88.3101 1707.12,-83.4357 1696.73,-81.38 1697.71,-88.3101"/>
</g>
<!-- &#45;50 -->
<g id="node50" class="node"><title>&#45;50</title>
<polygon fill="lightgray" stroke="black" points="1549.43,-155.246 1520.43,-155.246 1520.43,-137.246 1549.43,-137.246 1549.43,-155.246"/>
<text text-anchor="middle" x="1534.93" y="-144.046" font-family="Times,serif" font-size="9.00">&#45;50</text>
</g>
<!-- &#45;50&#45;&gt;7 -->
<g id="edge98" class="edge"><title>&#45;50&#45;&gt;7</title>
<path fill="none" stroke="red" stroke-width="0.202893" d="M1546.69,-137.076C1550.18,-134.958 1554.1,-132.863 1557.93,-131.397 1637.38,-100.983 1666.2,-125.07 1745.93,-95.397 1746.79,-95.074 1747.67,-94.7212 1748.54,-94.3451"/>
<polygon fill="red" stroke="red" stroke-width="0.202893" points="1750.3,-97.3752 1757.61,-89.7049 1747.11,-91.1433 1750.3,-97.3752"/>
</g>
<!-- &#45;50&#45;&gt;8 -->
<g id="edge99" class="edge"><title>&#45;50&#45;&gt;8</title>
<path fill="none" stroke="green" stroke-width="0.386824" d="M1547.28,-137.047C1550.64,-135.026 1554.35,-132.988 1557.93,-131.397 1605.56,-110.208 1664.81,-94.6739 1697.46,-86.9787"/>
<polygon fill="green" stroke="green" stroke-width="0.386824" points="1698.5,-90.3304 1707.46,-84.6727 1696.93,-83.5094 1698.5,-90.3304"/>
</g>
<!-- &#45;51 -->
<g id="node51" class="node"><title>&#45;51</title>
<polygon fill="lightgray" stroke="black" points="1596.43,-155.246 1567.43,-155.246 1567.43,-137.246 1596.43,-137.246 1596.43,-155.246"/>
<text text-anchor="middle" x="1581.93" y="-144.046" font-family="Times,serif" font-size="9.00">&#45;51</text>
</g>
<!-- &#45;51&#45;&gt;7 -->
<g id="edge100" class="edge"><title>&#45;51&#45;&gt;7</title>
<path fill="none" stroke="green" stroke-width="0.291305" d="M1593.75,-137.225C1597.24,-135.11 1601.14,-132.979 1604.93,-131.397 1664.6,-106.45 1686.02,-119.787 1745.93,-95.397 1746.78,-95.0477 1747.65,-94.6727 1748.51,-94.2778"/>
<polygon fill="green" stroke="green" stroke-width="0.291305" points="1750.31,-97.287 1757.55,-89.55 1747.07,-91.0846 1750.31,-97.287"/>
</g>
<!-- &#45;51&#45;&gt;8 -->
<g id="edge101" class="edge"><title>&#45;51&#45;&gt;8</title>
<path fill="none" stroke="green" stroke-width="0.203827" d="M1594.88,-137.015C1598.11,-135.082 1601.61,-133.094 1604.93,-131.397 1636.61,-115.207 1674.77,-99.6465 1698.69,-90.3385"/>
<polygon fill="green" stroke="green" stroke-width="0.203827" points="1700.24,-93.4943 1708.31,-86.6352 1697.72,-86.9617 1700.24,-93.4943"/>
</g>
<!-- &#45;52 -->
<g id="node52" class="node"><title>&#45;52</title>
<polygon fill="lightgray" stroke="black" points="1643.43,-155.246 1614.43,-155.246 1614.43,-137.246 1643.43,-137.246 1643.43,-155.246"/>
<text text-anchor="middle" x="1628.93" y="-144.046" font-family="Times,serif" font-size="9.00">&#45;52</text>
</g>
<!-- &#45;52&#45;&gt;7 -->
<g id="edge102" class="edge"><title>&#45;52&#45;&gt;7</title>
<path fill="none" stroke="red" stroke-width="0.400297" d="M1641.36,-137.216C1644.72,-135.195 1648.41,-133.114 1651.93,-131.397 1692.13,-111.782 1705.54,-114.637 1745.93,-95.397 1746.76,-94.9987 1747.61,-94.582 1748.46,-94.152"/>
<polygon fill="red" stroke="red" stroke-width="0.400297" points="1750.32,-97.1229 1757.42,-89.2604 1746.97,-90.9782 1750.32,-97.1229"/>
</g>
<!-- &#45;52&#45;&gt;8 -->
<g id="edge103" class="edge"><title>&#45;52&#45;&gt;8</title>
<path fill="none" stroke="green" stroke-width="0.399241" d="M1640.71,-137.179C1655.99,-126.707 1682.92,-108.265 1701.55,-95.501"/>
<polygon fill="green" stroke="green" stroke-width="0.399241" points="1703.68,-98.2894 1709.95,-89.7509 1699.72,-92.5142 1703.68,-98.2894"/>
</g>
<!-- &#45;53 -->
<g id="node53" class="node"><title>&#45;53</title>
<polygon fill="lightgray" stroke="black" points="1690.43,-155.246 1661.43,-155.246 1661.43,-137.246 1690.43,-137.246 1690.43,-155.246"/>
<text text-anchor="middle" x="1675.93" y="-144.046" font-family="Times,serif" font-size="9.00">&#45;53</text>
</g>
<!-- &#45;53&#45;&gt;7 -->
<g id="edge104" class="edge"><title>&#45;53&#45;&gt;7</title>
<path fill="none" stroke="red" stroke-width="0.37061" d="M1687.83,-137.179C1703.29,-126.707 1730.5,-108.265 1749.34,-95.501"/>
<polygon fill="red" stroke="red" stroke-width="0.37061" points="1751.51,-98.2581 1757.82,-89.7509 1747.58,-92.4633 1751.51,-98.2581"/>
</g>
<!-- &#45;53&#45;&gt;8 -->
<g id="edge105" class="edge"><title>&#45;53&#45;&gt;8</title>
<path fill="none" stroke="green" stroke-width="0.537588" d="M1681.75,-137.179C1688.21,-128.235 1698.87,-113.479 1707.58,-101.41"/>
<polygon fill="green" stroke="green" stroke-width="0.537588" points="1710.48,-103.376 1713.5,-93.2194 1704.81,-99.2774 1710.48,-103.376"/>
</g>
<!-- &#45;54 -->
<g id="node54" class="node"><title>&#45;54</title>
<polygon fill="lightgray" stroke="black" points="1737.43,-155.246 1708.43,-155.246 1708.43,-137.246 1737.43,-137.246 1737.43,-155.246"/>
<text text-anchor="middle" x="1722.93" y="-144.046" font-family="Times,serif" font-size="9.00">&#45;54</text>
</g>
<!-- &#45;54&#45;&gt;7 -->
<g id="edge106" class="edge"><title>&#45;54&#45;&gt;7</title>
<path fill="none" stroke="green" stroke-width="0.272763" d="M1728.88,-137.179C1735.48,-128.235 1746.37,-113.479 1755.27,-101.41"/>
<polygon fill="green" stroke="green" stroke-width="0.272763" points="1758.19,-103.344 1761.31,-93.2194 1752.56,-99.1881 1758.19,-103.344"/>
</g>
<!-- &#45;54&#45;&gt;8 -->
<g id="edge107" class="edge"><title>&#45;54&#45;&gt;8</title>
<path fill="none" stroke="green" stroke-width="0.123407" d="M1722.8,-137.179C1722.68,-129.263 1722.48,-116.795 1722.31,-105.667"/>
<polygon fill="green" stroke="green" stroke-width="0.123407" points="1725.8,-105.544 1722.15,-95.6006 1718.8,-105.654 1725.8,-105.544"/>
</g>
<!-- &#45;55 -->
<g id="node55" class="node"><title>&#45;55</title>
<polygon fill="lightgray" stroke="black" points="1784.43,-155.246 1755.43,-155.246 1755.43,-137.246 1784.43,-137.246 1784.43,-155.246"/>
<text text-anchor="middle" x="1769.93" y="-144.046" font-family="Times,serif" font-size="9.00">&#45;55</text>
</g>
<!-- &#45;55&#45;&gt;7 -->
<g id="edge108" class="edge"><title>&#45;55&#45;&gt;7</title>
<path fill="none" stroke="red" stroke-width="0.233282" d="M1769.93,-137.179C1769.93,-129.263 1769.93,-116.795 1769.93,-105.667"/>
<polygon fill="red" stroke="red" stroke-width="0.233282" points="1773.43,-105.601 1769.93,-95.6006 1766.43,-105.601 1773.43,-105.601"/>
</g>
<!-- &#45;55&#45;&gt;8 -->
<g id="edge109" class="edge"><title>&#45;55&#45;&gt;8</title>
<path fill="none" stroke="red" stroke-width="0.134196" d="M1763.85,-137.179C1757.03,-128.127 1745.72,-113.122 1736.57,-100.975"/>
<polygon fill="red" stroke="red" stroke-width="0.134196" points="1739.19,-98.6417 1730.38,-92.7617 1733.6,-102.854 1739.19,-98.6417"/>
</g>
<!-- &#45;56 -->
<g id="node56" class="node"><title>&#45;56</title>
<polygon fill="lightgray" stroke="black" points="1831.43,-155.246 1802.43,-155.246 1802.43,-137.246 1831.43,-137.246 1831.43,-155.246"/>
<text text-anchor="middle" x="1816.93" y="-144.046" font-family="Times,serif" font-size="9.00">&#45;56</text>
</g>
<!-- &#45;56&#45;&gt;7 -->
<g id="edge110" class="edge"><title>&#45;56&#45;&gt;7</title>
<path fill="none" stroke="red" stroke-width="0.234721" d="M1810.97,-137.179C1804.37,-128.235 1793.49,-113.479 1784.58,-101.41"/>
<polygon fill="red" stroke="red" stroke-width="0.234721" points="1787.29,-99.1881 1778.54,-93.2194 1781.66,-103.344 1787.29,-99.1881"/>
</g>
<!-- &#45;56&#45;&gt;8 -->
<g id="edge111" class="edge"><title>&#45;56&#45;&gt;8</title>
<path fill="none" stroke="red" stroke-width="0.221422" d="M1804.89,-137.179C1789.19,-126.649 1761.47,-108.062 1742.42,-95.2911"/>
<polygon fill="red" stroke="red" stroke-width="0.221422" points="1744.12,-92.2118 1733.86,-89.5497 1740.22,-98.0258 1744.12,-92.2118"/>
</g>
<!-- &#45;57 -->
<g id="node57" class="node"><title>&#45;57</title>
<polygon fill="lightgray" stroke="black" points="1878.43,-155.246 1849.43,-155.246 1849.43,-137.246 1878.43,-137.246 1878.43,-155.246"/>
<text text-anchor="middle" x="1863.93" y="-144.046" font-family="Times,serif" font-size="9.00">&#45;57</text>
</g>
<!-- &#45;57&#45;&gt;7 -->
<g id="edge112" class="edge"><title>&#45;57&#45;&gt;7</title>
<path fill="none" stroke="green" stroke-width="0.240849" d="M1852.02,-137.179C1836.57,-126.707 1809.35,-108.265 1790.52,-95.501"/>
<polygon fill="green" stroke="green" stroke-width="0.240849" points="1792.27,-92.4633 1782.03,-89.7509 1788.35,-98.2581 1792.27,-92.4633"/>
</g>
<!-- &#45;57&#45;&gt;8 -->
<g id="edge113" class="edge"><title>&#45;57&#45;&gt;8</title>
<path fill="none" stroke="green" stroke-width="0.62062" d="M1851.5,-137.208C1848.14,-135.186 1844.45,-133.107 1840.93,-131.397 1800.31,-111.672 1786.72,-114.743 1745.93,-95.397 1745.09,-95.0002 1744.24,-94.5848 1743.39,-94.1558"/>
<polygon fill="green" stroke="green" stroke-width="0.62062" points="1744.88,-90.9813 1734.43,-89.2691 1741.53,-97.1278 1744.88,-90.9813"/>
</g>
<!-- &#45;58 -->
<g id="node58" class="node"><title>&#45;58</title>
<polygon fill="lightgray" stroke="black" points="1925.43,-155.246 1896.43,-155.246 1896.43,-137.246 1925.43,-137.246 1925.43,-155.246"/>
<text text-anchor="middle" x="1910.93" y="-144.046" font-family="Times,serif" font-size="9.00">&#45;58</text>
</g>
<!-- &#45;58&#45;&gt;7 -->
<g id="edge114" class="edge"><title>&#45;58&#45;&gt;7</title>
<path fill="none" stroke="green" stroke-width="0.147997" d="M1897.97,-137.008C1894.74,-135.075 1891.25,-133.089 1887.93,-131.397 1855.84,-115.066 1817.15,-99.4565 1793.04,-90.1858"/>
<polygon fill="green" stroke="green" stroke-width="0.147997" points="1794.25,-86.9018 1783.66,-86.6171 1791.76,-93.4443 1794.25,-86.9018"/>
</g>
<!-- &#45;58&#45;&gt;8 -->
<g id="edge115" class="edge"><title>&#45;58&#45;&gt;8</title>
<path fill="none" stroke="green" stroke-width="0.281375" d="M1899.1,-137.221C1895.61,-135.106 1891.71,-132.976 1887.93,-131.397 1827.84,-106.335 1806.25,-119.899 1745.93,-95.397 1745.07,-95.0485 1744.2,-94.6741 1743.34,-94.2796"/>
<polygon fill="green" stroke="green" stroke-width="0.281375" points="1744.78,-91.0862 1734.3,-89.5543 1741.54,-97.2895 1744.78,-91.0862"/>
</g>
<!-- &#45;59 -->
<g id="node59" class="node"><title>&#45;59</title>
<polygon fill="lightgray" stroke="black" points="1972.43,-155.246 1943.43,-155.246 1943.43,-137.246 1972.43,-137.246 1972.43,-155.246"/>
<text text-anchor="middle" x="1957.93" y="-144.046" font-family="Times,serif" font-size="9.00">&#45;59</text>
</g>
<!-- &#45;59&#45;&gt;7 -->
<g id="edge116" class="edge"><title>&#45;59&#45;&gt;7</title>
<path fill="none" stroke="green" stroke-width="0.442982" d="M1945.58,-137.043C1942.21,-135.022 1938.51,-132.985 1934.93,-131.397 1887.01,-110.13 1827.4,-94.6248 1794.54,-86.9554"/>
<polygon fill="green" stroke="green" stroke-width="0.442982" points="1795.01,-83.472 1784.48,-84.6579 1793.45,-90.2964 1795.01,-83.472"/>
</g>
<!-- &#45;59&#45;&gt;8 -->
<g id="edge117" class="edge"><title>&#45;59&#45;&gt;8</title>
<path fill="none" stroke="red" stroke-width="0.126024" d="M1946.16,-137.073C1942.67,-134.956 1938.76,-132.861 1934.93,-131.397 1855.05,-100.866 1826.08,-125.183 1745.93,-95.397 1745.06,-95.0744 1744.19,-94.722 1743.31,-94.3462"/>
<polygon fill="red" stroke="red" stroke-width="0.126024" points="1744.74,-91.1443 1734.24,-89.7074 1741.55,-97.3766 1744.74,-91.1443"/>
</g>
<!-- &#45;60 -->
<g id="node60" class="node"><title>&#45;60</title>
<polygon fill="lightgray" stroke="black" points="2019.43,-155.246 1990.43,-155.246 1990.43,-137.246 2019.43,-137.246 2019.43,-155.246"/>
<text text-anchor="middle" x="2004.93" y="-144.046" font-family="Times,serif" font-size="9.00">&#45;60</text>
</g>
<!-- &#45;60&#45;&gt;7 -->
<g id="edge118" class="edge"><title>&#45;60&#45;&gt;7</title>
<path fill="none" stroke="red" stroke-width="0.242148" d="M1993.12,-137.179C1989.63,-135.063 1985.73,-132.943 1981.93,-131.397 1916.97,-104.962 1834.84,-90.664 1794.53,-84.7932"/>
<polygon fill="red" stroke="red" stroke-width="0.242148" points="1794.93,-81.3154 1784.54,-83.388 1793.96,-88.2472 1794.93,-81.3154"/>
</g>
<!-- &#45;60&#45;&gt;8 -->
<g id="edge119" class="edge"><title>&#45;60&#45;&gt;8</title>
<path fill="none" stroke="red" stroke-width="0.171019" d="M1993.2,-136.982C1989.71,-134.863 1985.78,-132.791 1981.93,-131.397 1882.14,-95.3455 1846.05,-130.518 1745.93,-95.397 1745.05,-95.0904 1744.17,-94.7517 1743.3,-94.3873"/>
<polygon fill="red" stroke="red" stroke-width="0.171019" points="1744.71,-91.1807 1734.21,-89.8021 1741.56,-97.4307 1744.71,-91.1807"/>
</g>
<!-- &#45;61 -->
<g id="node61" class="node"><title>&#45;61</title>
<polygon fill="lightgray" stroke="black" points="2066.43,-155.246 2037.43,-155.246 2037.43,-137.246 2066.43,-137.246 2066.43,-155.246"/>
<text text-anchor="middle" x="2051.93" y="-144.046" font-family="Times,serif" font-size="9.00">&#45;61</text>
</g>
<!-- &#45;61&#45;&gt;7 -->
<g id="edge120" class="edge"><title>&#45;61&#45;&gt;7</title>
<path fill="none" stroke="red" stroke-width="0.547876" d="M2040.16,-137.078C2036.67,-134.96 2032.76,-132.865 2028.93,-131.397 1946.79,-99.9108 1842.08,-87.6091 1794.93,-83.4296"/>
<polygon fill="red" stroke="red" stroke-width="0.547876" points="1795,-79.923 1784.74,-82.5753 1794.41,-86.8986 1795,-79.923"/>
</g>
<!-- &#45;61&#45;&gt;8 -->
<g id="edge121" class="edge"><title>&#45;61&#45;&gt;8</title>
<path fill="none" stroke="green" stroke-width="0.309901" d="M2040.69,-137.209C2037.09,-134.988 2032.98,-132.804 2028.93,-131.397 1909.15,-89.8004 1866.08,-135.877 1745.93,-95.397 1745.05,-95.1013 1744.17,-94.7718 1743.29,-94.4152"/>
<polygon fill="green" stroke="green" stroke-width="0.309901" points="1744.7,-91.2057 1734.19,-89.8664 1741.57,-97.4674 1744.7,-91.2057"/>
</g>
<!-- &#45;62 -->
<g id="node62" class="node"><title>&#45;62</title>
<polygon fill="lightgray" stroke="black" points="2113.43,-155.246 2084.43,-155.246 2084.43,-137.246 2113.43,-137.246 2113.43,-155.246"/>
<text text-anchor="middle" x="2098.93" y="-144.046" font-family="Times,serif" font-size="9.00">&#45;62</text>
</g>
<!-- &#45;62&#45;&gt;7 -->
<g id="edge122" class="edge"><title>&#45;62&#45;&gt;7</title>
<path fill="none" stroke="green" stroke-width="0.181526" d="M2087.19,-137.007C2083.7,-134.888 2079.78,-132.81 2075.93,-131.397 1976.15,-94.7799 1848.25,-84.9928 1794.96,-82.4314"/>
<polygon fill="green" stroke="green" stroke-width="0.181526" points="1794.91,-78.9257 1784.76,-81.9874 1794.6,-85.919 1794.91,-78.9257"/>
</g>
<!-- &#45;62&#45;&gt;8 -->
<g id="edge123" class="edge"><title>&#45;62&#45;&gt;8</title>
<path fill="none" stroke="red" stroke-width="0.10006" d="M2087.71,-137.165C2084.1,-134.942 2079.99,-132.768 2075.93,-131.397 1936.13,-84.2415 1886.16,-141.249 1745.93,-95.397 1745.05,-95.1092 1744.16,-94.7863 1743.28,-94.4354"/>
<polygon fill="red" stroke="red" stroke-width="0.10006" points="1744.68,-91.2238 1734.17,-89.9128 1741.57,-97.4939 1744.68,-91.2238"/>
</g>
<!-- &#45;63 -->
<g id="node63" class="node"><title>&#45;63</title>
<polygon fill="lightgray" stroke="black" points="2160.43,-155.246 2131.43,-155.246 2131.43,-137.246 2160.43,-137.246 2160.43,-155.246"/>
<text text-anchor="middle" x="2145.93" y="-144.046" font-family="Times,serif" font-size="9.00">&#45;63</text>
</g>
<!-- &#45;63&#45;&gt;7 -->
<g id="edge124" class="edge"><title>&#45;63&#45;&gt;7</title>
<path fill="none" stroke="green" stroke-width="0.151829" d="M2134.68,-137.244C2131.07,-135.024 2126.97,-132.832 2122.93,-131.397 2005.39,-89.6698 1854.17,-82.7469 1795.12,-81.6903"/>
<polygon fill="green" stroke="green" stroke-width="0.151829" points="1794.93,-78.1875 1784.89,-81.5513 1794.84,-85.1868 1794.93,-78.1875"/>
</g>
<!-- &#45;63&#45;&gt;8 -->
<g id="edge125" class="edge"><title>&#45;63&#45;&gt;8</title>
<path fill="none" stroke="red" stroke-width="0.225951" d="M2134.72,-137.131C2131.11,-134.907 2127,-132.74 2122.93,-131.397 1963.08,-78.674 1906.26,-146.63 1745.93,-95.397 1744.87,-95.0602 1743.81,-94.6721 1742.76,-94.2447"/>
<polygon fill="red" stroke="red" stroke-width="0.225951" points="1744.17,-91.0355 1733.67,-89.6581 1741.02,-97.2858 1744.17,-91.0355"/>
</g>
<!-- &#45;64 -->
<g id="node64" class="node"><title>&#45;64</title>
<polygon fill="lightgray" stroke="black" points="2207.43,-155.246 2178.43,-155.246 2178.43,-137.246 2207.43,-137.246 2207.43,-155.246"/>
<text text-anchor="middle" x="2192.93" y="-144.046" font-family="Times,serif" font-size="9.00">&#45;64</text>
</g>
<!-- &#45;64&#45;&gt;7 -->
<g id="edge126" class="edge"><title>&#45;64&#45;&gt;7</title>
<path fill="none" stroke="green" stroke-width="0.164568" d="M2181.69,-137.203C2178.09,-134.981 2173.98,-132.799 2169.93,-131.397 2034.26,-84.4733 1859.18,-80.7422 1794.96,-81.1121"/>
<polygon fill="green" stroke="green" stroke-width="0.164568" points="1794.92,-77.6122 1784.96,-81.2099 1794.99,-84.6119 1794.92,-77.6122"/>
</g>
<!-- &#45;64&#45;&gt;8 -->
<g id="edge127" class="edge"><title>&#45;64&#45;&gt;8</title>
<path fill="none" stroke="red" stroke-width="0.221734" d="M2181.73,-137.105C2178.12,-134.879 2174.01,-132.719 2169.93,-131.397 1990.01,-73.101 1926.38,-152.016 1745.93,-95.397 1744.87,-95.0657 1743.81,-94.6822 1742.76,-94.2585"/>
<polygon fill="red" stroke="red" stroke-width="0.221734" points="1744.16,-91.0483 1733.66,-89.6853 1741.02,-97.303 1744.16,-91.0483"/>
</g>
<!-- &#45;65 -->
<g id="node65" class="node"><title>&#45;65</title>
<polygon fill="lightgray" stroke="black" points="2254.43,-155.246 2225.43,-155.246 2225.43,-137.246 2254.43,-137.246 2254.43,-155.246"/>
<text text-anchor="middle" x="2239.93" y="-144.046" font-family="Times,serif" font-size="9.00">&#45;65</text>
</g>
<!-- &#45;65&#45;&gt;7 -->
<g id="edge128" class="edge"><title>&#45;65&#45;&gt;7</title>
<path fill="none" stroke="red" stroke-width="0.15017" d="M2228.7,-137.171C2225.1,-134.948 2220.99,-132.772 2216.93,-131.397 2137.56,-104.518 1877.06,-87.6695 1794.95,-82.9264"/>
<polygon fill="red" stroke="red" stroke-width="0.15017" points="1794.98,-79.4222 1784.79,-82.3492 1794.58,-86.411 1794.98,-79.4222"/>
</g>
<!-- &#45;65&#45;&gt;8 -->
<g id="edge129" class="edge"><title>&#45;65&#45;&gt;8</title>
<path fill="none" stroke="red" stroke-width="0.500804" d="M2228.73,-137.084C2225.13,-134.857 2221.01,-132.702 2216.93,-131.397 2016.93,-67.524 1946.5,-157.406 1745.93,-95.397 1744.87,-95.0702 1743.81,-94.6903 1742.75,-94.2695"/>
<polygon fill="red" stroke="red" stroke-width="0.500804" points="1744.16,-91.0587 1733.65,-89.7072 1741.02,-97.3168 1744.16,-91.0587"/>
</g>
<!-- &#45;66 -->
<g id="node66" class="node"><title>&#45;66</title>
<polygon fill="lightgray" stroke="black" points="2301.43,-155.246 2272.43,-155.246 2272.43,-137.246 2301.43,-137.246 2301.43,-155.246"/>
<text text-anchor="middle" x="2286.93" y="-144.046" font-family="Times,serif" font-size="9.00">&#45;66</text>
</g>
<!-- &#45;66&#45;&gt;7 -->
<g id="edge130" class="edge"><title>&#45;66&#45;&gt;7</title>
<path fill="none" stroke="red" stroke-width="0.314042" d="M2275.71,-137.145C2272.11,-134.921 2268,-132.751 2263.93,-131.397 2175.3,-101.9 1882.67,-86.6186 1794.98,-82.6245"/>
<polygon fill="red" stroke="red" stroke-width="0.314042" points="1795.03,-79.1234 1784.88,-82.1738 1794.72,-86.1165 1795.03,-79.1234"/>
</g>
<!-- &#45;66&#45;&gt;8 -->
<g id="edge131" class="edge"><title>&#45;66&#45;&gt;8</title>
<path fill="none" stroke="red" stroke-width="0.366421" d="M2275.74,-137.066C2272.14,-134.839 2268.02,-132.688 2263.93,-131.397 2043.85,-61.9443 1966.64,-162.798 1745.93,-95.397 1744.87,-95.0738 1743.81,-94.6969 1742.75,-94.2786"/>
<polygon fill="red" stroke="red" stroke-width="0.366421" points="1744.15,-91.0672 1733.64,-89.7252 1741.02,-97.3281 1744.15,-91.0672"/>
</g>
<!-- &#45;67 -->
<g id="node67" class="node"><title>&#45;67</title>
<polygon fill="lightgray" stroke="black" points="2348.43,-155.246 2319.43,-155.246 2319.43,-137.246 2348.43,-137.246 2348.43,-155.246"/>
<text text-anchor="middle" x="2333.93" y="-144.046" font-family="Times,serif" font-size="9.00">&#45;67</text>
</g>
<!-- &#45;67&#45;&gt;7 -->
<g id="edge132" class="edge"><title>&#45;67&#45;&gt;7</title>
<path fill="none" stroke="red" stroke-width="0.113376" d="M2322.72,-137.123C2319.12,-134.898 2315,-132.733 2310.93,-131.397 2212.96,-99.2651 1887.79,-85.6595 1794.9,-82.3708"/>
<polygon fill="red" stroke="red" stroke-width="0.113376" points="1794.87,-78.8678 1784.76,-82.0204 1794.63,-85.8636 1794.87,-78.8678"/>
</g>
<!-- &#45;67&#45;&gt;8 -->
<g id="edge133" class="edge"><title>&#45;67&#45;&gt;8</title>
<path fill="none" stroke="green" stroke-width="0.135727" d="M2322.74,-137.052C2319.14,-134.824 2315.02,-132.676 2310.93,-131.397 2070.75,-56.3625 1986.79,-168.193 1745.93,-95.397 1744.87,-95.0769 1743.8,-94.7025 1742.75,-94.2862"/>
<polygon fill="green" stroke="green" stroke-width="0.135727" points="1744.15,-91.0742 1733.64,-89.7402 1741.02,-97.3375 1744.15,-91.0742"/>
</g>
<!-- &#45;68 -->
<g id="node68" class="node"><title>&#45;68</title>
<polygon fill="lightgray" stroke="black" points="2395.43,-155.246 2366.43,-155.246 2366.43,-137.246 2395.43,-137.246 2395.43,-155.246"/>
<text text-anchor="middle" x="2380.93" y="-144.046" font-family="Times,serif" font-size="9.00">&#45;68</text>
</g>
<!-- &#45;68&#45;&gt;7 -->
<g id="edge134" class="edge"><title>&#45;68&#45;&gt;7</title>
<path fill="none" stroke="green" stroke-width="0.118287" d="M2369.73,-137.104C2366.12,-134.879 2362.01,-132.719 2357.93,-131.397 2250.71,-96.6631 1893.45,-84.8118 1795.15,-82.1667"/>
<polygon fill="green" stroke="green" stroke-width="0.118287" points="1795.06,-78.6631 1784.97,-81.9011 1794.87,-85.6607 1795.06,-78.6631"/>
</g>
<!-- &#45;68&#45;&gt;8 -->
<g id="edge135" class="edge"><title>&#45;68&#45;&gt;8</title>
<path fill="none" stroke="green" stroke-width="0.130251" d="M2369.75,-137.039C2366.15,-134.811 2362.02,-132.666 2357.93,-131.397 2097.66,-50.7792 2006.94,-173.589 1745.93,-95.397 1744.87,-95.0794 1743.8,-94.7072 1742.75,-94.2926"/>
<polygon fill="green" stroke="green" stroke-width="0.130251" points="1744.15,-91.0803 1733.64,-89.7529 1741.03,-97.3455 1744.15,-91.0803"/>
</g>
<!-- &#45;69 -->
<g id="node69" class="node"><title>&#45;69</title>
<polygon fill="lightgray" stroke="black" points="2442.43,-155.246 2413.43,-155.246 2413.43,-137.246 2442.43,-137.246 2442.43,-155.246"/>
<text text-anchor="middle" x="2427.93" y="-144.046" font-family="Times,serif" font-size="9.00">&#45;69</text>
</g>
<!-- &#45;69&#45;&gt;7 -->
<g id="edge136" class="edge"><title>&#45;69&#45;&gt;7</title>
<path fill="none" stroke="green" stroke-width="0.222614" d="M2416.73,-137.089C2413.13,-134.863 2409.01,-132.706 2404.93,-131.397 2288.21,-93.9878 1897.5,-83.9876 1794.82,-81.9784"/>
<polygon fill="green" stroke="green" stroke-width="0.222614" points="1794.84,-78.4781 1784.77,-81.7896 1794.7,-85.4769 1794.84,-78.4781"/>
</g>
<!-- &#45;69&#45;&gt;8 -->
<g id="edge137" class="edge"><title>&#45;69&#45;&gt;8</title>
<path fill="none" stroke="red" stroke-width="0.244706" d="M2416.75,-137.029C2413.15,-134.8 2409.03,-132.657 2404.93,-131.397 2124.55,-45.1946 2027.09,-178.986 1745.93,-95.397 1744.87,-95.0817 1743.8,-94.7112 1742.74,-94.2981"/>
<polygon fill="red" stroke="red" stroke-width="0.244706" points="1744.14,-91.0854 1733.63,-89.7638 1741.03,-97.3524 1744.14,-91.0854"/>
</g>
<!-- &#45;70 -->
<g id="node70" class="node"><title>&#45;70</title>
<polygon fill="lightgray" stroke="black" points="2489.43,-155.246 2460.43,-155.246 2460.43,-137.246 2489.43,-137.246 2489.43,-155.246"/>
<text text-anchor="middle" x="2474.93" y="-144.046" font-family="Times,serif" font-size="9.00">&#45;70</text>
</g>
<!-- &#45;70&#45;&gt;7 -->
<g id="edge138" class="edge"><title>&#45;70&#45;&gt;7</title>
<path fill="none" stroke="green" stroke-width="0.625512" d="M2463.73,-137.075C2460.13,-134.848 2456.01,-132.695 2451.93,-131.397 2325.98,-91.4021 1903.33,-83.27 1795.26,-81.8293"/>
<polygon fill="green" stroke="green" stroke-width="0.625512" points="1795.04,-78.3264 1785,-81.7004 1794.95,-85.3258 1795.04,-78.3264"/>
</g>
<!-- &#45;70&#45;&gt;8 -->
<g id="edge139" class="edge"><title>&#45;70&#45;&gt;8</title>
<path fill="none" stroke="green" stroke-width="0.219376" d="M2463.75,-137.02C2460.15,-134.791 2456.03,-132.65 2451.93,-131.397 2151.45,-39.609 2047.25,-184.384 1745.93,-95.397 1744.87,-95.0836 1743.8,-94.7147 1742.74,-94.3029"/>
<polygon fill="green" stroke="green" stroke-width="0.219376" points="1744.14,-91.0899 1733.63,-89.7733 1741.03,-97.3584 1744.14,-91.0899"/>
</g>
<!-- &#45;71 -->
<g id="node71" class="node"><title>&#45;71</title>
<polygon fill="lightgray" stroke="black" points="2536.43,-155.246 2507.43,-155.246 2507.43,-137.246 2536.43,-137.246 2536.43,-155.246"/>
<text text-anchor="middle" x="2521.93" y="-144.046" font-family="Times,serif" font-size="9.00">&#45;71</text>
</g>
<!-- &#45;71&#45;&gt;7 -->
<g id="edge140" class="edge"><title>&#45;71&#45;&gt;7</title>
<path fill="none" stroke="green" stroke-width="0.293397" d="M2510.74,-137.063C2507.14,-134.836 2503.02,-132.685 2498.93,-131.397 2363.38,-88.7054 1906.75,-82.558 1794.84,-81.6884"/>
<polygon fill="green" stroke="green" stroke-width="0.293397" points="1794.86,-78.1885 1784.83,-81.6179 1794.81,-85.1884 1794.86,-78.1885"/>
</g>
<!-- &#45;71&#45;&gt;8 -->
<g id="edge141" class="edge"><title>&#45;71&#45;&gt;8</title>
<path fill="none" stroke="green" stroke-width="0.107218" d="M2510.75,-137.012C2507.15,-134.782 2503.03,-132.643 2498.93,-131.397 2178.34,-34.0226 2067.41,-189.783 1745.93,-95.397 1744.86,-95.0853 1743.8,-94.7178 1742.74,-94.3071"/>
<polygon fill="green" stroke="green" stroke-width="0.107218" points="1744.14,-91.0939 1733.63,-89.7816 1741.03,-97.3636 1744.14,-91.0939"/>
</g>
<!-- &#45;72 -->
<g id="node72" class="node"><title>&#45;72</title>
<polygon fill="lightgray" stroke="black" points="2583.43,-155.246 2554.43,-155.246 2554.43,-137.246 2583.43,-137.246 2583.43,-155.246"/>
<text text-anchor="middle" x="2568.93" y="-144.046" font-family="Times,serif" font-size="9.00">&#45;72</text>
</g>
<!-- &#45;72&#45;&gt;7 -->
<g id="edge142" class="edge"><title>&#45;72&#45;&gt;7</title>
<path fill="none" stroke="green" stroke-width="0.241358" d="M2557.74,-137.053C2554.14,-134.825 2550.02,-132.677 2545.93,-131.397 2400.98,-86.071 1911.41,-81.9121 1794.94,-81.5696"/>
<polygon fill="green" stroke="green" stroke-width="0.241358" points="1794.87,-78.0696 1784.86,-81.5472 1794.85,-85.0696 1794.87,-78.0696"/>
</g>
<!-- &#45;72&#45;&gt;8 -->
<g id="edge143" class="edge"><title>&#45;72&#45;&gt;8</title>
<path fill="none" stroke="red" stroke-width="0.268008" d="M2557.76,-137.005C2554.16,-134.775 2550.03,-132.637 2545.93,-131.397 2205.23,-28.4356 2087.57,-195.182 1745.93,-95.397 1744.86,-95.0868 1743.8,-94.7205 1742.74,-94.3108"/>
<polygon fill="red" stroke="red" stroke-width="0.268008" points="1744.14,-91.0974 1733.63,-89.7889 1741.03,-97.3682 1744.14,-91.0974"/>
</g>
<!-- &#45;73 -->
<g id="node73" class="node"><title>&#45;73</title>
<polygon fill="lightgray" stroke="black" points="2630.43,-155.246 2601.43,-155.246 2601.43,-137.246 2630.43,-137.246 2630.43,-155.246"/>
<text text-anchor="middle" x="2615.93" y="-144.046" font-family="Times,serif" font-size="9.00">&#45;73</text>
</g>
<!-- &#45;73&#45;&gt;7 -->
<g id="edge144" class="edge"><title>&#45;73&#45;&gt;7</title>
<path fill="none" stroke="red" stroke-width="0.124994" d="M2604.74,-137.044C2601.14,-134.816 2597.02,-132.669 2592.93,-131.397 2438.49,-83.415 1915.56,-81.2991 1794.91,-81.4636"/>
<polygon fill="red" stroke="red" stroke-width="0.124994" points="1794.8,-77.9637 1784.81,-81.4844 1794.81,-84.9637 1794.8,-77.9637"/>
</g>
<!-- &#45;73&#45;&gt;8 -->
<g id="edge145" class="edge"><title>&#45;73&#45;&gt;8</title>
<path fill="none" stroke="green" stroke-width="0.259979" d="M2604.76,-136.998C2601.16,-134.768 2597.03,-132.632 2592.93,-131.397 2412.52,-77.1225 1926.83,-147.99 1745.93,-95.397 1744.86,-95.0881 1743.8,-94.7229 1742.74,-94.3141"/>
<polygon fill="green" stroke="green" stroke-width="0.259979" points="1744.14,-91.1005 1733.62,-89.7955 1741.03,-97.3723 1744.14,-91.1005"/>
</g>
<!-- 0 -->
<g id="node74" class="node"><title>0</title>
<ellipse fill="lightblue" stroke="black" cx="1769.93" cy="-14.8492" rx="14.7" ry="14.7"/>
<text text-anchor="middle" x="1769.93" y="-12.6492" font-family="Times,serif" font-size="9.00">0</text>
</g>
<!-- 2 -->
<g id="node76" class="node"><title>2</title>
<ellipse fill="lightblue" stroke="black" cx="1817.93" cy="-14.8492" rx="14.7" ry="14.7"/>
<text text-anchor="middle" x="1817.93" y="-12.6492" font-family="Times,serif" font-size="9.00">2</text>
</g>
<!-- 3 -->
<g id="node77" class="node"><title>3</title>
<ellipse fill="lightblue" stroke="black" cx="1865.93" cy="-14.8492" rx="14.7" ry="14.7"/>
<text text-anchor="middle" x="1865.93" y="-12.6492" font-family="Times,serif" font-size="9.00">3</text>
</g>
<!-- 4 -->
<g id="node78" class="node"><title>4</title>
<ellipse fill="lightblue" stroke="black" cx="1625.93" cy="-14.8492" rx="14.7" ry="14.7"/>
<text text-anchor="middle" x="1625.93" y="-12.6492" font-family="Times,serif" font-size="9.00">4</text>
</g>
<!-- 5 -->
<g id="node79" class="node"><title>5</title>
<ellipse fill="lightblue" stroke="black" cx="1673.93" cy="-14.8492" rx="14.7" ry="14.7"/>
<text text-anchor="middle" x="1673.93" y="-12.6492" font-family="Times,serif" font-size="9.00">5</text>
</g>
<!-- 6 -->
<g id="node80" class="node"><title>6</title>
<ellipse fill="lightblue" stroke="black" cx="1721.93" cy="-14.8492" rx="14.7" ry="14.7"/>
<text text-anchor="middle" x="1721.93" y="-12.6492" font-family="Times,serif" font-size="9.00">6</text>
</g>
<!-- 7&#45;&gt;0 -->
<g id="edge146" class="edge"><title>7&#45;&gt;0</title>
<path fill="none" stroke="red" stroke-width="0.420256" d="M1769.93,-65.411C1769.93,-57.9888 1769.93,-48.685 1769.93,-40.1488"/>
<polygon fill="red" stroke="red" stroke-width="0.420256" points="1773.43,-39.9464 1769.93,-29.9465 1766.43,-39.9465 1773.43,-39.9464"/>
</g>
<!-- 7&#45;&gt;1 -->
<g id="edge147" class="edge"><title>7&#45;&gt;1</title>
<path fill="none" stroke="red" stroke-width="0.347882" d="M1783.86,-74.4345C1806.5,-65.9785 1852.5,-48.1723 1889.93,-29.6985 1890.76,-29.2886 1891.6,-28.862 1892.44,-28.4236"/>
<polygon fill="red" stroke="red" stroke-width="0.347882" points="1894.32,-31.3855 1901.39,-23.4931 1890.94,-25.2551 1894.32,-31.3855"/>
</g>
<!-- 7&#45;&gt;2 -->
<g id="edge148" class="edge"><title>7&#45;&gt;2</title>
<path fill="none" stroke="red" stroke-width="0.236878" d="M1778.51,-68.1597C1785.4,-59.011 1795.24,-45.9562 1803.36,-35.1772"/>
<polygon fill="red" stroke="red" stroke-width="0.236878" points="1806.2,-37.2314 1809.42,-27.1387 1800.61,-33.0187 1806.2,-37.2314"/>
</g>
<!-- 7&#45;&gt;3 -->
<g id="edge149" class="edge"><title>7&#45;&gt;3</title>
<path fill="none" stroke="green" stroke-width="0.361892" d="M1782.09,-71.4803C1798.03,-60.9028 1826.22,-42.1945 1845.48,-29.4188"/>
<polygon fill="green" stroke="green" stroke-width="0.361892" points="1847.47,-32.2965 1853.87,-23.8512 1843.6,-26.4637 1847.47,-32.2965"/>
</g>
<!-- 7&#45;&gt;4 -->
<g id="edge150" class="edge"><title>7&#45;&gt;4</title>
<path fill="none" stroke="green" stroke-width="0.246896" d="M1757.43,-71.8178C1753.79,-69.707 1749.75,-67.5057 1745.93,-65.6985 1704.72,-46.2451 1691.13,-49.1519 1649.93,-29.6985 1649.09,-29.3031 1648.24,-28.889 1647.39,-28.461"/>
<polygon fill="green" stroke="green" stroke-width="0.246896" points="1648.88,-25.2859 1638.42,-23.5792 1645.53,-31.4341 1648.88,-25.2859"/>
</g>
<!-- 7&#45;&gt;5 -->
<g id="edge151" class="edge"><title>7&#45;&gt;5</title>
<path fill="none" stroke="green" stroke-width="0.151926" d="M1757.77,-71.4803C1741.83,-60.9028 1713.63,-42.1945 1694.38,-29.4188"/>
<polygon fill="green" stroke="green" stroke-width="0.151926" points="1696.25,-26.4637 1685.99,-23.8512 1692.38,-32.2965 1696.25,-26.4637"/>
</g>
<!-- 7&#45;&gt;6 -->
<g id="edge152" class="edge"><title>7&#45;&gt;6</title>
<path fill="none" stroke="green" stroke-width="0.207304" d="M1761.35,-68.1597C1754.45,-59.011 1744.61,-45.9562 1736.49,-35.1772"/>
<polygon fill="green" stroke="green" stroke-width="0.207304" points="1739.25,-33.0187 1730.43,-27.1387 1733.66,-37.2314 1739.25,-33.0187"/>
</g>
<!-- 8&#45;&gt;0 -->
<g id="edge153" class="edge"><title>8&#45;&gt;0</title>
<path fill="none" stroke="red" stroke-width="0.158816" d="M1730.51,-68.1597C1737.4,-59.011 1747.24,-45.9562 1755.36,-35.1772"/>
<polygon fill="red" stroke="red" stroke-width="0.158816" points="1758.2,-37.2314 1761.42,-27.1387 1752.61,-33.0187 1758.2,-37.2314"/>
</g>
<!-- 8&#45;&gt;1 -->
<g id="edge154" class="edge"><title>8&#45;&gt;1</title>
<path fill="none" stroke="green" stroke-width="0.130428" d="M1734.3,-71.5328C1737.94,-69.4174 1742,-67.2851 1745.93,-65.6985 1807.09,-40.9733 1828.77,-54.4237 1889.93,-29.6985 1890.79,-29.3514 1891.65,-28.9782 1892.52,-28.5848"/>
<polygon fill="green" stroke="green" stroke-width="0.130428" points="1894.31,-31.5957 1901.56,-23.8642 1891.07,-25.3909 1894.31,-31.5957"/>
</g>
<!-- 8&#45;&gt;2 -->
<g id="edge155" class="edge"><title>8&#45;&gt;2</title>
<path fill="none" stroke="green" stroke-width="0.249097" d="M1734.09,-71.4803C1750.03,-60.9028 1778.22,-42.1945 1797.48,-29.4188"/>
<polygon fill="green" stroke="green" stroke-width="0.249097" points="1799.47,-32.2965 1805.87,-23.8512 1795.6,-26.4637 1799.47,-32.2965"/>
</g>
<!-- 8&#45;&gt;3 -->
<g id="edge156" class="edge"><title>8&#45;&gt;3</title>
<path fill="none" stroke="green" stroke-width="0.179999" d="M1734.42,-71.8178C1738.07,-69.707 1742.1,-67.5057 1745.93,-65.6985 1787.13,-46.2451 1800.72,-49.1519 1841.93,-29.6985 1842.76,-29.3031 1843.61,-28.889 1844.46,-28.461"/>
<polygon fill="green" stroke="green" stroke-width="0.179999" points="1846.32,-31.4341 1853.43,-23.5792 1842.97,-25.2859 1846.32,-31.4341"/>
</g>
<!-- 8&#45;&gt;4 -->
<g id="edge157" class="edge"><title>8&#45;&gt;4</title>
<path fill="none" stroke="red" stroke-width="0.166936" d="M1709.77,-71.4803C1693.83,-60.9028 1665.63,-42.1945 1646.38,-29.4188"/>
<polygon fill="red" stroke="red" stroke-width="0.166936" points="1648.25,-26.4637 1637.99,-23.8512 1644.38,-32.2965 1648.25,-26.4637"/>
</g>
<!-- 8&#45;&gt;5 -->
<g id="edge158" class="edge"><title>8&#45;&gt;5</title>
<path fill="none" stroke="red" stroke-width="0.181236" d="M1713.35,-68.1597C1706.45,-59.011 1696.61,-45.9562 1688.49,-35.1772"/>
<polygon fill="red" stroke="red" stroke-width="0.181236" points="1691.25,-33.0187 1682.43,-27.1387 1685.66,-37.2314 1691.25,-33.0187"/>
</g>
<!-- 8&#45;&gt;6 -->
<g id="edge159" class="edge"><title>8&#45;&gt;6</title>
<path fill="none" stroke="red" stroke-width="0.233142" d="M1721.93,-65.411C1721.93,-57.9888 1721.93,-48.685 1721.93,-40.1488"/>
<polygon fill="red" stroke="red" stroke-width="0.233142" points="1725.43,-39.9464 1721.93,-29.9465 1718.43,-39.9465 1725.43,-39.9464"/>
</g>
<!-- 9&#45;&gt;8 -->
<g id="edge161" class="edge"><title>9&#45;&gt;8</title>
<path fill="none" stroke="green" stroke-width="0.612987" d="M42.5575,-136.676C46.0439,-134.552 49.9914,-132.554 53.9266,-131.397 218.032,-83.1515 1498.9,-81.497 1696.39,-81.5302"/>
<polygon fill="green" stroke="green" stroke-width="0.612987" points="1696.65,-85.0302 1706.66,-81.5338 1696.66,-78.0302 1696.65,-85.0302"/>
</g>
</g>
</svg>
