<?xml version="1.0" encoding="UTF-8" standalone="no"?>
<!DOCTYPE svg PUBLIC "-//W3C//DTD SVG 1.1//EN"
 "http://www.w3.org/Graphics/SVG/1.1/DTD/svg11.dtd">
<!-- Generated by graphviz version 2.38.0 (20140413.2041)
 -->
<!-- Title: %3 Pages: 1 -->
<svg width="3377pt" height="157pt"
 viewBox="0.00 0.00 3377.00 157.40" xmlns="http://www.w3.org/2000/svg" xmlns:xlink="http://www.w3.org/1999/xlink">
<g id="graph0" class="graph" transform="scale(1 1) rotate(0) translate(4 153.397)">
<title>%3</title>
<polygon fill="white" stroke="none" points="-4,4 -4,-153.397 3373,-153.397 3373,4 -4,4"/>
<!-- &#45;1 -->
<g id="node1" class="node"><title>&#45;1</title>
<polygon fill="lightgray" stroke="black" points="3159,-149.397 3135,-149.397 3135,-131.397 3159,-131.397 3159,-149.397"/>
<text text-anchor="middle" x="3147" y="-138.197" font-family="Times,serif" font-size="9.00">&#45;1</text>
</g>
<!-- 7 -->
<g id="node81" class="node"><title>7</title>
<ellipse fill="white" stroke="black" cx="1668" cy="-80.5477" rx="14.7" ry="14.7"/>
<text text-anchor="middle" x="1668" y="-78.3477" font-family="Times,serif" font-size="9.00">7</text>
</g>
<!-- &#45;1&#45;&gt;7 -->
<g id="edge1" class="edge"><title>&#45;1&#45;&gt;7</title>
<path fill="none" stroke="green" stroke-width="0.424546" d="M3134.77,-133.944C3131.94,-132.908 3128.91,-131.97 3126,-131.397 2813.25,-69.7747 1998.86,-181.723 1692,-95.397 1690.93,-95.0973 1689.87,-94.7397 1688.81,-94.337"/>
<polygon fill="green" stroke="green" stroke-width="0.424546" points="1690.2,-91.1221 1679.68,-89.841 1687.11,-97.401 1690.2,-91.1221"/>
</g>
<!-- 8 -->
<g id="node82" class="node"><title>8</title>
<ellipse fill="white" stroke="black" cx="1716" cy="-80.5477" rx="14.7" ry="14.7"/>
<text text-anchor="middle" x="1716" y="-78.3477" font-family="Times,serif" font-size="9.00">8</text>
</g>
<!-- &#45;1&#45;&gt;8 -->
<g id="edge2" class="edge"><title>&#45;1&#45;&gt;8</title>
<path fill="none" stroke="green" stroke-width="0.100484" d="M3134.76,-133.966C3131.94,-132.929 3128.91,-131.985 3126,-131.397 2846.14,-74.7652 1906.57,-79.9392 1741.02,-81.3146"/>
<polygon fill="green" stroke="green" stroke-width="0.100484" points="1740.82,-77.816 1730.85,-81.4026 1740.88,-84.8158 1740.82,-77.816"/>
</g>
<!-- &#45;2 -->
<g id="node2" class="node"><title>&#45;2</title>
<polygon fill="lightgray" stroke="black" points="3201,-149.397 3177,-149.397 3177,-131.397 3201,-131.397 3201,-149.397"/>
<text text-anchor="middle" x="3189" y="-138.197" font-family="Times,serif" font-size="9.00">&#45;2</text>
</g>
<!-- &#45;2&#45;&gt;7 -->
<g id="edge3" class="edge"><title>&#45;2&#45;&gt;7</title>
<path fill="none" stroke="green" stroke-width="0.421173" d="M3176.77,-133.942C3173.94,-132.907 3170.91,-131.969 3168,-131.397 2846.07,-68.0859 2007.87,-184.137 1692,-95.397 1690.93,-95.0977 1689.87,-94.7404 1688.81,-94.338"/>
<polygon fill="green" stroke="green" stroke-width="0.421173" points="1690.2,-91.123 1679.68,-89.8429 1687.11,-97.4022 1690.2,-91.123"/>
</g>
<!-- &#45;2&#45;&gt;8 -->
<g id="edge4" class="edge"><title>&#45;2&#45;&gt;8</title>
<path fill="none" stroke="red" stroke-width="0.100262" d="M3176.76,-133.964C3173.94,-132.927 3170.91,-131.984 3168,-131.397 3022.85,-102.101 1922.18,-84.6058 1741.16,-81.9129"/>
<polygon fill="red" stroke="red" stroke-width="0.100262" points="1741.07,-78.4113 1731.02,-81.7633 1740.96,-85.4105 1741.07,-78.4113"/>
</g>
<!-- &#45;3 -->
<g id="node3" class="node"><title>&#45;3</title>
<polygon fill="lightgray" stroke="black" points="3243,-149.397 3219,-149.397 3219,-131.397 3243,-131.397 3243,-149.397"/>
<text text-anchor="middle" x="3231" y="-138.197" font-family="Times,serif" font-size="9.00">&#45;3</text>
</g>
<!-- &#45;3&#45;&gt;7 -->
<g id="edge5" class="edge"><title>&#45;3&#45;&gt;7</title>
<path fill="none" stroke="red" stroke-width="0.320305" d="M3218.77,-133.941C3215.94,-132.905 3212.91,-131.968 3210,-131.397 2878.89,-66.3971 2016.88,-186.551 1692,-95.397 1690.93,-95.0981 1689.87,-94.7411 1688.81,-94.3389"/>
<polygon fill="red" stroke="red" stroke-width="0.320305" points="1690.2,-91.1239 1679.68,-89.8446 1687.11,-97.4033 1690.2,-91.1239"/>
</g>
<!-- &#45;3&#45;&gt;8 -->
<g id="edge6" class="edge"><title>&#45;3&#45;&gt;8</title>
<path fill="none" stroke="green" stroke-width="0.14773" d="M3218.76,-133.961C3215.94,-132.925 3212.91,-131.982 3210,-131.397 3060.41,-101.281 1924.65,-84.4258 1741.03,-81.8852"/>
<polygon fill="green" stroke="green" stroke-width="0.14773" points="1741.04,-78.385 1730.99,-81.7474 1740.94,-85.3843 1741.04,-78.385"/>
</g>
<!-- &#45;4 -->
<g id="node4" class="node"><title>&#45;4</title>
<polygon fill="lightgray" stroke="black" points="3285,-149.397 3261,-149.397 3261,-131.397 3285,-131.397 3285,-149.397"/>
<text text-anchor="middle" x="3273" y="-138.197" font-family="Times,serif" font-size="9.00">&#45;4</text>
</g>
<!-- &#45;4&#45;&gt;7 -->
<g id="edge7" class="edge"><title>&#45;4&#45;&gt;7</title>
<path fill="none" stroke="red" stroke-width="0.213941" d="M3260.77,-133.939C3257.94,-132.904 3254.91,-131.967 3252,-131.397 3081.86,-98.0526 1858.95,-142.181 1692,-95.397 1690.93,-95.0984 1689.87,-94.7417 1688.81,-94.3397"/>
<polygon fill="red" stroke="red" stroke-width="0.213941" points="1690.2,-91.1247 1679.68,-89.8463 1687.11,-97.4044 1690.2,-91.1247"/>
</g>
<!-- &#45;4&#45;&gt;8 -->
<g id="edge8" class="edge"><title>&#45;4&#45;&gt;8</title>
<path fill="none" stroke="red" stroke-width="0.258697" d="M3260.77,-133.96C3257.94,-132.923 3254.91,-131.981 3252,-131.397 3098.03,-100.473 1928.08,-84.266 1741.15,-81.8623"/>
<polygon fill="red" stroke="red" stroke-width="0.258697" points="1740.99,-78.36 1730.94,-81.7322 1740.9,-85.3594 1740.99,-78.36"/>
</g>
<!-- &#45;5 -->
<g id="node5" class="node"><title>&#45;5</title>
<polygon fill="lightgray" stroke="black" points="3327,-149.397 3303,-149.397 3303,-131.397 3327,-131.397 3327,-149.397"/>
<text text-anchor="middle" x="3315" y="-138.197" font-family="Times,serif" font-size="9.00">&#45;5</text>
</g>
<!-- &#45;5&#45;&gt;7 -->
<g id="edge9" class="edge"><title>&#45;5&#45;&gt;7</title>
<path fill="none" stroke="red" stroke-width="0.148559" d="M3302.77,-133.938C3299.94,-132.903 3296.91,-131.966 3294,-131.397 3119.27,-97.2082 1863.46,-143.388 1692,-95.397 1690.93,-95.0987 1689.87,-94.7423 1688.81,-94.3405"/>
<polygon fill="red" stroke="red" stroke-width="0.148559" points="1690.2,-91.1254 1679.68,-89.8479 1687.11,-97.4054 1690.2,-91.1254"/>
</g>
<!-- &#45;5&#45;&gt;8 -->
<g id="edge10" class="edge"><title>&#45;5&#45;&gt;8</title>
<path fill="none" stroke="red" stroke-width="0.334201" d="M3302.77,-133.958C3299.94,-132.921 3296.91,-131.98 3294,-131.397 3135.57,-99.6476 1930.17,-84.0934 1740.96,-81.8368"/>
<polygon fill="red" stroke="red" stroke-width="0.334201" points="1740.92,-78.3361 1730.88,-81.7177 1740.83,-85.3356 1740.92,-78.3361"/>
</g>
<!-- &#45;6 -->
<g id="node6" class="node"><title>&#45;6</title>
<polygon fill="lightgray" stroke="black" points="3369,-149.397 3345,-149.397 3345,-131.397 3369,-131.397 3369,-149.397"/>
<text text-anchor="middle" x="3357" y="-138.197" font-family="Times,serif" font-size="9.00">&#45;6</text>
</g>
<!-- &#45;6&#45;&gt;7 -->
<g id="edge11" class="edge"><title>&#45;6&#45;&gt;7</title>
<path fill="none" stroke="red" stroke-width="0.213363" d="M3344.77,-133.937C3341.94,-132.902 3338.91,-131.966 3336,-131.397 3156.68,-96.3637 1867.96,-144.595 1692,-95.397 1690.93,-95.099 1689.87,-94.7429 1688.81,-94.3413"/>
<polygon fill="red" stroke="red" stroke-width="0.213363" points="1690.2,-91.1261 1679.68,-89.8494 1687.11,-97.4064 1690.2,-91.1261"/>
</g>
<!-- &#45;6&#45;&gt;8 -->
<g id="edge12" class="edge"><title>&#45;6&#45;&gt;8</title>
<path fill="none" stroke="green" stroke-width="0.500195" d="M3344.77,-133.956C3341.94,-132.92 3338.91,-131.978 3336,-131.397 3173.26,-98.8537 1934.64,-83.9559 1741.33,-81.819"/>
<polygon fill="green" stroke="green" stroke-width="0.500195" points="1741.31,-78.3187 1731.27,-81.709 1741.23,-85.3183 1741.31,-78.3187"/>
</g>
<!-- &#45;7 -->
<g id="node7" class="node"><title>&#45;7</title>
<polygon fill="lightgray" stroke="black" points="24,-149.397 0,-149.397 0,-131.397 24,-131.397 24,-149.397"/>
<text text-anchor="middle" x="12" y="-138.197" font-family="Times,serif" font-size="9.00">&#45;7</text>
</g>
<!-- &#45;7&#45;&gt;7 -->
<g id="edge13" class="edge"><title>&#45;7&#45;&gt;7</title>
<path fill="none" stroke="red" stroke-width="0.235574" d="M24.234,-133.955C27.0604,-132.919 30.0924,-131.978 33,-131.397 197.419,-98.5417 1449.94,-83.8818 1643.04,-81.8074"/>
<polygon fill="red" stroke="red" stroke-width="0.235574" points="1643.11,-85.307 1653.07,-81.7008 1643.03,-78.3073 1643.11,-85.307"/>
</g>
<!-- &#45;7&#45;&gt;8 -->
<g id="edge14" class="edge"><title>&#45;7&#45;&gt;8</title>
<path fill="none" stroke="green" stroke-width="0.221874" d="M24.2303,-133.936C27.0568,-132.901 30.0899,-131.965 33,-131.397 213.959,-96.0621 1514.43,-145.026 1692,-95.397 1693.07,-95.0991 1694.13,-94.743 1695.19,-94.3415"/>
<polygon fill="green" stroke="green" stroke-width="0.221874" points="1696.89,-97.4067 1704.32,-89.8499 1693.8,-91.1264 1696.89,-97.4067"/>
</g>
<!-- &#45;8 -->
<g id="node8" class="node"><title>&#45;8</title>
<polygon fill="lightgray" stroke="black" points="66,-149.397 42,-149.397 42,-131.397 66,-131.397 66,-149.397"/>
<text text-anchor="middle" x="54" y="-138.197" font-family="Times,serif" font-size="9.00">&#45;8</text>
</g>
<!-- &#45;8&#45;&gt;7 -->
<g id="edge15" class="edge"><title>&#45;8&#45;&gt;7</title>
<path fill="none" stroke="red" stroke-width="0.186959" d="M66.2344,-133.957C69.0607,-132.921 72.0926,-131.979 75,-131.397 234.94,-99.3698 1451.79,-84.0496 1642.8,-81.8316"/>
<polygon fill="red" stroke="red" stroke-width="0.186959" points="1643.02,-85.3294 1652.98,-81.7146 1642.94,-78.3298 1643.02,-85.3294"/>
</g>
<!-- &#45;8&#45;&gt;8 -->
<g id="edge16" class="edge"><title>&#45;8&#45;&gt;8</title>
<path fill="none" stroke="green" stroke-width="0.228782" d="M66.2305,-133.938C69.057,-132.902 72.09,-131.966 75,-131.397 251.37,-96.9066 1518.94,-143.819 1692,-95.397 1693.07,-95.0988 1694.13,-94.7425 1695.19,-94.3408"/>
<polygon fill="green" stroke="green" stroke-width="0.228782" points="1696.89,-97.4057 1704.32,-89.8484 1693.8,-91.1257 1696.89,-97.4057"/>
</g>
<!-- &#45;9 -->
<g id="node9" class="node"><title>&#45;9</title>
<polygon fill="lightgray" stroke="black" points="108,-149.397 84,-149.397 84,-131.397 108,-131.397 108,-149.397"/>
<text text-anchor="middle" x="96" y="-138.197" font-family="Times,serif" font-size="9.00">&#45;9</text>
</g>
<!-- &#45;9&#45;&gt;7 -->
<g id="edge17" class="edge"><title>&#45;9&#45;&gt;7</title>
<path fill="none" stroke="red" stroke-width="0.43937" d="M108.235,-133.959C111.061,-132.922 114.093,-131.98 117,-131.397 272.552,-100.18 1455.03,-84.2055 1642.89,-81.8534"/>
<polygon fill="red" stroke="red" stroke-width="0.43937" points="1642.96,-85.3529 1652.91,-81.729 1642.87,-78.3534 1642.96,-85.3529"/>
</g>
<!-- &#45;9&#45;&gt;8 -->
<g id="edge18" class="edge"><title>&#45;9&#45;&gt;8</title>
<path fill="none" stroke="red" stroke-width="0.40786" d="M108.231,-133.939C111.057,-132.904 114.09,-131.967 117,-131.397 288.782,-97.751 1523.44,-142.612 1692,-95.397 1693.07,-95.0985 1694.13,-94.7419 1695.19,-94.34"/>
<polygon fill="red" stroke="red" stroke-width="0.40786" points="1696.89,-97.4048 1704.32,-89.8469 1693.8,-91.1249 1696.89,-97.4048"/>
</g>
<!-- &#45;10 -->
<g id="node10" class="node"><title>&#45;10</title>
<polygon fill="lightgray" stroke="black" points="155.5,-149.397 126.5,-149.397 126.5,-131.397 155.5,-131.397 155.5,-149.397"/>
<text text-anchor="middle" x="141" y="-138.197" font-family="Times,serif" font-size="9.00">&#45;10</text>
</g>
<!-- &#45;10&#45;&gt;7 -->
<g id="edge19" class="edge"><title>&#45;10&#45;&gt;7</title>
<path fill="none" stroke="red" stroke-width="0.225191" d="M155.917,-133.482C158.572,-132.639 161.34,-131.892 164,-131.397 464.339,-75.5228 1471.1,-80.1332 1642.95,-81.3482"/>
<polygon fill="red" stroke="red" stroke-width="0.225191" points="1643.02,-84.8487 1653.04,-81.4226 1643.07,-77.8489 1643.02,-84.8487"/>
</g>
<!-- &#45;10&#45;&gt;8 -->
<g id="edge20" class="edge"><title>&#45;10&#45;&gt;8</title>
<path fill="none" stroke="green" stroke-width="0.194553" d="M155.913,-133.461C158.569,-132.62 161.338,-131.879 164,-131.397 331.107,-101.136 1528.49,-141.262 1692,-95.397 1693.07,-95.0982 1694.13,-94.7412 1695.19,-94.3391"/>
<polygon fill="green" stroke="green" stroke-width="0.194553" points="1696.89,-97.4036 1704.32,-89.845 1693.8,-91.1241 1696.89,-97.4036"/>
</g>
<!-- &#45;11 -->
<g id="node11" class="node"><title>&#45;11</title>
<polygon fill="lightgray" stroke="black" points="202.5,-149.397 173.5,-149.397 173.5,-131.397 202.5,-131.397 202.5,-149.397"/>
<text text-anchor="middle" x="188" y="-138.197" font-family="Times,serif" font-size="9.00">&#45;11</text>
</g>
<!-- &#45;11&#45;&gt;7 -->
<g id="edge21" class="edge"><title>&#45;11&#45;&gt;7</title>
<path fill="none" stroke="red" stroke-width="0.314791" d="M202.918,-133.484C205.573,-132.641 208.34,-131.893 211,-131.397 501.485,-77.1954 1474.24,-80.3979 1642.95,-81.3792"/>
<polygon fill="red" stroke="red" stroke-width="0.314791" points="1643.07,-84.8799 1653.09,-81.4414 1643.11,-77.8801 1643.07,-84.8799"/>
</g>
<!-- &#45;11&#45;&gt;8 -->
<g id="edge22" class="edge"><title>&#45;11&#45;&gt;8</title>
<path fill="none" stroke="red" stroke-width="0.132977" d="M202.914,-133.462C205.569,-132.622 208.338,-131.88 211,-131.397 534.918,-72.6144 1375.06,-184.425 1692,-95.397 1693.07,-95.0978 1694.13,-94.7405 1695.19,-94.3381"/>
<polygon fill="red" stroke="red" stroke-width="0.132977" points="1696.89,-97.4024 1704.32,-89.8431 1693.8,-91.1231 1696.89,-97.4024"/>
</g>
<!-- &#45;12 -->
<g id="node12" class="node"><title>&#45;12</title>
<polygon fill="lightgray" stroke="black" points="249.5,-149.397 220.5,-149.397 220.5,-131.397 249.5,-131.397 249.5,-149.397"/>
<text text-anchor="middle" x="235" y="-138.197" font-family="Times,serif" font-size="9.00">&#45;12</text>
</g>
<!-- &#45;12&#45;&gt;7 -->
<g id="edge23" class="edge"><title>&#45;12&#45;&gt;7</title>
<path fill="none" stroke="green" stroke-width="0.24071" d="M249.918,-133.487C252.573,-132.644 255.34,-131.895 258,-131.397 538.661,-78.863 1477.57,-80.6709 1643,-81.4126"/>
<polygon fill="green" stroke="green" stroke-width="0.24071" points="1643.14,-84.9132 1653.16,-81.4613 1643.18,-77.9133 1643.14,-84.9132"/>
</g>
<!-- &#45;12&#45;&gt;8 -->
<g id="edge24" class="edge"><title>&#45;12&#45;&gt;8</title>
<path fill="none" stroke="red" stroke-width="0.539294" d="M249.914,-133.464C252.569,-132.623 255.338,-131.881 258,-131.397 571.622,-74.3539 1385.14,-181.723 1692,-95.397 1693.07,-95.0973 1694.13,-94.7397 1695.19,-94.337"/>
<polygon fill="red" stroke="red" stroke-width="0.539294" points="1696.89,-97.401 1704.32,-89.841 1693.8,-91.1221 1696.89,-97.401"/>
</g>
<!-- &#45;13 -->
<g id="node13" class="node"><title>&#45;13</title>
<polygon fill="lightgray" stroke="black" points="296.5,-149.397 267.5,-149.397 267.5,-131.397 296.5,-131.397 296.5,-149.397"/>
<text text-anchor="middle" x="282" y="-138.197" font-family="Times,serif" font-size="9.00">&#45;13</text>
</g>
<!-- &#45;13&#45;&gt;7 -->
<g id="edge25" class="edge"><title>&#45;13&#45;&gt;7</title>
<path fill="none" stroke="green" stroke-width="0.221216" d="M296.919,-133.49C299.574,-132.646 302.341,-131.896 305,-131.397 575.718,-80.5535 1480.12,-80.9518 1642.82,-81.4473"/>
<polygon fill="green" stroke="green" stroke-width="0.221216" points="1642.83,-84.9473 1652.84,-81.481 1642.85,-77.9473 1642.83,-84.9473"/>
</g>
<!-- &#45;13&#45;&gt;8 -->
<g id="edge26" class="edge"><title>&#45;13&#45;&gt;8</title>
<path fill="none" stroke="red" stroke-width="0.110206" d="M296.914,-133.466C299.57,-132.625 302.338,-131.882 305,-131.397 608.326,-76.0934 1395.23,-179.022 1692,-95.397 1693.06,-95.0969 1694.13,-94.7389 1695.19,-94.3359"/>
<polygon fill="red" stroke="red" stroke-width="0.110206" points="1696.89,-97.3996 1704.32,-89.8388 1693.8,-91.1211 1696.89,-97.3996"/>
</g>
<!-- &#45;14 -->
<g id="node14" class="node"><title>&#45;14</title>
<polygon fill="lightgray" stroke="black" points="343.5,-149.397 314.5,-149.397 314.5,-131.397 343.5,-131.397 343.5,-149.397"/>
<text text-anchor="middle" x="329" y="-138.197" font-family="Times,serif" font-size="9.00">&#45;14</text>
</g>
<!-- &#45;14&#45;&gt;7 -->
<g id="edge27" class="edge"><title>&#45;14&#45;&gt;7</title>
<path fill="none" stroke="red" stroke-width="0.309136" d="M343.919,-133.493C346.574,-132.649 349.341,-131.898 352,-131.397 612.828,-82.2348 1483.02,-81.2439 1642.71,-81.4852"/>
<polygon fill="red" stroke="red" stroke-width="0.309136" points="1642.96,-84.9856 1652.96,-81.5041 1642.97,-77.9856 1642.96,-84.9856"/>
</g>
<!-- &#45;14&#45;&gt;8 -->
<g id="edge28" class="edge"><title>&#45;14&#45;&gt;8</title>
<path fill="none" stroke="green" stroke-width="0.118775" d="M343.915,-133.468C346.57,-132.627 349.338,-131.883 352,-131.397 645.03,-77.8328 1405.32,-176.32 1692,-95.397 1693.06,-95.0964 1694.13,-94.738 1695.19,-94.3347"/>
<polygon fill="green" stroke="green" stroke-width="0.118775" points="1696.89,-97.3981 1704.32,-89.8364 1693.8,-91.1199 1696.89,-97.3981"/>
</g>
<!-- &#45;15 -->
<g id="node15" class="node"><title>&#45;15</title>
<polygon fill="lightgray" stroke="black" points="390.5,-149.397 361.5,-149.397 361.5,-131.397 390.5,-131.397 390.5,-149.397"/>
<text text-anchor="middle" x="376" y="-138.197" font-family="Times,serif" font-size="9.00">&#45;15</text>
</g>
<!-- &#45;15&#45;&gt;7 -->
<g id="edge29" class="edge"><title>&#45;15&#45;&gt;7</title>
<path fill="none" stroke="green" stroke-width="0.460832" d="M390.92,-133.496C393.575,-132.652 396.341,-131.9 399,-131.397 649.978,-83.9095 1486.18,-81.547 1642.66,-81.5263"/>
<polygon fill="green" stroke="green" stroke-width="0.460832" points="1643.11,-85.0263 1653.11,-81.5285 1643.11,-78.0263 1643.11,-85.0263"/>
</g>
<!-- &#45;15&#45;&gt;8 -->
<g id="edge30" class="edge"><title>&#45;15&#45;&gt;8</title>
<path fill="none" stroke="red" stroke-width="0.20714" d="M390.915,-133.47C393.57,-132.629 396.339,-131.885 399,-131.397 681.734,-79.5722 1415.4,-173.619 1692,-95.397 1693.06,-95.0959 1694.13,-94.7371 1695.19,-94.3334"/>
<polygon fill="red" stroke="red" stroke-width="0.20714" points="1696.89,-97.3965 1704.31,-89.8338 1693.8,-91.1187 1696.89,-97.3965"/>
</g>
<!-- &#45;16 -->
<g id="node16" class="node"><title>&#45;16</title>
<polygon fill="lightgray" stroke="black" points="437.5,-149.397 408.5,-149.397 408.5,-131.397 437.5,-131.397 437.5,-149.397"/>
<text text-anchor="middle" x="423" y="-138.197" font-family="Times,serif" font-size="9.00">&#45;16</text>
</g>
<!-- &#45;16&#45;&gt;7 -->
<g id="edge31" class="edge"><title>&#45;16&#45;&gt;7</title>
<path fill="none" stroke="green" stroke-width="0.426706" d="M437.921,-133.499C440.575,-132.655 443.342,-131.902 446,-131.397 687.153,-85.5799 1489.52,-81.8612 1642.63,-81.5706"/>
<polygon fill="green" stroke="green" stroke-width="0.426706" points="1642.9,-85.0703 1652.89,-81.5547 1642.88,-78.0703 1642.9,-85.0703"/>
</g>
<!-- &#45;16&#45;&gt;8 -->
<g id="edge32" class="edge"><title>&#45;16&#45;&gt;8</title>
<path fill="none" stroke="green" stroke-width="0.194747" d="M437.916,-133.473C440.571,-132.631 443.339,-131.886 446,-131.397 718.439,-81.3116 1425.49,-170.918 1692,-95.397 1693.06,-95.0953 1694.13,-94.7361 1695.19,-94.332"/>
<polygon fill="green" stroke="green" stroke-width="0.194747" points="1696.89,-97.3948 1704.31,-89.8311 1693.8,-91.1174 1696.89,-97.3948"/>
</g>
<!-- &#45;17 -->
<g id="node17" class="node"><title>&#45;17</title>
<polygon fill="lightgray" stroke="black" points="484.5,-149.397 455.5,-149.397 455.5,-131.397 484.5,-131.397 484.5,-149.397"/>
<text text-anchor="middle" x="470" y="-138.197" font-family="Times,serif" font-size="9.00">&#45;17</text>
</g>
<!-- &#45;17&#45;&gt;7 -->
<g id="edge33" class="edge"><title>&#45;17&#45;&gt;7</title>
<path fill="none" stroke="red" stroke-width="0.280072" d="M484.921,-133.503C487.576,-132.658 490.342,-131.904 493,-131.397 724.382,-87.2411 1493.21,-82.186 1642.69,-81.6182"/>
<polygon fill="red" stroke="red" stroke-width="0.280072" points="1643.11,-85.1169 1653.09,-81.5824 1643.08,-78.117 1643.11,-85.1169"/>
</g>
<!-- &#45;17&#45;&gt;8 -->
<g id="edge34" class="edge"><title>&#45;17&#45;&gt;8</title>
<path fill="none" stroke="red" stroke-width="0.112525" d="M484.916,-133.475C487.571,-132.633 490.339,-131.888 493,-131.397 755.144,-83.0509 1435.57,-168.217 1692,-95.397 1693.06,-95.0947 1694.13,-94.735 1695.19,-94.3305"/>
<polygon fill="red" stroke="red" stroke-width="0.112525" points="1696.89,-97.3929 1704.31,-89.8281 1693.8,-91.116 1696.89,-97.3929"/>
</g>
<!-- &#45;18 -->
<g id="node18" class="node"><title>&#45;18</title>
<polygon fill="lightgray" stroke="black" points="531.5,-149.397 502.5,-149.397 502.5,-131.397 531.5,-131.397 531.5,-149.397"/>
<text text-anchor="middle" x="517" y="-138.197" font-family="Times,serif" font-size="9.00">&#45;18</text>
</g>
<!-- &#45;18&#45;&gt;7 -->
<g id="edge35" class="edge"><title>&#45;18&#45;&gt;7</title>
<path fill="none" stroke="green" stroke-width="0.173181" d="M531.922,-133.507C534.577,-132.661 537.343,-131.907 540,-131.397 761.637,-88.8981 1497.09,-82.522 1642.79,-81.6694"/>
<polygon fill="green" stroke="green" stroke-width="0.173181" points="1642.97,-85.1685 1652.96,-81.6134 1642.94,-78.1686 1642.97,-85.1685"/>
</g>
<!-- &#45;18&#45;&gt;8 -->
<g id="edge36" class="edge"><title>&#45;18&#45;&gt;8</title>
<path fill="none" stroke="red" stroke-width="0.165556" d="M531.917,-133.478C534.572,-132.636 537.339,-131.889 540,-131.397 791.849,-84.7902 1445.66,-165.515 1692,-95.397 1693.06,-95.0941 1694.13,-94.7338 1695.19,-94.3289"/>
<polygon fill="red" stroke="red" stroke-width="0.165556" points="1696.9,-97.3909 1704.31,-89.8249 1693.8,-91.1145 1696.9,-97.3909"/>
</g>
<!-- &#45;19 -->
<g id="node19" class="node"><title>&#45;19</title>
<polygon fill="lightgray" stroke="black" points="578.5,-149.397 549.5,-149.397 549.5,-131.397 578.5,-131.397 578.5,-149.397"/>
<text text-anchor="middle" x="564" y="-138.197" font-family="Times,serif" font-size="9.00">&#45;19</text>
</g>
<!-- &#45;19&#45;&gt;7 -->
<g id="edge37" class="edge"><title>&#45;19&#45;&gt;7</title>
<path fill="none" stroke="red" stroke-width="0.37751" d="M578.923,-133.511C581.577,-132.665 584.343,-131.909 587,-131.397 798.719,-90.5893 1499.82,-82.8844 1642.52,-81.7275"/>
<polygon fill="red" stroke="red" stroke-width="0.37751" points="1642.89,-85.2248 1652.86,-81.6474 1642.83,-78.225 1642.89,-85.2248"/>
</g>
<!-- &#45;19&#45;&gt;8 -->
<g id="edge38" class="edge"><title>&#45;19&#45;&gt;8</title>
<path fill="none" stroke="green" stroke-width="0.286084" d="M578.917,-133.481C581.572,-132.638 584.34,-131.891 587,-131.397 828.554,-86.5294 1455.75,-162.814 1692,-95.397 1693.06,-95.0934 1694.13,-94.7325 1695.19,-94.3272"/>
<polygon fill="green" stroke="green" stroke-width="0.286084" points="1696.9,-97.3887 1704.31,-89.8214 1693.79,-91.1128 1696.9,-97.3887"/>
</g>
<!-- &#45;20 -->
<g id="node20" class="node"><title>&#45;20</title>
<polygon fill="lightgray" stroke="black" points="625.5,-149.397 596.5,-149.397 596.5,-131.397 625.5,-131.397 625.5,-149.397"/>
<text text-anchor="middle" x="611" y="-138.197" font-family="Times,serif" font-size="9.00">&#45;20</text>
</g>
<!-- &#45;20&#45;&gt;7 -->
<g id="edge39" class="edge"><title>&#45;20&#45;&gt;7</title>
<path fill="none" stroke="green" stroke-width="0.325413" d="M625.924,-133.516C628.578,-132.669 631.344,-131.912 634,-131.397 836.076,-92.2289 1504.36,-83.2437 1642.77,-81.7864"/>
<polygon fill="green" stroke="green" stroke-width="0.325413" points="1643.2,-85.2823 1653.17,-81.6808 1643.13,-78.2827 1643.2,-85.2823"/>
</g>
<!-- &#45;20&#45;&gt;8 -->
<g id="edge40" class="edge"><title>&#45;20&#45;&gt;8</title>
<path fill="none" stroke="red" stroke-width="0.151205" d="M625.918,-133.484C628.573,-132.641 631.34,-131.893 634,-131.397 865.26,-88.2686 1465.83,-160.114 1692,-95.397 1693.06,-95.0926 1694.13,-94.7311 1695.19,-94.3252"/>
<polygon fill="red" stroke="red" stroke-width="0.151205" points="1696.9,-97.3863 1704.31,-89.8176 1693.79,-91.111 1696.9,-97.3863"/>
</g>
<!-- &#45;21 -->
<g id="node21" class="node"><title>&#45;21</title>
<polygon fill="lightgray" stroke="black" points="672.5,-149.397 643.5,-149.397 643.5,-131.397 672.5,-131.397 672.5,-149.397"/>
<text text-anchor="middle" x="658" y="-138.197" font-family="Times,serif" font-size="9.00">&#45;21</text>
</g>
<!-- &#45;21&#45;&gt;7 -->
<g id="edge41" class="edge"><title>&#45;21&#45;&gt;7</title>
<path fill="none" stroke="red" stroke-width="0.219911" d="M672.925,-133.521C675.579,-132.674 678.344,-131.915 681,-131.397 873.46,-93.864 1509.09,-83.6145 1643.07,-81.8492"/>
<polygon fill="red" stroke="red" stroke-width="0.219911" points="1643.2,-85.3479 1653.16,-81.72 1643.12,-78.3484 1643.2,-85.3479"/>
</g>
<!-- &#45;21&#45;&gt;8 -->
<g id="edge42" class="edge"><title>&#45;21&#45;&gt;8</title>
<path fill="none" stroke="green" stroke-width="0.333887" d="M672.918,-133.488C675.573,-132.644 678.341,-131.895 681,-131.397 901.966,-90.0077 1475.91,-157.413 1692,-95.397 1693.06,-95.0917 1694.13,-94.7296 1695.19,-94.3232"/>
<polygon fill="green" stroke="green" stroke-width="0.333887" points="1696.9,-97.3837 1704.31,-89.8135 1693.79,-91.109 1696.9,-97.3837"/>
</g>
<!-- &#45;22 -->
<g id="node22" class="node"><title>&#45;22</title>
<polygon fill="lightgray" stroke="black" points="719.5,-149.397 690.5,-149.397 690.5,-131.397 719.5,-131.397 719.5,-149.397"/>
<text text-anchor="middle" x="705" y="-138.197" font-family="Times,serif" font-size="9.00">&#45;22</text>
</g>
<!-- &#45;22&#45;&gt;7 -->
<g id="edge43" class="edge"><title>&#45;22&#45;&gt;7</title>
<path fill="none" stroke="red" stroke-width="0.279903" d="M719.926,-133.527C722.58,-132.679 725.345,-131.918 728,-131.397 910.505,-95.5667 1511.58,-84.0436 1642.63,-81.9289"/>
<polygon fill="red" stroke="red" stroke-width="0.279903" points="1642.92,-85.4247 1652.86,-81.7676 1642.81,-78.4256 1642.92,-85.4247"/>
</g>
<!-- &#45;22&#45;&gt;8 -->
<g id="edge44" class="edge"><title>&#45;22&#45;&gt;8</title>
<path fill="none" stroke="red" stroke-width="0.195053" d="M719.919,-133.491C722.574,-132.648 725.341,-131.897 728,-131.397 938.673,-91.7466 1486,-154.712 1692,-95.397 1693.06,-95.0908 1694.13,-94.7279 1695.19,-94.3209"/>
<polygon fill="red" stroke="red" stroke-width="0.195053" points="1696.9,-97.3808 1704.31,-89.8089 1693.79,-91.1069 1696.9,-97.3808"/>
</g>
<!-- &#45;23 -->
<g id="node23" class="node"><title>&#45;23</title>
<polygon fill="lightgray" stroke="black" points="766.5,-149.397 737.5,-149.397 737.5,-131.397 766.5,-131.397 766.5,-149.397"/>
<text text-anchor="middle" x="752" y="-138.197" font-family="Times,serif" font-size="9.00">&#45;23</text>
</g>
<!-- &#45;23&#45;&gt;7 -->
<g id="edge45" class="edge"><title>&#45;23&#45;&gt;7</title>
<path fill="none" stroke="red" stroke-width="0.320628" d="M766.927,-133.533C769.581,-132.684 772.346,-131.922 775,-131.397 947.815,-97.2193 1515.82,-84.4663 1642.71,-82.0087"/>
<polygon fill="red" stroke="red" stroke-width="0.320628" points="1643.04,-85.5032 1652.97,-81.814 1642.91,-78.5045 1643.04,-85.5032"/>
</g>
<!-- &#45;23&#45;&gt;8 -->
<g id="edge46" class="edge"><title>&#45;23&#45;&gt;8</title>
<path fill="none" stroke="red" stroke-width="0.144878" d="M766.92,-133.496C769.575,-132.651 772.341,-131.9 775,-131.397 975.38,-93.4855 1496.08,-152.012 1692,-95.397 1693.06,-95.0898 1694.13,-94.7261 1695.19,-94.3183"/>
<polygon fill="red" stroke="red" stroke-width="0.144878" points="1696.9,-97.3777 1704.31,-89.8039 1693.79,-91.1045 1696.9,-97.3777"/>
</g>
<!-- &#45;24 -->
<g id="node24" class="node"><title>&#45;24</title>
<polygon fill="lightgray" stroke="black" points="813.5,-149.397 784.5,-149.397 784.5,-131.397 813.5,-131.397 813.5,-149.397"/>
<text text-anchor="middle" x="799" y="-138.197" font-family="Times,serif" font-size="9.00">&#45;24</text>
</g>
<!-- &#45;24&#45;&gt;7 -->
<g id="edge47" class="edge"><title>&#45;24&#45;&gt;7</title>
<path fill="none" stroke="red" stroke-width="0.200294" d="M813.928,-133.54C816.582,-132.691 819.346,-131.926 822,-131.397 985.184,-98.8619 1520.44,-84.9042 1642.89,-82.0947"/>
<polygon fill="red" stroke="red" stroke-width="0.200294" points="1643.21,-85.5885 1653.13,-81.8639 1643.05,-78.5902 1643.21,-85.5885"/>
</g>
<!-- &#45;24&#45;&gt;8 -->
<g id="edge48" class="edge"><title>&#45;24&#45;&gt;8</title>
<path fill="none" stroke="red" stroke-width="0.232464" d="M813.921,-133.501C816.575,-132.656 819.342,-131.903 822,-131.397 1012.09,-95.2243 1506.16,-149.311 1692,-95.397 1693.06,-95.0887 1694.13,-94.724 1695.19,-94.3155"/>
<polygon fill="red" stroke="red" stroke-width="0.232464" points="1696.9,-97.3742 1704.3,-89.7984 1693.79,-91.1019 1696.9,-97.3742"/>
</g>
<!-- &#45;25 -->
<g id="node25" class="node"><title>&#45;25</title>
<polygon fill="lightgray" stroke="black" points="860.5,-149.397 831.5,-149.397 831.5,-131.397 860.5,-131.397 860.5,-149.397"/>
<text text-anchor="middle" x="846" y="-138.197" font-family="Times,serif" font-size="9.00">&#45;25</text>
</g>
<!-- &#45;25&#45;&gt;7 -->
<g id="edge49" class="edge"><title>&#45;25&#45;&gt;7</title>
<path fill="none" stroke="red" stroke-width="0.135273" d="M860.93,-133.547C863.584,-132.697 866.347,-131.931 869,-131.397 1022.45,-100.528 1524.38,-85.3897 1642.8,-82.1971"/>
<polygon fill="red" stroke="red" stroke-width="0.135273" points="1643.14,-85.6895 1653.04,-81.9252 1642.95,-78.6919 1643.14,-85.6895"/>
</g>
<!-- &#45;25&#45;&gt;8 -->
<g id="edge50" class="edge"><title>&#45;25&#45;&gt;8</title>
<path fill="none" stroke="green" stroke-width="0.404354" d="M860.922,-133.506C863.576,-132.66 866.343,-131.906 869,-131.397 1048.8,-96.963 1516.25,-146.611 1692,-95.397 1693.06,-95.0874 1694.13,-94.7217 1695.19,-94.3124"/>
<polygon fill="green" stroke="green" stroke-width="0.404354" points="1696.9,-97.3703 1704.3,-89.7922 1693.79,-91.0989 1696.9,-97.3703"/>
</g>
<!-- &#45;26 -->
<g id="node26" class="node"><title>&#45;26</title>
<polygon fill="lightgray" stroke="black" points="907.5,-149.397 878.5,-149.397 878.5,-131.397 907.5,-131.397 907.5,-149.397"/>
<text text-anchor="middle" x="893" y="-138.197" font-family="Times,serif" font-size="9.00">&#45;26</text>
</g>
<!-- &#45;26&#45;&gt;7 -->
<g id="edge51" class="edge"><title>&#45;26&#45;&gt;7</title>
<path fill="none" stroke="green" stroke-width="0.123958" d="M907.932,-133.556C910.585,-132.705 913.348,-131.936 916,-131.397 1059.79,-102.18 1528.83,-85.8952 1642.85,-82.3083"/>
<polygon fill="green" stroke="green" stroke-width="0.123958" points="1643.15,-85.8008 1653.03,-81.9922 1642.93,-78.8042 1643.15,-85.8008"/>
</g>
<!-- &#45;26&#45;&gt;8 -->
<g id="edge52" class="edge"><title>&#45;26&#45;&gt;8</title>
<path fill="none" stroke="red" stroke-width="0.140288" d="M907.923,-133.512C910.577,-132.666 913.343,-131.909 916,-131.397 1085.51,-98.7014 1526.33,-143.911 1692,-95.397 1693.06,-95.086 1694.13,-94.7192 1695.19,-94.3089"/>
<polygon fill="red" stroke="red" stroke-width="0.140288" points="1696.9,-97.3659 1704.3,-89.7853 1693.79,-91.0956 1696.9,-97.3659"/>
</g>
<!-- &#45;27 -->
<g id="node27" class="node"><title>&#45;27</title>
<polygon fill="lightgray" stroke="black" points="954.5,-149.397 925.5,-149.397 925.5,-131.397 954.5,-131.397 954.5,-149.397"/>
<text text-anchor="middle" x="940" y="-138.197" font-family="Times,serif" font-size="9.00">&#45;27</text>
</g>
<!-- &#45;27&#45;&gt;7 -->
<g id="edge53" class="edge"><title>&#45;27&#45;&gt;7</title>
<path fill="none" stroke="green" stroke-width="0.277749" d="M954.934,-133.566C957.587,-132.714 960.35,-131.942 963,-131.397 1097.21,-103.819 1533.8,-86.4202 1643.04,-82.4286"/>
<polygon fill="green" stroke="green" stroke-width="0.277749" points="1643.25,-85.9236 1653.11,-82.065 1642.99,-78.9282 1643.25,-85.9236"/>
</g>
<!-- &#45;27&#45;&gt;8 -->
<g id="edge54" class="edge"><title>&#45;27&#45;&gt;8</title>
<path fill="none" stroke="red" stroke-width="0.290149" d="M954.924,-133.518C957.579,-132.672 960.344,-131.913 963,-131.397 1122.22,-100.44 1536.41,-141.211 1692,-95.397 1693.06,-95.0844 1694.13,-94.7163 1695.18,-94.305"/>
<polygon fill="red" stroke="red" stroke-width="0.290149" points="1696.9,-97.361 1704.3,-89.7775 1693.79,-91.0919 1696.9,-97.361"/>
</g>
<!-- &#45;28 -->
<g id="node28" class="node"><title>&#45;28</title>
<polygon fill="lightgray" stroke="black" points="1001.5,-149.397 972.5,-149.397 972.5,-131.397 1001.5,-131.397 1001.5,-149.397"/>
<text text-anchor="middle" x="987" y="-138.197" font-family="Times,serif" font-size="9.00">&#45;28</text>
</g>
<!-- &#45;28&#45;&gt;7 -->
<g id="edge55" class="edge"><title>&#45;28&#45;&gt;7</title>
<path fill="none" stroke="green" stroke-width="0.653761" d="M1001.94,-133.577C1004.59,-132.724 1007.35,-131.948 1010,-131.397 1252.55,-80.9217 1554.85,-80.1515 1642.88,-81.1292"/>
<polygon fill="green" stroke="green" stroke-width="0.653761" points="1642.93,-84.6301 1652.98,-81.2605 1643.02,-77.6307 1642.93,-84.6301"/>
</g>
<!-- &#45;28&#45;&gt;8 -->
<g id="edge56" class="edge"><title>&#45;28&#45;&gt;8</title>
<path fill="none" stroke="red" stroke-width="0.546623" d="M1001.93,-133.526C1004.58,-132.678 1007.34,-131.918 1010,-131.397 1307.85,-72.9586 1400.97,-181.627 1692,-95.397 1693.06,-95.0826 1694.12,-94.713 1695.18,-94.3005"/>
<polygon fill="red" stroke="red" stroke-width="0.546623" points="1696.9,-97.3554 1704.3,-89.7686 1693.78,-91.0877 1696.9,-97.3554"/>
</g>
<!-- &#45;29 -->
<g id="node29" class="node"><title>&#45;29</title>
<polygon fill="lightgray" stroke="black" points="1048.5,-149.397 1019.5,-149.397 1019.5,-131.397 1048.5,-131.397 1048.5,-149.397"/>
<text text-anchor="middle" x="1034" y="-138.197" font-family="Times,serif" font-size="9.00">&#45;29</text>
</g>
<!-- &#45;29&#45;&gt;7 -->
<g id="edge57" class="edge"><title>&#45;29&#45;&gt;7</title>
<path fill="none" stroke="red" stroke-width="0.368375" d="M1048.94,-133.59C1051.59,-132.735 1054.35,-131.956 1057,-131.397 1280.73,-84.1607 1559.3,-81.0999 1643.06,-81.3363"/>
<polygon fill="red" stroke="red" stroke-width="0.368375" points="1643.13,-84.8365 1653.14,-81.3843 1643.16,-77.8366 1643.13,-84.8365"/>
</g>
<!-- &#45;29&#45;&gt;8 -->
<g id="edge58" class="edge"><title>&#45;29&#45;&gt;8</title>
<path fill="none" stroke="red" stroke-width="0.133811" d="M1048.93,-133.535C1051.58,-132.686 1054.35,-131.923 1057,-131.397 1334.28,-76.4341 1421.13,-176.23 1692,-95.397 1693.06,-95.0806 1694.12,-94.7092 1695.18,-94.2954"/>
<polygon fill="red" stroke="red" stroke-width="0.133811" points="1696.9,-97.349 1704.29,-89.7585 1693.78,-91.0829 1696.9,-97.349"/>
</g>
<!-- &#45;30 -->
<g id="node30" class="node"><title>&#45;30</title>
<polygon fill="lightgray" stroke="black" points="1095.5,-149.397 1066.5,-149.397 1066.5,-131.397 1095.5,-131.397 1095.5,-149.397"/>
<text text-anchor="middle" x="1081" y="-138.197" font-family="Times,serif" font-size="9.00">&#45;30</text>
</g>
<!-- &#45;30&#45;&gt;7 -->
<g id="edge59" class="edge"><title>&#45;30&#45;&gt;7</title>
<path fill="none" stroke="green" stroke-width="0.293341" d="M1095.94,-133.605C1098.59,-132.749 1101.35,-131.965 1104,-131.397 1308.7,-87.458 1563.17,-82.1265 1642.92,-81.5753"/>
<polygon fill="green" stroke="green" stroke-width="0.293341" points="1643,-85.0751 1652.98,-81.5258 1642.97,-78.0751 1643,-85.0751"/>
</g>
<!-- &#45;30&#45;&gt;8 -->
<g id="edge60" class="edge"><title>&#45;30&#45;&gt;8</title>
<path fill="none" stroke="green" stroke-width="0.252548" d="M1095.93,-133.545C1098.58,-132.695 1101.35,-131.929 1104,-131.397 1360.71,-79.9089 1441.28,-170.833 1692,-95.397 1693.06,-95.0782 1694.12,-94.7049 1695.18,-94.2895"/>
<polygon fill="green" stroke="green" stroke-width="0.252548" points="1696.9,-97.3416 1704.29,-89.7467 1693.78,-91.0773 1696.9,-97.3416"/>
</g>
<!-- &#45;31 -->
<g id="node31" class="node"><title>&#45;31</title>
<polygon fill="lightgray" stroke="black" points="1142.5,-149.397 1113.5,-149.397 1113.5,-131.397 1142.5,-131.397 1142.5,-149.397"/>
<text text-anchor="middle" x="1128" y="-138.197" font-family="Times,serif" font-size="9.00">&#45;31</text>
</g>
<!-- &#45;31&#45;&gt;7 -->
<g id="edge61" class="edge"><title>&#45;31&#45;&gt;7</title>
<path fill="none" stroke="red" stroke-width="0.354057" d="M1142.95,-133.623C1145.6,-132.765 1148.36,-131.975 1151,-131.397 1336.59,-90.7852 1566.87,-83.2561 1642.58,-81.8631"/>
<polygon fill="red" stroke="red" stroke-width="0.354057" points="1643.05,-85.356 1652.99,-81.6934 1642.94,-78.3569 1643.05,-85.356"/>
</g>
<!-- &#45;31&#45;&gt;8 -->
<g id="edge62" class="edge"><title>&#45;31&#45;&gt;8</title>
<path fill="none" stroke="green" stroke-width="0.264077" d="M1142.93,-133.557C1145.59,-132.706 1148.35,-131.936 1151,-131.397 1387.14,-83.3828 1461.43,-165.438 1692,-95.397 1693.06,-95.0754 1694.12,-94.6998 1695.18,-94.2825"/>
<polygon fill="green" stroke="green" stroke-width="0.264077" points="1696.9,-97.3329 1704.28,-89.7329 1693.77,-91.0708 1696.9,-97.3329"/>
</g>
<!-- &#45;32 -->
<g id="node32" class="node"><title>&#45;32</title>
<polygon fill="lightgray" stroke="black" points="1189.5,-149.397 1160.5,-149.397 1160.5,-131.397 1189.5,-131.397 1189.5,-149.397"/>
<text text-anchor="middle" x="1175" y="-138.197" font-family="Times,serif" font-size="9.00">&#45;32</text>
</g>
<!-- &#45;32&#45;&gt;7 -->
<g id="edge63" class="edge"><title>&#45;32&#45;&gt;7</title>
<path fill="none" stroke="green" stroke-width="0.246663" d="M1189.95,-133.644C1192.6,-132.783 1195.36,-131.988 1198,-131.397 1365.22,-93.9687 1572.37,-84.4327 1643.04,-82.1892"/>
<polygon fill="green" stroke="green" stroke-width="0.246663" points="1643.29,-85.6834 1653.18,-81.8886 1643.08,-78.6865 1643.29,-85.6834"/>
</g>
<!-- &#45;32&#45;&gt;8 -->
<g id="edge64" class="edge"><title>&#45;32&#45;&gt;8</title>
<path fill="none" stroke="green" stroke-width="0.266196" d="M1189.93,-133.571C1192.59,-132.718 1195.35,-131.944 1198,-131.397 1413.58,-86.8555 1481.57,-160.044 1692,-95.397 1693.06,-95.072 1694.12,-94.6937 1695.17,-94.2742"/>
<polygon fill="green" stroke="green" stroke-width="0.266196" points="1696.9,-97.3226 1704.28,-89.7164 1693.77,-91.063 1696.9,-97.3226"/>
</g>
<!-- &#45;33 -->
<g id="node33" class="node"><title>&#45;33</title>
<polygon fill="lightgray" stroke="black" points="1236.5,-149.397 1207.5,-149.397 1207.5,-131.397 1236.5,-131.397 1236.5,-149.397"/>
<text text-anchor="middle" x="1222" y="-138.197" font-family="Times,serif" font-size="9.00">&#45;33</text>
</g>
<!-- &#45;33&#45;&gt;7 -->
<g id="edge65" class="edge"><title>&#45;33&#45;&gt;7</title>
<path fill="none" stroke="green" stroke-width="0.545334" d="M1236.96,-133.67C1239.61,-132.807 1242.36,-132.003 1245,-131.397 1393.51,-97.247 1577.03,-85.775 1642.96,-82.5994"/>
<polygon fill="green" stroke="green" stroke-width="0.545334" points="1643.36,-86.0847 1653.19,-82.1288 1643.04,-79.0921 1643.36,-86.0847"/>
</g>
<!-- &#45;33&#45;&gt;8 -->
<g id="edge66" class="edge"><title>&#45;33&#45;&gt;8</title>
<path fill="none" stroke="red" stroke-width="0.353861" d="M1236.94,-133.588C1239.59,-132.733 1242.35,-131.955 1245,-131.397 1440.03,-90.3265 1501.7,-154.653 1692,-95.397 1693.06,-95.068 1694.12,-94.6864 1695.17,-94.2642"/>
<polygon fill="red" stroke="red" stroke-width="0.353861" points="1696.91,-97.3101 1704.27,-89.6966 1693.77,-91.0537 1696.91,-97.3101"/>
</g>
<!-- &#45;34 -->
<g id="node34" class="node"><title>&#45;34</title>
<polygon fill="lightgray" stroke="black" points="1283.5,-149.397 1254.5,-149.397 1254.5,-131.397 1283.5,-131.397 1283.5,-149.397"/>
<text text-anchor="middle" x="1269" y="-138.197" font-family="Times,serif" font-size="9.00">&#45;34</text>
</g>
<!-- &#45;34&#45;&gt;7 -->
<g id="edge67" class="edge"><title>&#45;34&#45;&gt;7</title>
<path fill="none" stroke="green" stroke-width="0.368207" d="M1283.96,-133.702C1286.61,-132.835 1289.37,-132.022 1292,-131.397 1421.97,-100.516 1582.08,-87.2737 1642.93,-83.1074"/>
<polygon fill="green" stroke="green" stroke-width="0.368207" points="1643.37,-86.5866 1653.11,-82.4329 1642.9,-79.6019 1643.37,-86.5866"/>
</g>
<!-- &#45;34&#45;&gt;8 -->
<g id="edge68" class="edge"><title>&#45;34&#45;&gt;8</title>
<path fill="none" stroke="red" stroke-width="0.305121" d="M1283.94,-133.609C1286.59,-132.752 1289.35,-131.967 1292,-131.397 1466.49,-93.7954 1521.83,-149.265 1692,-95.397 1693.05,-95.0631 1694.11,-94.6774 1695.17,-94.2519"/>
<polygon fill="red" stroke="red" stroke-width="0.305121" points="1696.91,-97.2947 1704.27,-89.6722 1693.76,-91.0421 1696.91,-97.2947"/>
</g>
<!-- &#45;35 -->
<g id="node35" class="node"><title>&#45;35</title>
<polygon fill="lightgray" stroke="black" points="1330.5,-149.397 1301.5,-149.397 1301.5,-131.397 1330.5,-131.397 1330.5,-149.397"/>
<text text-anchor="middle" x="1316" y="-138.197" font-family="Times,serif" font-size="9.00">&#45;35</text>
</g>
<!-- &#45;35&#45;&gt;7 -->
<g id="edge69" class="edge"><title>&#45;35&#45;&gt;7</title>
<path fill="none" stroke="green" stroke-width="0.203141" d="M1330.97,-133.744C1333.62,-132.872 1336.37,-132.047 1339,-131.397 1450.49,-103.812 1587.23,-89.0081 1642.77,-83.77"/>
<polygon fill="green" stroke="green" stroke-width="0.203141" points="1643.42,-87.225 1653.05,-82.8225 1642.77,-80.2545 1643.42,-87.225"/>
</g>
<!-- &#45;35&#45;&gt;8 -->
<g id="edge70" class="edge"><title>&#45;35&#45;&gt;8</title>
<path fill="none" stroke="green" stroke-width="0.134845" d="M1330.95,-133.635C1333.6,-132.775 1336.36,-131.983 1339,-131.397 1492.96,-97.2611 1541.94,-143.881 1692,-95.397 1693.05,-95.0568 1694.11,-94.666 1695.16,-94.2363"/>
<polygon fill="green" stroke="green" stroke-width="0.134845" points="1696.91,-97.2753 1704.26,-89.6414 1693.75,-91.0277 1696.91,-97.2753"/>
</g>
<!-- &#45;36 -->
<g id="node36" class="node"><title>&#45;36</title>
<polygon fill="lightgray" stroke="black" points="1377.5,-149.397 1348.5,-149.397 1348.5,-131.397 1377.5,-131.397 1377.5,-149.397"/>
<text text-anchor="middle" x="1363" y="-138.197" font-family="Times,serif" font-size="9.00">&#45;36</text>
</g>
<!-- &#45;36&#45;&gt;7 -->
<g id="edge71" class="edge"><title>&#45;36&#45;&gt;7</title>
<path fill="none" stroke="red" stroke-width="0.552961" d="M1377.99,-133.798C1380.63,-132.92 1383.38,-132.079 1386,-131.397 1479.48,-107.043 1593.51,-90.9412 1643.05,-84.5946"/>
<polygon fill="red" stroke="red" stroke-width="0.552961" points="1643.66,-88.0453 1653.14,-83.3226 1642.78,-81.1003 1643.66,-88.0453"/>
</g>
<!-- &#45;36&#45;&gt;8 -->
<g id="edge72" class="edge"><title>&#45;36&#45;&gt;8</title>
<path fill="none" stroke="green" stroke-width="0.588312" d="M1377.96,-133.67C1380.61,-132.806 1383.36,-132.003 1386,-131.397 1519.46,-100.722 1562.02,-138.504 1692,-95.397 1692.88,-95.1055 1693.76,-94.7795 1694.64,-94.4259"/>
<polygon fill="green" stroke="green" stroke-width="0.588312" points="1696.36,-97.4813 1703.75,-89.8908 1693.24,-91.2152 1696.36,-97.4813"/>
</g>
<!-- &#45;37 -->
<g id="node37" class="node"><title>&#45;37</title>
<polygon fill="lightgray" stroke="black" points="1424.5,-149.397 1395.5,-149.397 1395.5,-131.397 1424.5,-131.397 1424.5,-149.397"/>
<text text-anchor="middle" x="1410" y="-138.197" font-family="Times,serif" font-size="9.00">&#45;37</text>
</g>
<!-- &#45;37&#45;&gt;7 -->
<g id="edge73" class="edge"><title>&#45;37&#45;&gt;7</title>
<path fill="none" stroke="red" stroke-width="0.217832" d="M1424.51,-134.04C1427.31,-133.095 1430.23,-132.169 1433,-131.397 1508.76,-110.276 1600.43,-93.2213 1643.45,-85.7038"/>
<polygon fill="red" stroke="red" stroke-width="0.217832" points="1644.28,-89.1124 1653.54,-83.961 1643.09,-82.2146 1644.28,-89.1124"/>
</g>
<!-- &#45;37&#45;&gt;8 -->
<g id="edge74" class="edge"><title>&#45;37&#45;&gt;8</title>
<path fill="none" stroke="green" stroke-width="0.20257" d="M1424.97,-133.716C1427.62,-132.848 1430.37,-132.031 1433,-131.397 1545.98,-104.176 1582.08,-133.138 1692,-95.397 1692.88,-95.0962 1693.76,-94.7624 1694.63,-94.4022"/>
<polygon fill="green" stroke="green" stroke-width="0.20257" points="1696.36,-97.4503 1703.73,-89.8364 1693.22,-91.194 1696.36,-97.4503"/>
</g>
<!-- &#45;38 -->
<g id="node38" class="node"><title>&#45;38</title>
<polygon fill="lightgray" stroke="black" points="1471.5,-149.397 1442.5,-149.397 1442.5,-131.397 1471.5,-131.397 1471.5,-149.397"/>
<text text-anchor="middle" x="1457" y="-138.197" font-family="Times,serif" font-size="9.00">&#45;38</text>
</g>
<!-- &#45;38&#45;&gt;7 -->
<g id="edge75" class="edge"><title>&#45;38&#45;&gt;7</title>
<path fill="none" stroke="green" stroke-width="0.132894" d="M1471.55,-134.152C1474.34,-133.197 1477.25,-132.238 1480,-131.397 1538.23,-113.578 1607.72,-96.1256 1643.7,-87.3668"/>
<polygon fill="green" stroke="green" stroke-width="0.132894" points="1644.85,-90.6904 1653.75,-84.9368 1643.2,-83.8868 1644.85,-90.6904"/>
</g>
<!-- &#45;38&#45;&gt;8 -->
<g id="edge76" class="edge"><title>&#45;38&#45;&gt;8</title>
<path fill="none" stroke="green" stroke-width="0.25989" d="M1471.98,-133.783C1474.63,-132.907 1477.38,-132.07 1480,-131.397 1572.57,-107.616 1602.09,-127.79 1692,-95.397 1692.87,-95.0831 1693.75,-94.7381 1694.62,-94.3685"/>
<polygon fill="green" stroke="green" stroke-width="0.25989" points="1696.37,-97.4059 1703.7,-89.7588 1693.2,-91.164 1696.37,-97.4059"/>
</g>
<!-- &#45;39 -->
<g id="node39" class="node"><title>&#45;39</title>
<polygon fill="lightgray" stroke="black" points="1518.5,-149.397 1489.5,-149.397 1489.5,-131.397 1518.5,-131.397 1518.5,-149.397"/>
<text text-anchor="middle" x="1504" y="-138.197" font-family="Times,serif" font-size="9.00">&#45;39</text>
</g>
<!-- &#45;39&#45;&gt;7 -->
<g id="edge77" class="edge"><title>&#45;39&#45;&gt;7</title>
<path fill="none" stroke="red" stroke-width="0.116766" d="M1518.55,-134.263C1546.97,-124.239 1610.06,-101.984 1644.48,-89.8426"/>
<polygon fill="red" stroke="red" stroke-width="0.116766" points="1645.91,-93.0511 1654.18,-86.4238 1643.58,-86.4497 1645.91,-93.0511"/>
</g>
<!-- &#45;39&#45;&gt;8 -->
<g id="edge78" class="edge"><title>&#45;39&#45;&gt;8</title>
<path fill="none" stroke="red" stroke-width="0.117054" d="M1518.52,-134.052C1521.31,-133.107 1524.23,-132.177 1527,-131.397 1599.24,-111.031 1622,-122.476 1692,-95.397 1692.86,-95.0629 1693.73,-94.7007 1694.6,-94.3166"/>
<polygon fill="red" stroke="red" stroke-width="0.117054" points="1696.38,-97.3379 1703.66,-89.6394 1693.17,-91.1184 1696.38,-97.3379"/>
</g>
<!-- &#45;40 -->
<g id="node40" class="node"><title>&#45;40</title>
<polygon fill="lightgray" stroke="black" points="1565.5,-149.397 1536.5,-149.397 1536.5,-131.397 1565.5,-131.397 1565.5,-149.397"/>
<text text-anchor="middle" x="1551" y="-138.197" font-family="Times,serif" font-size="9.00">&#45;40</text>
</g>
<!-- &#45;40&#45;&gt;7 -->
<g id="edge79" class="edge"><title>&#45;40&#45;&gt;7</title>
<path fill="none" stroke="green" stroke-width="0.543206" d="M1565.82,-132.07C1586.05,-122.068 1622.47,-104.059 1645.92,-92.4632"/>
<polygon fill="green" stroke="green" stroke-width="0.543206" points="1647.68,-95.4981 1655.1,-87.9284 1644.58,-89.2232 1647.68,-95.4981"/>
</g>
<!-- &#45;40&#45;&gt;8 -->
<g id="edge80" class="edge"><title>&#45;40&#45;&gt;8</title>
<path fill="none" stroke="green" stroke-width="0.271892" d="M1565.57,-134.233C1568.36,-133.271 1571.27,-132.289 1574,-131.397 1626.13,-114.387 1641.71,-117.24 1692,-95.397 1692.85,-95.0281 1693.71,-94.6363 1694.57,-94.2273"/>
<polygon fill="green" stroke="green" stroke-width="0.271892" points="1696.39,-97.221 1703.57,-89.4337 1693.1,-91.0413 1696.39,-97.221"/>
</g>
<!-- &#45;41 -->
<g id="node41" class="node"><title>&#45;41</title>
<polygon fill="lightgray" stroke="black" points="1612.5,-149.397 1583.5,-149.397 1583.5,-131.397 1612.5,-131.397 1612.5,-149.397"/>
<text text-anchor="middle" x="1598" y="-138.197" font-family="Times,serif" font-size="9.00">&#45;41</text>
</g>
<!-- &#45;41&#45;&gt;7 -->
<g id="edge81" class="edge"><title>&#45;41&#45;&gt;7</title>
<path fill="none" stroke="red" stroke-width="0.416763" d="M1607.73,-131.353C1618.33,-122.593 1635.56,-108.36 1648.88,-97.3477"/>
<polygon fill="red" stroke="red" stroke-width="0.416763" points="1651.49,-99.7345 1656.97,-90.6662 1647.03,-94.3387 1651.49,-99.7345"/>
</g>
<!-- &#45;41&#45;&gt;8 -->
<g id="edge82" class="edge"><title>&#45;41&#45;&gt;8</title>
<path fill="none" stroke="red" stroke-width="0.189961" d="M1612.52,-133.065C1631.15,-124.835 1664.36,-109.808 1692,-95.397 1692.82,-94.9689 1693.65,-94.5268 1694.49,-94.0754"/>
<polygon fill="red" stroke="red" stroke-width="0.189961" points="1696.39,-97.0235 1703.41,-89.0841 1692.97,-90.9157 1696.39,-97.0235"/>
</g>
<!-- &#45;42 -->
<g id="node42" class="node"><title>&#45;42</title>
<polygon fill="lightgray" stroke="black" points="1659.5,-149.397 1630.5,-149.397 1630.5,-131.397 1659.5,-131.397 1659.5,-149.397"/>
<text text-anchor="middle" x="1645" y="-138.197" font-family="Times,serif" font-size="9.00">&#45;42</text>
</g>
<!-- &#45;42&#45;&gt;7 -->
<g id="edge83" class="edge"><title>&#45;42&#45;&gt;7</title>
<path fill="none" stroke="red" stroke-width="0.170176" d="M1648.2,-131.353C1650.98,-124.349 1655.16,-113.846 1658.96,-104.288"/>
<polygon fill="red" stroke="red" stroke-width="0.170176" points="1662.27,-105.441 1662.71,-94.8558 1655.76,-102.855 1662.27,-105.441"/>
</g>
<!-- &#45;42&#45;&gt;8 -->
<g id="edge84" class="edge"><title>&#45;42&#45;&gt;8</title>
<path fill="none" stroke="red" stroke-width="0.313193" d="M1654.87,-131.353C1665.73,-122.509 1683.43,-108.088 1696.99,-97.0339"/>
<polygon fill="red" stroke="red" stroke-width="0.313193" points="1699.27,-99.6962 1704.81,-90.6662 1694.85,-94.2695 1699.27,-99.6962"/>
</g>
<!-- &#45;43 -->
<g id="node43" class="node"><title>&#45;43</title>
<polygon fill="lightgray" stroke="black" points="1706.5,-149.397 1677.5,-149.397 1677.5,-131.397 1706.5,-131.397 1706.5,-149.397"/>
<text text-anchor="middle" x="1692" y="-138.197" font-family="Times,serif" font-size="9.00">&#45;43</text>
</g>
<!-- &#45;43&#45;&gt;7 -->
<g id="edge85" class="edge"><title>&#45;43&#45;&gt;7</title>
<path fill="none" stroke="red" stroke-width="0.133858" d="M1688.66,-131.353C1685.72,-124.256 1681.28,-113.569 1677.28,-103.911"/>
<polygon fill="red" stroke="red" stroke-width="0.133858" points="1680.4,-102.309 1673.34,-94.4133 1673.94,-104.991 1680.4,-102.309"/>
</g>
<!-- &#45;43&#45;&gt;8 -->
<g id="edge86" class="edge"><title>&#45;43&#45;&gt;8</title>
<path fill="none" stroke="green" stroke-width="0.277852" d="M1695.34,-131.353C1698.28,-124.256 1702.72,-113.569 1706.72,-103.911"/>
<polygon fill="green" stroke="green" stroke-width="0.277852" points="1710.06,-104.991 1710.66,-94.4133 1703.6,-102.309 1710.06,-104.991"/>
</g>
<!-- &#45;44 -->
<g id="node44" class="node"><title>&#45;44</title>
<polygon fill="lightgray" stroke="black" points="1753.5,-149.397 1724.5,-149.397 1724.5,-131.397 1753.5,-131.397 1753.5,-149.397"/>
<text text-anchor="middle" x="1739" y="-138.197" font-family="Times,serif" font-size="9.00">&#45;44</text>
</g>
<!-- &#45;44&#45;&gt;7 -->
<g id="edge87" class="edge"><title>&#45;44&#45;&gt;7</title>
<path fill="none" stroke="red" stroke-width="0.301859" d="M1729.13,-131.353C1718.27,-122.509 1700.57,-108.088 1687.01,-97.0339"/>
<polygon fill="red" stroke="red" stroke-width="0.301859" points="1689.15,-94.2695 1679.19,-90.6662 1684.73,-99.6962 1689.15,-94.2695"/>
</g>
<!-- &#45;44&#45;&gt;8 -->
<g id="edge88" class="edge"><title>&#45;44&#45;&gt;8</title>
<path fill="none" stroke="red" stroke-width="0.280596" d="M1735.8,-131.353C1733.02,-124.349 1728.84,-113.846 1725.04,-104.288"/>
<polygon fill="red" stroke="red" stroke-width="0.280596" points="1728.24,-102.855 1721.29,-94.8558 1721.73,-105.441 1728.24,-102.855"/>
</g>
<!-- &#45;45 -->
<g id="node45" class="node"><title>&#45;45</title>
<polygon fill="lightgray" stroke="black" points="1800.5,-149.397 1771.5,-149.397 1771.5,-131.397 1800.5,-131.397 1800.5,-149.397"/>
<text text-anchor="middle" x="1786" y="-138.197" font-family="Times,serif" font-size="9.00">&#45;45</text>
</g>
<!-- &#45;45&#45;&gt;7 -->
<g id="edge89" class="edge"><title>&#45;45&#45;&gt;7</title>
<path fill="none" stroke="green" stroke-width="0.672769" d="M1771.48,-133.065C1752.85,-124.835 1719.64,-109.808 1692,-95.397 1691.18,-94.9689 1690.35,-94.5268 1689.51,-94.0754"/>
<polygon fill="green" stroke="green" stroke-width="0.672769" points="1691.03,-90.9157 1680.59,-89.0841 1687.61,-97.0235 1691.03,-90.9157"/>
</g>
<!-- &#45;45&#45;&gt;8 -->
<g id="edge90" class="edge"><title>&#45;45&#45;&gt;8</title>
<path fill="none" stroke="red" stroke-width="0.148183" d="M1776.27,-131.353C1765.67,-122.593 1748.44,-108.36 1735.12,-97.3477"/>
<polygon fill="red" stroke="red" stroke-width="0.148183" points="1736.97,-94.3387 1727.03,-90.6662 1732.51,-99.7345 1736.97,-94.3387"/>
</g>
<!-- &#45;46 -->
<g id="node46" class="node"><title>&#45;46</title>
<polygon fill="lightgray" stroke="black" points="1847.5,-149.397 1818.5,-149.397 1818.5,-131.397 1847.5,-131.397 1847.5,-149.397"/>
<text text-anchor="middle" x="1833" y="-138.197" font-family="Times,serif" font-size="9.00">&#45;46</text>
</g>
<!-- &#45;46&#45;&gt;7 -->
<g id="edge91" class="edge"><title>&#45;46&#45;&gt;7</title>
<path fill="none" stroke="green" stroke-width="0.264062" d="M1818.43,-134.233C1815.64,-133.271 1812.73,-132.289 1810,-131.397 1757.87,-114.387 1742.29,-117.24 1692,-95.397 1691.15,-95.0281 1690.29,-94.6363 1689.43,-94.2273"/>
<polygon fill="green" stroke="green" stroke-width="0.264062" points="1690.9,-91.0413 1680.43,-89.4337 1687.61,-97.221 1690.9,-91.0413"/>
</g>
<!-- &#45;46&#45;&gt;8 -->
<g id="edge92" class="edge"><title>&#45;46&#45;&gt;8</title>
<path fill="none" stroke="red" stroke-width="0.276973" d="M1818.18,-132.07C1797.95,-122.068 1761.53,-104.059 1738.08,-92.4632"/>
<polygon fill="red" stroke="red" stroke-width="0.276973" points="1739.42,-89.2232 1728.9,-87.9284 1736.32,-95.4981 1739.42,-89.2232"/>
</g>
<!-- &#45;47 -->
<g id="node47" class="node"><title>&#45;47</title>
<polygon fill="lightgray" stroke="black" points="1894.5,-149.397 1865.5,-149.397 1865.5,-131.397 1894.5,-131.397 1894.5,-149.397"/>
<text text-anchor="middle" x="1880" y="-138.197" font-family="Times,serif" font-size="9.00">&#45;47</text>
</g>
<!-- &#45;47&#45;&gt;7 -->
<g id="edge93" class="edge"><title>&#45;47&#45;&gt;7</title>
<path fill="none" stroke="red" stroke-width="0.237261" d="M1865.48,-134.052C1862.69,-133.107 1859.77,-132.177 1857,-131.397 1784.76,-111.031 1762,-122.476 1692,-95.397 1691.14,-95.0629 1690.27,-94.7007 1689.4,-94.3166"/>
<polygon fill="red" stroke="red" stroke-width="0.237261" points="1690.83,-91.1184 1680.34,-89.6394 1687.62,-97.3379 1690.83,-91.1184"/>
</g>
<!-- &#45;47&#45;&gt;8 -->
<g id="edge94" class="edge"><title>&#45;47&#45;&gt;8</title>
<path fill="none" stroke="green" stroke-width="0.290786" d="M1865.45,-134.263C1837.03,-124.239 1773.94,-101.984 1739.52,-89.8426"/>
<polygon fill="green" stroke="green" stroke-width="0.290786" points="1740.42,-86.4497 1729.82,-86.4238 1738.09,-93.0511 1740.42,-86.4497"/>
</g>
<!-- &#45;48 -->
<g id="node48" class="node"><title>&#45;48</title>
<polygon fill="lightgray" stroke="black" points="1941.5,-149.397 1912.5,-149.397 1912.5,-131.397 1941.5,-131.397 1941.5,-149.397"/>
<text text-anchor="middle" x="1927" y="-138.197" font-family="Times,serif" font-size="9.00">&#45;48</text>
</g>
<!-- &#45;48&#45;&gt;7 -->
<g id="edge95" class="edge"><title>&#45;48&#45;&gt;7</title>
<path fill="none" stroke="green" stroke-width="0.249085" d="M1912.02,-133.783C1909.37,-132.907 1906.62,-132.07 1904,-131.397 1811.43,-107.616 1781.91,-127.79 1692,-95.397 1691.13,-95.0831 1690.25,-94.7381 1689.38,-94.3685"/>
<polygon fill="green" stroke="green" stroke-width="0.249085" points="1690.8,-91.164 1680.3,-89.7588 1687.63,-97.4059 1690.8,-91.164"/>
</g>
<!-- &#45;48&#45;&gt;8 -->
<g id="edge96" class="edge"><title>&#45;48&#45;&gt;8</title>
<path fill="none" stroke="green" stroke-width="0.167791" d="M1912.45,-134.152C1909.66,-133.197 1906.75,-132.238 1904,-131.397 1845.77,-113.578 1776.28,-96.1256 1740.3,-87.3668"/>
<polygon fill="green" stroke="green" stroke-width="0.167791" points="1740.8,-83.8868 1730.25,-84.9368 1739.15,-90.6904 1740.8,-83.8868"/>
</g>
<!-- &#45;49 -->
<g id="node49" class="node"><title>&#45;49</title>
<polygon fill="lightgray" stroke="black" points="1988.5,-149.397 1959.5,-149.397 1959.5,-131.397 1988.5,-131.397 1988.5,-149.397"/>
<text text-anchor="middle" x="1974" y="-138.197" font-family="Times,serif" font-size="9.00">&#45;49</text>
</g>
<!-- &#45;49&#45;&gt;7 -->
<g id="edge97" class="edge"><title>&#45;49&#45;&gt;7</title>
<path fill="none" stroke="green" stroke-width="0.327914" d="M1959.03,-133.716C1956.38,-132.848 1953.63,-132.031 1951,-131.397 1838.02,-104.176 1801.92,-133.138 1692,-95.397 1691.12,-95.0962 1690.24,-94.7624 1689.37,-94.4022"/>
<polygon fill="green" stroke="green" stroke-width="0.327914" points="1690.78,-91.194 1680.27,-89.8364 1687.64,-97.4503 1690.78,-91.194"/>
</g>
<!-- &#45;49&#45;&gt;8 -->
<g id="edge98" class="edge"><title>&#45;49&#45;&gt;8</title>
<path fill="none" stroke="green" stroke-width="0.159177" d="M1959.49,-134.04C1956.69,-133.095 1953.77,-132.169 1951,-131.397 1875.24,-110.276 1783.57,-93.2213 1740.55,-85.7038"/>
<polygon fill="green" stroke="green" stroke-width="0.159177" points="1740.91,-82.2146 1730.46,-83.961 1739.72,-89.1124 1740.91,-82.2146"/>
</g>
<!-- &#45;50 -->
<g id="node50" class="node"><title>&#45;50</title>
<polygon fill="lightgray" stroke="black" points="2035.5,-149.397 2006.5,-149.397 2006.5,-131.397 2035.5,-131.397 2035.5,-149.397"/>
<text text-anchor="middle" x="2021" y="-138.197" font-family="Times,serif" font-size="9.00">&#45;50</text>
</g>
<!-- &#45;50&#45;&gt;7 -->
<g id="edge99" class="edge"><title>&#45;50&#45;&gt;7</title>
<path fill="none" stroke="red" stroke-width="0.305773" d="M2006.04,-133.67C2003.39,-132.806 2000.64,-132.003 1998,-131.397 1864.54,-100.722 1821.98,-138.504 1692,-95.397 1691.12,-95.1055 1690.24,-94.7795 1689.36,-94.4259"/>
<polygon fill="red" stroke="red" stroke-width="0.305773" points="1690.76,-91.2152 1680.25,-89.8908 1687.64,-97.4813 1690.76,-91.2152"/>
</g>
<!-- &#45;50&#45;&gt;8 -->
<g id="edge100" class="edge"><title>&#45;50&#45;&gt;8</title>
<path fill="none" stroke="green" stroke-width="0.375435" d="M2006.01,-133.798C2003.37,-132.92 2000.62,-132.079 1998,-131.397 1904.52,-107.043 1790.49,-90.9412 1740.95,-84.5946"/>
<polygon fill="green" stroke="green" stroke-width="0.375435" points="1741.22,-81.1003 1730.86,-83.3226 1740.34,-88.0453 1741.22,-81.1003"/>
</g>
<!-- &#45;51 -->
<g id="node51" class="node"><title>&#45;51</title>
<polygon fill="lightgray" stroke="black" points="2082.5,-149.397 2053.5,-149.397 2053.5,-131.397 2082.5,-131.397 2082.5,-149.397"/>
<text text-anchor="middle" x="2068" y="-138.197" font-family="Times,serif" font-size="9.00">&#45;51</text>
</g>
<!-- &#45;51&#45;&gt;7 -->
<g id="edge101" class="edge"><title>&#45;51&#45;&gt;7</title>
<path fill="none" stroke="red" stroke-width="0.308221" d="M2053.05,-133.635C2050.4,-132.775 2047.64,-131.983 2045,-131.397 1891.04,-97.2611 1842.06,-143.881 1692,-95.397 1690.95,-95.0568 1689.89,-94.666 1688.84,-94.2363"/>
<polygon fill="red" stroke="red" stroke-width="0.308221" points="1690.25,-91.0277 1679.74,-89.6414 1687.09,-97.2753 1690.25,-91.0277"/>
</g>
<!-- &#45;51&#45;&gt;8 -->
<g id="edge102" class="edge"><title>&#45;51&#45;&gt;8</title>
<path fill="none" stroke="red" stroke-width="0.105393" d="M2053.03,-133.744C2050.38,-132.872 2047.63,-132.047 2045,-131.397 1933.51,-103.812 1796.77,-89.0081 1741.23,-83.77"/>
<polygon fill="red" stroke="red" stroke-width="0.105393" points="1741.23,-80.2545 1730.95,-82.8225 1740.58,-87.225 1741.23,-80.2545"/>
</g>
<!-- &#45;52 -->
<g id="node52" class="node"><title>&#45;52</title>
<polygon fill="lightgray" stroke="black" points="2129.5,-149.397 2100.5,-149.397 2100.5,-131.397 2129.5,-131.397 2129.5,-149.397"/>
<text text-anchor="middle" x="2115" y="-138.197" font-family="Times,serif" font-size="9.00">&#45;52</text>
</g>
<!-- &#45;52&#45;&gt;7 -->
<g id="edge103" class="edge"><title>&#45;52&#45;&gt;7</title>
<path fill="none" stroke="red" stroke-width="0.168384" d="M2100.06,-133.609C2097.41,-132.752 2094.65,-131.967 2092,-131.397 1917.51,-93.7954 1862.17,-149.265 1692,-95.397 1690.95,-95.0631 1689.89,-94.6774 1688.83,-94.2519"/>
<polygon fill="red" stroke="red" stroke-width="0.168384" points="1690.24,-91.0421 1679.73,-89.6722 1687.09,-97.2947 1690.24,-91.0421"/>
</g>
<!-- &#45;52&#45;&gt;8 -->
<g id="edge104" class="edge"><title>&#45;52&#45;&gt;8</title>
<path fill="none" stroke="green" stroke-width="0.3752" d="M2100.04,-133.702C2097.39,-132.835 2094.63,-132.022 2092,-131.397 1962.03,-100.516 1801.92,-87.2737 1741.07,-83.1074"/>
<polygon fill="green" stroke="green" stroke-width="0.3752" points="1741.1,-79.6019 1730.89,-82.4329 1740.63,-86.5866 1741.1,-79.6019"/>
</g>
<!-- &#45;53 -->
<g id="node53" class="node"><title>&#45;53</title>
<polygon fill="lightgray" stroke="black" points="2176.5,-149.397 2147.5,-149.397 2147.5,-131.397 2176.5,-131.397 2176.5,-149.397"/>
<text text-anchor="middle" x="2162" y="-138.197" font-family="Times,serif" font-size="9.00">&#45;53</text>
</g>
<!-- &#45;53&#45;&gt;7 -->
<g id="edge105" class="edge"><title>&#45;53&#45;&gt;7</title>
<path fill="none" stroke="red" stroke-width="0.114643" d="M2147.06,-133.588C2144.41,-132.733 2141.65,-131.955 2139,-131.397 1943.97,-90.3265 1882.3,-154.653 1692,-95.397 1690.94,-95.068 1689.88,-94.6864 1688.83,-94.2642"/>
<polygon fill="red" stroke="red" stroke-width="0.114643" points="1690.23,-91.0537 1679.73,-89.6966 1687.09,-97.3101 1690.23,-91.0537"/>
</g>
<!-- &#45;53&#45;&gt;8 -->
<g id="edge106" class="edge"><title>&#45;53&#45;&gt;8</title>
<path fill="none" stroke="green" stroke-width="0.214837" d="M2147.04,-133.67C2144.39,-132.807 2141.64,-132.003 2139,-131.397 1990.49,-97.247 1806.97,-85.775 1741.04,-82.5994"/>
<polygon fill="green" stroke="green" stroke-width="0.214837" points="1740.96,-79.0921 1730.81,-82.1288 1740.64,-86.0847 1740.96,-79.0921"/>
</g>
<!-- &#45;54 -->
<g id="node54" class="node"><title>&#45;54</title>
<polygon fill="lightgray" stroke="black" points="2223.5,-149.397 2194.5,-149.397 2194.5,-131.397 2223.5,-131.397 2223.5,-149.397"/>
<text text-anchor="middle" x="2209" y="-138.197" font-family="Times,serif" font-size="9.00">&#45;54</text>
</g>
<!-- &#45;54&#45;&gt;7 -->
<g id="edge107" class="edge"><title>&#45;54&#45;&gt;7</title>
<path fill="none" stroke="red" stroke-width="0.180191" d="M2194.07,-133.571C2191.41,-132.718 2188.65,-131.944 2186,-131.397 1970.42,-86.8555 1902.43,-160.044 1692,-95.397 1690.94,-95.072 1689.88,-94.6937 1688.83,-94.2742"/>
<polygon fill="red" stroke="red" stroke-width="0.180191" points="1690.23,-91.063 1679.72,-89.7164 1687.1,-97.3226 1690.23,-91.063"/>
</g>
<!-- &#45;54&#45;&gt;8 -->
<g id="edge108" class="edge"><title>&#45;54&#45;&gt;8</title>
<path fill="none" stroke="green" stroke-width="0.105791" d="M2194.05,-133.644C2191.4,-132.783 2188.64,-131.988 2186,-131.397 2018.78,-93.9687 1811.63,-84.4327 1740.96,-82.1892"/>
<polygon fill="green" stroke="green" stroke-width="0.105791" points="1740.92,-78.6865 1730.82,-81.8886 1740.71,-85.6834 1740.92,-78.6865"/>
</g>
<!-- &#45;55 -->
<g id="node55" class="node"><title>&#45;55</title>
<polygon fill="lightgray" stroke="black" points="2270.5,-149.397 2241.5,-149.397 2241.5,-131.397 2270.5,-131.397 2270.5,-149.397"/>
<text text-anchor="middle" x="2256" y="-138.197" font-family="Times,serif" font-size="9.00">&#45;55</text>
</g>
<!-- &#45;55&#45;&gt;7 -->
<g id="edge109" class="edge"><title>&#45;55&#45;&gt;7</title>
<path fill="none" stroke="red" stroke-width="0.447446" d="M2241.07,-133.557C2238.41,-132.706 2235.65,-131.936 2233,-131.397 1996.86,-83.3828 1922.57,-165.438 1692,-95.397 1690.94,-95.0754 1689.88,-94.6998 1688.82,-94.2825"/>
<polygon fill="red" stroke="red" stroke-width="0.447446" points="1690.23,-91.0708 1679.72,-89.7329 1687.1,-97.3329 1690.23,-91.0708"/>
</g>
<!-- &#45;55&#45;&gt;8 -->
<g id="edge110" class="edge"><title>&#45;55&#45;&gt;8</title>
<path fill="none" stroke="red" stroke-width="0.144786" d="M2241.05,-133.623C2238.4,-132.765 2235.64,-131.975 2233,-131.397 2047.41,-90.7852 1817.13,-83.2561 1741.42,-81.8631"/>
<polygon fill="red" stroke="red" stroke-width="0.144786" points="1741.06,-78.3569 1731.01,-81.6934 1740.95,-85.356 1741.06,-78.3569"/>
</g>
<!-- &#45;56 -->
<g id="node56" class="node"><title>&#45;56</title>
<polygon fill="lightgray" stroke="black" points="2317.5,-149.397 2288.5,-149.397 2288.5,-131.397 2317.5,-131.397 2317.5,-149.397"/>
<text text-anchor="middle" x="2303" y="-138.197" font-family="Times,serif" font-size="9.00">&#45;56</text>
</g>
<!-- &#45;56&#45;&gt;7 -->
<g id="edge111" class="edge"><title>&#45;56&#45;&gt;7</title>
<path fill="none" stroke="green" stroke-width="0.21567" d="M2288.07,-133.545C2285.42,-132.695 2282.65,-131.929 2280,-131.397 2023.29,-79.9089 1942.72,-170.833 1692,-95.397 1690.94,-95.0782 1689.88,-94.7049 1688.82,-94.2895"/>
<polygon fill="green" stroke="green" stroke-width="0.21567" points="1690.22,-91.0773 1679.71,-89.7467 1687.1,-97.3416 1690.22,-91.0773"/>
</g>
<!-- &#45;56&#45;&gt;8 -->
<g id="edge112" class="edge"><title>&#45;56&#45;&gt;8</title>
<path fill="none" stroke="red" stroke-width="0.108287" d="M2288.06,-133.605C2285.41,-132.749 2282.65,-131.965 2280,-131.397 2075.3,-87.458 1820.83,-82.1265 1741.08,-81.5753"/>
<polygon fill="red" stroke="red" stroke-width="0.108287" points="1741.03,-78.0751 1731.02,-81.5258 1741,-85.0751 1741.03,-78.0751"/>
</g>
<!-- &#45;57 -->
<g id="node57" class="node"><title>&#45;57</title>
<polygon fill="lightgray" stroke="black" points="2364.5,-149.397 2335.5,-149.397 2335.5,-131.397 2364.5,-131.397 2364.5,-149.397"/>
<text text-anchor="middle" x="2350" y="-138.197" font-family="Times,serif" font-size="9.00">&#45;57</text>
</g>
<!-- &#45;57&#45;&gt;7 -->
<g id="edge113" class="edge"><title>&#45;57&#45;&gt;7</title>
<path fill="none" stroke="green" stroke-width="0.135721" d="M2335.07,-133.535C2332.42,-132.686 2329.65,-131.923 2327,-131.397 2049.72,-76.4341 1962.87,-176.23 1692,-95.397 1690.94,-95.0806 1689.88,-94.7092 1688.82,-94.2954"/>
<polygon fill="green" stroke="green" stroke-width="0.135721" points="1690.22,-91.0829 1679.71,-89.7585 1687.1,-97.349 1690.22,-91.0829"/>
</g>
<!-- &#45;57&#45;&gt;8 -->
<g id="edge114" class="edge"><title>&#45;57&#45;&gt;8</title>
<path fill="none" stroke="green" stroke-width="0.132004" d="M2335.06,-133.59C2332.41,-132.735 2329.65,-131.956 2327,-131.397 2103.27,-84.1607 1824.7,-81.0999 1740.94,-81.3363"/>
<polygon fill="green" stroke="green" stroke-width="0.132004" points="1740.84,-77.8366 1730.86,-81.3843 1740.87,-84.8365 1740.84,-77.8366"/>
</g>
<!-- &#45;58 -->
<g id="node58" class="node"><title>&#45;58</title>
<polygon fill="lightgray" stroke="black" points="2411.5,-149.397 2382.5,-149.397 2382.5,-131.397 2411.5,-131.397 2411.5,-149.397"/>
<text text-anchor="middle" x="2397" y="-138.197" font-family="Times,serif" font-size="9.00">&#45;58</text>
</g>
<!-- &#45;58&#45;&gt;7 -->
<g id="edge115" class="edge"><title>&#45;58&#45;&gt;7</title>
<path fill="none" stroke="red" stroke-width="0.172096" d="M2382.07,-133.526C2379.42,-132.678 2376.66,-131.918 2374,-131.397 2076.15,-72.9586 1983.03,-181.627 1692,-95.397 1690.94,-95.0826 1689.88,-94.713 1688.82,-94.3005"/>
<polygon fill="red" stroke="red" stroke-width="0.172096" points="1690.22,-91.0877 1679.7,-89.7686 1687.1,-97.3554 1690.22,-91.0877"/>
</g>
<!-- &#45;58&#45;&gt;8 -->
<g id="edge116" class="edge"><title>&#45;58&#45;&gt;8</title>
<path fill="none" stroke="red" stroke-width="0.117191" d="M2382.06,-133.577C2379.41,-132.724 2376.65,-131.948 2374,-131.397 2131.45,-80.9217 1829.15,-80.1515 1741.12,-81.1292"/>
<polygon fill="red" stroke="red" stroke-width="0.117191" points="1740.98,-77.6307 1731.02,-81.2605 1741.07,-84.6301 1740.98,-77.6307"/>
</g>
<!-- &#45;59 -->
<g id="node59" class="node"><title>&#45;59</title>
<polygon fill="lightgray" stroke="black" points="2458.5,-149.397 2429.5,-149.397 2429.5,-131.397 2458.5,-131.397 2458.5,-149.397"/>
<text text-anchor="middle" x="2444" y="-138.197" font-family="Times,serif" font-size="9.00">&#45;59</text>
</g>
<!-- &#45;59&#45;&gt;7 -->
<g id="edge117" class="edge"><title>&#45;59&#45;&gt;7</title>
<path fill="none" stroke="red" stroke-width="0.218407" d="M2429.08,-133.518C2426.42,-132.672 2423.66,-131.913 2421,-131.397 2261.78,-100.44 1847.59,-141.211 1692,-95.397 1690.94,-95.0844 1689.87,-94.7163 1688.82,-94.305"/>
<polygon fill="red" stroke="red" stroke-width="0.218407" points="1690.21,-91.0919 1679.7,-89.7775 1687.1,-97.361 1690.21,-91.0919"/>
</g>
<!-- &#45;59&#45;&gt;8 -->
<g id="edge118" class="edge"><title>&#45;59&#45;&gt;8</title>
<path fill="none" stroke="green" stroke-width="0.175808" d="M2429.07,-133.566C2426.41,-132.714 2423.65,-131.942 2421,-131.397 2286.79,-103.819 1850.2,-86.4202 1740.96,-82.4286"/>
<polygon fill="green" stroke="green" stroke-width="0.175808" points="1741.01,-78.9282 1730.89,-82.065 1740.75,-85.9236 1741.01,-78.9282"/>
</g>
<!-- &#45;60 -->
<g id="node60" class="node"><title>&#45;60</title>
<polygon fill="lightgray" stroke="black" points="2505.5,-149.397 2476.5,-149.397 2476.5,-131.397 2505.5,-131.397 2505.5,-149.397"/>
<text text-anchor="middle" x="2491" y="-138.197" font-family="Times,serif" font-size="9.00">&#45;60</text>
</g>
<!-- &#45;60&#45;&gt;7 -->
<g id="edge119" class="edge"><title>&#45;60&#45;&gt;7</title>
<path fill="none" stroke="red" stroke-width="0.268966" d="M2476.08,-133.512C2473.42,-132.666 2470.66,-131.909 2468,-131.397 2298.49,-98.7014 1857.67,-143.911 1692,-95.397 1690.94,-95.086 1689.87,-94.7192 1688.81,-94.3089"/>
<polygon fill="red" stroke="red" stroke-width="0.268966" points="1690.21,-91.0956 1679.7,-89.7853 1687.1,-97.3659 1690.21,-91.0956"/>
</g>
<!-- &#45;60&#45;&gt;8 -->
<g id="edge120" class="edge"><title>&#45;60&#45;&gt;8</title>
<path fill="none" stroke="red" stroke-width="0.222917" d="M2476.07,-133.556C2473.41,-132.705 2470.65,-131.936 2468,-131.397 2324.21,-102.18 1855.17,-85.8952 1741.15,-82.3083"/>
<polygon fill="red" stroke="red" stroke-width="0.222917" points="1741.07,-78.8042 1730.97,-81.9922 1740.85,-85.8008 1741.07,-78.8042"/>
</g>
<!-- &#45;61 -->
<g id="node61" class="node"><title>&#45;61</title>
<polygon fill="lightgray" stroke="black" points="2552.5,-149.397 2523.5,-149.397 2523.5,-131.397 2552.5,-131.397 2552.5,-149.397"/>
<text text-anchor="middle" x="2538" y="-138.197" font-family="Times,serif" font-size="9.00">&#45;61</text>
</g>
<!-- &#45;61&#45;&gt;7 -->
<g id="edge121" class="edge"><title>&#45;61&#45;&gt;7</title>
<path fill="none" stroke="red" stroke-width="0.109189" d="M2523.08,-133.506C2520.42,-132.66 2517.66,-131.906 2515,-131.397 2335.2,-96.963 1867.75,-146.611 1692,-95.397 1690.94,-95.0874 1689.87,-94.7217 1688.81,-94.3124"/>
<polygon fill="red" stroke="red" stroke-width="0.109189" points="1690.21,-91.0989 1679.7,-89.7922 1687.1,-97.3703 1690.21,-91.0989"/>
</g>
<!-- &#45;61&#45;&gt;8 -->
<g id="edge122" class="edge"><title>&#45;61&#45;&gt;8</title>
<path fill="none" stroke="green" stroke-width="0.13075" d="M2523.07,-133.547C2520.42,-132.697 2517.65,-131.931 2515,-131.397 2361.55,-100.528 1859.62,-85.3897 1741.2,-82.1971"/>
<polygon fill="green" stroke="green" stroke-width="0.13075" points="1741.05,-78.6919 1730.96,-81.9252 1740.86,-85.6895 1741.05,-78.6919"/>
</g>
<!-- &#45;62 -->
<g id="node62" class="node"><title>&#45;62</title>
<polygon fill="lightgray" stroke="black" points="2599.5,-149.397 2570.5,-149.397 2570.5,-131.397 2599.5,-131.397 2599.5,-149.397"/>
<text text-anchor="middle" x="2585" y="-138.197" font-family="Times,serif" font-size="9.00">&#45;62</text>
</g>
<!-- &#45;62&#45;&gt;7 -->
<g id="edge123" class="edge"><title>&#45;62&#45;&gt;7</title>
<path fill="none" stroke="red" stroke-width="0.300329" d="M2570.08,-133.501C2567.42,-132.656 2564.66,-131.903 2562,-131.397 2371.91,-95.2243 1877.84,-149.311 1692,-95.397 1690.94,-95.0887 1689.87,-94.724 1688.81,-94.3155"/>
<polygon fill="red" stroke="red" stroke-width="0.300329" points="1690.21,-91.1019 1679.7,-89.7984 1687.1,-97.3742 1690.21,-91.1019"/>
</g>
<!-- &#45;62&#45;&gt;8 -->
<g id="edge124" class="edge"><title>&#45;62&#45;&gt;8</title>
<path fill="none" stroke="red" stroke-width="0.581321" d="M2570.07,-133.54C2567.42,-132.691 2564.65,-131.926 2562,-131.397 2398.82,-98.8619 1863.56,-84.9042 1741.11,-82.0947"/>
<polygon fill="red" stroke="red" stroke-width="0.581321" points="1740.95,-78.5902 1730.87,-81.8639 1740.79,-85.5885 1740.95,-78.5902"/>
</g>
<!-- &#45;63 -->
<g id="node63" class="node"><title>&#45;63</title>
<polygon fill="lightgray" stroke="black" points="2646.5,-149.397 2617.5,-149.397 2617.5,-131.397 2646.5,-131.397 2646.5,-149.397"/>
<text text-anchor="middle" x="2632" y="-138.197" font-family="Times,serif" font-size="9.00">&#45;63</text>
</g>
<!-- &#45;63&#45;&gt;7 -->
<g id="edge125" class="edge"><title>&#45;63&#45;&gt;7</title>
<path fill="none" stroke="green" stroke-width="0.204362" d="M2617.08,-133.496C2614.43,-132.651 2611.66,-131.9 2609,-131.397 2408.62,-93.4855 1887.92,-152.012 1692,-95.397 1690.94,-95.0898 1689.87,-94.7261 1688.81,-94.3183"/>
<polygon fill="green" stroke="green" stroke-width="0.204362" points="1690.21,-91.1045 1679.69,-89.8039 1687.1,-97.3777 1690.21,-91.1045"/>
</g>
<!-- &#45;63&#45;&gt;8 -->
<g id="edge126" class="edge"><title>&#45;63&#45;&gt;8</title>
<path fill="none" stroke="red" stroke-width="0.460345" d="M2617.07,-133.533C2614.42,-132.684 2611.65,-131.922 2609,-131.397 2436.19,-97.2193 1868.18,-84.4663 1741.29,-82.0087"/>
<polygon fill="red" stroke="red" stroke-width="0.460345" points="1741.09,-78.5045 1731.03,-81.814 1740.96,-85.5032 1741.09,-78.5045"/>
</g>
<!-- &#45;64 -->
<g id="node64" class="node"><title>&#45;64</title>
<polygon fill="lightgray" stroke="black" points="2693.5,-149.397 2664.5,-149.397 2664.5,-131.397 2693.5,-131.397 2693.5,-149.397"/>
<text text-anchor="middle" x="2679" y="-138.197" font-family="Times,serif" font-size="9.00">&#45;64</text>
</g>
<!-- &#45;64&#45;&gt;7 -->
<g id="edge127" class="edge"><title>&#45;64&#45;&gt;7</title>
<path fill="none" stroke="red" stroke-width="0.249808" d="M2664.08,-133.491C2661.43,-132.648 2658.66,-131.897 2656,-131.397 2445.33,-91.7466 1898,-154.712 1692,-95.397 1690.94,-95.0908 1689.87,-94.7279 1688.81,-94.3209"/>
<polygon fill="red" stroke="red" stroke-width="0.249808" points="1690.21,-91.1069 1679.69,-89.8089 1687.1,-97.3808 1690.21,-91.1069"/>
</g>
<!-- &#45;64&#45;&gt;8 -->
<g id="edge128" class="edge"><title>&#45;64&#45;&gt;8</title>
<path fill="none" stroke="green" stroke-width="0.341805" d="M2664.07,-133.527C2661.42,-132.679 2658.66,-131.918 2656,-131.397 2473.49,-95.5667 1872.42,-84.0436 1741.37,-81.9289"/>
<polygon fill="green" stroke="green" stroke-width="0.341805" points="1741.19,-78.4256 1731.14,-81.7676 1741.08,-85.4247 1741.19,-78.4256"/>
</g>
<!-- &#45;65 -->
<g id="node65" class="node"><title>&#45;65</title>
<polygon fill="lightgray" stroke="black" points="2740.5,-149.397 2711.5,-149.397 2711.5,-131.397 2740.5,-131.397 2740.5,-149.397"/>
<text text-anchor="middle" x="2726" y="-138.197" font-family="Times,serif" font-size="9.00">&#45;65</text>
</g>
<!-- &#45;65&#45;&gt;7 -->
<g id="edge129" class="edge"><title>&#45;65&#45;&gt;7</title>
<path fill="none" stroke="green" stroke-width="0.124616" d="M2711.08,-133.488C2708.43,-132.644 2705.66,-131.895 2703,-131.397 2482.03,-90.0077 1908.09,-157.413 1692,-95.397 1690.94,-95.0917 1689.87,-94.7296 1688.81,-94.3232"/>
<polygon fill="green" stroke="green" stroke-width="0.124616" points="1690.21,-91.109 1679.69,-89.8135 1687.1,-97.3837 1690.21,-91.109"/>
</g>
<!-- &#45;65&#45;&gt;8 -->
<g id="edge130" class="edge"><title>&#45;65&#45;&gt;8</title>
<path fill="none" stroke="green" stroke-width="0.3276" d="M2711.08,-133.521C2708.42,-132.674 2705.66,-131.915 2703,-131.397 2510.54,-93.864 1874.91,-83.6145 1740.93,-81.8492"/>
<polygon fill="green" stroke="green" stroke-width="0.3276" points="1740.88,-78.3484 1730.84,-81.72 1740.8,-85.3479 1740.88,-78.3484"/>
</g>
<!-- &#45;66 -->
<g id="node66" class="node"><title>&#45;66</title>
<polygon fill="lightgray" stroke="black" points="2787.5,-149.397 2758.5,-149.397 2758.5,-131.397 2787.5,-131.397 2787.5,-149.397"/>
<text text-anchor="middle" x="2773" y="-138.197" font-family="Times,serif" font-size="9.00">&#45;66</text>
</g>
<!-- &#45;66&#45;&gt;7 -->
<g id="edge131" class="edge"><title>&#45;66&#45;&gt;7</title>
<path fill="none" stroke="green" stroke-width="0.490701" d="M2758.08,-133.484C2755.43,-132.641 2752.66,-131.893 2750,-131.397 2518.74,-88.2686 1918.17,-160.114 1692,-95.397 1690.94,-95.0926 1689.87,-94.7311 1688.81,-94.3252"/>
<polygon fill="green" stroke="green" stroke-width="0.490701" points="1690.21,-91.111 1679.69,-89.8176 1687.1,-97.3863 1690.21,-91.111"/>
</g>
<!-- &#45;66&#45;&gt;8 -->
<g id="edge132" class="edge"><title>&#45;66&#45;&gt;8</title>
<path fill="none" stroke="red" stroke-width="0.190569" d="M2758.08,-133.516C2755.42,-132.669 2752.66,-131.912 2750,-131.397 2547.92,-92.2289 1879.64,-83.2437 1741.23,-81.7864"/>
<polygon fill="red" stroke="red" stroke-width="0.190569" points="1740.87,-78.2827 1730.83,-81.6808 1740.8,-85.2823 1740.87,-78.2827"/>
</g>
<!-- &#45;67 -->
<g id="node67" class="node"><title>&#45;67</title>
<polygon fill="lightgray" stroke="black" points="2834.5,-149.397 2805.5,-149.397 2805.5,-131.397 2834.5,-131.397 2834.5,-149.397"/>
<text text-anchor="middle" x="2820" y="-138.197" font-family="Times,serif" font-size="9.00">&#45;67</text>
</g>
<!-- &#45;67&#45;&gt;7 -->
<g id="edge133" class="edge"><title>&#45;67&#45;&gt;7</title>
<path fill="none" stroke="green" stroke-width="0.80586" d="M2805.08,-133.481C2802.43,-132.638 2799.66,-131.891 2797,-131.397 2555.45,-86.5294 1928.25,-162.814 1692,-95.397 1690.94,-95.0934 1689.87,-94.7325 1688.81,-94.3272"/>
<polygon fill="green" stroke="green" stroke-width="0.80586" points="1690.21,-91.1128 1679.69,-89.8214 1687.1,-97.3887 1690.21,-91.1128"/>
</g>
<!-- &#45;67&#45;&gt;8 -->
<g id="edge134" class="edge"><title>&#45;67&#45;&gt;8</title>
<path fill="none" stroke="green" stroke-width="0.208011" d="M2805.08,-133.511C2802.42,-132.665 2799.66,-131.909 2797,-131.397 2585.28,-90.5893 1884.18,-82.8844 1741.48,-81.7275"/>
<polygon fill="green" stroke="green" stroke-width="0.208011" points="1741.17,-78.225 1731.14,-81.6474 1741.11,-85.2248 1741.17,-78.225"/>
</g>
<!-- &#45;68 -->
<g id="node68" class="node"><title>&#45;68</title>
<polygon fill="lightgray" stroke="black" points="2881.5,-149.397 2852.5,-149.397 2852.5,-131.397 2881.5,-131.397 2881.5,-149.397"/>
<text text-anchor="middle" x="2867" y="-138.197" font-family="Times,serif" font-size="9.00">&#45;68</text>
</g>
<!-- &#45;68&#45;&gt;7 -->
<g id="edge135" class="edge"><title>&#45;68&#45;&gt;7</title>
<path fill="none" stroke="green" stroke-width="0.451656" d="M2852.08,-133.478C2849.43,-132.636 2846.66,-131.889 2844,-131.397 2592.15,-84.7902 1938.34,-165.515 1692,-95.397 1690.94,-95.0941 1689.87,-94.7338 1688.81,-94.3289"/>
<polygon fill="green" stroke="green" stroke-width="0.451656" points="1690.2,-91.1145 1679.69,-89.8249 1687.1,-97.3909 1690.2,-91.1145"/>
</g>
<!-- &#45;68&#45;&gt;8 -->
<g id="edge136" class="edge"><title>&#45;68&#45;&gt;8</title>
<path fill="none" stroke="green" stroke-width="0.377734" d="M2852.08,-133.507C2849.42,-132.661 2846.66,-131.907 2844,-131.397 2622.36,-88.8981 1886.91,-82.522 1741.21,-81.6694"/>
<polygon fill="green" stroke="green" stroke-width="0.377734" points="1741.06,-78.1686 1731.04,-81.6134 1741.03,-85.1685 1741.06,-78.1686"/>
</g>
<!-- &#45;69 -->
<g id="node69" class="node"><title>&#45;69</title>
<polygon fill="lightgray" stroke="black" points="2928.5,-149.397 2899.5,-149.397 2899.5,-131.397 2928.5,-131.397 2928.5,-149.397"/>
<text text-anchor="middle" x="2914" y="-138.197" font-family="Times,serif" font-size="9.00">&#45;69</text>
</g>
<!-- &#45;69&#45;&gt;7 -->
<g id="edge137" class="edge"><title>&#45;69&#45;&gt;7</title>
<path fill="none" stroke="red" stroke-width="0.169024" d="M2899.08,-133.475C2896.43,-132.633 2893.66,-131.888 2891,-131.397 2628.86,-83.0509 1948.43,-168.217 1692,-95.397 1690.94,-95.0947 1689.87,-94.735 1688.81,-94.3305"/>
<polygon fill="red" stroke="red" stroke-width="0.169024" points="1690.2,-91.116 1679.69,-89.8281 1687.11,-97.3929 1690.2,-91.116"/>
</g>
<!-- &#45;69&#45;&gt;8 -->
<g id="edge138" class="edge"><title>&#45;69&#45;&gt;8</title>
<path fill="none" stroke="green" stroke-width="0.198016" d="M2899.08,-133.503C2896.42,-132.658 2893.66,-131.904 2891,-131.397 2659.62,-87.2411 1890.79,-82.186 1741.31,-81.6182"/>
<polygon fill="green" stroke="green" stroke-width="0.198016" points="1740.92,-78.117 1730.91,-81.5824 1740.89,-85.1169 1740.92,-78.117"/>
</g>
<!-- &#45;70 -->
<g id="node70" class="node"><title>&#45;70</title>
<polygon fill="lightgray" stroke="black" points="2975.5,-149.397 2946.5,-149.397 2946.5,-131.397 2975.5,-131.397 2975.5,-149.397"/>
<text text-anchor="middle" x="2961" y="-138.197" font-family="Times,serif" font-size="9.00">&#45;70</text>
</g>
<!-- &#45;70&#45;&gt;7 -->
<g id="edge139" class="edge"><title>&#45;70&#45;&gt;7</title>
<path fill="none" stroke="red" stroke-width="0.311521" d="M2946.08,-133.473C2943.43,-132.631 2940.66,-131.886 2938,-131.397 2665.56,-81.3116 1958.51,-170.918 1692,-95.397 1690.94,-95.0953 1689.87,-94.7361 1688.81,-94.332"/>
<polygon fill="red" stroke="red" stroke-width="0.311521" points="1690.2,-91.1174 1679.69,-89.8311 1687.11,-97.3948 1690.2,-91.1174"/>
</g>
<!-- &#45;70&#45;&gt;8 -->
<g id="edge140" class="edge"><title>&#45;70&#45;&gt;8</title>
<path fill="none" stroke="red" stroke-width="0.101482" d="M2946.08,-133.499C2943.42,-132.655 2940.66,-131.902 2938,-131.397 2696.85,-85.5799 1894.48,-81.8612 1741.37,-81.5706"/>
<polygon fill="red" stroke="red" stroke-width="0.101482" points="1741.12,-78.0703 1731.11,-81.5547 1741.1,-85.0703 1741.12,-78.0703"/>
</g>
<!-- &#45;71 -->
<g id="node71" class="node"><title>&#45;71</title>
<polygon fill="lightgray" stroke="black" points="3022.5,-149.397 2993.5,-149.397 2993.5,-131.397 3022.5,-131.397 3022.5,-149.397"/>
<text text-anchor="middle" x="3008" y="-138.197" font-family="Times,serif" font-size="9.00">&#45;71</text>
</g>
<!-- &#45;71&#45;&gt;7 -->
<g id="edge141" class="edge"><title>&#45;71&#45;&gt;7</title>
<path fill="none" stroke="green" stroke-width="0.315" d="M2993.08,-133.47C2990.43,-132.629 2987.66,-131.885 2985,-131.397 2702.27,-79.5722 1968.6,-173.619 1692,-95.397 1690.94,-95.0959 1689.87,-94.7371 1688.81,-94.3334"/>
<polygon fill="green" stroke="green" stroke-width="0.315" points="1690.2,-91.1187 1679.69,-89.8338 1687.11,-97.3965 1690.2,-91.1187"/>
</g>
<!-- &#45;71&#45;&gt;8 -->
<g id="edge142" class="edge"><title>&#45;71&#45;&gt;8</title>
<path fill="none" stroke="green" stroke-width="0.399964" d="M2993.08,-133.496C2990.43,-132.652 2987.66,-131.9 2985,-131.397 2734.02,-83.9095 1897.82,-81.547 1741.34,-81.5263"/>
<polygon fill="green" stroke="green" stroke-width="0.399964" points="1740.89,-78.0263 1730.89,-81.5285 1740.89,-85.0263 1740.89,-78.0263"/>
</g>
<!-- &#45;72 -->
<g id="node72" class="node"><title>&#45;72</title>
<polygon fill="lightgray" stroke="black" points="3069.5,-149.397 3040.5,-149.397 3040.5,-131.397 3069.5,-131.397 3069.5,-149.397"/>
<text text-anchor="middle" x="3055" y="-138.197" font-family="Times,serif" font-size="9.00">&#45;72</text>
</g>
<!-- &#45;72&#45;&gt;7 -->
<g id="edge143" class="edge"><title>&#45;72&#45;&gt;7</title>
<path fill="none" stroke="red" stroke-width="0.276629" d="M3040.09,-133.468C3037.43,-132.627 3034.66,-131.883 3032,-131.397 2738.97,-77.8328 1978.68,-176.32 1692,-95.397 1690.94,-95.0964 1689.87,-94.738 1688.81,-94.3347"/>
<polygon fill="red" stroke="red" stroke-width="0.276629" points="1690.2,-91.1199 1679.68,-89.8364 1687.11,-97.3981 1690.2,-91.1199"/>
</g>
<!-- &#45;72&#45;&gt;8 -->
<g id="edge144" class="edge"><title>&#45;72&#45;&gt;8</title>
<path fill="none" stroke="red" stroke-width="0.279246" d="M3040.08,-133.493C3037.43,-132.649 3034.66,-131.898 3032,-131.397 2771.17,-82.2348 1900.98,-81.2439 1741.29,-81.4852"/>
<polygon fill="red" stroke="red" stroke-width="0.279246" points="1741.03,-77.9856 1731.04,-81.5041 1741.04,-84.9856 1741.03,-77.9856"/>
</g>
<!-- &#45;73 -->
<g id="node73" class="node"><title>&#45;73</title>
<polygon fill="lightgray" stroke="black" points="3116.5,-149.397 3087.5,-149.397 3087.5,-131.397 3116.5,-131.397 3116.5,-149.397"/>
<text text-anchor="middle" x="3102" y="-138.197" font-family="Times,serif" font-size="9.00">&#45;73</text>
</g>
<!-- &#45;73&#45;&gt;7 -->
<g id="edge145" class="edge"><title>&#45;73&#45;&gt;7</title>
<path fill="none" stroke="green" stroke-width="0.239005" d="M3087.09,-133.466C3084.43,-132.625 3081.66,-131.882 3079,-131.397 2775.67,-76.0934 1988.77,-179.022 1692,-95.397 1690.94,-95.0969 1689.87,-94.7389 1688.81,-94.3359"/>
<polygon fill="green" stroke="green" stroke-width="0.239005" points="1690.2,-91.1211 1679.68,-89.8388 1687.11,-97.3996 1690.2,-91.1211"/>
</g>
<!-- &#45;73&#45;&gt;8 -->
<g id="edge146" class="edge"><title>&#45;73&#45;&gt;8</title>
<path fill="none" stroke="green" stroke-width="0.321783" d="M3087.08,-133.49C3084.43,-132.646 3081.66,-131.896 3079,-131.397 2808.28,-80.5535 1903.88,-80.9518 1741.18,-81.4473"/>
<polygon fill="green" stroke="green" stroke-width="0.321783" points="1741.15,-77.9473 1731.16,-81.481 1741.17,-84.9473 1741.15,-77.9473"/>
</g>
<!-- 0 -->
<g id="node74" class="node"><title>0</title>
<ellipse fill="lightblue" stroke="black" cx="1596" cy="-14.8492" rx="14.7" ry="14.7"/>
<text text-anchor="middle" x="1596" y="-12.6492" font-family="Times,serif" font-size="9.00">0</text>
</g>
<!-- 1 -->
<g id="node75" class="node"><title>1</title>
<ellipse fill="lightblue" stroke="black" cx="1644" cy="-14.8492" rx="14.7" ry="14.7"/>
<text text-anchor="middle" x="1644" y="-12.6492" font-family="Times,serif" font-size="9.00">1</text>
</g>
<!-- 2 -->
<g id="node76" class="node"><title>2</title>
<ellipse fill="lightblue" stroke="black" cx="1692" cy="-14.8492" rx="14.7" ry="14.7"/>
<text text-anchor="middle" x="1692" y="-12.6492" font-family="Times,serif" font-size="9.00">2</text>
</g>
<!-- 3 -->
<g id="node77" class="node"><title>3</title>
<ellipse fill="lightblue" stroke="black" cx="1740" cy="-14.8492" rx="14.7" ry="14.7"/>
<text text-anchor="middle" x="1740" y="-12.6492" font-family="Times,serif" font-size="9.00">3</text>
</g>
<!-- 4 -->
<g id="node78" class="node"><title>4</title>
<ellipse fill="lightblue" stroke="black" cx="1788" cy="-14.8492" rx="14.7" ry="14.7"/>
<text text-anchor="middle" x="1788" y="-12.6492" font-family="Times,serif" font-size="9.00">4</text>
</g>
<!-- 5 -->
<g id="node79" class="node"><title>5</title>
<ellipse fill="lightblue" stroke="black" cx="1836" cy="-14.8492" rx="14.7" ry="14.7"/>
<text text-anchor="middle" x="1836" y="-12.6492" font-family="Times,serif" font-size="9.00">5</text>
</g>
<!-- 6 -->
<g id="node80" class="node"><title>6</title>
<ellipse fill="lightblue" stroke="black" cx="1548" cy="-14.8492" rx="14.7" ry="14.7"/>
<text text-anchor="middle" x="1548" y="-12.6492" font-family="Times,serif" font-size="9.00">6</text>
</g>
<!-- 7&#45;&gt;0 -->
<g id="edge147" class="edge"><title>7&#45;&gt;0</title>
<path fill="none" stroke="red" stroke-width="0.276238" d="M1657.38,-70.1488C1646.1,-60.1755 1628.08,-44.2264 1614.47,-32.1883"/>
<polygon fill="red" stroke="red" stroke-width="0.276238" points="1616.48,-29.2915 1606.67,-25.2867 1611.84,-34.5343 1616.48,-29.2915"/>
</g>
<!-- 7&#45;&gt;1 -->
<g id="edge148" class="edge"><title>7&#45;&gt;1</title>
<path fill="none" stroke="green" stroke-width="0.431947" d="M1663.03,-66.3494C1660,-58.321 1656.06,-47.8514 1652.54,-38.528"/>
<polygon fill="green" stroke="green" stroke-width="0.431947" points="1655.77,-37.1545 1648.97,-29.0307 1649.22,-39.6226 1655.77,-37.1545"/>
</g>
<!-- 7&#45;&gt;2 -->
<g id="edge149" class="edge"><title>7&#45;&gt;2</title>
<path fill="none" stroke="red" stroke-width="0.31309" d="M1672.97,-66.3494C1676,-58.321 1679.94,-47.8514 1683.46,-38.528"/>
<polygon fill="red" stroke="red" stroke-width="0.31309" points="1686.78,-39.6226 1687.03,-29.0307 1680.23,-37.1545 1686.78,-39.6226"/>
</g>
<!-- 7&#45;&gt;3 -->
<g id="edge150" class="edge"><title>7&#45;&gt;3</title>
<path fill="none" stroke="green" stroke-width="0.131182" d="M1678.62,-70.1488C1689.9,-60.1755 1707.92,-44.2264 1721.53,-32.1883"/>
<polygon fill="green" stroke="green" stroke-width="0.131182" points="1724.16,-34.5343 1729.33,-25.2867 1719.52,-29.2915 1724.16,-34.5343"/>
</g>
<!-- 7&#45;&gt;4 -->
<g id="edge151" class="edge"><title>7&#45;&gt;4</title>
<path fill="none" stroke="red" stroke-width="0.257955" d="M1680.63,-72.0739C1684.27,-69.9671 1688.27,-67.7039 1692,-65.6985 1723.51,-48.7501 1732.49,-46.6468 1764,-29.6985 1764.82,-29.2598 1765.64,-28.8088 1766.48,-28.3498"/>
<polygon fill="red" stroke="red" stroke-width="0.257955" points="1768.39,-31.2899 1775.37,-23.3231 1764.95,-25.1956 1768.39,-31.2899"/>
</g>
<!-- 7&#45;&gt;5 -->
<g id="edge152" class="edge"><title>7&#45;&gt;5</title>
<path fill="none" stroke="green" stroke-width="0.53478" d="M1680.42,-71.6501C1684.06,-69.5366 1688.11,-67.3759 1692,-65.6985 1743.12,-43.6353 1760.88,-51.7617 1812,-29.6985 1812.85,-29.3316 1813.71,-28.9415 1814.57,-28.5339"/>
<polygon fill="green" stroke="green" stroke-width="0.53478" points="1816.39,-31.5291 1823.58,-23.7469 1813.11,-25.3472 1816.39,-31.5291"/>
</g>
<!-- 7&#45;&gt;6 -->
<g id="edge153" class="edge"><title>7&#45;&gt;6</title>
<path fill="none" stroke="red" stroke-width="0.277933" d="M1654.86,-72.9574C1636.28,-63.5852 1601.32,-45.7586 1572,-29.6985 1571.19,-29.2536 1570.36,-28.7973 1569.53,-28.3338"/>
<polygon fill="red" stroke="red" stroke-width="0.277933" points="1571.07,-25.1829 1560.65,-23.2864 1567.61,-31.2693 1571.07,-25.1829"/>
</g>
<!-- 8&#45;&gt;0 -->
<g id="edge154" class="edge"><title>8&#45;&gt;0</title>
<path fill="none" stroke="red" stroke-width="0.103059" d="M1703.37,-72.0739C1699.73,-69.9671 1695.73,-67.7039 1692,-65.6985 1660.49,-48.7501 1651.51,-46.6468 1620,-29.6985 1619.18,-29.2598 1618.36,-28.8088 1617.52,-28.3498"/>
<polygon fill="red" stroke="red" stroke-width="0.103059" points="1619.05,-25.1956 1608.63,-23.3231 1615.61,-31.2899 1619.05,-25.1956"/>
</g>
<!-- 8&#45;&gt;1 -->
<g id="edge155" class="edge"><title>8&#45;&gt;1</title>
<path fill="none" stroke="red" stroke-width="0.198391" d="M1705.38,-70.1488C1694.1,-60.1755 1676.08,-44.2264 1662.47,-32.1883"/>
<polygon fill="red" stroke="red" stroke-width="0.198391" points="1664.48,-29.2915 1654.67,-25.2867 1659.84,-34.5343 1664.48,-29.2915"/>
</g>
<!-- 8&#45;&gt;2 -->
<g id="edge156" class="edge"><title>8&#45;&gt;2</title>
<path fill="none" stroke="red" stroke-width="0.432053" d="M1711.03,-66.3494C1708,-58.321 1704.06,-47.8514 1700.54,-38.528"/>
<polygon fill="red" stroke="red" stroke-width="0.432053" points="1703.77,-37.1545 1696.97,-29.0307 1697.22,-39.6226 1703.77,-37.1545"/>
</g>
<!-- 8&#45;&gt;3 -->
<g id="edge157" class="edge"><title>8&#45;&gt;3</title>
<path fill="none" stroke="green" stroke-width="0.408528" d="M1720.97,-66.3494C1724,-58.321 1727.94,-47.8514 1731.46,-38.528"/>
<polygon fill="green" stroke="green" stroke-width="0.408528" points="1734.78,-39.6226 1735.03,-29.0307 1728.23,-37.1545 1734.78,-39.6226"/>
</g>
<!-- 8&#45;&gt;4 -->
<g id="edge158" class="edge"><title>8&#45;&gt;4</title>
<path fill="none" stroke="red" stroke-width="0.230303" d="M1726.62,-70.1488C1737.9,-60.1755 1755.92,-44.2264 1769.53,-32.1883"/>
<polygon fill="red" stroke="red" stroke-width="0.230303" points="1772.16,-34.5343 1777.33,-25.2867 1767.52,-29.2915 1772.16,-34.5343"/>
</g>
<!-- 8&#45;&gt;5 -->
<g id="edge159" class="edge"><title>8&#45;&gt;5</title>
<path fill="none" stroke="green" stroke-width="0.413248" d="M1729.14,-72.9574C1747.72,-63.5852 1782.68,-45.7586 1812,-29.6985 1812.81,-29.2536 1813.64,-28.7973 1814.47,-28.3338"/>
<polygon fill="green" stroke="green" stroke-width="0.413248" points="1816.39,-31.2693 1823.35,-23.2864 1812.93,-25.1829 1816.39,-31.2693"/>
</g>
<!-- 8&#45;&gt;6 -->
<g id="edge160" class="edge"><title>8&#45;&gt;6</title>
<path fill="none" stroke="green" stroke-width="0.321299" d="M1703.58,-71.6501C1699.94,-69.5366 1695.89,-67.3759 1692,-65.6985 1640.88,-43.6353 1623.12,-51.7617 1572,-29.6985 1571.15,-29.3316 1570.29,-28.9415 1569.43,-28.5339"/>
<polygon fill="green" stroke="green" stroke-width="0.321299" points="1570.89,-25.3472 1560.42,-23.7469 1567.61,-31.5291 1570.89,-25.3472"/>
</g>
</g>
</svg>
