<?xml version="1.0" encoding="utf-8" standalone="no"?>
<!DOCTYPE svg PUBLIC "-//W3C//DTD SVG 1.1//EN"
  "http://www.w3.org/Graphics/SVG/1.1/DTD/svg11.dtd">
<!-- Created with matplotlib (http://matplotlib.org/) -->
<svg height="345pt" version="1.1" viewBox="0 0 460 345" width="460pt" xmlns="http://www.w3.org/2000/svg" xmlns:xlink="http://www.w3.org/1999/xlink">
 <defs>
  <style type="text/css">
*{stroke-linecap:butt;stroke-linejoin:round;}
  </style>
 </defs>
 <g id="figure_1">
  <g id="patch_1">
   <path d="M 0 345.6 
L 460.8 345.6 
L 460.8 0 
L 0 0 
z
" style="fill:#ffffff;"/>
  </g>
  <g id="axes_1">
   <g id="patch_2">
    <path d="M 57.6 307.584 
L 414.72 307.584 
L 414.72 41.472 
L 57.6 41.472 
z
" style="fill:#ffffff;"/>
   </g>
   <g id="matplotlib.axis_1">
    <g id="xtick_1">
     <g id="line2d_1">
      <path clip-path="url(#p9f03af4c1b)" d="M 73.832727 307.584 
L 73.832727 41.472 
" style="fill:none;stroke:#b0b0b0;stroke-linecap:square;stroke-width:0.8;"/>
     </g>
     <g id="line2d_2">
      <defs>
       <path d="M 0 0 
L 0 3.5 
" id="m65fe1f3ce2" style="stroke:#000000;stroke-width:0.8;"/>
      </defs>
      <g>
       <use style="stroke:#000000;stroke-width:0.8;" x="73.832727" xlink:href="#m65fe1f3ce2" y="307.584"/>
      </g>
     </g>
     <g id="text_1">
      <!-- 0 -->
      <defs>
       <path d="M 31.78125 66.40625 
Q 24.171875 66.40625 20.328125 58.90625 
Q 16.5 51.421875 16.5 36.375 
Q 16.5 21.390625 20.328125 13.890625 
Q 24.171875 6.390625 31.78125 6.390625 
Q 39.453125 6.390625 43.28125 13.890625 
Q 47.125 21.390625 47.125 36.375 
Q 47.125 51.421875 43.28125 58.90625 
Q 39.453125 66.40625 31.78125 66.40625 
M 31.78125 74.21875 
Q 44.046875 74.21875 50.515625 64.515625 
Q 56.984375 54.828125 56.984375 36.375 
Q 56.984375 17.96875 50.515625 8.265625 
Q 44.046875 -1.421875 31.78125 -1.421875 
Q 19.53125 -1.421875 13.0625 8.265625 
Q 6.59375 17.96875 6.59375 36.375 
Q 6.59375 54.828125 13.0625 64.515625 
Q 19.53125 74.21875 31.78125 74.21875 
" id="DejaVuSans-30"/>
      </defs>
      <g transform="translate(70.651477 322.182437)scale(0.1 -0.1)">
       <use xlink:href="#DejaVuSans-30"/>
      </g>
     </g>
    </g>
    <g id="xtick_2">
     <g id="line2d_3">
      <path clip-path="url(#p9f03af4c1b)" d="M 138.893758 307.584 
L 138.893758 41.472 
" style="fill:none;stroke:#b0b0b0;stroke-linecap:square;stroke-width:0.8;"/>
     </g>
     <g id="line2d_4">
      <g>
       <use style="stroke:#000000;stroke-width:0.8;" x="138.893758" xlink:href="#m65fe1f3ce2" y="307.584"/>
      </g>
     </g>
     <g id="text_2">
      <!-- 100 -->
      <defs>
       <path d="M 12.40625 8.296875 
L 28.515625 8.296875 
L 28.515625 63.921875 
L 10.984375 60.40625 
L 10.984375 69.390625 
L 28.421875 72.90625 
L 38.28125 72.90625 
L 38.28125 8.296875 
L 54.390625 8.296875 
L 54.390625 0 
L 12.40625 0 
z
" id="DejaVuSans-31"/>
      </defs>
      <g transform="translate(129.350008 322.182437)scale(0.1 -0.1)">
       <use xlink:href="#DejaVuSans-31"/>
       <use x="63.623047" xlink:href="#DejaVuSans-30"/>
       <use x="127.246094" xlink:href="#DejaVuSans-30"/>
      </g>
     </g>
    </g>
    <g id="xtick_3">
     <g id="line2d_5">
      <path clip-path="url(#p9f03af4c1b)" d="M 203.95479 307.584 
L 203.95479 41.472 
" style="fill:none;stroke:#b0b0b0;stroke-linecap:square;stroke-width:0.8;"/>
     </g>
     <g id="line2d_6">
      <g>
       <use style="stroke:#000000;stroke-width:0.8;" x="203.95479" xlink:href="#m65fe1f3ce2" y="307.584"/>
      </g>
     </g>
     <g id="text_3">
      <!-- 200 -->
      <defs>
       <path d="M 19.1875 8.296875 
L 53.609375 8.296875 
L 53.609375 0 
L 7.328125 0 
L 7.328125 8.296875 
Q 12.9375 14.109375 22.625 23.890625 
Q 32.328125 33.6875 34.8125 36.53125 
Q 39.546875 41.84375 41.421875 45.53125 
Q 43.3125 49.21875 43.3125 52.78125 
Q 43.3125 58.59375 39.234375 62.25 
Q 35.15625 65.921875 28.609375 65.921875 
Q 23.96875 65.921875 18.8125 64.3125 
Q 13.671875 62.703125 7.8125 59.421875 
L 7.8125 69.390625 
Q 13.765625 71.78125 18.9375 73 
Q 24.125 74.21875 28.421875 74.21875 
Q 39.75 74.21875 46.484375 68.546875 
Q 53.21875 62.890625 53.21875 53.421875 
Q 53.21875 48.921875 51.53125 44.890625 
Q 49.859375 40.875 45.40625 35.40625 
Q 44.1875 33.984375 37.640625 27.21875 
Q 31.109375 20.453125 19.1875 8.296875 
" id="DejaVuSans-32"/>
      </defs>
      <g transform="translate(194.41104 322.182437)scale(0.1 -0.1)">
       <use xlink:href="#DejaVuSans-32"/>
       <use x="63.623047" xlink:href="#DejaVuSans-30"/>
       <use x="127.246094" xlink:href="#DejaVuSans-30"/>
      </g>
     </g>
    </g>
    <g id="xtick_4">
     <g id="line2d_7">
      <path clip-path="url(#p9f03af4c1b)" d="M 269.015821 307.584 
L 269.015821 41.472 
" style="fill:none;stroke:#b0b0b0;stroke-linecap:square;stroke-width:0.8;"/>
     </g>
     <g id="line2d_8">
      <g>
       <use style="stroke:#000000;stroke-width:0.8;" x="269.015821" xlink:href="#m65fe1f3ce2" y="307.584"/>
      </g>
     </g>
     <g id="text_4">
      <!-- 300 -->
      <defs>
       <path d="M 40.578125 39.3125 
Q 47.65625 37.796875 51.625 33 
Q 55.609375 28.21875 55.609375 21.1875 
Q 55.609375 10.40625 48.1875 4.484375 
Q 40.765625 -1.421875 27.09375 -1.421875 
Q 22.515625 -1.421875 17.65625 -0.515625 
Q 12.796875 0.390625 7.625 2.203125 
L 7.625 11.71875 
Q 11.71875 9.328125 16.59375 8.109375 
Q 21.484375 6.890625 26.8125 6.890625 
Q 36.078125 6.890625 40.9375 10.546875 
Q 45.796875 14.203125 45.796875 21.1875 
Q 45.796875 27.640625 41.28125 31.265625 
Q 36.765625 34.90625 28.71875 34.90625 
L 20.21875 34.90625 
L 20.21875 43.015625 
L 29.109375 43.015625 
Q 36.375 43.015625 40.234375 45.921875 
Q 44.09375 48.828125 44.09375 54.296875 
Q 44.09375 59.90625 40.109375 62.90625 
Q 36.140625 65.921875 28.71875 65.921875 
Q 24.65625 65.921875 20.015625 65.03125 
Q 15.375 64.15625 9.8125 62.3125 
L 9.8125 71.09375 
Q 15.4375 72.65625 20.34375 73.4375 
Q 25.25 74.21875 29.59375 74.21875 
Q 40.828125 74.21875 47.359375 69.109375 
Q 53.90625 64.015625 53.90625 55.328125 
Q 53.90625 49.265625 50.4375 45.09375 
Q 46.96875 40.921875 40.578125 39.3125 
" id="DejaVuSans-33"/>
      </defs>
      <g transform="translate(259.472071 322.182437)scale(0.1 -0.1)">
       <use xlink:href="#DejaVuSans-33"/>
       <use x="63.623047" xlink:href="#DejaVuSans-30"/>
       <use x="127.246094" xlink:href="#DejaVuSans-30"/>
      </g>
     </g>
    </g>
    <g id="xtick_5">
     <g id="line2d_9">
      <path clip-path="url(#p9f03af4c1b)" d="M 334.076852 307.584 
L 334.076852 41.472 
" style="fill:none;stroke:#b0b0b0;stroke-linecap:square;stroke-width:0.8;"/>
     </g>
     <g id="line2d_10">
      <g>
       <use style="stroke:#000000;stroke-width:0.8;" x="334.076852" xlink:href="#m65fe1f3ce2" y="307.584"/>
      </g>
     </g>
     <g id="text_5">
      <!-- 400 -->
      <defs>
       <path d="M 37.796875 64.3125 
L 12.890625 25.390625 
L 37.796875 25.390625 
z
M 35.203125 72.90625 
L 47.609375 72.90625 
L 47.609375 25.390625 
L 58.015625 25.390625 
L 58.015625 17.1875 
L 47.609375 17.1875 
L 47.609375 0 
L 37.796875 0 
L 37.796875 17.1875 
L 4.890625 17.1875 
L 4.890625 26.703125 
z
" id="DejaVuSans-34"/>
      </defs>
      <g transform="translate(324.533102 322.182437)scale(0.1 -0.1)">
       <use xlink:href="#DejaVuSans-34"/>
       <use x="63.623047" xlink:href="#DejaVuSans-30"/>
       <use x="127.246094" xlink:href="#DejaVuSans-30"/>
      </g>
     </g>
    </g>
    <g id="xtick_6">
     <g id="line2d_11">
      <path clip-path="url(#p9f03af4c1b)" d="M 399.137883 307.584 
L 399.137883 41.472 
" style="fill:none;stroke:#b0b0b0;stroke-linecap:square;stroke-width:0.8;"/>
     </g>
     <g id="line2d_12">
      <g>
       <use style="stroke:#000000;stroke-width:0.8;" x="399.137883" xlink:href="#m65fe1f3ce2" y="307.584"/>
      </g>
     </g>
     <g id="text_6">
      <!-- 500 -->
      <defs>
       <path d="M 10.796875 72.90625 
L 49.515625 72.90625 
L 49.515625 64.59375 
L 19.828125 64.59375 
L 19.828125 46.734375 
Q 21.96875 47.46875 24.109375 47.828125 
Q 26.265625 48.1875 28.421875 48.1875 
Q 40.625 48.1875 47.75 41.5 
Q 54.890625 34.8125 54.890625 23.390625 
Q 54.890625 11.625 47.5625 5.09375 
Q 40.234375 -1.421875 26.90625 -1.421875 
Q 22.3125 -1.421875 17.546875 -0.640625 
Q 12.796875 0.140625 7.71875 1.703125 
L 7.71875 11.625 
Q 12.109375 9.234375 16.796875 8.0625 
Q 21.484375 6.890625 26.703125 6.890625 
Q 35.15625 6.890625 40.078125 11.328125 
Q 45.015625 15.765625 45.015625 23.390625 
Q 45.015625 31 40.078125 35.4375 
Q 35.15625 39.890625 26.703125 39.890625 
Q 22.75 39.890625 18.8125 39.015625 
Q 14.890625 38.140625 10.796875 36.28125 
z
" id="DejaVuSans-35"/>
      </defs>
      <g transform="translate(389.594133 322.182437)scale(0.1 -0.1)">
       <use xlink:href="#DejaVuSans-35"/>
       <use x="63.623047" xlink:href="#DejaVuSans-30"/>
       <use x="127.246094" xlink:href="#DejaVuSans-30"/>
      </g>
     </g>
    </g>
    <g id="text_7">
     <!-- Generations -->
     <defs>
      <path d="M 59.515625 10.40625 
L 59.515625 29.984375 
L 43.40625 29.984375 
L 43.40625 38.09375 
L 69.28125 38.09375 
L 69.28125 6.78125 
Q 63.578125 2.734375 56.6875 0.65625 
Q 49.8125 -1.421875 42 -1.421875 
Q 24.90625 -1.421875 15.25 8.5625 
Q 5.609375 18.5625 5.609375 36.375 
Q 5.609375 54.25 15.25 64.234375 
Q 24.90625 74.21875 42 74.21875 
Q 49.125 74.21875 55.546875 72.453125 
Q 61.96875 70.703125 67.390625 67.28125 
L 67.390625 56.78125 
Q 61.921875 61.421875 55.765625 63.765625 
Q 49.609375 66.109375 42.828125 66.109375 
Q 29.4375 66.109375 22.71875 58.640625 
Q 16.015625 51.171875 16.015625 36.375 
Q 16.015625 21.625 22.71875 14.15625 
Q 29.4375 6.6875 42.828125 6.6875 
Q 48.046875 6.6875 52.140625 7.59375 
Q 56.25 8.5 59.515625 10.40625 
" id="DejaVuSans-47"/>
      <path d="M 56.203125 29.59375 
L 56.203125 25.203125 
L 14.890625 25.203125 
Q 15.484375 15.921875 20.484375 11.0625 
Q 25.484375 6.203125 34.421875 6.203125 
Q 39.59375 6.203125 44.453125 7.46875 
Q 49.3125 8.734375 54.109375 11.28125 
L 54.109375 2.78125 
Q 49.265625 0.734375 44.1875 -0.34375 
Q 39.109375 -1.421875 33.890625 -1.421875 
Q 20.796875 -1.421875 13.15625 6.1875 
Q 5.515625 13.8125 5.515625 26.8125 
Q 5.515625 40.234375 12.765625 48.109375 
Q 20.015625 56 32.328125 56 
Q 43.359375 56 49.78125 48.890625 
Q 56.203125 41.796875 56.203125 29.59375 
M 47.21875 32.234375 
Q 47.125 39.59375 43.09375 43.984375 
Q 39.0625 48.390625 32.421875 48.390625 
Q 24.90625 48.390625 20.390625 44.140625 
Q 15.875 39.890625 15.1875 32.171875 
z
" id="DejaVuSans-65"/>
      <path d="M 54.890625 33.015625 
L 54.890625 0 
L 45.90625 0 
L 45.90625 32.71875 
Q 45.90625 40.484375 42.875 44.328125 
Q 39.84375 48.1875 33.796875 48.1875 
Q 26.515625 48.1875 22.3125 43.546875 
Q 18.109375 38.921875 18.109375 30.90625 
L 18.109375 0 
L 9.078125 0 
L 9.078125 54.6875 
L 18.109375 54.6875 
L 18.109375 46.1875 
Q 21.34375 51.125 25.703125 53.5625 
Q 30.078125 56 35.796875 56 
Q 45.21875 56 50.046875 50.171875 
Q 54.890625 44.34375 54.890625 33.015625 
" id="DejaVuSans-6e"/>
      <path d="M 41.109375 46.296875 
Q 39.59375 47.171875 37.8125 47.578125 
Q 36.03125 48 33.890625 48 
Q 26.265625 48 22.1875 43.046875 
Q 18.109375 38.09375 18.109375 28.8125 
L 18.109375 0 
L 9.078125 0 
L 9.078125 54.6875 
L 18.109375 54.6875 
L 18.109375 46.1875 
Q 20.953125 51.171875 25.484375 53.578125 
Q 30.03125 56 36.53125 56 
Q 37.453125 56 38.578125 55.875 
Q 39.703125 55.765625 41.0625 55.515625 
z
" id="DejaVuSans-72"/>
      <path d="M 34.28125 27.484375 
Q 23.390625 27.484375 19.1875 25 
Q 14.984375 22.515625 14.984375 16.5 
Q 14.984375 11.71875 18.140625 8.90625 
Q 21.296875 6.109375 26.703125 6.109375 
Q 34.1875 6.109375 38.703125 11.40625 
Q 43.21875 16.703125 43.21875 25.484375 
L 43.21875 27.484375 
z
M 52.203125 31.203125 
L 52.203125 0 
L 43.21875 0 
L 43.21875 8.296875 
Q 40.140625 3.328125 35.546875 0.953125 
Q 30.953125 -1.421875 24.3125 -1.421875 
Q 15.921875 -1.421875 10.953125 3.296875 
Q 6 8.015625 6 15.921875 
Q 6 25.140625 12.171875 29.828125 
Q 18.359375 34.515625 30.609375 34.515625 
L 43.21875 34.515625 
L 43.21875 35.40625 
Q 43.21875 41.609375 39.140625 45 
Q 35.0625 48.390625 27.6875 48.390625 
Q 23 48.390625 18.546875 47.265625 
Q 14.109375 46.140625 10.015625 43.890625 
L 10.015625 52.203125 
Q 14.9375 54.109375 19.578125 55.046875 
Q 24.21875 56 28.609375 56 
Q 40.484375 56 46.34375 49.84375 
Q 52.203125 43.703125 52.203125 31.203125 
" id="DejaVuSans-61"/>
      <path d="M 18.3125 70.21875 
L 18.3125 54.6875 
L 36.8125 54.6875 
L 36.8125 47.703125 
L 18.3125 47.703125 
L 18.3125 18.015625 
Q 18.3125 11.328125 20.140625 9.421875 
Q 21.96875 7.515625 27.59375 7.515625 
L 36.8125 7.515625 
L 36.8125 0 
L 27.59375 0 
Q 17.1875 0 13.234375 3.875 
Q 9.28125 7.765625 9.28125 18.015625 
L 9.28125 47.703125 
L 2.6875 47.703125 
L 2.6875 54.6875 
L 9.28125 54.6875 
L 9.28125 70.21875 
z
" id="DejaVuSans-74"/>
      <path d="M 9.421875 54.6875 
L 18.40625 54.6875 
L 18.40625 0 
L 9.421875 0 
z
M 9.421875 75.984375 
L 18.40625 75.984375 
L 18.40625 64.59375 
L 9.421875 64.59375 
z
" id="DejaVuSans-69"/>
      <path d="M 30.609375 48.390625 
Q 23.390625 48.390625 19.1875 42.75 
Q 14.984375 37.109375 14.984375 27.296875 
Q 14.984375 17.484375 19.15625 11.84375 
Q 23.34375 6.203125 30.609375 6.203125 
Q 37.796875 6.203125 41.984375 11.859375 
Q 46.1875 17.53125 46.1875 27.296875 
Q 46.1875 37.015625 41.984375 42.703125 
Q 37.796875 48.390625 30.609375 48.390625 
M 30.609375 56 
Q 42.328125 56 49.015625 48.375 
Q 55.71875 40.765625 55.71875 27.296875 
Q 55.71875 13.875 49.015625 6.21875 
Q 42.328125 -1.421875 30.609375 -1.421875 
Q 18.84375 -1.421875 12.171875 6.21875 
Q 5.515625 13.875 5.515625 27.296875 
Q 5.515625 40.765625 12.171875 48.375 
Q 18.84375 56 30.609375 56 
" id="DejaVuSans-6f"/>
      <path d="M 44.28125 53.078125 
L 44.28125 44.578125 
Q 40.484375 46.53125 36.375 47.5 
Q 32.28125 48.484375 27.875 48.484375 
Q 21.1875 48.484375 17.84375 46.4375 
Q 14.5 44.390625 14.5 40.28125 
Q 14.5 37.15625 16.890625 35.375 
Q 19.28125 33.59375 26.515625 31.984375 
L 29.59375 31.296875 
Q 39.15625 29.25 43.1875 25.515625 
Q 47.21875 21.78125 47.21875 15.09375 
Q 47.21875 7.46875 41.1875 3.015625 
Q 35.15625 -1.421875 24.609375 -1.421875 
Q 20.21875 -1.421875 15.453125 -0.5625 
Q 10.6875 0.296875 5.421875 2 
L 5.421875 11.28125 
Q 10.40625 8.6875 15.234375 7.390625 
Q 20.0625 6.109375 24.8125 6.109375 
Q 31.15625 6.109375 34.5625 8.28125 
Q 37.984375 10.453125 37.984375 14.40625 
Q 37.984375 18.0625 35.515625 20.015625 
Q 33.0625 21.96875 24.703125 23.78125 
L 21.578125 24.515625 
Q 13.234375 26.265625 9.515625 29.90625 
Q 5.8125 33.546875 5.8125 39.890625 
Q 5.8125 47.609375 11.28125 51.796875 
Q 16.75 56 26.8125 56 
Q 31.78125 56 36.171875 55.265625 
Q 40.578125 54.546875 44.28125 53.078125 
" id="DejaVuSans-73"/>
     </defs>
     <g transform="translate(205.662344 335.860562)scale(0.1 -0.1)">
      <use xlink:href="#DejaVuSans-47"/>
      <use x="77.490234" xlink:href="#DejaVuSans-65"/>
      <use x="139.013672" xlink:href="#DejaVuSans-6e"/>
      <use x="202.392578" xlink:href="#DejaVuSans-65"/>
      <use x="263.916016" xlink:href="#DejaVuSans-72"/>
      <use x="305.029297" xlink:href="#DejaVuSans-61"/>
      <use x="366.308594" xlink:href="#DejaVuSans-74"/>
      <use x="405.517578" xlink:href="#DejaVuSans-69"/>
      <use x="433.300781" xlink:href="#DejaVuSans-6f"/>
      <use x="494.482422" xlink:href="#DejaVuSans-6e"/>
      <use x="557.861328" xlink:href="#DejaVuSans-73"/>
     </g>
    </g>
   </g>
   <g id="matplotlib.axis_2">
    <g id="ytick_1">
     <g id="line2d_13">
      <path clip-path="url(#p9f03af4c1b)" d="M 57.6 256.124151 
L 414.72 256.124151 
" style="fill:none;stroke:#b0b0b0;stroke-linecap:square;stroke-width:0.8;"/>
     </g>
     <g id="line2d_14">
      <defs>
       <path d="M 0 0 
L -3.5 0 
" id="m970e9b0d0b" style="stroke:#000000;stroke-width:0.8;"/>
      </defs>
      <g>
       <use style="stroke:#000000;stroke-width:0.8;" x="57.6" xlink:href="#m970e9b0d0b" y="256.124151"/>
      </g>
     </g>
     <g id="text_8">
      <!-- 20 -->
      <g transform="translate(37.875 259.92337)scale(0.1 -0.1)">
       <use xlink:href="#DejaVuSans-32"/>
       <use x="63.623047" xlink:href="#DejaVuSans-30"/>
      </g>
     </g>
    </g>
    <g id="ytick_2">
     <g id="line2d_15">
      <path clip-path="url(#p9f03af4c1b)" d="M 57.6 199.507924 
L 414.72 199.507924 
" style="fill:none;stroke:#b0b0b0;stroke-linecap:square;stroke-width:0.8;"/>
     </g>
     <g id="line2d_16">
      <g>
       <use style="stroke:#000000;stroke-width:0.8;" x="57.6" xlink:href="#m970e9b0d0b" y="199.507924"/>
      </g>
     </g>
     <g id="text_9">
      <!-- 22 -->
      <g transform="translate(37.875 203.307143)scale(0.1 -0.1)">
       <use xlink:href="#DejaVuSans-32"/>
       <use x="63.623047" xlink:href="#DejaVuSans-32"/>
      </g>
     </g>
    </g>
    <g id="ytick_3">
     <g id="line2d_17">
      <path clip-path="url(#p9f03af4c1b)" d="M 57.6 142.891697 
L 414.72 142.891697 
" style="fill:none;stroke:#b0b0b0;stroke-linecap:square;stroke-width:0.8;"/>
     </g>
     <g id="line2d_18">
      <g>
       <use style="stroke:#000000;stroke-width:0.8;" x="57.6" xlink:href="#m970e9b0d0b" y="142.891697"/>
      </g>
     </g>
     <g id="text_10">
      <!-- 24 -->
      <g transform="translate(37.875 146.690916)scale(0.1 -0.1)">
       <use xlink:href="#DejaVuSans-32"/>
       <use x="63.623047" xlink:href="#DejaVuSans-34"/>
      </g>
     </g>
    </g>
    <g id="ytick_4">
     <g id="line2d_19">
      <path clip-path="url(#p9f03af4c1b)" d="M 57.6 86.275471 
L 414.72 86.275471 
" style="fill:none;stroke:#b0b0b0;stroke-linecap:square;stroke-width:0.8;"/>
     </g>
     <g id="line2d_20">
      <g>
       <use style="stroke:#000000;stroke-width:0.8;" x="57.6" xlink:href="#m970e9b0d0b" y="86.275471"/>
      </g>
     </g>
     <g id="text_11">
      <!-- 26 -->
      <defs>
       <path d="M 33.015625 40.375 
Q 26.375 40.375 22.484375 35.828125 
Q 18.609375 31.296875 18.609375 23.390625 
Q 18.609375 15.53125 22.484375 10.953125 
Q 26.375 6.390625 33.015625 6.390625 
Q 39.65625 6.390625 43.53125 10.953125 
Q 47.40625 15.53125 47.40625 23.390625 
Q 47.40625 31.296875 43.53125 35.828125 
Q 39.65625 40.375 33.015625 40.375 
M 52.59375 71.296875 
L 52.59375 62.3125 
Q 48.875 64.0625 45.09375 64.984375 
Q 41.3125 65.921875 37.59375 65.921875 
Q 27.828125 65.921875 22.671875 59.328125 
Q 17.53125 52.734375 16.796875 39.40625 
Q 19.671875 43.65625 24.015625 45.921875 
Q 28.375 48.1875 33.59375 48.1875 
Q 44.578125 48.1875 50.953125 41.515625 
Q 57.328125 34.859375 57.328125 23.390625 
Q 57.328125 12.15625 50.6875 5.359375 
Q 44.046875 -1.421875 33.015625 -1.421875 
Q 20.359375 -1.421875 13.671875 8.265625 
Q 6.984375 17.96875 6.984375 36.375 
Q 6.984375 53.65625 15.1875 63.9375 
Q 23.390625 74.21875 37.203125 74.21875 
Q 40.921875 74.21875 44.703125 73.484375 
Q 48.484375 72.75 52.59375 71.296875 
" id="DejaVuSans-36"/>
      </defs>
      <g transform="translate(37.875 90.07469)scale(0.1 -0.1)">
       <use xlink:href="#DejaVuSans-32"/>
       <use x="63.623047" xlink:href="#DejaVuSans-36"/>
      </g>
     </g>
    </g>
    <g id="text_12">
     <!-- Fitness -->
     <defs>
      <path d="M 9.8125 72.90625 
L 51.703125 72.90625 
L 51.703125 64.59375 
L 19.671875 64.59375 
L 19.671875 43.109375 
L 48.578125 43.109375 
L 48.578125 34.8125 
L 19.671875 34.8125 
L 19.671875 0 
L 9.8125 0 
z
" id="DejaVuSans-46"/>
     </defs>
     <g transform="translate(31.795312 192.202219)rotate(-90)scale(0.1 -0.1)">
      <use xlink:href="#DejaVuSans-46"/>
      <use x="57.410156" xlink:href="#DejaVuSans-69"/>
      <use x="85.193359" xlink:href="#DejaVuSans-74"/>
      <use x="124.402344" xlink:href="#DejaVuSans-6e"/>
      <use x="187.78125" xlink:href="#DejaVuSans-65"/>
      <use x="249.304688" xlink:href="#DejaVuSans-73"/>
      <use x="301.404297" xlink:href="#DejaVuSans-73"/>
     </g>
    </g>
   </g>
   <g id="line2d_21">
    <path clip-path="url(#p9f03af4c1b)" d="M 73.832727 219.467979 
L 74.483338 216.367889 
L 75.133948 206.193385 
L 76.435169 201.502274 
L 77.085779 191.865127 
L 77.736389 189.102049 
L 78.386999 161.47359 
L 79.03761 166.616093 
L 79.68822 158.82003 
L 80.33883 157.894853 
L 80.989441 156.235496 
L 81.640051 153.61602 
L 82.290661 149.006006 
L 82.941272 153.365103 
L 83.591882 152.196828 
L 84.242492 154.892946 
L 84.893103 154.119839 
L 85.543713 147.475511 
L 86.194323 144.166255 
L 86.844934 145.817747 
L 87.495544 143.723624 
L 88.146154 148.550615 
L 88.796764 146.944192 
L 89.447375 142.590086 
L 90.097985 149.160503 
L 90.748595 145.441946 
L 91.399206 145.238273 
L 92.049816 151.481144 
L 92.700426 146.9142 
L 94.001647 140.462044 
L 94.652257 141.837156 
L 95.302868 140.887473 
L 95.953478 147.405084 
L 96.604088 140.444636 
L 97.254698 141.795992 
L 97.905309 136.15506 
L 98.555919 141.139198 
L 99.206529 142.262925 
L 99.85714 141.793255 
L 101.15836 136.733604 
L 101.808971 143.800459 
L 102.459581 139.360167 
L 103.110191 139.579557 
L 103.760802 130.648773 
L 104.411412 137.735913 
L 105.062022 142.345636 
L 105.712633 134.57633 
L 106.363243 135.324114 
L 107.013853 140.556534 
L 108.315074 127.634747 
L 108.965684 131.93635 
L 109.616294 127.147482 
L 110.266905 130.697171 
L 110.917515 130.687116 
L 111.568125 132.771909 
L 112.218736 130.101823 
L 112.869346 130.080427 
L 113.519956 132.135599 
L 114.170567 129.274235 
L 114.821177 135.458768 
L 115.471787 126.966547 
L 116.122398 128.746924 
L 116.773008 127.732247 
L 117.423618 126.109163 
L 118.074228 128.274261 
L 118.724839 122.640806 
L 120.026059 129.635978 
L 120.67667 126.917428 
L 121.32728 128.288371 
L 121.97789 128.861684 
L 122.628501 128.881595 
L 123.279111 127.136906 
L 123.929721 125.759471 
L 124.580332 132.791971 
L 125.230942 129.170879 
L 125.881552 131.214165 
L 126.532163 129.827992 
L 127.182773 128.78663 
L 127.833383 125.403864 
L 128.483993 132.031657 
L 129.134604 127.843617 
L 129.785214 127.049083 
L 130.435824 129.551099 
L 131.086435 131.02495 
L 131.737045 123.056237 
L 132.387655 125.442272 
L 133.038266 128.283306 
L 133.688876 127.258578 
L 134.339486 126.900167 
L 134.990097 129.64672 
L 135.640707 129.009763 
L 136.291317 131.920979 
L 136.941927 126.626719 
L 137.592538 130.271749 
L 138.243148 127.841249 
L 138.893758 128.896172 
L 139.544369 124.929829 
L 140.194979 125.016051 
L 140.845589 128.077354 
L 141.4962 126.911476 
L 142.14681 123.458156 
L 142.79742 124.824774 
L 143.448031 126.869131 
L 144.749251 121.347481 
L 145.399862 130.303282 
L 146.050472 126.494805 
L 146.701082 128.016229 
L 147.351692 130.88584 
L 148.002303 123.936982 
L 148.652913 127.910068 
L 149.303523 121.654373 
L 149.954134 128.489041 
L 150.604744 124.954267 
L 152.556575 126.8476 
L 153.207185 124.323845 
L 154.508406 124.392372 
L 155.159016 124.778728 
L 155.809627 123.890571 
L 156.460237 124.542946 
L 157.110847 120.600381 
L 157.761457 125.803612 
L 158.412068 125.008572 
L 159.062678 128.569194 
L 159.713288 124.987445 
L 160.363899 124.219099 
L 161.014509 120.038794 
L 161.665119 125.893286 
L 162.31573 126.592358 
L 162.96634 122.259823 
L 163.61695 123.753347 
L 164.267561 124.017802 
L 164.918171 122.480971 
L 165.568781 122.889752 
L 166.870002 127.75434 
L 167.520612 125.041925 
L 168.171222 124.789648 
L 168.821833 125.067273 
L 169.472443 127.214377 
L 170.123053 126.00676 
L 170.773664 125.221013 
L 171.424274 127.315935 
L 172.074884 120.662051 
L 172.725495 123.948491 
L 173.376105 123.284784 
L 174.026715 128.178996 
L 174.677326 125.701706 
L 175.327936 124.000505 
L 175.978546 126.204847 
L 176.629156 129.4752 
L 177.279767 126.68037 
L 177.930377 122.195953 
L 178.580987 125.351806 
L 179.231598 126.335967 
L 179.882208 124.680442 
L 180.532818 124.912695 
L 181.183429 125.936166 
L 181.834039 127.471389 
L 182.484649 124.585992 
L 183.13526 125.780919 
L 183.78587 124.322778 
L 184.43648 125.199482 
L 185.737701 125.92174 
L 186.388311 127.529176 
L 187.038921 126.840462 
L 187.689532 127.760234 
L 188.340142 127.117283 
L 188.990752 123.138982 
L 189.641363 126.127422 
L 190.291973 126.644515 
L 190.942583 123.554968 
L 191.593194 124.572493 
L 192.243804 125.161309 
L 192.894414 123.123307 
L 193.545025 122.816723 
L 194.195635 125.845433 
L 194.846245 124.853637 
L 195.496856 123.283962 
L 196.147466 122.134829 
L 196.798076 123.939896 
L 197.448686 123.238373 
L 198.099297 130.12251 
L 199.400517 123.518317 
L 200.051128 127.637781 
L 200.701738 125.301076 
L 201.352348 125.185341 
L 202.002959 122.948508 
L 202.653569 128.679489 
L 203.304179 124.212194 
L 203.95479 125.177874 
L 204.6054 124.436508 
L 205.25601 122.403053 
L 205.906621 122.467616 
L 207.207841 125.435864 
L 207.858451 127.826052 
L 208.509062 127.341447 
L 209.159672 127.650008 
L 210.460893 125.294993 
L 211.111503 127.058918 
L 211.762113 124.676877 
L 212.412724 130.511755 
L 213.063334 127.97386 
L 213.713944 126.494339 
L 214.364555 125.844925 
L 215.015165 124.499531 
L 215.665775 128.842666 
L 216.966996 125.493659 
L 217.617606 128.556883 
L 218.268216 133.012235 
L 218.918827 122.382208 
L 219.569437 125.932764 
L 220.220047 126.451747 
L 220.870658 126.55718 
L 222.171878 127.520398 
L 222.822489 122.051493 
L 223.473099 125.526881 
L 224.123709 125.038703 
L 224.77432 123.981511 
L 225.42493 125.827098 
L 226.07554 124.101214 
L 226.72615 127.067309 
L 227.376761 124.603791 
L 228.027371 129.951161 
L 228.677981 126.073878 
L 229.328592 125.486587 
L 229.979202 126.655779 
L 230.629812 125.729261 
L 231.280423 125.282646 
L 231.931033 126.881408 
L 232.581643 123.932281 
L 233.232254 126.61578 
L 233.882864 125.735105 
L 234.533474 125.520517 
L 235.184085 122.669735 
L 235.834695 129.060534 
L 236.485305 127.438598 
L 237.135915 129.161734 
L 237.786526 129.978567 
L 238.437136 125.164146 
L 239.087746 126.411977 
L 239.738357 125.051079 
L 240.388967 124.693018 
L 241.039577 121.110458 
L 241.690188 125.748508 
L 242.340798 122.801732 
L 242.991408 124.314685 
L 243.642019 122.764338 
L 244.292629 126.797984 
L 244.943239 125.634038 
L 245.59385 125.83138 
L 246.24446 126.5929 
L 246.89507 125.782003 
L 247.54568 121.385192 
L 248.196291 126.411375 
L 248.846901 123.931832 
L 249.497511 127.269932 
L 250.148122 131.453375 
L 250.798732 125.804645 
L 251.449342 123.226969 
L 252.099953 123.871662 
L 252.750563 126.281633 
L 253.401173 124.822434 
L 254.051784 125.514273 
L 254.702394 127.293693 
L 255.353004 125.88337 
L 256.003615 127.027654 
L 257.304835 125.015742 
L 257.955445 122.603471 
L 258.606056 124.021663 
L 259.907276 128.533828 
L 260.557887 127.547755 
L 261.208497 128.317768 
L 261.859107 126.374205 
L 262.509718 123.340586 
L 263.160328 131.985792 
L 263.810938 127.140701 
L 264.461549 131.122192 
L 265.112159 125.260825 
L 265.762769 125.971005 
L 266.413379 127.885907 
L 267.06399 126.834424 
L 267.7146 124.683869 
L 268.36521 127.98233 
L 269.015821 129.503617 
L 269.666431 124.856739 
L 270.317041 127.837183 
L 270.967652 127.065916 
L 271.618262 128.086988 
L 272.268872 126.170067 
L 272.919483 122.472251 
L 273.570093 126.293699 
L 274.220703 122.510311 
L 274.871314 124.026482 
L 275.521924 124.507806 
L 276.172534 122.469556 
L 276.823144 123.201485 
L 277.473755 122.101921 
L 278.124365 124.877744 
L 278.774975 118.568112 
L 279.425586 124.093888 
L 280.076196 120.215806 
L 280.726806 123.199283 
L 281.377417 120.653929 
L 282.028027 121.273001 
L 282.678637 120.933379 
L 283.979858 123.96741 
L 284.630468 117.761249 
L 285.281079 122.831462 
L 285.931689 119.241322 
L 286.582299 118.20352 
L 287.232909 119.819039 
L 287.88352 120.78996 
L 288.53413 119.11758 
L 289.18474 120.309177 
L 289.835351 121.005995 
L 290.485961 119.300755 
L 291.787182 124.855807 
L 292.437792 119.554865 
L 293.088402 120.390053 
L 293.739013 117.997112 
L 294.389623 119.313883 
L 295.040233 121.320049 
L 295.690844 117.92396 
L 296.341454 117.553257 
L 297.642674 123.054812 
L 298.293285 118.688425 
L 298.943895 118.484857 
L 299.594505 120.794061 
L 300.245116 120.669857 
L 300.895726 123.328928 
L 301.546336 122.293459 
L 302.196947 117.621784 
L 302.847557 121.7833 
L 303.498167 121.016728 
L 304.799388 121.461149 
L 305.449998 124.417412 
L 306.100608 119.539247 
L 306.751219 122.799729 
L 307.401829 122.054393 
L 308.052439 116.856655 
L 308.70305 120.035139 
L 309.35366 124.855258 
L 310.00427 119.275683 
L 310.654881 122.104616 
L 311.305491 119.085349 
L 311.956101 118.349084 
L 312.606712 118.140206 
L 313.257322 118.730135 
L 313.907932 117.581777 
L 314.558543 123.266461 
L 315.209153 117.514774 
L 315.859763 119.240576 
L 316.510373 118.480163 
L 317.160984 120.14139 
L 317.811594 120.516313 
L 318.462204 116.074664 
L 319.112815 120.42808 
L 319.763425 120.594104 
L 320.414035 124.266366 
L 321.064646 119.850195 
L 321.715256 119.705674 
L 322.365866 123.907248 
L 323.016477 119.292158 
L 323.667087 120.736292 
L 324.317697 117.745303 
L 324.968308 117.273466 
L 325.618918 116.498311 
L 326.269528 120.586143 
L 326.920138 123.504249 
L 327.570749 120.022427 
L 328.221359 118.623279 
L 328.871969 123.038482 
L 329.52258 122.089249 
L 330.17319 126.620119 
L 330.8238 123.557441 
L 331.474411 122.7567 
L 332.125021 115.494294 
L 332.775631 120.521925 
L 333.426242 121.162472 
L 334.076852 120.869988 
L 334.727462 118.358401 
L 335.378073 118.97809 
L 336.028683 117.665454 
L 336.679293 119.57297 
L 337.980514 118.445726 
L 338.631124 113.683499 
L 339.281734 117.871514 
L 339.932345 118.126697 
L 340.582955 115.107591 
L 341.233565 119.951895 
L 341.884176 115.846057 
L 342.534786 113.276849 
L 343.185396 118.015489 
L 343.836007 116.173445 
L 344.486617 119.469603 
L 345.137227 121.213674 
L 345.787837 127.066569 
L 346.438448 121.927008 
L 347.089058 113.095042 
L 347.739668 113.584766 
L 348.390279 113.714742 
L 349.040889 117.164651 
L 349.691499 115.440083 
L 350.34211 117.98335 
L 350.99272 118.365602 
L 351.64333 117.771978 
L 352.293941 122.438366 
L 352.944551 120.110665 
L 354.245772 122.684119 
L 354.896382 119.263699 
L 355.546992 118.359014 
L 356.848213 117.22265 
L 357.498823 119.286047 
L 358.149433 121.76753 
L 358.800044 116.887361 
L 359.450654 118.392248 
L 360.101264 116.422067 
L 360.751875 116.07837 
L 361.402485 120.521975 
L 362.053095 119.213959 
L 362.703706 116.469403 
L 363.354316 118.830842 
L 364.004926 119.661189 
L 364.655537 122.037886 
L 365.306147 117.149543 
L 365.956757 116.381421 
L 367.257978 118.049666 
L 367.908588 121.181562 
L 368.559198 120.536946 
L 369.209809 116.181984 
L 369.860419 115.789468 
L 370.511029 116.875101 
L 371.16164 114.956856 
L 371.81225 122.288671 
L 372.46286 116.789834 
L 373.113471 121.737428 
L 373.764081 121.495305 
L 374.414691 120.038638 
L 375.065302 123.030271 
L 375.715912 121.331832 
L 376.366522 112.247388 
L 377.017132 119.409818 
L 377.667743 119.002087 
L 378.318353 119.560566 
L 378.968963 116.010157 
L 379.619574 117.066894 
L 380.270184 118.581866 
L 380.920794 113.432873 
L 381.571405 119.031544 
L 382.222015 116.239895 
L 382.872625 118.9948 
L 383.523236 115.925997 
L 384.173846 113.639976 
L 384.824456 119.037607 
L 385.475066 117.880123 
L 386.125677 117.171787 
L 386.776287 119.086858 
L 387.426897 118.661704 
L 388.077508 116.585947 
L 388.728118 120.273583 
L 389.378728 120.073284 
L 390.029339 120.988191 
L 390.679949 117.366935 
L 391.330559 115.586421 
L 391.98117 114.717487 
L 392.63178 119.521979 
L 393.28239 115.22025 
L 393.933001 115.041751 
L 394.583611 113.485984 
L 395.234221 115.140636 
L 396.535442 118.926541 
L 397.186052 116.292725 
L 397.836662 120.965212 
L 398.487273 122.271352 
L 398.487273 122.271352 
" style="fill:none;stroke:#0000ff;stroke-linecap:square;stroke-width:1.5;"/>
   </g>
   <g id="line2d_22">
    <path clip-path="url(#p9f03af4c1b)" d="M 73.832727 293.608688 
L 74.483338 295.488 
L 75.133948 283.79506 
L 75.784558 284.712183 
L 76.435169 283.953179 
L 77.085779 275.07756 
L 77.736389 276.255918 
L 78.386999 231.334264 
L 79.03761 239.91938 
L 79.68822 226.954926 
L 80.33883 224.956928 
L 80.989441 221.675442 
L 81.640051 220.995619 
L 82.290661 208.500247 
L 82.941272 218.089623 
L 83.591882 218.282121 
L 84.242492 220.744526 
L 84.893103 220.371608 
L 85.543713 209.430588 
L 86.194323 203.468648 
L 86.844934 206.914506 
L 87.495544 204.291419 
L 88.146154 215.105521 
L 88.796764 209.788521 
L 89.447375 200.611956 
L 90.097985 210.782321 
L 90.748595 204.810262 
L 91.399206 206.312113 
L 92.049816 221.101208 
L 92.700426 212.956785 
L 93.351037 206.937466 
L 94.001647 197.914263 
L 94.652257 202.290919 
L 95.302868 200.335536 
L 95.953478 215.137956 
L 96.604088 203.778868 
L 97.254698 205.20876 
L 97.905309 194.780807 
L 98.555919 206.075219 
L 99.206529 210.22403 
L 99.85714 207.828338 
L 100.50775 201.386543 
L 101.15836 203.457082 
L 101.808971 215.05753 
L 102.459581 208.917732 
L 103.110191 210.499479 
L 103.760802 191.562763 
L 104.411412 205.371447 
L 105.062022 213.439036 
L 105.712633 202.535651 
L 106.363243 199.684261 
L 107.013853 206.950043 
L 108.315074 180.109054 
L 108.965684 190.361336 
L 109.616294 179.477836 
L 110.266905 184.800741 
L 110.917515 186.337041 
L 111.568125 187.227522 
L 112.218736 184.885336 
L 112.869346 187.452011 
L 113.519956 191.55033 
L 114.170567 182.996906 
L 114.821177 199.124702 
L 115.471787 179.235068 
L 116.122398 179.470166 
L 116.773008 180.769055 
L 117.423618 172.837389 
L 118.074228 180.705973 
L 118.724839 170.50019 
L 119.375449 176.99356 
L 120.026059 185.462909 
L 120.67667 177.915043 
L 121.32728 180.927981 
L 121.97789 182.400418 
L 122.628501 183.029778 
L 123.279111 181.609452 
L 123.929721 175.851223 
L 124.580332 187.893686 
L 125.230942 176.925363 
L 125.881552 188.771909 
L 126.532163 182.747147 
L 127.182773 181.403849 
L 127.833383 176.654662 
L 128.483993 189.220296 
L 129.134604 175.984052 
L 129.785214 182.709935 
L 130.435824 185.984523 
L 131.086435 188.32712 
L 131.737045 172.473958 
L 132.387655 175.791662 
L 133.038266 181.392002 
L 133.688876 176.84778 
L 134.339486 180.366217 
L 134.990097 180.919884 
L 135.640707 182.518406 
L 136.291317 187.354296 
L 136.941927 175.892238 
L 137.592538 182.297118 
L 138.243148 178.63279 
L 138.893758 177.200819 
L 139.544369 176.090583 
L 140.194979 174.19309 
L 140.845589 180.590142 
L 141.4962 178.439347 
L 142.14681 173.299647 
L 142.79742 169.696071 
L 143.448031 177.779586 
L 144.098641 173.463733 
L 144.749251 165.394019 
L 145.399862 183.286864 
L 146.050472 178.216617 
L 146.701082 183.664729 
L 147.351692 180.481122 
L 148.002303 174.749123 
L 148.652913 179.106844 
L 149.303523 169.173753 
L 149.954134 181.869712 
L 150.604744 172.461319 
L 151.255354 173.327904 
L 151.905965 180.029027 
L 152.556575 179.229695 
L 153.207185 170.474774 
L 153.857796 174.034902 
L 154.508406 175.298063 
L 155.159016 174.391763 
L 155.809627 173.892289 
L 156.460237 175.694357 
L 157.110847 162.32774 
L 157.761457 171.600202 
L 158.412068 174.78189 
L 159.062678 179.457355 
L 159.713288 172.488902 
L 160.363899 173.611143 
L 161.014509 165.940597 
L 161.665119 178.15473 
L 162.31573 175.733574 
L 162.96634 168.613572 
L 163.61695 169.350685 
L 164.267561 174.169405 
L 164.918171 169.200305 
L 165.568781 171.941863 
L 166.219392 172.157832 
L 166.870002 182.550018 
L 167.520612 172.137836 
L 168.171222 179.62471 
L 168.821833 171.462057 
L 169.472443 176.511459 
L 170.123053 180.613511 
L 170.773664 172.739985 
L 171.424274 178.81842 
L 172.074884 165.117423 
L 172.725495 174.23803 
L 173.376105 170.124379 
L 174.026715 179.256865 
L 174.677326 176.171068 
L 175.327936 170.872106 
L 175.978546 177.276085 
L 176.629156 186.97027 
L 177.930377 170.843847 
L 178.580987 170.633774 
L 179.231598 178.146882 
L 179.882208 169.421354 
L 180.532818 173.610945 
L 181.834039 178.301416 
L 182.484649 171.665485 
L 183.13526 176.325306 
L 183.78587 173.356693 
L 184.43648 173.381322 
L 185.087091 172.710542 
L 185.737701 175.228979 
L 186.388311 175.67407 
L 187.038921 176.415014 
L 187.689532 180.362258 
L 188.340142 182.550826 
L 188.990752 173.045373 
L 189.641363 183.13862 
L 190.291973 181.299633 
L 190.942583 171.801638 
L 191.593194 171.745652 
L 192.894414 170.234439 
L 193.545025 169.215342 
L 194.195635 180.15252 
L 194.846245 177.764534 
L 195.496856 171.420703 
L 196.147466 167.795008 
L 196.798076 174.228742 
L 197.448686 171.019862 
L 198.099297 186.253922 
L 198.749907 179.600566 
L 199.400517 174.120293 
L 200.051128 179.645341 
L 200.701738 173.297751 
L 201.352348 179.932295 
L 202.002959 171.35516 
L 202.653569 181.553504 
L 203.304179 174.360802 
L 203.95479 175.669696 
L 204.6054 169.367349 
L 205.25601 170.789023 
L 205.906621 166.340952 
L 206.557231 173.198292 
L 207.207841 172.900848 
L 207.858451 180.45114 
L 208.509062 181.01572 
L 209.159672 180.50784 
L 209.810282 179.569298 
L 210.460893 177.020452 
L 211.111503 177.776656 
L 211.762113 175.415759 
L 212.412724 181.535494 
L 213.063334 176.062085 
L 213.713944 174.934181 
L 214.364555 172.487609 
L 215.015165 174.039667 
L 215.665775 181.81147 
L 216.316385 179.158062 
L 216.966996 172.794414 
L 217.617606 177.54064 
L 218.268216 184.733845 
L 218.918827 169.816727 
L 219.569437 181.790173 
L 220.870658 175.297065 
L 221.521268 179.054296 
L 222.171878 183.926433 
L 222.822489 171.190719 
L 223.473099 173.925709 
L 224.123709 173.223044 
L 224.77432 175.741443 
L 225.42493 170.794959 
L 226.07554 168.761269 
L 226.72615 179.969569 
L 227.376761 170.400913 
L 228.027371 178.734558 
L 228.677981 172.657844 
L 229.328592 174.603576 
L 229.979202 179.11492 
L 230.629812 176.874024 
L 231.931033 175.47991 
L 232.581643 168.670707 
L 233.232254 177.258857 
L 233.882864 176.837277 
L 234.533474 173.827265 
L 235.184085 172.202366 
L 235.834695 180.611321 
L 236.485305 178.198105 
L 237.135915 179.110447 
L 237.786526 182.705334 
L 238.437136 172.003465 
L 239.087746 181.958757 
L 239.738357 173.083214 
L 240.388967 172.472222 
L 241.039577 163.88383 
L 241.690188 177.215281 
L 242.340798 168.940562 
L 242.991408 170.547618 
L 243.642019 170.225154 
L 244.292629 178.963781 
L 244.943239 180.492014 
L 245.59385 174.747004 
L 246.24446 172.327407 
L 246.89507 174.42542 
L 247.54568 166.466428 
L 248.196291 172.055869 
L 248.846901 172.293676 
L 249.497511 176.89634 
L 250.148122 185.480614 
L 251.449342 171.600346 
L 252.099953 172.214584 
L 252.750563 172.583378 
L 253.401173 173.657216 
L 254.051784 173.132717 
L 254.702394 181.929031 
L 255.353004 175.863092 
L 256.003615 175.485129 
L 256.654225 178.807813 
L 257.304835 170.646559 
L 257.955445 164.90628 
L 258.606056 171.033118 
L 259.256666 171.130755 
L 259.907276 181.591234 
L 260.557887 175.469713 
L 261.208497 177.668074 
L 261.859107 176.29761 
L 262.509718 170.912741 
L 263.160328 186.136898 
L 263.810938 176.553558 
L 264.461549 186.657454 
L 265.112159 175.722946 
L 265.762769 175.323273 
L 266.413379 179.678238 
L 267.06399 177.26117 
L 267.7146 172.727804 
L 268.36521 180.41057 
L 269.015821 184.482004 
L 269.666431 170.060218 
L 270.317041 177.312338 
L 270.967652 178.191908 
L 271.618262 179.96104 
L 272.919483 172.799734 
L 273.570093 177.638333 
L 274.220703 167.437131 
L 274.871314 174.354259 
L 275.521924 172.028938 
L 276.172534 167.477712 
L 276.823144 173.343238 
L 277.473755 171.592734 
L 278.124365 180.511918 
L 278.774975 164.783574 
L 279.425586 171.643091 
L 280.076196 163.335373 
L 280.726806 173.514433 
L 281.377417 164.613017 
L 282.028027 167.768845 
L 282.678637 171.79204 
L 283.329248 174.220641 
L 283.979858 175.980717 
L 284.630468 164.269718 
L 285.281079 175.56587 
L 285.931689 163.997509 
L 287.232909 167.346793 
L 287.88352 171.730629 
L 288.53413 168.893299 
L 289.18474 173.525711 
L 289.835351 171.808398 
L 290.485961 170.506905 
L 291.136571 171.727708 
L 291.787182 177.156126 
L 292.437792 166.271367 
L 293.088402 170.167065 
L 293.739013 167.137684 
L 294.389623 170.34403 
L 295.040233 172.83641 
L 295.690844 170.587225 
L 296.341454 169.1881 
L 296.992064 173.508184 
L 297.642674 181.360342 
L 298.293285 172.184571 
L 298.943895 169.78794 
L 300.895726 179.902193 
L 301.546336 174.155063 
L 302.196947 166.445793 
L 302.847557 174.81919 
L 303.498167 175.492432 
L 304.148778 176.463035 
L 304.799388 172.654521 
L 305.449998 173.728599 
L 306.100608 171.50708 
L 306.751219 177.819611 
L 307.401829 176.242566 
L 308.052439 167.114485 
L 308.70305 170.647098 
L 309.35366 180.798641 
L 310.00427 170.587884 
L 310.654881 177.197138 
L 311.305491 174.160899 
L 311.956101 170.181529 
L 312.606712 170.963228 
L 313.257322 173.04596 
L 313.907932 169.56644 
L 314.558543 182.577276 
L 315.209153 168.635025 
L 315.859763 173.230747 
L 316.510373 175.923741 
L 317.160984 173.935661 
L 317.811594 173.988939 
L 318.462204 163.378455 
L 319.112815 175.17323 
L 319.763425 174.089167 
L 320.414035 181.581473 
L 321.064646 176.8792 
L 321.715256 173.607914 
L 322.365866 179.902127 
L 323.016477 173.567038 
L 323.667087 177.646133 
L 324.317697 172.811587 
L 324.968308 170.208668 
L 325.618918 168.459872 
L 326.920138 182.33574 
L 327.570749 171.341134 
L 328.221359 171.808921 
L 328.871969 180.448149 
L 329.52258 179.87993 
L 330.17319 191.540539 
L 330.8238 182.158522 
L 331.474411 182.557691 
L 332.125021 163.066523 
L 332.775631 178.270817 
L 333.426242 181.160684 
L 334.076852 176.760933 
L 334.727462 171.568968 
L 335.378073 179.051144 
L 336.028683 170.142053 
L 336.679293 175.465496 
L 337.329903 173.952472 
L 337.980514 175.029439 
L 338.631124 170.843809 
L 339.281734 174.81742 
L 339.932345 172.836748 
L 340.582955 167.622709 
L 341.233565 181.172085 
L 341.884176 168.907472 
L 342.534786 165.01165 
L 343.185396 175.714549 
L 343.836007 170.228682 
L 344.486617 179.692612 
L 345.137227 182.107567 
L 345.787837 190.293171 
L 347.089058 166.870975 
L 347.739668 166.852013 
L 348.390279 168.191167 
L 349.040889 171.768538 
L 349.691499 172.888058 
L 350.34211 173.681769 
L 350.99272 173.907224 
L 351.64333 174.902496 
L 352.293941 179.191898 
L 352.944551 178.214281 
L 354.245772 181.637913 
L 354.896382 176.214061 
L 355.546992 173.738302 
L 356.197602 175.926824 
L 356.848213 172.000984 
L 358.149433 177.286702 
L 358.800044 169.882871 
L 359.450654 175.815965 
L 360.101264 171.561399 
L 360.751875 170.41635 
L 361.402485 179.511556 
L 362.053095 175.364116 
L 362.703706 169.705552 
L 363.354316 181.286015 
L 364.004926 175.947619 
L 364.655537 179.758874 
L 365.306147 174.434173 
L 365.956757 175.049241 
L 366.607367 171.71426 
L 367.257978 174.617644 
L 367.908588 180.19063 
L 368.559198 176.290357 
L 369.209809 167.959787 
L 369.860419 167.730952 
L 370.511029 173.755361 
L 371.16164 169.812079 
L 371.81225 183.153012 
L 372.46286 173.152872 
L 373.113471 187.952135 
L 373.764081 182.537456 
L 374.414691 175.299211 
L 375.065302 181.267987 
L 375.715912 180.208704 
L 376.366522 163.66745 
L 377.017132 177.422422 
L 377.667743 175.426615 
L 378.318353 178.546705 
L 378.968963 173.052255 
L 379.619574 170.607646 
L 380.270184 178.166952 
L 380.920794 169.722144 
L 381.571405 177.589615 
L 382.222015 174.688897 
L 382.872625 178.388938 
L 383.523236 171.225076 
L 384.173846 165.503224 
L 384.824456 172.446752 
L 385.475066 176.916917 
L 386.125677 173.490735 
L 386.776287 176.512528 
L 387.426897 172.653792 
L 388.077508 174.473666 
L 388.728118 178.749983 
L 389.378728 180.804052 
L 390.029339 179.857891 
L 390.679949 173.242748 
L 391.330559 169.814988 
L 391.98117 175.866974 
L 392.63178 179.65293 
L 393.28239 171.774233 
L 393.933001 170.842884 
L 394.583611 163.438158 
L 395.234221 170.953172 
L 395.884831 167.98238 
L 396.535442 175.365862 
L 397.186052 177.511826 
L 397.836662 176.043177 
L 398.487273 184.255467 
L 398.487273 184.255467 
" style="fill:none;stroke:#008000;stroke-dasharray:9.6,2.4,1.6,2.4;stroke-dashoffset:0;stroke-width:1.5;"/>
   </g>
   <g id="line2d_23">
    <path clip-path="url(#p9f03af4c1b)" d="M 73.832727 145.327271 
L 75.133948 128.59171 
L 75.784558 122.602006 
L 76.435169 119.051369 
L 77.085779 108.652694 
L 77.736389 101.94818 
L 78.386999 91.612915 
L 79.03761 93.312806 
L 79.68822 90.685133 
L 80.33883 90.832777 
L 80.989441 90.795551 
L 81.640051 86.236422 
L 82.290661 89.511765 
L 82.941272 88.640582 
L 83.591882 86.111535 
L 84.242492 89.041366 
L 84.893103 87.868071 
L 85.543713 85.520434 
L 86.194323 84.863862 
L 86.844934 84.720988 
L 87.495544 83.155829 
L 88.146154 81.995709 
L 88.796764 84.099863 
L 89.447375 84.568216 
L 90.097985 87.538685 
L 90.748595 86.073629 
L 91.399206 84.164432 
L 92.049816 81.861081 
L 92.700426 80.871615 
L 93.351037 80.165176 
L 94.001647 83.009826 
L 94.652257 81.383393 
L 95.302868 81.439409 
L 95.953478 79.672212 
L 96.604088 77.110404 
L 97.254698 78.383223 
L 97.905309 77.529312 
L 98.555919 76.203178 
L 99.206529 74.30182 
L 100.50775 77.215723 
L 101.15836 70.010127 
L 101.808971 72.543387 
L 102.459581 69.802601 
L 103.110191 68.659635 
L 103.760802 69.734782 
L 104.411412 70.10038 
L 105.062022 71.252236 
L 105.712633 66.617009 
L 106.363243 70.963967 
L 107.013853 74.163026 
L 107.664463 74.407151 
L 108.315074 75.160439 
L 108.965684 73.511364 
L 109.616294 74.817129 
L 110.266905 76.5936 
L 110.917515 75.03719 
L 111.568125 78.316296 
L 112.869346 72.708843 
L 113.519956 72.720868 
L 114.170567 75.551564 
L 114.821177 71.792834 
L 116.122398 78.023682 
L 116.773008 74.69544 
L 117.423618 79.380938 
L 118.074228 75.842548 
L 118.724839 74.781422 
L 119.375449 75.286094 
L 120.026059 73.809046 
L 120.67667 75.919813 
L 121.97789 75.322951 
L 122.628501 74.733411 
L 123.279111 72.664361 
L 123.929721 75.667719 
L 124.580332 77.690256 
L 125.230942 81.416396 
L 125.881552 73.65642 
L 126.532163 76.908838 
L 127.182773 76.169411 
L 127.833383 74.153065 
L 128.483993 74.843017 
L 129.134604 79.703182 
L 129.785214 71.388231 
L 130.435824 73.117675 
L 131.086435 73.72278 
L 131.737045 73.638515 
L 132.387655 75.092882 
L 133.038266 75.174611 
L 133.688876 77.669376 
L 134.339486 73.434117 
L 134.990097 78.373557 
L 135.640707 75.50112 
L 136.941927 77.3612 
L 137.592538 78.246379 
L 138.243148 77.049707 
L 138.893758 80.591524 
L 139.544369 73.769075 
L 140.194979 75.839012 
L 141.4962 75.383604 
L 142.14681 73.616665 
L 142.79742 79.953478 
L 143.448031 75.958675 
L 144.098641 75.135813 
L 144.749251 77.300943 
L 145.399862 77.319701 
L 146.701082 72.367729 
L 147.351692 81.290558 
L 148.002303 73.124841 
L 148.652913 76.713291 
L 149.303523 74.134993 
L 149.954134 75.108369 
L 150.604744 77.447215 
L 151.255354 77.828552 
L 151.905965 72.153571 
L 152.556575 74.465505 
L 153.207185 78.172917 
L 153.857796 74.639161 
L 154.508406 73.486681 
L 155.159016 75.165692 
L 155.809627 73.888852 
L 156.460237 73.391536 
L 157.110847 78.873021 
L 157.761457 80.007022 
L 158.412068 75.235253 
L 159.062678 77.681034 
L 159.713288 77.485987 
L 160.363899 74.827055 
L 161.014509 74.13699 
L 161.665119 73.631842 
L 162.31573 77.451141 
L 162.96634 75.906075 
L 163.61695 78.15601 
L 164.267561 73.866199 
L 164.918171 75.761637 
L 165.568781 73.837641 
L 166.219392 78.222369 
L 166.870002 72.958663 
L 167.520612 77.946014 
L 168.171222 69.954586 
L 168.821833 78.67249 
L 169.472443 77.917295 
L 170.123053 71.400009 
L 170.773664 77.702041 
L 171.424274 75.81345 
L 172.074884 76.206679 
L 172.725495 73.658952 
L 173.376105 76.445189 
L 174.026715 77.101127 
L 174.677326 75.232343 
L 175.327936 77.128903 
L 175.978546 75.133609 
L 176.629156 71.98013 
L 177.279767 74.219188 
L 177.930377 73.548058 
L 178.580987 80.069838 
L 179.231598 74.525052 
L 179.882208 79.93953 
L 180.532818 76.214445 
L 181.183429 76.03904 
L 181.834039 76.641363 
L 182.484649 77.506499 
L 183.13526 75.236532 
L 183.78587 75.288863 
L 184.43648 77.017642 
L 185.087091 78.390624 
L 185.737701 76.614502 
L 186.388311 79.384281 
L 187.689532 75.158209 
L 188.340142 71.683741 
L 188.990752 73.23259 
L 189.641363 69.116223 
L 191.593194 77.399335 
L 192.243804 79.283423 
L 192.894414 76.012175 
L 193.545025 76.418104 
L 194.195635 71.538347 
L 194.846245 71.94274 
L 195.496856 75.14722 
L 196.147466 76.474651 
L 196.798076 73.65105 
L 197.448686 75.456884 
L 198.099297 73.991098 
L 198.749907 74.273884 
L 199.400517 72.916342 
L 200.051128 75.630221 
L 200.701738 77.3044 
L 201.352348 70.438386 
L 202.002959 74.541855 
L 202.653569 75.805473 
L 203.304179 74.063586 
L 203.95479 74.686053 
L 204.6054 79.505667 
L 205.25601 74.017083 
L 205.906621 78.594279 
L 206.557231 74.685891 
L 207.207841 77.970879 
L 207.858451 75.200963 
L 208.509062 73.667174 
L 209.159672 74.792176 
L 209.810282 73.382292 
L 210.460893 73.569534 
L 211.111503 76.341181 
L 211.762113 73.937995 
L 212.412724 79.488016 
L 213.063334 79.885635 
L 213.713944 78.054498 
L 214.364555 79.202242 
L 215.015165 74.959395 
L 215.665775 75.873862 
L 216.316385 75.190501 
L 216.966996 78.192904 
L 217.617606 79.573127 
L 218.268216 81.290625 
L 218.918827 74.947689 
L 219.569437 70.075356 
L 220.870658 77.817295 
L 221.521268 75.115514 
L 222.171878 71.114363 
L 222.822489 72.912267 
L 223.473099 77.128054 
L 224.123709 76.854362 
L 224.77432 72.221579 
L 225.42493 80.859236 
L 226.07554 79.441158 
L 226.72615 74.165049 
L 227.376761 78.806669 
L 228.027371 81.167765 
L 228.677981 79.489912 
L 229.328592 76.369598 
L 229.979202 74.196639 
L 230.629812 74.584498 
L 231.280423 74.45769 
L 231.931033 78.282906 
L 232.581643 79.193854 
L 233.232254 75.972703 
L 233.882864 74.632934 
L 234.533474 77.213769 
L 235.184085 73.137104 
L 235.834695 77.509746 
L 236.485305 76.679092 
L 237.135915 79.213021 
L 237.786526 77.251799 
L 238.437136 78.324827 
L 239.087746 70.865196 
L 239.738357 77.018944 
L 240.388967 76.913813 
L 241.039577 78.337086 
L 241.690188 74.281735 
L 242.340798 76.662902 
L 242.991408 78.081753 
L 243.642019 75.303523 
L 244.292629 74.632187 
L 244.943239 70.776062 
L 245.59385 76.915756 
L 246.24446 80.858393 
L 246.89507 77.138587 
L 247.54568 76.303956 
L 248.196291 80.766881 
L 248.846901 75.569988 
L 249.497511 77.643524 
L 250.148122 77.426135 
L 250.798732 73.650199 
L 251.449342 74.853592 
L 252.099953 75.52874 
L 252.750563 79.979889 
L 253.401173 75.987651 
L 254.051784 77.895829 
L 254.702394 72.658355 
L 255.353004 75.903648 
L 256.003615 78.57018 
L 256.654225 73.100679 
L 257.304835 79.384926 
L 257.955445 80.300661 
L 258.606056 77.010207 
L 259.256666 81.275314 
L 259.907276 75.476423 
L 260.557887 79.625798 
L 261.208497 78.967461 
L 261.859107 76.4508 
L 262.509718 75.76843 
L 263.160328 77.834685 
L 263.810938 77.727845 
L 264.461549 75.58693 
L 265.112159 74.798705 
L 265.762769 76.618737 
L 266.413379 76.093576 
L 267.7146 76.639934 
L 269.015821 74.525231 
L 269.666431 79.653261 
L 270.317041 78.362028 
L 270.967652 75.939923 
L 271.618262 76.212937 
L 272.268872 76.136814 
L 272.919483 72.144769 
L 274.220703 77.58349 
L 274.871314 73.698704 
L 275.521924 76.986674 
L 276.172534 77.4614 
L 276.823144 73.059731 
L 277.473755 72.611108 
L 278.124365 69.24357 
L 278.774975 72.35265 
L 279.425586 76.544685 
L 280.076196 77.096239 
L 280.726806 72.884133 
L 281.377417 76.694841 
L 282.028027 74.777156 
L 282.678637 70.074718 
L 283.329248 70.849356 
L 283.979858 71.954103 
L 284.630468 71.25278 
L 285.281079 70.097054 
L 285.931689 74.485134 
L 286.582299 70.794311 
L 287.232909 72.291285 
L 287.88352 69.849291 
L 288.53413 69.341861 
L 289.18474 67.092642 
L 289.835351 70.203593 
L 290.485961 68.094606 
L 291.136571 72.342809 
L 292.437792 72.838363 
L 293.088402 70.613041 
L 293.739013 68.85654 
L 294.389623 68.283736 
L 295.040233 69.803687 
L 295.690844 65.260696 
L 296.341454 65.918415 
L 296.992064 67.467032 
L 297.642674 64.749283 
L 298.293285 65.19228 
L 298.943895 67.181774 
L 299.594505 68.293466 
L 300.245116 64.830511 
L 300.895726 66.755664 
L 301.546336 70.431854 
L 302.196947 68.797775 
L 302.847557 68.74741 
L 303.498167 66.541023 
L 304.148778 66.048624 
L 305.449998 75.106224 
L 306.100608 67.571415 
L 306.751219 67.779848 
L 307.401829 67.86622 
L 308.052439 66.598824 
L 308.70305 69.423181 
L 309.35366 68.911875 
L 310.654881 67.012094 
L 311.305491 64.009798 
L 311.956101 66.516639 
L 312.606712 65.317183 
L 313.257322 64.41431 
L 313.907932 65.597114 
L 314.558543 63.955646 
L 315.209153 66.394522 
L 315.859763 65.250405 
L 316.510373 61.036585 
L 317.160984 66.347119 
L 317.811594 67.043687 
L 318.462204 68.770873 
L 319.112815 65.68293 
L 319.763425 67.09904 
L 320.414035 66.951259 
L 321.064646 62.82119 
L 321.715256 65.803434 
L 322.365866 67.912368 
L 323.016477 65.017277 
L 324.317697 62.679018 
L 324.968308 64.338263 
L 325.618918 64.53675 
L 326.269528 66.173951 
L 326.920138 64.672758 
L 327.570749 68.70372 
L 328.221359 65.437638 
L 328.871969 65.628815 
L 329.52258 64.298568 
L 330.17319 61.6997 
L 330.8238 64.956361 
L 331.474411 62.955709 
L 332.125021 67.922066 
L 332.775631 62.773032 
L 333.426242 61.16426 
L 334.076852 64.979043 
L 334.727462 65.147834 
L 335.378073 58.905035 
L 336.028683 65.188855 
L 336.679293 63.680443 
L 337.329903 63.972211 
L 337.980514 61.862013 
L 338.631124 56.523189 
L 339.281734 60.925607 
L 339.932345 63.416645 
L 340.582955 62.592473 
L 341.233565 58.731705 
L 341.884176 62.784642 
L 343.185396 60.316429 
L 343.836007 62.118207 
L 344.486617 59.246594 
L 345.137227 60.319781 
L 345.787837 63.839967 
L 346.438448 65.904425 
L 347.089058 59.319109 
L 347.739668 60.31752 
L 348.390279 59.238316 
L 349.040889 62.560763 
L 349.691499 57.992107 
L 350.34211 62.284931 
L 350.99272 62.82398 
L 351.64333 60.64146 
L 352.293941 65.684833 
L 352.944551 62.007048 
L 353.595161 63.004389 
L 354.245772 63.730324 
L 354.896382 62.313337 
L 355.546992 62.979726 
L 356.197602 59.723113 
L 356.848213 62.444315 
L 357.498823 63.841412 
L 358.149433 66.248357 
L 358.800044 63.89185 
L 359.450654 60.968531 
L 360.101264 61.282734 
L 360.751875 61.740389 
L 361.402485 61.532394 
L 362.053095 63.063801 
L 362.703706 63.233255 
L 363.354316 56.375669 
L 364.004926 63.37476 
L 364.655537 64.316897 
L 365.306147 59.864912 
L 365.956757 57.7136 
L 366.607367 62.711509 
L 367.257978 61.481687 
L 367.908588 62.172494 
L 368.559198 64.783536 
L 369.209809 64.40418 
L 369.860419 63.847983 
L 370.511029 59.99484 
L 371.16164 60.101632 
L 371.81225 61.424329 
L 372.46286 60.426795 
L 373.113471 55.522721 
L 374.414691 64.778065 
L 375.065302 64.792554 
L 375.715912 62.454961 
L 376.366522 60.827326 
L 377.017132 61.397215 
L 377.667743 62.577559 
L 378.318353 60.574427 
L 378.968963 58.96806 
L 379.619574 63.526142 
L 380.270184 58.99678 
L 380.920794 57.143601 
L 381.571405 60.473473 
L 382.222015 57.790894 
L 382.872625 59.600661 
L 384.173846 61.776727 
L 384.824456 65.628462 
L 385.475066 58.84333 
L 386.125677 60.852839 
L 386.776287 61.661188 
L 387.426897 64.669616 
L 388.077508 58.698229 
L 388.728118 61.797183 
L 389.378728 59.342515 
L 390.029339 62.118491 
L 390.679949 61.491121 
L 391.330559 61.357855 
L 391.98117 53.568 
L 392.63178 59.391028 
L 393.28239 58.666267 
L 393.933001 59.240619 
L 394.583611 63.533809 
L 395.234221 59.3281 
L 395.884831 66.413743 
L 396.535442 62.487221 
L 397.186052 55.073623 
L 397.836662 65.887248 
L 398.487273 60.287237 
L 398.487273 60.287237 
" style="fill:none;stroke:#008000;stroke-dasharray:9.6,2.4,1.6,2.4;stroke-dashoffset:0;stroke-width:1.5;"/>
   </g>
   <g id="line2d_24">
    <path clip-path="url(#p9f03af4c1b)" d="M 73.832727 99.860213 
L 74.483338 86.635248 
L 75.133948 86.635248 
L 75.784558 81.021905 
L 76.435169 72.698584 
L 78.386999 72.698584 
L 79.03761 59.337066 
L 86.194323 59.337066 
L 86.844934 58.588596 
L 131.086435 58.588596 
L 131.737045 57.970826 
L 398.487273 57.967358 
L 398.487273 57.967358 
" style="fill:none;stroke:#ff0000;stroke-linecap:square;stroke-width:1.5;"/>
   </g>
   <g id="patch_3">
    <path d="M 57.6 307.584 
L 57.6 41.472 
" style="fill:none;stroke:#000000;stroke-linecap:square;stroke-linejoin:miter;stroke-width:0.8;"/>
   </g>
   <g id="patch_4">
    <path d="M 414.72 307.584 
L 414.72 41.472 
" style="fill:none;stroke:#000000;stroke-linecap:square;stroke-linejoin:miter;stroke-width:0.8;"/>
   </g>
   <g id="patch_5">
    <path d="M 57.6 307.584 
L 414.72 307.584 
" style="fill:none;stroke:#000000;stroke-linecap:square;stroke-linejoin:miter;stroke-width:0.8;"/>
   </g>
   <g id="patch_6">
    <path d="M 57.6 41.472 
L 414.72 41.472 
" style="fill:none;stroke:#000000;stroke-linecap:square;stroke-linejoin:miter;stroke-width:0.8;"/>
   </g>
   <g id="text_13">
    <!-- Population's average and best fitness -->
    <defs>
     <path d="M 19.671875 64.796875 
L 19.671875 37.40625 
L 32.078125 37.40625 
Q 38.96875 37.40625 42.71875 40.96875 
Q 46.484375 44.53125 46.484375 51.125 
Q 46.484375 57.671875 42.71875 61.234375 
Q 38.96875 64.796875 32.078125 64.796875 
z
M 9.8125 72.90625 
L 32.078125 72.90625 
Q 44.34375 72.90625 50.609375 67.359375 
Q 56.890625 61.8125 56.890625 51.125 
Q 56.890625 40.328125 50.609375 34.8125 
Q 44.34375 29.296875 32.078125 29.296875 
L 19.671875 29.296875 
L 19.671875 0 
L 9.8125 0 
z
" id="DejaVuSans-50"/>
     <path d="M 18.109375 8.203125 
L 18.109375 -20.796875 
L 9.078125 -20.796875 
L 9.078125 54.6875 
L 18.109375 54.6875 
L 18.109375 46.390625 
Q 20.953125 51.265625 25.265625 53.625 
Q 29.59375 56 35.59375 56 
Q 45.5625 56 51.78125 48.09375 
Q 58.015625 40.1875 58.015625 27.296875 
Q 58.015625 14.40625 51.78125 6.484375 
Q 45.5625 -1.421875 35.59375 -1.421875 
Q 29.59375 -1.421875 25.265625 0.953125 
Q 20.953125 3.328125 18.109375 8.203125 
M 48.6875 27.296875 
Q 48.6875 37.203125 44.609375 42.84375 
Q 40.53125 48.484375 33.40625 48.484375 
Q 26.265625 48.484375 22.1875 42.84375 
Q 18.109375 37.203125 18.109375 27.296875 
Q 18.109375 17.390625 22.1875 11.75 
Q 26.265625 6.109375 33.40625 6.109375 
Q 40.53125 6.109375 44.609375 11.75 
Q 48.6875 17.390625 48.6875 27.296875 
" id="DejaVuSans-70"/>
     <path d="M 8.5 21.578125 
L 8.5 54.6875 
L 17.484375 54.6875 
L 17.484375 21.921875 
Q 17.484375 14.15625 20.5 10.265625 
Q 23.53125 6.390625 29.59375 6.390625 
Q 36.859375 6.390625 41.078125 11.03125 
Q 45.3125 15.671875 45.3125 23.6875 
L 45.3125 54.6875 
L 54.296875 54.6875 
L 54.296875 0 
L 45.3125 0 
L 45.3125 8.40625 
Q 42.046875 3.421875 37.71875 1 
Q 33.40625 -1.421875 27.6875 -1.421875 
Q 18.265625 -1.421875 13.375 4.4375 
Q 8.5 10.296875 8.5 21.578125 
M 31.109375 56 
z
" id="DejaVuSans-75"/>
     <path d="M 9.421875 75.984375 
L 18.40625 75.984375 
L 18.40625 0 
L 9.421875 0 
z
" id="DejaVuSans-6c"/>
     <path d="M 17.921875 72.90625 
L 17.921875 45.796875 
L 9.625 45.796875 
L 9.625 72.90625 
z
" id="DejaVuSans-27"/>
     <path id="DejaVuSans-20"/>
     <path d="M 2.984375 54.6875 
L 12.5 54.6875 
L 29.59375 8.796875 
L 46.6875 54.6875 
L 56.203125 54.6875 
L 35.6875 0 
L 23.484375 0 
z
" id="DejaVuSans-76"/>
     <path d="M 45.40625 27.984375 
Q 45.40625 37.75 41.375 43.109375 
Q 37.359375 48.484375 30.078125 48.484375 
Q 22.859375 48.484375 18.828125 43.109375 
Q 14.796875 37.75 14.796875 27.984375 
Q 14.796875 18.265625 18.828125 12.890625 
Q 22.859375 7.515625 30.078125 7.515625 
Q 37.359375 7.515625 41.375 12.890625 
Q 45.40625 18.265625 45.40625 27.984375 
M 54.390625 6.78125 
Q 54.390625 -7.171875 48.1875 -13.984375 
Q 42 -20.796875 29.203125 -20.796875 
Q 24.46875 -20.796875 20.265625 -20.09375 
Q 16.0625 -19.390625 12.109375 -17.921875 
L 12.109375 -9.1875 
Q 16.0625 -11.328125 19.921875 -12.34375 
Q 23.78125 -13.375 27.78125 -13.375 
Q 36.625 -13.375 41.015625 -8.765625 
Q 45.40625 -4.15625 45.40625 5.171875 
L 45.40625 9.625 
Q 42.625 4.78125 38.28125 2.390625 
Q 33.9375 0 27.875 0 
Q 17.828125 0 11.671875 7.65625 
Q 5.515625 15.328125 5.515625 27.984375 
Q 5.515625 40.671875 11.671875 48.328125 
Q 17.828125 56 27.875 56 
Q 33.9375 56 38.28125 53.609375 
Q 42.625 51.21875 45.40625 46.390625 
L 45.40625 54.6875 
L 54.390625 54.6875 
z
" id="DejaVuSans-67"/>
     <path d="M 45.40625 46.390625 
L 45.40625 75.984375 
L 54.390625 75.984375 
L 54.390625 0 
L 45.40625 0 
L 45.40625 8.203125 
Q 42.578125 3.328125 38.25 0.953125 
Q 33.9375 -1.421875 27.875 -1.421875 
Q 17.96875 -1.421875 11.734375 6.484375 
Q 5.515625 14.40625 5.515625 27.296875 
Q 5.515625 40.1875 11.734375 48.09375 
Q 17.96875 56 27.875 56 
Q 33.9375 56 38.25 53.625 
Q 42.578125 51.265625 45.40625 46.390625 
M 14.796875 27.296875 
Q 14.796875 17.390625 18.875 11.75 
Q 22.953125 6.109375 30.078125 6.109375 
Q 37.203125 6.109375 41.296875 11.75 
Q 45.40625 17.390625 45.40625 27.296875 
Q 45.40625 37.203125 41.296875 42.84375 
Q 37.203125 48.484375 30.078125 48.484375 
Q 22.953125 48.484375 18.875 42.84375 
Q 14.796875 37.203125 14.796875 27.296875 
" id="DejaVuSans-64"/>
     <path d="M 48.6875 27.296875 
Q 48.6875 37.203125 44.609375 42.84375 
Q 40.53125 48.484375 33.40625 48.484375 
Q 26.265625 48.484375 22.1875 42.84375 
Q 18.109375 37.203125 18.109375 27.296875 
Q 18.109375 17.390625 22.1875 11.75 
Q 26.265625 6.109375 33.40625 6.109375 
Q 40.53125 6.109375 44.609375 11.75 
Q 48.6875 17.390625 48.6875 27.296875 
M 18.109375 46.390625 
Q 20.953125 51.265625 25.265625 53.625 
Q 29.59375 56 35.59375 56 
Q 45.5625 56 51.78125 48.09375 
Q 58.015625 40.1875 58.015625 27.296875 
Q 58.015625 14.40625 51.78125 6.484375 
Q 45.5625 -1.421875 35.59375 -1.421875 
Q 29.59375 -1.421875 25.265625 0.953125 
Q 20.953125 3.328125 18.109375 8.203125 
L 18.109375 0 
L 9.078125 0 
L 9.078125 75.984375 
L 18.109375 75.984375 
z
" id="DejaVuSans-62"/>
     <path d="M 37.109375 75.984375 
L 37.109375 68.5 
L 28.515625 68.5 
Q 23.6875 68.5 21.796875 66.546875 
Q 19.921875 64.59375 19.921875 59.515625 
L 19.921875 54.6875 
L 34.71875 54.6875 
L 34.71875 47.703125 
L 19.921875 47.703125 
L 19.921875 0 
L 10.890625 0 
L 10.890625 47.703125 
L 2.296875 47.703125 
L 2.296875 54.6875 
L 10.890625 54.6875 
L 10.890625 58.5 
Q 10.890625 67.625 15.140625 71.796875 
Q 19.390625 75.984375 28.609375 75.984375 
z
" id="DejaVuSans-66"/>
    </defs>
    <g transform="translate(123.315 35.472)scale(0.12 -0.12)">
     <use xlink:href="#DejaVuSans-50"/>
     <use x="60.255859" xlink:href="#DejaVuSans-6f"/>
     <use x="121.4375" xlink:href="#DejaVuSans-70"/>
     <use x="184.914062" xlink:href="#DejaVuSans-75"/>
     <use x="248.292969" xlink:href="#DejaVuSans-6c"/>
     <use x="276.076172" xlink:href="#DejaVuSans-61"/>
     <use x="337.355469" xlink:href="#DejaVuSans-74"/>
     <use x="376.564453" xlink:href="#DejaVuSans-69"/>
     <use x="404.347656" xlink:href="#DejaVuSans-6f"/>
     <use x="465.529297" xlink:href="#DejaVuSans-6e"/>
     <use x="528.908203" xlink:href="#DejaVuSans-27"/>
     <use x="556.398438" xlink:href="#DejaVuSans-73"/>
     <use x="608.498047" xlink:href="#DejaVuSans-20"/>
     <use x="640.285156" xlink:href="#DejaVuSans-61"/>
     <use x="701.564453" xlink:href="#DejaVuSans-76"/>
     <use x="760.744141" xlink:href="#DejaVuSans-65"/>
     <use x="822.267578" xlink:href="#DejaVuSans-72"/>
     <use x="863.380859" xlink:href="#DejaVuSans-61"/>
     <use x="924.660156" xlink:href="#DejaVuSans-67"/>
     <use x="988.136719" xlink:href="#DejaVuSans-65"/>
     <use x="1049.660156" xlink:href="#DejaVuSans-20"/>
     <use x="1081.447266" xlink:href="#DejaVuSans-61"/>
     <use x="1142.726562" xlink:href="#DejaVuSans-6e"/>
     <use x="1206.105469" xlink:href="#DejaVuSans-64"/>
     <use x="1269.582031" xlink:href="#DejaVuSans-20"/>
     <use x="1301.369141" xlink:href="#DejaVuSans-62"/>
     <use x="1364.845703" xlink:href="#DejaVuSans-65"/>
     <use x="1426.369141" xlink:href="#DejaVuSans-73"/>
     <use x="1478.46875" xlink:href="#DejaVuSans-74"/>
     <use x="1517.677734" xlink:href="#DejaVuSans-20"/>
     <use x="1549.464844" xlink:href="#DejaVuSans-66"/>
     <use x="1584.669922" xlink:href="#DejaVuSans-69"/>
     <use x="1612.453125" xlink:href="#DejaVuSans-74"/>
     <use x="1651.662109" xlink:href="#DejaVuSans-6e"/>
     <use x="1715.041016" xlink:href="#DejaVuSans-65"/>
     <use x="1776.564453" xlink:href="#DejaVuSans-73"/>
     <use x="1828.664062" xlink:href="#DejaVuSans-73"/>
    </g>
   </g>
   <g id="legend_1">
    <g id="patch_7">
     <path d="M 334.779375 302.584 
L 407.72 302.584 
Q 409.72 302.584 409.72 300.584 
L 409.72 242.8715 
Q 409.72 240.8715 407.72 240.8715 
L 334.779375 240.8715 
Q 332.779375 240.8715 332.779375 242.8715 
L 332.779375 300.584 
Q 332.779375 302.584 334.779375 302.584 
z
" style="fill:#ffffff;opacity:0.8;stroke:#cccccc;stroke-linejoin:miter;"/>
    </g>
    <g id="line2d_25">
     <path d="M 336.779375 248.969937 
L 356.779375 248.969937 
" style="fill:none;stroke:#0000ff;stroke-linecap:square;stroke-width:1.5;"/>
    </g>
    <g id="line2d_26"/>
    <g id="text_14">
     <!-- average -->
     <g transform="translate(364.779375 252.469937)scale(0.1 -0.1)">
      <use xlink:href="#DejaVuSans-61"/>
      <use x="61.279297" xlink:href="#DejaVuSans-76"/>
      <use x="120.458984" xlink:href="#DejaVuSans-65"/>
      <use x="181.982422" xlink:href="#DejaVuSans-72"/>
      <use x="223.095703" xlink:href="#DejaVuSans-61"/>
      <use x="284.375" xlink:href="#DejaVuSans-67"/>
      <use x="347.851562" xlink:href="#DejaVuSans-65"/>
     </g>
    </g>
    <g id="line2d_27">
     <path d="M 336.779375 263.648062 
L 356.779375 263.648062 
" style="fill:none;stroke:#008000;stroke-dasharray:9.6,2.4,1.6,2.4;stroke-dashoffset:0;stroke-width:1.5;"/>
    </g>
    <g id="line2d_28"/>
    <g id="text_15">
     <!-- -1 sd -->
     <defs>
      <path d="M 4.890625 31.390625 
L 31.203125 31.390625 
L 31.203125 23.390625 
L 4.890625 23.390625 
z
" id="DejaVuSans-2d"/>
     </defs>
     <g transform="translate(364.779375 267.148062)scale(0.1 -0.1)">
      <use xlink:href="#DejaVuSans-2d"/>
      <use x="36.083984" xlink:href="#DejaVuSans-31"/>
      <use x="99.707031" xlink:href="#DejaVuSans-20"/>
      <use x="131.494141" xlink:href="#DejaVuSans-73"/>
      <use x="183.59375" xlink:href="#DejaVuSans-64"/>
     </g>
    </g>
    <g id="line2d_29">
     <path d="M 336.779375 278.326187 
L 356.779375 278.326187 
" style="fill:none;stroke:#008000;stroke-dasharray:9.6,2.4,1.6,2.4;stroke-dashoffset:0;stroke-width:1.5;"/>
    </g>
    <g id="line2d_30"/>
    <g id="text_16">
     <!-- +1 sd -->
     <defs>
      <path d="M 46 62.703125 
L 46 35.5 
L 73.1875 35.5 
L 73.1875 27.203125 
L 46 27.203125 
L 46 0 
L 37.796875 0 
L 37.796875 27.203125 
L 10.59375 27.203125 
L 10.59375 35.5 
L 37.796875 35.5 
L 37.796875 62.703125 
z
" id="DejaVuSans-2b"/>
     </defs>
     <g transform="translate(364.779375 281.826187)scale(0.1 -0.1)">
      <use xlink:href="#DejaVuSans-2b"/>
      <use x="83.789062" xlink:href="#DejaVuSans-31"/>
      <use x="147.412109" xlink:href="#DejaVuSans-20"/>
      <use x="179.199219" xlink:href="#DejaVuSans-73"/>
      <use x="231.298828" xlink:href="#DejaVuSans-64"/>
     </g>
    </g>
    <g id="line2d_31">
     <path d="M 336.779375 293.004312 
L 356.779375 293.004312 
" style="fill:none;stroke:#ff0000;stroke-linecap:square;stroke-width:1.5;"/>
    </g>
    <g id="line2d_32"/>
    <g id="text_17">
     <!-- best -->
     <g transform="translate(364.779375 296.504312)scale(0.1 -0.1)">
      <use xlink:href="#DejaVuSans-62"/>
      <use x="63.476562" xlink:href="#DejaVuSans-65"/>
      <use x="125" xlink:href="#DejaVuSans-73"/>
      <use x="177.099609" xlink:href="#DejaVuSans-74"/>
     </g>
    </g>
   </g>
  </g>
 </g>
 <defs>
  <clipPath id="p9f03af4c1b">
   <rect height="266.112" width="357.12" x="57.6" y="41.472"/>
  </clipPath>
 </defs>
</svg>
