<?xml version="1.0" encoding="UTF-8" standalone="no"?>
<!DOCTYPE svg PUBLIC "-//W3C//DTD SVG 1.1//EN"
 "http://www.w3.org/Graphics/SVG/1.1/DTD/svg11.dtd">
<!-- Generated by graphviz version 2.38.0 (20140413.2041)
 -->
<!-- Title: %3 Pages: 1 -->
<svg width="557pt" height="531pt"
 viewBox="0.00 0.00 557.23 530.88" xmlns="http://www.w3.org/2000/svg" xmlns:xlink="http://www.w3.org/1999/xlink">
<g id="graph0" class="graph" transform="scale(1 1) rotate(0) translate(4 526.884)">
<title>%3</title>
<polygon fill="white" stroke="none" points="-4,4 -4,-526.884 553.234,-526.884 553.234,4 -4,4"/>
<!-- &#45;1 -->
<g id="node1" class="node"><title>&#45;1</title>
<polygon fill="lightgray" stroke="black" points="241.385,-517.035 217.385,-517.035 217.385,-499.035 241.385,-499.035 241.385,-517.035"/>
<text text-anchor="middle" x="229.385" y="-505.835" font-family="Times,serif" font-size="9.00">&#45;1</text>
</g>
<!-- &#45;2 -->
<g id="node2" class="node"><title>&#45;2</title>
<polygon fill="lightgray" stroke="black" points="81.3848,-447.801 57.3848,-447.801 57.3848,-429.801 81.3848,-429.801 81.3848,-447.801"/>
<text text-anchor="middle" x="69.3848" y="-436.601" font-family="Times,serif" font-size="9.00">&#45;2</text>
</g>
<!-- Breast Cancer -->
<g id="node10" class="node"><title>Breast Cancer</title>
<ellipse fill="lightblue" stroke="black" cx="289.385" cy="-264.978" rx="46.8387" ry="46.8387"/>
<text text-anchor="middle" x="289.385" y="-262.778" font-family="Times,serif" font-size="9.00">Breast Cancer</text>
</g>
<!-- &#45;2&#45;&gt;Breast Cancer -->
<g id="edge31" class="edge"><title>&#45;2&#45;&gt;Breast Cancer</title>
<path fill="none" stroke="green" stroke-width="0.31275" d="M81.5745,-436.749C110.254,-433.686 182.923,-422.415 227.385,-384.416 247.466,-367.254 261.947,-341.94 271.837,-319.116"/>
<polygon fill="green" stroke="green" stroke-width="0.31275" points="275.081,-320.43 275.667,-309.852 268.612,-317.756 275.081,-320.43"/>
</g>
<!-- 1 -->
<g id="node11" class="node"><title>1</title>
<ellipse fill="white" stroke="black" cx="69.3848" cy="-366.032" rx="14.7" ry="14.7"/>
<text text-anchor="middle" x="69.3848" y="-363.832" font-family="Times,serif" font-size="9.00">1</text>
</g>
<!-- &#45;2&#45;&gt;1 -->
<g id="edge10" class="edge"><title>&#45;2&#45;&gt;1</title>
<path fill="none" stroke="green" stroke-width="0.375238" stroke-dasharray="1,5" d="M69.3848,-429.683C69.3848,-420.344 69.3848,-404.574 69.3848,-391.194"/>
<polygon fill="green" stroke="green" stroke-width="0.375238" points="72.8849,-391.143 69.3848,-381.143 65.8849,-391.143 72.8849,-391.143"/>
</g>
<!-- 19 -->
<g id="node28" class="node"><title>19</title>
<ellipse fill="white" stroke="black" cx="18.3848" cy="-366.032" rx="18.2703" ry="18.2703"/>
<text text-anchor="middle" x="18.3848" y="-363.832" font-family="Times,serif" font-size="9.00">19</text>
</g>
<!-- &#45;2&#45;&gt;19 -->
<g id="edge20" class="edge"><title>&#45;2&#45;&gt;19</title>
<path fill="none" stroke="red" stroke-width="0.132718" d="M63.5344,-429.683C56.5805,-420.033 44.6798,-403.519 34.8419,-389.868"/>
<polygon fill="red" stroke="red" stroke-width="0.132718" points="37.4337,-387.478 28.7476,-381.411 31.7547,-391.571 37.4337,-387.478"/>
</g>
<!-- &#45;3 -->
<g id="node3" class="node"><title>&#45;3</title>
<polygon fill="lightgray" stroke="black" points="485.385,-100.154 461.385,-100.154 461.385,-82.1543 485.385,-82.1543 485.385,-100.154"/>
<text text-anchor="middle" x="473.385" y="-88.9543" font-family="Times,serif" font-size="9.00">&#45;3</text>
</g>
<!-- 10 -->
<g id="node19" class="node"><title>10</title>
<ellipse fill="white" stroke="black" cx="473.385" cy="-18.3848" rx="18.2703" ry="18.2703"/>
<text text-anchor="middle" x="473.385" y="-16.1848" font-family="Times,serif" font-size="9.00">10</text>
</g>
<!-- &#45;3&#45;&gt;10 -->
<g id="edge16" class="edge"><title>&#45;3&#45;&gt;10</title>
<path fill="none" stroke="red" stroke-width="0.170869" d="M473.385,-82.0362C473.385,-73.4701 473.385,-59.4947 473.385,-46.9144"/>
<polygon fill="red" stroke="red" stroke-width="0.170869" points="476.885,-46.8244 473.385,-36.8245 469.885,-46.8245 476.885,-46.8244"/>
</g>
<!-- 18 -->
<g id="node27" class="node"><title>18</title>
<ellipse fill="white" stroke="black" cx="377.385" cy="-18.3848" rx="18.2703" ry="18.2703"/>
<text text-anchor="middle" x="377.385" y="-16.1848" font-family="Times,serif" font-size="9.00">18</text>
</g>
<!-- &#45;3&#45;&gt;18 -->
<g id="edge9" class="edge"><title>&#45;3&#45;&gt;18</title>
<path fill="none" stroke="green" stroke-width="0.246276" stroke-dasharray="1,5" d="M463.676,-81.8673C460.164,-78.9363 456.138,-75.6529 452.385,-72.7696 435.486,-59.7881 415.846,-45.848 400.904,-35.4691"/>
<polygon fill="green" stroke="green" stroke-width="0.246276" points="402.491,-32.3114 392.274,-29.5073 398.512,-38.0708 402.491,-32.3114"/>
</g>
<!-- &#45;4 -->
<g id="node4" class="node"><title>&#45;4</title>
<polygon fill="lightgray" stroke="black" points="218.385,-375.032 194.385,-375.032 194.385,-357.032 218.385,-357.032 218.385,-375.032"/>
<text text-anchor="middle" x="206.385" y="-363.832" font-family="Times,serif" font-size="9.00">&#45;4</text>
</g>
<!-- &#45;4&#45;&gt;Breast Cancer -->
<g id="edge1" class="edge"><title>&#45;4&#45;&gt;Breast Cancer</title>
<path fill="none" stroke="green" stroke-width="0.742853" d="M213.177,-356.926C222.053,-346.333 238.259,-326.993 253.451,-308.862"/>
<polygon fill="green" stroke="green" stroke-width="0.742853" points="256.136,-311.107 259.876,-301.195 250.77,-306.612 256.136,-311.107"/>
</g>
<!-- &#45;4&#45;&gt;18 -->
<g id="edge5" class="edge"><title>&#45;4&#45;&gt;18</title>
<path fill="none" stroke="red" stroke-width="0.108569" d="M206.714,-356.762C208.273,-326.281 216.903,-218.213 262.385,-145.539 289.198,-102.695 331.323,-60.9479 356.46,-37.8501"/>
<polygon fill="red" stroke="red" stroke-width="0.108569" points="358.926,-40.3385 363.983,-31.0284 354.224,-35.1528 358.926,-40.3385"/>
</g>
<!-- &#45;5 -->
<g id="node5" class="node"><title>&#45;5</title>
<polygon fill="lightgray" stroke="black" points="440.385,-172.924 416.385,-172.924 416.385,-154.924 440.385,-154.924 440.385,-172.924"/>
<text text-anchor="middle" x="428.385" y="-161.724" font-family="Times,serif" font-size="9.00">&#45;5</text>
</g>
<!-- 9 -->
<g id="node18" class="node"><title>9</title>
<ellipse fill="white" stroke="black" cx="428.385" cy="-91.1543" rx="14.7" ry="14.7"/>
<text text-anchor="middle" x="428.385" y="-88.9543" font-family="Times,serif" font-size="9.00">9</text>
</g>
<!-- &#45;5&#45;&gt;9 -->
<g id="edge25" class="edge"><title>&#45;5&#45;&gt;9</title>
<path fill="none" stroke="red" stroke-width="0.156685" d="M428.385,-154.806C428.385,-145.466 428.385,-129.697 428.385,-116.316"/>
<polygon fill="red" stroke="red" stroke-width="0.156685" points="431.885,-116.266 428.385,-106.266 424.885,-116.266 431.885,-116.266"/>
</g>
<!-- &#45;6 -->
<g id="node6" class="node"><title>&#45;6</title>
<polygon fill="lightgray" stroke="black" points="283.385,-517.035 259.385,-517.035 259.385,-499.035 283.385,-499.035 283.385,-517.035"/>
<text text-anchor="middle" x="271.385" y="-505.835" font-family="Times,serif" font-size="9.00">&#45;6</text>
</g>
<!-- 6 -->
<g id="node16" class="node"><title>6</title>
<ellipse fill="white" stroke="black" cx="249.385" cy="-438.801" rx="14.7" ry="14.7"/>
<text text-anchor="middle" x="249.385" y="-436.601" font-family="Times,serif" font-size="9.00">6</text>
</g>
<!-- &#45;6&#45;&gt;6 -->
<g id="edge17" class="edge"><title>&#45;6&#45;&gt;6</title>
<path fill="none" stroke="green" stroke-width="0.301016" d="M268.687,-498.791C265.783,-489.915 261.032,-475.397 256.971,-462.986"/>
<polygon fill="green" stroke="green" stroke-width="0.301016" points="260.214,-461.641 253.777,-453.225 253.561,-463.818 260.214,-461.641"/>
</g>
<!-- 16 -->
<g id="node25" class="node"><title>16</title>
<ellipse fill="white" stroke="black" cx="292.385" cy="-366.032" rx="18.2703" ry="18.2703"/>
<text text-anchor="middle" x="292.385" y="-363.832" font-family="Times,serif" font-size="9.00">16</text>
</g>
<!-- &#45;6&#45;&gt;16 -->
<g id="edge3" class="edge"><title>&#45;6&#45;&gt;16</title>
<path fill="none" stroke="red" stroke-width="0.884872" d="M272.636,-498.697C275.65,-478.599 283.426,-426.761 288.272,-394.448"/>
<polygon fill="red" stroke="red" stroke-width="0.884872" points="291.77,-394.721 289.793,-384.313 284.848,-393.683 291.77,-394.721"/>
</g>
<!-- &#45;7 -->
<g id="node7" class="node"><title>&#45;7</title>
<polygon fill="lightgray" stroke="black" points="453.385,-517.035 429.385,-517.035 429.385,-499.035 453.385,-499.035 453.385,-517.035"/>
<text text-anchor="middle" x="441.385" y="-505.835" font-family="Times,serif" font-size="9.00">&#45;7</text>
</g>
<!-- &#45;8 -->
<g id="node8" class="node"><title>&#45;8</title>
<polygon fill="lightgray" stroke="black" points="346.385,-447.801 322.385,-447.801 322.385,-429.801 346.385,-429.801 346.385,-447.801"/>
<text text-anchor="middle" x="334.385" y="-436.601" font-family="Times,serif" font-size="9.00">&#45;8</text>
</g>
<!-- 7 -->
<g id="node17" class="node"><title>7</title>
<ellipse fill="white" stroke="black" cx="437.385" cy="-264.978" rx="14.7" ry="14.7"/>
<text text-anchor="middle" x="437.385" y="-262.778" font-family="Times,serif" font-size="9.00">7</text>
</g>
<!-- &#45;8&#45;&gt;7 -->
<g id="edge4" class="edge"><title>&#45;8&#45;&gt;7</title>
<path fill="none" stroke="red" stroke-width="0.118721" d="M339.353,-429.514C354.764,-403.805 402.088,-324.86 424.872,-286.852"/>
<polygon fill="red" stroke="red" stroke-width="0.118721" points="427.961,-288.505 430.101,-278.128 421.957,-284.906 427.961,-288.505"/>
</g>
<!-- &#45;8&#45;&gt;16 -->
<g id="edge6" class="edge"><title>&#45;8&#45;&gt;16</title>
<path fill="none" stroke="green" stroke-width="1.30564" d="M329.567,-429.683C324,-420.302 314.583,-404.434 306.619,-391.016"/>
<polygon fill="green" stroke="green" stroke-width="1.30564" points="309.516,-389.04 301.403,-382.227 303.497,-392.613 309.516,-389.04"/>
</g>
<!-- &#45;9 -->
<g id="node9" class="node"><title>&#45;9</title>
<polygon fill="lightgray" stroke="black" points="411.385,-517.035 387.385,-517.035 387.385,-499.035 411.385,-499.035 411.385,-517.035"/>
<text text-anchor="middle" x="399.385" y="-505.835" font-family="Times,serif" font-size="9.00">&#45;9</text>
</g>
<!-- &#45;9&#45;&gt;Breast Cancer -->
<g id="edge15" class="edge"><title>&#45;9&#45;&gt;Breast Cancer</title>
<path fill="none" stroke="red" stroke-width="0.17891" stroke-dasharray="1,5" d="M395.725,-499.015C382.986,-471.098 339.882,-376.64 312.621,-316.898"/>
<polygon fill="red" stroke="red" stroke-width="0.17891" points="315.724,-315.267 308.388,-307.623 309.356,-318.173 315.724,-315.267"/>
</g>
<!-- &#45;9&#45;&gt;6 -->
<g id="edge13" class="edge"><title>&#45;9&#45;&gt;6</title>
<path fill="none" stroke="green" stroke-width="0.170583" d="M387.363,-501.647C362.396,-490.456 304.568,-464.536 272.263,-450.056"/>
<polygon fill="green" stroke="green" stroke-width="0.170583" points="273.302,-446.686 262.745,-445.789 270.438,-453.073 273.302,-446.686"/>
</g>
<!-- &#45;9&#45;&gt;7 -->
<g id="edge21" class="edge"><title>&#45;9&#45;&gt;7</title>
<path fill="none" stroke="red" stroke-width="0.771975" stroke-dasharray="1,5" d="M410.518,-498.905C440.564,-476.692 521.947,-414.625 535.385,-384.416 555.611,-338.946 494.377,-296.878 459.622,-277.38"/>
<polygon fill="red" stroke="red" stroke-width="0.771975" points="461.071,-274.184 450.611,-272.495 457.735,-280.338 461.071,-274.184"/>
</g>
<!-- 12 -->
<g id="node21" class="node"><title>12</title>
<ellipse fill="white" stroke="black" cx="422.385" cy="-438.801" rx="18.2703" ry="18.2703"/>
<text text-anchor="middle" x="422.385" y="-436.601" font-family="Times,serif" font-size="9.00">12</text>
</g>
<!-- &#45;9&#45;&gt;12 -->
<g id="edge26" class="edge"><title>&#45;9&#45;&gt;12</title>
<path fill="none" stroke="green" stroke-width="0.27833" d="M402.205,-498.791C404.988,-490.655 409.393,-477.778 413.379,-466.128"/>
<polygon fill="green" stroke="green" stroke-width="0.27833" points="416.796,-466.951 416.722,-456.356 410.173,-464.685 416.796,-466.951"/>
</g>
<!-- 14 -->
<g id="node23" class="node"><title>14</title>
<ellipse fill="white" stroke="black" cx="289.385" cy="-163.924" rx="18.2703" ry="18.2703"/>
<text text-anchor="middle" x="289.385" y="-161.724" font-family="Times,serif" font-size="9.00">14</text>
</g>
<!-- Breast Cancer&#45;&gt;14 -->
<g id="edge8" class="edge"><title>Breast Cancer&#45;&gt;14</title>
<path fill="none" stroke="green" stroke-width="0.284474" d="M289.385,-218.22C289.385,-209.438 289.385,-200.497 289.385,-192.51"/>
<polygon fill="green" stroke="green" stroke-width="0.284474" points="292.885,-192.314 289.385,-182.314 285.885,-192.314 292.885,-192.314"/>
</g>
<!-- 4 -->
<g id="node14" class="node"><title>4</title>
<ellipse fill="white" stroke="black" cx="112.385" cy="-264.978" rx="14.7" ry="14.7"/>
<text text-anchor="middle" x="112.385" y="-262.778" font-family="Times,serif" font-size="9.00">4</text>
</g>
<!-- 1&#45;&gt;4 -->
<g id="edge28" class="edge"><title>1&#45;&gt;4</title>
<path fill="none" stroke="red" stroke-width="0.604593" d="M75.0063,-352.082C82.0239,-335.916 94.141,-308.004 102.673,-288.35"/>
<polygon fill="red" stroke="red" stroke-width="0.604593" points="105.99,-289.497 106.762,-278.93 99.5692,-286.71 105.99,-289.497"/>
</g>
<!-- 2 -->
<g id="node12" class="node"><title>2</title>
<ellipse fill="white" stroke="black" cx="486.385" cy="-508.035" rx="14.7" ry="14.7"/>
<text text-anchor="middle" x="486.385" y="-505.835" font-family="Times,serif" font-size="9.00">2</text>
</g>
<!-- 3 -->
<g id="node13" class="node"><title>3</title>
<ellipse fill="white" stroke="black" cx="511.385" cy="-366.032" rx="14.7" ry="14.7"/>
<text text-anchor="middle" x="511.385" y="-363.832" font-family="Times,serif" font-size="9.00">3</text>
</g>
<!-- 3&#45;&gt;7 -->
<g id="edge14" class="edge"><title>3&#45;&gt;7</title>
<path fill="none" stroke="red" stroke-width="0.129122" d="M502.896,-353.669C490.528,-337.113 467.375,-306.122 452.17,-285.769"/>
<polygon fill="red" stroke="red" stroke-width="0.129122" points="454.791,-283.43 446.002,-277.513 449.184,-287.619 454.791,-283.43"/>
</g>
<!-- 5 -->
<g id="node15" class="node"><title>5</title>
<ellipse fill="white" stroke="black" cx="534.385" cy="-508.035" rx="14.7" ry="14.7"/>
<text text-anchor="middle" x="534.385" y="-505.835" font-family="Times,serif" font-size="9.00">5</text>
</g>
<!-- 6&#45;&gt;4 -->
<g id="edge12" class="edge"><title>6&#45;&gt;4</title>
<path fill="none" stroke="red" stroke-width="0.10143" d="M234.67,-435.684C209.208,-431.189 157.188,-418.183 131.385,-384.416 110.585,-357.196 108.671,-316.054 109.96,-290.121"/>
<polygon fill="red" stroke="red" stroke-width="0.10143" points="113.46,-290.242 110.663,-280.023 106.477,-289.756 113.46,-290.242"/>
</g>
<!-- 11 -->
<g id="node20" class="node"><title>11</title>
<ellipse fill="white" stroke="black" cx="158.385" cy="-366.032" rx="18.2703" ry="18.2703"/>
<text text-anchor="middle" x="158.385" y="-363.832" font-family="Times,serif" font-size="9.00">11</text>
</g>
<!-- 6&#45;&gt;11 -->
<g id="edge18" class="edge"><title>6&#45;&gt;11</title>
<path fill="none" stroke="green" stroke-width="0.529023" d="M237.86,-428.838C223.557,-417.715 198.847,-398.499 180.768,-384.439"/>
<polygon fill="green" stroke="green" stroke-width="0.529023" points="182.543,-381.385 172.501,-378.009 178.246,-386.911 182.543,-381.385"/>
</g>
<!-- 6&#45;&gt;16 -->
<g id="edge11" class="edge"><title>6&#45;&gt;16</title>
<path fill="none" stroke="green" stroke-width="0.410079" stroke-dasharray="1,5" d="M256.679,-425.796C262.465,-416.274 270.734,-402.664 277.858,-390.939"/>
<polygon fill="green" stroke="green" stroke-width="0.410079" points="281.055,-392.418 283.257,-382.055 275.073,-388.783 281.055,-392.418"/>
</g>
<!-- 13 -->
<g id="node22" class="node"><title>13</title>
<ellipse fill="white" stroke="black" cx="379.385" cy="-163.924" rx="18.2703" ry="18.2703"/>
<text text-anchor="middle" x="379.385" y="-161.724" font-family="Times,serif" font-size="9.00">13</text>
</g>
<!-- 7&#45;&gt;13 -->
<g id="edge24" class="edge"><title>7&#45;&gt;13</title>
<path fill="none" stroke="green" stroke-width="0.863107" d="M430.273,-251.832C421.133,-236.223 405.058,-208.77 393.417,-188.889"/>
<polygon fill="green" stroke="green" stroke-width="0.863107" points="396.338,-186.95 388.265,-180.089 390.297,-190.487 396.338,-186.95"/>
</g>
<!-- 9&#45;&gt;18 -->
<g id="edge23" class="edge"><title>9&#45;&gt;18</title>
<path fill="none" stroke="green" stroke-width="0.329365" d="M419.963,-78.4682C412.86,-68.6117 402.485,-54.2151 393.755,-42.1008"/>
<polygon fill="green" stroke="green" stroke-width="0.329365" points="396.445,-39.8473 387.759,-33.7807 390.766,-43.9398 396.445,-39.8473"/>
</g>
<!-- 11&#45;&gt;4 -->
<g id="edge19" class="edge"><title>11&#45;&gt;4</title>
<path fill="none" stroke="red" stroke-width="0.372101" stroke-dasharray="1,5" d="M150.994,-349.117C143.287,-332.521 131.153,-306.392 122.547,-287.86"/>
<polygon fill="red" stroke="red" stroke-width="0.372101" points="125.681,-286.299 118.295,-278.704 119.332,-289.248 125.681,-286.299"/>
</g>
<!-- 12&#45;&gt;7 -->
<g id="edge27" class="edge"><title>12&#45;&gt;7</title>
<path fill="none" stroke="red" stroke-width="0.693824" stroke-dasharray="1,5" d="M423.906,-420.38C426.594,-389.586 432.191,-325.477 435.259,-290.327"/>
<polygon fill="red" stroke="red" stroke-width="0.693824" points="438.777,-290.278 436.16,-280.011 431.803,-289.669 438.777,-290.278"/>
</g>
<!-- 15 -->
<g id="node24" class="node"><title>15</title>
<ellipse fill="white" stroke="black" cx="460.385" cy="-366.032" rx="18.2703" ry="18.2703"/>
<text text-anchor="middle" x="460.385" y="-363.832" font-family="Times,serif" font-size="9.00">15</text>
</g>
<!-- 12&#45;&gt;15 -->
<g id="edge29" class="edge"><title>12&#45;&gt;15</title>
<path fill="none" stroke="green" stroke-width="0.226738" d="M430.818,-422.095C435.64,-413.116 441.792,-401.658 447.235,-391.522"/>
<polygon fill="green" stroke="green" stroke-width="0.226738" points="450.328,-393.16 451.975,-382.694 444.161,-389.848 450.328,-393.16"/>
</g>
<!-- 13&#45;&gt;9 -->
<g id="edge22" class="edge"><title>13&#45;&gt;9</title>
<path fill="none" stroke="green" stroke-width="0.229476" d="M389.538,-148.26C396.704,-137.91 406.4,-123.907 414.311,-112.48"/>
<polygon fill="green" stroke="green" stroke-width="0.229476" points="417.377,-114.201 420.192,-103.987 411.622,-110.216 417.377,-114.201"/>
</g>
<!-- 17 -->
<g id="node26" class="node"><title>17</title>
<ellipse fill="white" stroke="black" cx="377.385" cy="-91.1543" rx="18.2703" ry="18.2703"/>
<text text-anchor="middle" x="377.385" y="-88.9543" font-family="Times,serif" font-size="9.00">17</text>
</g>
<!-- 13&#45;&gt;17 -->
<g id="edge32" class="edge"><title>13&#45;&gt;17</title>
<path fill="none" stroke="green" stroke-width="0.408719" d="M378.89,-145.43C378.673,-137.748 378.413,-128.539 378.17,-119.955"/>
<polygon fill="green" stroke="green" stroke-width="0.408719" points="381.669,-119.835 377.887,-109.938 374.671,-120.033 381.669,-119.835"/>
</g>
<!-- 13&#45;&gt;18 -->
<g id="edge7" class="edge"><title>13&#45;&gt;18</title>
<path fill="none" stroke="red" stroke-width="0.744001" stroke-dasharray="1,5" d="M368.865,-148.345C362.116,-138.057 353.969,-123.646 350.385,-109.539 346.36,-93.7003 346.594,-88.6657 350.385,-72.7696 352.853,-62.4221 357.668,-51.8091 362.557,-42.7995"/>
<polygon fill="red" stroke="red" stroke-width="0.744001" points="365.627,-44.4818 367.583,-34.0691 359.56,-40.9891 365.627,-44.4818"/>
</g>
<!-- 15&#45;&gt;7 -->
<g id="edge30" class="edge"><title>15&#45;&gt;7</title>
<path fill="none" stroke="green" stroke-width="0.103101" d="M456.378,-347.778C452.63,-331.636 447.002,-307.394 442.844,-289.488"/>
<polygon fill="green" stroke="green" stroke-width="0.103101" points="446.204,-288.486 440.533,-279.537 439.386,-290.069 446.204,-288.486"/>
</g>
<!-- 16&#45;&gt;Breast Cancer -->
<g id="edge2" class="edge"><title>16&#45;&gt;Breast Cancer</title>
<path fill="none" stroke="red" stroke-width="2.18975" d="M291.848,-347.323C291.628,-340.049 291.36,-331.186 291.082,-322.021"/>
<polygon fill="red" stroke="red" stroke-width="2.18975" points="294.58,-321.907 290.779,-312.018 287.584,-322.119 294.58,-321.907"/>
</g>
<!-- 17&#45;&gt;18 -->
<g id="edge33" class="edge"><title>17&#45;&gt;18</title>
<path fill="none" stroke="red" stroke-width="0.527465" d="M377.385,-72.6607C377.385,-64.9784 377.385,-55.7693 377.385,-47.185"/>
<polygon fill="red" stroke="red" stroke-width="0.527465" points="380.885,-47.1687 377.385,-37.1687 373.885,-47.1687 380.885,-47.1687"/>
</g>
</g>
</svg>
